<?xml version="1.0" encoding="UTF-8" standalone="no"?>
<!-- Created with Inkscape (http://www.inkscape.org/) -->

<svg
   width="330.72916mm"
   height="529.16669mm"
   viewBox="0 0 330.72916 529.16669"
   version="1.1"
   id="svg1"
   xmlns="http://www.w3.org/2000/svg"
   xmlns:svg="http://www.w3.org/2000/svg">
  <defs
     id="defs1" />
  <g
     id="layer1"
     transform="translate(3.2106201e-6,264.58334)">
    <rect
       style="fill:#0157b9;fill-opacity:1;stroke-width:0.118421"
       id="rect3"
       width="97.895836"
       height="529.16669"
       x="-3.21062e-06"
       y="-264.58334" />
    <rect
       style="fill:#1f9bde;fill-opacity:1;stroke-width:0.118422"
       id="rect3-2"
       width="97.895836"
       height="529.16669"
       x="232.83333"
       y="-264.58334" />
    <rect
       style="fill:#1f9bde;fill-opacity:1;stroke-width:0.258635"
       id="rect4-6"
       width="129.64583"
       height="175.94792"
       x="100.54166"
       y="88.635406" />
    <rect
       style="fill:#1f9bde;fill-opacity:1;stroke-width:0.258636"
       id="rect4"
       width="129.64583"
       height="175.94792"
       x="100.54166"
       y="-264.58334" />
    <rect
       style="fill:#ffffff;stroke-width:0.0733776"
       id="rect2"
       width="100.84637"
       height="282.00775"
       x="97.591125"
       y="0"
       transform="matrix(1,0,-0.34605833,0.938213,0,-6.6666668e-6)" />
    <rect
       style="fill:#ffffff;stroke-width:0.0733776"
       id="rect2-8"
       width="100.84637"
       height="282.00775"
       x="132.29166"
       y="-282.00775"
       transform="matrix(1,0,-0.34605832,-0.938213,0,0)" />
    <rect
       style="fill:#ffffff;stroke-width:0.0733776"
       id="rect2-9"
       width="100.84637"
       height="282.00775"
       x="97.591125"
       y="-6.3500415e-06"
       transform="matrix(1,0,-0.34605832,-0.938213,0,0)" />
    <rect
       style="fill:#ffffff;stroke-width:0.0733776"
       id="rect2-8-0"
       width="100.84637"
       height="282.00775"
       x="132.29166"
       y="-282.00775"
       transform="matrix(1,0,-0.34605832,0.938213,0,0)" />
  </g>
</svg>
