<?xml version="1.0" encoding="UTF-8" standalone="no"?>
<!-- Created with Inkscape (http://www.inkscape.org/) -->

<svg
   width="300mm"
   height="300mm"
   viewBox="0 0 300 300"
   version="1.1"
   id="svg3206"
   sodipodi:docname="staff.svg"
   inkscape:version="1.1.2 (b8e25be833, 2022-02-05)"
   xmlns:inkscape="http://www.inkscape.org/namespaces/inkscape"
   xmlns:sodipodi="http://sodipodi.sourceforge.net/DTD/sodipodi-0.dtd"
   xmlns="http://www.w3.org/2000/svg"
   xmlns:svg="http://www.w3.org/2000/svg">
  <sodipodi:namedview
     id="namedview3208"
     pagecolor="#ffffff"
     bordercolor="#666666"
     borderopacity="1.0"
     inkscape:pageshadow="2"
     inkscape:pageopacity="0.0"
     inkscape:pagecheckerboard="0"
     inkscape:document-units="mm"
     showgrid="false"
     inkscape:snap-global="true"
     inkscape:snap-bbox="false"
     inkscape:bbox-nodes="false"
     inkscape:snap-nodes="false"
     inkscape:snap-others="false"
     inkscape:object-nodes="false"
     inkscape:zoom="0.7349537"
     inkscape:cx="440.8441"
     inkscape:cy="299.33858"
     inkscape:window-width="1920"
     inkscape:window-height="1011"
     inkscape:window-x="-8"
     inkscape:window-y="-8"
     inkscape:window-maximized="1"
     inkscape:current-layer="layer2" />
  <defs
     id="defs3203" />
  <path
     id="rect63165"
     style="fill:#0056b8;stroke-width:0.591117"
     d="M 100,150 H 200 L 100,300 H 0 Z"
     sodipodi:nodetypes="ccccc"
     sodipodi:insensitive="true" />
  <g
     inkscape:label="Layer 1"
     inkscape:groupmode="layer"
     id="layer1">
    <path
       style="fill:#0056b8;fill-opacity:1;stroke-width:0.74125"
       d="m 0,0 h 100 l 100,150 -50,75 z"
       id="path62881"
       inkscape:transform-center-x="37.142858"
       inkscape:transform-center-y="-0.57692307"
       sodipodi:nodetypes="ccccc"
       sodipodi:insensitive="true" />
    <path
       id="rect67259"
       style="fill:#1f9bde;stroke-width:0.264583"
       d="M 200,0 H 300 L 200,150 150,75 Z"
       sodipodi:nodetypes="ccccc"
       sodipodi:insensitive="true" />
    <path
       id="rect67833"
       style="fill:#1f9bde;stroke-width:0.264583"
       d="m 150,225 50,-75 100.00001,150 H 200 Z"
       sodipodi:nodetypes="ccccc"
       sodipodi:insensitive="true" />
  </g>
  <g
     inkscape:groupmode="layer"
     id="layer2"
     inkscape:label="Layer 2">
    <path
       id="rect13096"
       style="fill:#00ff00;stroke-width:0.786835"
       d="m 0,0 100,150 v 0 L 0,300 Z"
       sodipodi:nodetypes="ccccc" />
    <path
       id="rect13096-0"
       style="fill:#75d383;stroke-width:0.734754;fill-opacity:1"
       d="M 300,0 200,150 v 0 l 100,150 z"
       sodipodi:nodetypes="ccccc" />
    <path
       style="fill:#ffffff;fill-opacity:0;stroke-width:1.36063"
       d="M 0,595.61522 V 58.507087 H 19.048427 38.096853 L 207.60902,312.77636 377.12121,567.04562 188.5606,849.88449 0,1132.7234 Z"
       id="path22233"
       transform="scale(0.26458333)" />
    <path
       style="fill:#75d383;fill-opacity:1;stroke-width:1.36063"
       d="M 944.61599,848.86199 756.73757,567.0405 926.24805,312.7738 1095.7585,58.507087 h 18.8231 18.8231 V 594.59528 c 0,294.8485 -0.2048,536.08822 -0.4551,536.08822 -0.2504,0 -85.0005,-126.8197 -188.33361,-281.82151 z"
       id="path22272"
       transform="scale(0.26458333)" />
    <path
       style="fill:#75d383;fill-opacity:1;stroke-width:1.36063"
       d="M 0,567.72231 C 0,256.97174 0.20511346,2.7212599 0.45580762,2.7212599 0.70650192,2.7212599 85.558503,129.69465 189.01581,284.88434 L 377.12,567.04742 188.56,849.88539 0,1132.7234 Z"
       id="path29778"
       transform="scale(0.26458333)" />
    <path
       id="rect29839"
       style="fill:#75d383;stroke-width:0.264583"
       d="m 100,0 h 100 l -50,75 v 0 z"
       sodipodi:nodetypes="ccccc" />
    <path
       id="rect29839-8"
       style="fill:#75d383;stroke-width:0.264583"
       d="M 200,300 H 100 l 50,-75 v 0 z"
       sodipodi:nodetypes="ccccc" />
  </g>
</svg>
