<?xml version="1.0" encoding="utf-8"?>

<!DOCTYPE svg PUBLIC "-//W3C//DTD SVG 1.1//EN" "http://www.w3.org/Graphics/SVG/1.1/DTD/svg11.dtd">
<svg version="1.1" id="Layer_1" xmlns="http://www.w3.org/2000/svg" xmlns:xlink="http://www.w3.org/1999/xlink" x="0px" y="0px"
	 viewBox="-931.4778 -553.1809 2603.4778 1585.8213" enable-background="new -931.4778 -553.1809 2603.4778 1585.8213"
	 xml:space="preserve">
<path d="M1640.5404,856.3925c-4.2227-6.298-8.5863-12.8138-9.4409-19.4969c4.538-4.2941,6.415-7.861,5.5681-10.5909
	c-0.7545-2.4501-3.7147-4.1099-8.7947-4.9255c-4.6525-12.5956-4.9219-27.2569-5.2092-42.7733
	c-0.3701-20.1724-0.7545-41.0309-11.2987-58.0274c0.1544-18.412-3.8441-36.3462-7.7133-53.6876
	c-4.0049-17.9598-8.1503-36.5341-7.663-55.6249c1.1783-14.0073-3.2765-27.6191-7.584-40.7821
	c-5.5793-17.0397-10.8461-33.1345-5.1554-50.2172c4.4441-11.1514,4.9291-22.2525,1.4838-33.9392
	c-3.0752-10.4293-8.9491-20.4095-14.629-30.0591c-4.5806-7.7816-9.3156-15.8253-12.6423-24.1422
	c-2.8345-10.5694-8.1372-15.9726-16.6875-17.0037c-10.0988-16.6229-15.1212-35.1534-19.9747-53.0768
	c-3.9554-14.6039-8.0438-29.7035-14.8446-43.4631l-0.4706-1.3472c-3.2604-9.3084-6.6437-18.9226-16.517-22.9102
	c-0.3988-4.3333,2.2076-7.3965,4.7368-10.3572c4.0758-4.7642,7.9181-9.2682-2.042-18.1102c0.1047-2.5427,0.472-5.1574,0.8313-7.6881
	c0.8011-5.6736,1.6176-11.5365-0.423-17.1384l0.0242,0.0054l-0.1033-0.2668l0.0099-0.1069l-0.0548-0.0135
	c-5.5254-14.0969-8.1484-29.4309-10.687-44.2634c-4.2357-24.7619-8.6187-50.368-26.7683-69.8578l-0.0306-0.0326l-0.8568-1.3685
	c-1.0912-1.7045-2.4388-3.818-3.2261-5.0858c-1.3284-14.3335-2.5975-29.6164-2.3518-45.0732l0.0273,0.0083l-0.0283-0.2558
	l0.0032-0.1125l-0.0148-0.0045c-2.2791-19.799-3.2993-40.3883-4.2855-60.3006c-2.6514-53.499-5.3925-108.8212-32.5201-156.9672
	c-5.0726-7.8408-8.8737-16.6983-12.5453-25.2666c-7.2318-16.8582-14.708-34.2894-32.1644-44.1313
	c-13.3751-8.5737-26.5168-17.8516-39.2274-26.8222c-22.8021-16.0966-46.3802-32.741-71.9523-45.7642
	c-13.4579-7.6504-26.5887-16.4343-39.2886-24.9272c-24.2355-16.2079-49.2974-32.9673-77.6213-42.5398
	c-67.6156-41.1596-147.4595-53.7974-224.6735-66.0187c-39.761-16.1192-84.115-28.9261-135.5873-39.1506
	c-45.9312-9.1234-93.2815-15.414-139.069-21.498c-36.5941-4.8626-74.4348-9.8904-111.5569-16.3535
	c-0.9988,0.0233-2.019,0.0341-3.0322,0.0341c-22.0082,0-44.0523-5.405-65.3707-10.6323
	c-21.1352-5.1823-42.9889-10.5406-64.618-10.5406c-8.9509,0-17.2372,0.8846-25.3304,2.6998
	c-23.2656-11.2141-50.3725-13.6772-76.5912-16.0571c-19.5688-1.7766-39.8058-3.6141-58.4621-9.0533l-0.0485-0.0143l-0.0467,0.0143
	c-6.3086,1.7819-13.2423,2.6495-21.198,2.6495c-7.5103,0-15.1841-0.7598-22.6046-1.4927
	c-7.3989-0.7329-15.0493-1.4891-22.5147-1.4891c-7.6917,0-14.3991,0.8155-20.5047,2.4923l-0.2425-0.0224l0.0072,0.0204
	c-16.3575-0.1935-33.0702-0.9473-49.2382-1.6766c-18.8934-0.8533-38.4299-1.7352-57.5981-1.7352
	c-37.3934,0-67.3358,3.5189-94.2084,11.0706c-27.1887,3.8494-54.2283,11.1028-80.3769,18.1174
	c-38.0634,10.2101-77.4238,20.7669-117.9248,20.9897c-22.1124,5.035-42.238,15.9852-55.4156,23.7685
	c-9.4629,2.8687-18.4479,7.2265-27.1366,11.4406c-11.4478,5.5505-23.2835,11.2915-36.1917,13.571l-0.0844,0.0161l-0.0395,0.0773
	c-1.4424,2.8381-2.2867,6.2224-3.1004,9.4934c-1.7245,6.9157-3.5064,14.0668-11.0921,16.472
	c-9.7646,4.453-18.2952,11.9903-24.6703,21.7962c-5.9803,9.1995-9.8374,19.9561-11.1667,31.1156
	c-3.6339,0.3507-6.808,2.0219-8.941,4.7402c-2.0478,2.6132-2.8858,5.9309-2.3783,9.3495c-0.8928,0.8258-2.6702,2.4939-3.6222,3.4071
	c-14.823,11.7929-26.0494,27.2073-34.3227,47.1192c-7.3756,17.7545-11.7801,37.3773-16.0373,56.3533
	c-6.4235,28.6167-13.0626,58.2071-30.034,82.1211c-5.8326,0.6107-11.7927,0.9197-17.7186,0.9197h-0.0018
	c-19.1125,0-65.0473-3.7039-78.7764-38.0149l-0.0934-0.2335l-0.185,0.1725c-3.5189,3.2908-7.1816,4.8895-11.1981,4.8895
	c-4.9955,0-9.8779-2.398-15.0475-4.938c-5.4996-2.6998-11.1934-5.5047-17.2979-5.4008
	c-1.9749-5.2508-10.0056-17.3044-14.9294-17.3044c-2.1897,0-3.4525,2.2975-3.7525,6.8672c0.388,2.4771,0.0629,4.2824-0.9915,5.5146
	c-1.6418,1.9202-4.85,2.1843-8.0707,2.1843c-0.8371,0-1.7011-0.0197-2.5364-0.0395c-0.8389-0.018-1.6741-0.0377-2.4861-0.0377
	c-1.8378,0-3.1376,0.1071-4.2197,0.3357c-1.0607-1.0564-2.1003-2.1973-3.1055-3.3032c-3.3196-3.6573-6.7541-7.4384-11.7352-8.9671
	l-0.2551-0.0772l0.0341,0.2641c0.8029,6.4433,2.0244,12.9333,3.2064,19.2095c2.2579,11.9939,4.5913,24.3901,4.0901,36.9318
	c-5.1517-4.0902-9.8885-9.303-14.0847-15.4984l-0.0119-0.0108l0.0029-0.0036c-2.1663-2.5938-3.4291-6.8223-4.6506-10.9107
	c-2.1501-7.196-4.374-14.638-11.5591-14.638c-0.397,0-0.8119,0.0234-1.2304,0.0701l-0.2354,0.0251l0.0952,0.2155
	c3.4471,7.839,4.356,12.8255,2.7789,15.2415c-0.8407,1.2879-2.3891,1.8879-4.8734,1.8879c0,0,0,0-0.0018,0
	c-1.7155,0-3.6914-0.2874-5.6027-0.564c-1.6598-0.2407-3.3752-0.4904-4.9021-0.5479l-0.176-0.0072l-0.0036,0.176
	c-0.1163,5.1987,1.0233,12.4346,7.0529,17.4669l-0.015,0.108l0.0341,0.0002c1.2329,10.1151-4.0673,20.1658-13.2477,25.0814
	c-9.4628-7.2373-18.9131-13.8297-30.3824-15.123l-0.1958-0.0233l0.0035,0.1976c0.0539,3.2944,2.6531,7.5193,5.1661,11.6059
	c2.7466,4.4674,5.3422,8.6869,4.0938,10.9215c-0.6539,1.1694-2.3245,1.737-5.1069,1.737c-0.6161,0-1.2952-0.0287-1.9993-0.0826
	c-2.7771-0.5353-4.7369-0.106-5.8757,1.2736c-2.1861,2.6352-1.0904,8.4318-0.0323,14.038c0.866,4.5936,1.7597,9.3373,0.8251,12.2094
	c-0.7546,0.6539-1.5208,1.3041-2.2891,1.9544c-5.4468,4.6131-11.0706,9.3845-13.0689,16.6622
	c-1.5983,0.8638-2.9863,1.3097-4.118,1.3097c-4.7027,0-4.8733-7.6899-5.0386-15.1284c-0.1671-7.5947-0.3413-15.4499-5.3727-15.4499
	c-1.7873,0-4.038,0.9772-6.878,2.989l-0.0449,0.0305l-0.0179,0.0521c-1.6158,4.5556-3.1725,9.285-4.6329,14.0856l-0.0034-0.0009
	c-5.7639,15.1401-9.2053,30.3405-10.233,45.1799c-2.8004,4.2687-5.6956,8.5827-8.4969,12.7577
	c-16.2277,24.1817-33.0069,49.1879-40.2334,78.2932c-7.4186,6.6193-4.8931,14.6434-2.4501,22.4052
	c2.3208,7.372,4.7206,14.9954-0.9915,21.7693c-9.6084,12.9046-10.7939,28.703-11.9382,43.9822
	c-0.9736,12.9836-1.9813,26.4091-8.0887,38.1892l-0.0233,0.0431l0.0036,0.0503c0.3215,4.0147,0.4293,8.3258,0.5443,12.8884
	c0.5128,20.4847,1.1018,43.6937,21.3773,52.6828c-0.2473,6.0072-0.4193,12.1223-0.587,18.039
	c-0.2798,9.8843-0.5692,20.1016-1.2104,30.1443c-4.3798,6.9799-5.772,12.0605-4.1335,15.1008
	c1.1817,2.1926,3.9536,3.3541,8.2191,3.4695c5.9783,17.7211,5.9644,36.7827,5.9464,55.2153
	c-0.0215,23.6284-0.0449,48.0616,12.7662,69.398c14.6847,21.9183,15.5775,47.7634,16.4397,72.7606
	c0.6606,19.1357,1.3445,38.9236,8.2165,56.8055l-0.0092,0.1442l0.0453,0.0009c1.0272,5.9381,5.0411,11.0063,11.331,14.2853
	c3.4516,3.0674,7.0496,6.0771,10.5294,8.9866l1.5626,1.3093c1.6663,6.9934,7.0453,11.7134,13.7331,12.0554
	c3.3425,2.0828,7.2222,4.5049,11.0867,6.9496c9.9627,15.0049,29.4871,16.5358,48.3721,18.0186
	c12.5417,0.9844,24.3883,1.9149,33.6769,6.4738c10.4666,5.1365,15.7856,14.0286,16.7393,27.9579l-0.0319,0.0139l0.0317,0.0878
	l-0.152,0.3433l0.238-0.106c7.8305,21.2367,15.5114,44.4259,23.4785,70.8907l1.6456,2.198l-0.0865,0.0079l0.2165,0.1951
	l-0.0333,0.1354l0.1466-0.0132l0.1606,0.2144l0.0189-0.079c8.7502,7.8788,24.7435,16.9786,41.4144,16.9786
	c6.7278,0,12.742-1.5529,17.8929-4.5942c1.9169,3.757,3.3045,6.5079,4.0075,7.9389l0.0063,0.0049l-0.0027,0.0023
	c1.349,2.4537,2.6926,5.0583,3.9896,7.5768c6.3782,12.3809,12.9813,25.1712,25.5738,31.4326l-0.0126,0.0204l0.1313,0.0568
	l0.1166,0.1982l0.0685-0.1107l0.3716,0.1825l-0.0429-0.0732c3.1135,1.2794,6.2249,1.9485,9.2579,1.9485
	c9.8873,0,18.0361-6.8702,20.8163-17.5056l0.0836,0.0132l-0.0229-0.1691c1.6575-3.1031,3.3834-6.2266,5.0543-9.2507
	c3.2055-5.7953,6.5192-11.7906,9.462-17.8403l0.08-0.04l-0.0189-0.064c2.6149-3.8029,5.0305-7.8996,7.3675-11.8633
	c6.5241-11.076,13.271-22.5327,25.1553-28.9203l0.0503-0.0395c4.4342-5.1965,6.9579-11.9375,7.9441-21.1994
	c7.7869-9.8648,9.4552-21.9999,11.0661-33.7384c0.9385-6.8329,1.9103-13.9004,4.0641-20.46
	c11.6436-3.6819,16.0553-14.4088,20.3152-24.7886c0.9449-2.3028,1.922-4.6811,2.9621-6.9337
	c3.3968-11.6795,11.8465-20.2119,20.0197-28.4641c5.5146-5.5701,11.2152-11.3275,15.3664-18.0312
	c4.0551-2.8307,8.412-5.7989,13.1264-8.1931c7.9253-0.5526,17.3037-1.1189,26.7845-1.1189c16.8376,0,30.6043,1.7847,43.3185,5.6076
	c0.9727,10.1699,9.3138,10.4596,18.1488,10.7531c4.7781,0.1617,9.718,0.3269,13.5369,2.1448
	c7.751,3.4525,15.8523,6.3193,23.6841,9.0892c3.3209,1.1779,6.7532,2.3922,10.1167,3.6366v0.0027l0.071,0.0236
	c7.6369,14.8071,24.2949,16.1738,40.4049,17.4903c12.8624,1.0535,25.008,2.0521,32.8115,9.3688l-0.0094,0.0762l0.0867,0.011
	c1.7968,3.9417,4.6196,5.9527,8.4062,5.9527c4.1189,0,9.285-2.3343,15.3502-6.9218l0.0135,0.0635l0.1846-0.1962l0.1226-0.0193
	l-0.0153-0.0734l0.4374-0.3326l-0.1105,0.0153c1.6926-1.6732,3.4112-2.5552,5.1167-2.5552c2.6926,0,5.3943,1.9867,8.4983,6.2511
	l0.013,0.0177c0.6938,1.0253,2.0518,2.9376,2.6599,3.7916l-0.1563-0.0012l0.362,0.2913l0.0404,0.0573h0.0287
	c1.6095,1.3005,3.3402,2.868,5.1751,4.5338c6.5313,5.9278,13.932,12.6459,21.516,12.6459c3.474,0,6.7235-1.4802,9.6569-4.3937
	c1.2035-1.2323,2.4394-1.8538,3.6752-1.8538c2.9639,0,5.5254,3.4525,7.5839,6.2296c0.2353,0.3191,0.4625,0.6224,0.6835,0.9135
	l-0.0045,0.0206l0.0269,0.0249c0.7014,8.2378,11.2735,18.7068,18.9221,18.7068c2.645,0,6.0288-1.2913,7.1501-7.4268
	c2.6693-4.3801,4.8697-6.5125,6.7262-6.5125c3.016,0,4.9308,5.7733,6.957,11.8878c2.0011,6.0295,4.074,12.2384,7.5368,14.8719
	l-0.0983,0.0588l0.3099,0.1233l0.071,0.0492l0.0296-0.0178c1.7725,0.6848,3.4817,1.0273,5.2173,1.0273
	c5.6727,0,10.4598-3.7363,15.0889-7.3505c3.9231-3.0645,7.9773-6.2296,12.5884-7.1744c2.5813,3.9806,4.5105,8.4031,6.3768,12.6818
	c1.7981,4.1207,3.6573,8.3851,6.129,12.301c6.8385,6.7433,16.4558,7.8677,25.7552,8.9563
	c8.5629,1.0059,17.4151,2.0406,24.0595,7.4618c1.7514,6.4703,2.5364,13.4075,3.2944,20.1113
	c1.4945,13.2133,3.0425,26.8732,12.0343,37.7262c0.4428,3.8445,0.7185,7.7822,1.0122,11.9485
	c1.2516,17.8152,2.5471,36.2397,17.0185,47.558c1.027,1.151,2.0635,2.2986,3.1017,3.4496
	c5.8433,6.4765,11.8825,13.1724,16.3247,20.8561c5.3098,20.0401,22.16,33.0605,38.4568,45.6534
	c5.7041,4.4067,11.5978,8.9633,16.7828,13.6877c-0.2191,8.3932-0.3161,17.098-0.4113,25.5181
	c-0.0323,2.8682-0.0642,5.736-0.1015,8.5905c-3.6317,3.6285-6.2569,8.6979-8.0142,15.5085l-0.0126,0.0503l0.0162,0.0467
	c0.2173,0.6575,0.5371,1.6203,0.864,2.6118c0.379,1.1478,0.7666,2.3215,1.0275,3.0993c-1.0715,2.2169-3.0205,6.2167-4.0345,8.2892
	l-3.6142-0.4059l-0.0503,0.1185c-1.7532,4.0057-3.3411,7.7385-4.859,11.4137c-0.6628,1.8394-1.9867,5.5541-2.6549,7.4438
	l-0.7006,2.6226l-0.1168,0.582c-0.9718,4.8653-1.9777,9.8947-2.9311,14.8787c-1.8363,2.8356-3.6334,5.7457-5.3732,8.5593
	c-0.4859,0.785-0.9727,1.5746-1.4716,2.3834c-4.6008,4.6556-11.7518,6.437-18.6666,8.1572
	c-10.6161,2.6406-20.6412,5.1338-19.9676,17.6503l0.0072,0.1293l0.1275,0.0287c15.969,3.5135,32.3907,5.22,50.2082,5.22
	c36.8797,0,73.9013-7.5588,109.705-14.8697c9.0892-1.8574,18.4892-3.7794,27.7384-5.5433l0.0629-0.0251
	c4.5195-2.9891,9.9119-4.5698,15.59-4.5698c2.4591,0,4.9524,0.2946,7.4151,0.8766l0.2551,0.0574l-0.0449-0.2551
	c-1.1335-6.4702-5.2883-11.3777-9.3048-16.1235c-4.8716-5.7553-9.9102-11.7082-9.5311-20.5208l-0.6628-3.6393
	c-1.1128-5.7847-2.253-11.9561-2.8965-18.2638c1.869-3.8598,3.4327-7.0837,5.088-10.3947l0.0018,0.0004
	c3.7112-7.2822,6.1343-15.035,7.2031-23.0536c4.6093,0.8406,9.2222,2.0406,13.686,3.201c6.9337,1.8037,14.1031,3.6707,21.4307,4.231
	c12.2956,8.143,27.7482,8.3217,44.1071,8.5084c18.5333,0.2081,37.6952,0.4297,52.4589,13.0058l0.0036,0.0353l0.0772,0.0305
	l0.2928,0.2497l-0.0144-0.1675c2.2032,0.8225,4.5473,1.2776,6.8115,1.2776c4.3062,0,8.0627-1.4811,10.8748-4.2882l2.5417-1.724
	c2.822,2.1345,6.3804,3.3177,10.0431,3.3177c3.1103,0,6.1622-0.8276,8.8405-2.3868c3.0402,0.7008,7.6531,1.7568,12.1762,2.7892
	c4.0488,0.9269,8.0222,1.8358,10.7238,2.4573l0.0575,0.0108l2.6693-1.2c1.1927-0.582,3.5423-1.6921,4.947-2.3567l0.2726-0.1285
	l6.2165,0.1455c4.1405,1.894,8.0672,2.857,11.675,2.857c2.0801,0,4.0847-0.3197,5.9673-0.9484l0.0898-0.0323l0.0215-0.0898
	c0.1689-0.6395,0.4383-1.6166,0.7006-2.5867c0.2425-0.8901,0.4778-1.7637,0.6395-2.3736l2.5274-1.2111l3.3752-0.7946l0.0108-0.1258
	c0.618-8.2629,1.0634-15.5092,1.3616-22.1842c-2.5435-20.8765-13.4866-38.0059-24.0667-54.575
	c-3.2441-5.0799-6.5996-10.3323-9.7143-15.6744c-16.8313-18.4264-38.8826-23.6859-60.2082-28.773
	c-8.324-1.9867-16.9354-4.0417-25.1391-6.8331c-7.76-4.6883-9.3946-13.1596-10.9736-21.3507
	c-0.5568-2.8876-1.1325-5.8674-1.9678-8.6202l-0.0045-0.0595l-0.0611-0.0503c-6.2637-4.8859-9.1162-12.6675-7.1007-19.3605
	c1.7047-5.6691,6.6337-9.2257,13.5135-9.761c8.3079-0.3593,13.4309-6.1685,14.1961-11.719
	c0.7742-5.608-2.6172-10.2245-9.0371-12.3298c-3.1687-1.922-4.6326-3.7363-4.3506-5.3925c0.4473-2.6192,5.2748-4.982,13.9347-6.8504
	l-0.0135,0.0209l0.4059-0.1116c0.0054-0.0011,0.0095-0.0023,0.0144-0.0034l0.0719-0.0143l0.0085-0.0131
	c12.2332-3.3932,13.6927-16.9606,14.9762-28.936c0.4131-3.8513,0.8047-7.4905,1.5197-10.6807l0.0036-0.0503
	c-0.3844-4.8356,0.8766-10.2281,2.2094-15.9367c2.5678-10.9897,5.2209-22.3491-4.6255-29.5778
	c-0.4015-0.4439-0.9538-1.0423-1.5502-1.6849c-1.0095-1.0895-2.134-2.301-2.8382-3.0986
	c10.608-16.2921,13.2989-34.6186,15.8936-52.3458c1.4837-10.1167,3.0142-20.5747,5.9852-30.6843l0.0144-0.0539l-0.0179-0.0503
	c-3.3016-9.7646-3.3232-16.7199-0.0683-21.2573c3.086-4.3003,9.2329-6.3912,18.7964-6.3912c7.7133,0,16.5798,1.3077,25.1553,2.5687
	c7.8713,1.1604,15.308,2.2561,21.2537,2.2561c0.7383,0,1.451-0.0182,2.1192-0.0532c3.7404,0.8351,7.5844,1.5563,11.2991,2.2555
	c7.3936,1.3867,15.0422,2.8202,22.3279,5.2416c3.2441,1.0203,6.5529,2.1088,9.7538,3.165c4.8922,1.6165,9.9496,3.2823,15.0498,4.778
	l-0.0004,0.0038c19.9963,5.1697,40.977,5.9924,61.2643,6.79c18.0491,0.7078,36.7126,1.4371,54.7905,5.2093
	c3.0824,0.3233,6.3373,0.485,9.682,0.485c13.7057,0,27.8713-2.7232,41.5698-5.3566c13.4686-2.5867,27.3935-5.2631,40.6429-5.2631
	c10.6458,0,19.8984,1.7164,28.2903,5.242c3.9244,8.3483,6.5066,17.8455,8.9971,27.0338
	c4.9075,18.0815,9.9802,36.7809,25.5649,48.2017c1.9903,6.5745,4.2177,13.1992,6.3732,19.6083
	c4.1319,12.2842,8.4067,24.9851,11.1837,37.8683c-0.9,4.7851-2.579,13.4466-3.589,18.6514c-0.2596,1.3353-0.485,2.495-0.6301,3.2416
	c-3.3218,5.394-5.9578,9.8041-8.2993,13.8799c-5.7207,6.5648-7.8251,15.3803-6.4366,26.9471
	c-5.639,1.9261-8.8615,7.8199-7.7267,14.137c-5.2555,0.8402-8.7066,5.4691-8.1219,10.8992l-0.0804,0.0045l0.049,0.1118
	c-4.9304,3.7534-7.3765,9.5352-6.4052,15.1475c-2.5687,3.2073-5.4688,6.8301-8.2513,10.4389
	c-6.869,3.097-10.7248,10.4313-9.8473,18.7205c-0.511,0.5088-1.2789,1.2866-2.0118,2.0334
	c-0.5577,0.5612-1.0854,1.0998-1.459,1.4734c-8.0828,4.7217-13.6002,10.8361-16.4028,18.1695
	c-0.3848,0.4565-0.9583,1.1326-1.5381,1.8084c-0.5928,0.697-1.1891,1.3903-1.5771,1.8538l0,0
	c-0.5532,0.5569-1.1065,1.1101-1.6597,1.6634c-6.217,6.2201-12.6378,12.6495-16.5749,20.8237
	c-6.0131,1.7094-11.697,6.8776-10.9407,14.6272c-2.2606,4.4207-4.8208,9.4269-7.3082,14.3982
	c-2.689,0.5806-5.0225,2.1749-6.4083,4.3989c-1.3113,2.1061-1.6859,4.6214-1.0886,7.0987
	c-6.909,1.8329-11.4092,7.5148-11.2367,14.2096l-0.123,0.1251c-3.5832,3.694-7.2916,7.5094-10.9749,11.2648
	c-9.2536,1.1238-15.0857,4.138-18.3478,9.4896l-0.0539,0.0898l1.3131,2.2296c-1.2974,0.5149-3.5162,1.4272-4.6371,1.9
	c-0.6-0.0511-1.2098-0.0772-1.8134-0.0772c-9.021,0-18.2468,5.8846-23.5063,14.9919c-3.9124,6.7756-4.5806,13.7057-1.7927,18.5377
	c2.6981,4.674,8.4139,7.1456,16.5223,7.1456l0.37-0.0072c18.412,2.8489,33.1703,4.1746,46.4449,4.1746
	c22.3773,0,39.4403-3.7956,52.1661-11.5964c4.0825,0.5375,8.2567,1.1806,12.2957,1.7994
	c7.8785,1.2143,16.0229,2.4681,24.0847,3.0501c5.7805,0.2659,10.2389,0.5245,14.4566,0.8478
	c0.9843,0.0467,1.9723,0.0683,2.9423,0.0683c6.6355,0,18.6347-1.1461,24.4619-8.8306c3.5243-4.6559,4.2069-10.9681,2.0262-18.7604
	c0.7185-6.1254,1.6454-12.2292,2.54-18.1318c0.5568-3.6833,1.1326-7.4885,1.6566-11.2612l3.5455,1.4606l0.1365,0.0575l0.0754-0.1257
	c3.7435-6.111,6.4667-12.822,9.1036-19.3138c0.485-1.1891,0.9664-2.3782,1.455-3.5638
	c38.345-41.8904,77.4731-87.7891,103.9209-139.5306c8.9742-8.6716,23.6823-26.4296,21.7055-48.1795
	c23.7964-18.0453,33.6392-45.1674,43.1568-71.3979c3.7112-10.2245,7.5481-20.7975,12.1501-30.6592l0.0647-0.1329l-0.1222-0.0826
	c-19.2603-13.0786-17.7654-39.9406-6.5798-58.5787c18.0995-16.5234,23.7471-40.9676,14.7485-63.8081l0.0009-0.0162l-0.0288-0.0467
	c-2.7555-4.462-3.7111-7.5193-2.8381-9.0857c0.8613-1.5475,3.6285-1.6564,8.2374-0.3065c4.1292,4.0513,7.7954,6.1085,10.9039,6.1085
	c2.4178,0,4.4512-1.2251,6.0427-3.6465c4.9717-7.563,4.2554-24.5928,0.3521-33.7086l0.0431-0.1192l-0.0826-0.0206
	c-0.6251-2.0853-0.533-3.6692,0.2982-4.8293c1.7927-2.5004,6.754-2.637,11.5537-2.7663c4.7566-0.1293,9.251-0.2515,10.7275-2.601
	c0.7581-1.2035,0.6431-2.8633-0.3521-5.0835c-6.3984-11.5034,1.1173-22.795,8.676-32.4877
	c2.8346-4.1351,5.6799-8.4031,8.4318-12.5273c12.1718-18.2396,24.7529-37.097,41.11-52.0602
	c3.9626,0.5999,7.2283,3.165,10.3898,5.644c3.686,2.892,7.4977,5.881,12.4843,5.881c1.7316,0,3.4812-0.3449,5.3745-1.0742
	c0.6826-0.4203,1.6095-0.9987,2.6118-1.6202c1.6992-1.0609,3.5885-2.2368,4.8562-3.0054l0.0684,3.203h-0.0027
	c-1.3904,9.5706-2.9675,20.4203,0.9735,24.9792c1.297,1.4945,3.1399,2.2526,5.4823,2.2526c1.9939,0,4.4189-0.5461,7.178-1.6203
	c3.1615-0.5892,5.2811-0.2048,6.4595,1.1927c1.9329,2.3064,1.0994,7.0163,0.2191,12.0064
	c-0.9376,5.3134-1.9113,10.8101,0.521,13.7452c1.1567,1.3975,2.9531,2.0909,5.493,2.1232h0.0251l0.0251-0.0072
	c3.5603-0.9772,6.6858-3.0214,9.9946-5.1913c3.6115-2.3633,7.3522-4.7806,11.6781-5.6718
	c-5.9304,11.5183-0.6677,18.4751,4.9196,25.8262c3.8441,5.0583,7.8175,10.2892,8.4678,17.3773
	c0.952,7.3792,7.53,8.5971,13.8925,9.7754c6.9014,1.279,13.422,2.4861,12.707,11.2304c-0.1976,2.5543,0.2047,4.3291,1.2251,5.4356
	c0.8263,0.891,2.0405,1.3221,3.7147,1.3221c2.1268,0,4.7135-0.7006,7.2139-1.3796c2.3163-0.6302,4.5038-1.219,6.3014-1.2794
	c3.3851,8.5645,9.1558,15.7607,14.7333,22.7199c7.0486,8.7911,14.3344,17.8767,16.5905,29.6245l0.0216,0.1114l0.1688,0.0395
	c5.6816,1.2511,11.5483,2.5496,17.0684,4.784c-4.1395,17.8376,6.3693,28.3536,17.4995,39.4803
	c9.0103,9.0066,18.3258,18.3221,19.2419,31.9344l0.0143,0.2192l0.2084-0.0646c2.9927-0.9413,5.662-2.813,8.2415-4.6237
	c3.6608-2.5651,7.1169-4.9865,11.4064-4.9865c0.9862,0,1.9976,0.145,3.0079,0.4097c-3.0936,5.4134-2.6378,11.8464,1.1582,16.126
	l-0.0094,0.026l0.0552,0.0468c2.267,10.2543,9.6191,14.7834,17.4083,19.576c6.6938,4.1196,13.6141,8.3815,17.3953,16.6222
	c-1.9943,6.6248-1.9166,11.2681,0.2515,14.1914c2.0299,2.7411,5.9063,4.0165,12.1932,4.0165c1.8695,0,4.0507-0.1165,6.613-0.3431
	c-3.1084,6.724-0.8989,14.3353,5.5807,19.0717l-0.004,0.0175l0.0754,0.0469c9.6371,13.2639,19.5333,27.8441,30.2577,44.5735
	c-1.4937,7.6203,1.0333,15.4582,6.9413,21.5292l-0.005,0.0222l0.0037,0.0027c-1.8574,7.9733-0.918,14.338,2.7941,18.913
	c2.2522,6.5209,4.1204,12.0226,5.895,17.6472c-1.1447,2.5574-3.5238,8.8775-1.5901,13.6974
	c0.8473,2.1077,2.4285,3.6425,4.6887,4.5886c-0.9287,27.8163-0.7185,55.13-0.3678,85.3798
	c-5.0179,3.0418-6.3472,9.0344-3.9352,17.8224c-0.0005,0.0049-0.001,0.0094-0.0013,0.0143
	c-1.2642,7.5224-2.1754,15.3469-3.0574,22.911c-0.2758,2.3682-0.5524,4.729-0.8384,7.0828
	c-1.8237,4.8248-4.144,9.4997-6.3862,14.0165l-0.1591,0.3245c-2.0499,1.4067-6.1083,4.1-8.0284,5.3554
	c-6.3302,4.7745-12.8759,9.7144-19.2096,14.7152l-0.0791,0.0647l0.0181,0.1006c0.1185,0.7292,0.2909,1.8574,0.4598,2.9531
	c0.1365,0.8961,0.2686,1.757,0.3708,2.3848c-0.5649,0.4001-1.3544,0.9559-2.1564,1.5203c-0.8372,0.5892-1.6742,1.1748-2.2454,1.5807
	l-0.0005,0.0007l-2.403,1.5549c-5.5973,4.7027-9.2114,12.9476-9.2079,20.9987c0.0037,6.2475,2.2023,11.5322,6.1901,14.8769
	l0.0468,0.0395h0.061c2.4753,0.0539,5.0439,0.1509,7.53,0.2443c4.0776,0.1509,8.2953,0.3054,12.4735,0.3054
	c10.7625,0,23.2521-0.8874,34.3029-7.4833l0.0099-0.0036c0.7401-0.4276,1.7855-1.0347,2.8812-1.667
	c1.4362-0.829,2.9402-1.6997,3.9469-2.279c1.6702,0.1848,4.9272,0.5453,6.5974,0.7306c4.0381-0.2191,8.2485-0.952,12.319-1.6597
	c5.0081-0.8694,10.1886-1.7676,15.229-1.7676c4.3865,0,8.2162,0.6826,11.7118,2.0909c2.6945,0.9305,5.608,1.4011,8.6689,1.4011
	c9.8688,0,20.0394-5.0009,25.3097-12.4483c2.8167-3.9806,5.5577-10.4688,2.6154-18.8036c-0.8478-1.7388-1.0275-3.1938-0.5568-4.4476
	c0.8801-2.3316,3.9159-3.5998,6.8511-4.8284c1.3517-0.5663,2.6234-1.0995,3.7017-1.7335c0.6732,0.1116,1.3557,0.1743,2.0321,0.1743
	c5.5038,0,10.405-3.7154,12.0063-9.0479l0.0612,0.0305l0.0156-0.2261c1.0405-2.2867,2.0142-4.6584,2.9518-6.9555
	c2.2058-5.3853,4.4835-10.9538,7.8499-15.8074C1657.1022,881.0987,1648.6812,868.5391,1640.5404,856.3925z"/>
</svg>
