<?xml version="1.0" encoding="utf-8"?>
<!DOCTYPE svg PUBLIC "-//W3C//DTD SVG 1.1//EN" "http://www.w3.org/Graphics/SVG/1.1/DTD/svg11.dtd">
<svg version="1.1" id="Layer_1" xmlns="http://www.w3.org/2000/svg" xmlns:xlink="http://www.w3.org/1999/xlink" x="0px" y="0px"
	 viewBox="147.6574 0 2264.6853 1600" enable-background="new 147.6574 0 2264.6853 1600" xml:space="preserve">
<g>
	
		<radialGradient id="SVGID_1_" cx="1000" cy="893.5" r="865.7778" gradientTransform="matrix(1.1323 0 0 -1.1323 147.6575 1811.748)" gradientUnits="userSpaceOnUse">
		<stop  offset="0" style="stop-color:#FC9C01"/>
		<stop  offset="1" style="stop-color:#FE5900"/>
	</radialGradient>
	<rect x="147.6575" y="-0.0001" fill="url(#SVGID_1_)" width="2264.6851" height="1600.0001"/>
	<g>
		
			<radialGradient id="SVGID_2_" cx="1500" cy="753.9204" r="534.5085" gradientTransform="matrix(1.1323 0 0 -1.1323 147.6575 1811.748)" gradientUnits="userSpaceOnUse">
			<stop  offset="0" style="stop-color:#FA0401"/>
			<stop  offset="1" style="stop-color:#FF4B00"/>
		</radialGradient>
		<polygon fill="url(#SVGID_2_)" points="2412.3425,316.1038 1280,1600 2412.3425,601.3213 		"/>
		
			<radialGradient id="SVGID_3_" cx="1469.2031" cy="893.5" r="599.7057" gradientTransform="matrix(1.1323 0 0 -1.1323 147.6575 1811.748)" gradientUnits="userSpaceOnUse">
			<stop  offset="0" style="stop-color:#FA0401"/>
			<stop  offset="1" style="stop-color:#FF4B00"/>
		</radialGradient>
		<polygon fill="url(#SVGID_3_)" points="2074.6282,-0.0001 1280,1600 2342.5974,-0.0001 		"/>
		
			<radialGradient id="SVGID_4_" cx="1500" cy="519.0616" r="424.4201" gradientTransform="matrix(1.1323 0 0 -1.1323 147.6575 1811.748)" gradientUnits="userSpaceOnUse">
			<stop  offset="0" style="stop-color:#FA0401"/>
			<stop  offset="1" style="stop-color:#FF4B00"/>
		</radialGradient>
		<polygon fill="url(#SVGID_4_)" points="2412.3425,847.985 1280,1600 2412.3425,1037.6309 		"/>
		
			<radialGradient id="SVGID_5_" cx="1500" cy="218.3615" r="354.2482" gradientTransform="matrix(1.1323 0 0 -1.1323 147.6575 1811.748)" gradientUnits="userSpaceOnUse">
			<stop  offset="0" style="stop-color:#FA0401"/>
			<stop  offset="1" style="stop-color:#FF4B00"/>
		</radialGradient>
		<polygon fill="url(#SVGID_5_)" points="2412.3425,1528.9762 1280,1600 2412.3425,1600 		"/>
		
			<radialGradient id="SVGID_6_" cx="1237.6133" cy="893.5" r="527.0685" gradientTransform="matrix(1.1323 0 0 -1.1323 147.6575 1811.748)" gradientUnits="userSpaceOnUse">
			<stop  offset="0" style="stop-color:#FA0401"/>
			<stop  offset="1" style="stop-color:#FF4B00"/>
		</radialGradient>
		<polygon fill="url(#SVGID_6_)" points="1602.9344,-0.0001 1280,1600 1818.1193,-0.0001 		"/>
		
			<radialGradient id="SVGID_7_" cx="1500" cy="355.1623" r="373.0138" gradientTransform="matrix(1.1323 0 0 -1.1323 147.6575 1811.748)" gradientUnits="userSpaceOnUse">
			<stop  offset="0" style="stop-color:#FA0401"/>
			<stop  offset="1" style="stop-color:#FF4B00"/>
		</radialGradient>
		<polygon fill="url(#SVGID_7_)" points="2412.3425,1219.1654 1280,1600 2412.3425,1371.4546 		"/>
		
			<radialGradient id="SVGID_8_" cx="500" cy="753.9204" r="534.5085" gradientTransform="matrix(1.1323 0 0 -1.1323 147.6575 1811.748)" gradientUnits="userSpaceOnUse">
			<stop  offset="0" style="stop-color:#FA0401"/>
			<stop  offset="1" style="stop-color:#FF4B00"/>
		</radialGradient>
		<polygon fill="url(#SVGID_8_)" points="147.6575,601.3213 1280,1600 147.6575,316.1038 		"/>
		
			<radialGradient id="SVGID_9_" cx="500" cy="519.0616" r="424.4201" gradientTransform="matrix(1.1323 0 0 -1.1323 147.6575 1811.748)" gradientUnits="userSpaceOnUse">
			<stop  offset="0" style="stop-color:#FA0401"/>
			<stop  offset="1" style="stop-color:#FF4B00"/>
		</radialGradient>
		<polygon fill="url(#SVGID_9_)" points="147.6575,1037.6309 1280,1600 147.6575,847.985 		"/>
		
			<radialGradient id="SVGID_10_" cx="500" cy="355.1623" r="373.0138" gradientTransform="matrix(1.1323 0 0 -1.1323 147.6575 1811.748)" gradientUnits="userSpaceOnUse">
			<stop  offset="0" style="stop-color:#FA0401"/>
			<stop  offset="1" style="stop-color:#FF4B00"/>
		</radialGradient>
		<polygon fill="url(#SVGID_10_)" points="147.6575,1371.4546 1280,1600 147.6575,1219.1654 		"/>
		
			<radialGradient id="SVGID_11_" cx="500" cy="218.3615" r="354.2482" gradientTransform="matrix(1.1323 0 0 -1.1323 147.6575 1811.748)" gradientUnits="userSpaceOnUse">
			<stop  offset="0" style="stop-color:#FA0401"/>
			<stop  offset="1" style="stop-color:#FF4B00"/>
		</radialGradient>
		<polygon fill="url(#SVGID_11_)" points="147.6575,1600 1280,1600 147.6575,1528.9762 		"/>
		
			<radialGradient id="SVGID_12_" cx="1000.0001" cy="893.5" r="503.4864" gradientTransform="matrix(1.1323 0 0 -1.1323 147.6575 1811.748)" gradientUnits="userSpaceOnUse">
			<stop  offset="0" style="stop-color:#FA0401"/>
			<stop  offset="1" style="stop-color:#FF4B00"/>
		</radialGradient>
		<polygon fill="url(#SVGID_12_)" points="1179.6436,-0.0001 1280,1600 1380.3567,-0.0001 		"/>
		
			<radialGradient id="SVGID_13_" cx="530.797" cy="893.5" r="599.7056" gradientTransform="matrix(1.1323 0 0 -1.1323 147.6575 1811.748)" gradientUnits="userSpaceOnUse">
			<stop  offset="0" style="stop-color:#FA0401"/>
			<stop  offset="1" style="stop-color:#FF4B00"/>
		</radialGradient>
		<polygon fill="url(#SVGID_13_)" points="217.403,-0.0001 1280,1600 485.3723,-0.0001 		"/>
		
			<radialGradient id="SVGID_14_" cx="762.3867" cy="893.5" r="527.0685" gradientTransform="matrix(1.1323 0 0 -1.1323 147.6575 1811.748)" gradientUnits="userSpaceOnUse">
			<stop  offset="0" style="stop-color:#FA0401"/>
			<stop  offset="1" style="stop-color:#FF4B00"/>
		</radialGradient>
		<polygon fill="url(#SVGID_14_)" points="741.8807,-0.0001 1280,1600 957.0653,-0.0001 		"/>
	</g>
	<path fill="#FE9B00" d="M1581.1471,1600c45.5863-61.9414,72.526-138.4531,72.526-221.2598
		c0-206.374-167.2992-373.673-373.6731-373.673s-373.673,167.299-373.673,373.673c0,82.8066,26.9396,159.3184,72.5259,221.2598
		H1581.1471z"/>
	<path stroke="#000000" stroke-width="0.0938" d="M1671.3943,879.3998c3.2611-4.5746,9.7834-4.3142,14.4487-2.2987
		c8.7303,3.85,16.668,11.9123,16.9285,21.9561c-0.0792,9.2966-5.4918,17.4041-11.3235,24.2208
		c-4.3481,5.6731-10.5647,9.6023-17.4946,11.3008c6.4543,11.4593,9.9872,24.9568,7.6433,38.092
		c-1.3362,10.1231-6.1033,19.4197-12.184,27.4933c2.0381,1.5513,4.099,3.0912,6.2279,4.5634
		c8.2999,5.8769,17.3134,10.8479,26.9723,14.1317c14.1996,5.2654,29.6108,3.2498,44.3766,2.6948
		c-0.0793,2.9328-0.1699,5.8769-0.2379,8.821c3.1479-0.2152,6.33-0.2944,9.4666-0.8153c9.7833-1.506,19.4082-4.8804,27.5385-10.61
		c4.9484-2.9894,5.4918-9.3645,9.2738-13.3956c2.2648-1.155,4.5635-2.2307,6.9413-3.182c4.3257,0.2719,9.0587,0.9965,12.1954,4.3256
		c3.4423,3.1705,3.3629,8.1642,4.9937,12.2632c1.1663,1.7665,3.0686,2.8875,4.7557,4.1671
		c8.2095,5.8542,17.5513,9.9986,27.3461,12.3878c11.901,3.2272,24.368,2.6724,36.5747,2.1968
		c17.8458-1.6644,35.2385-7.0431,51.4536-14.5732c8.3794-3.9291,16.5436-8.4246,23.8925-14.075
		c-7.1904-6.0354-13.5315-13.0898-17.9363-21.4125c-7.145,6.9073-15.2186,14.5959-25.7609,14.9695
		c-10.2251-0.9285-17.755-9.4438-22.2391-18.0382c-1.4946-4.6313-2.8647-9.8967-0.5662-14.5053
		c2.6722-5.2427,9.3645-8.8776,15.0941-6.5336c3.8274,1.6419,5.1635,5.8995,6.8619,9.3531
		c-0.9738,3.0573-1.6871,6.3071-3.5555,8.9795c-1.3022,2.0722-4.167,1.438-6.2052,2.0722
		c-0.6567-3.3178-1.1888-6.6582-1.4495-10.0099c1.4495-0.7021,2.9103-1.4041,4.3822-2.1288
		c-1.506-2.8195-5.4579-3.1252-7.6659-0.9625c-2.8083,2.5478-1.891,6.6808-1.5513,10.0099c1.6646,3.601,4.3595,8.1868,8.9001,7.9264
		c8.5378-2.0495,13.0785-11.063,13.9618-19.1705c1.1323-11.029-0.702-22.16,0.7926-33.155
		c1.1437-8.1981,6.9866-14.879,13.8824-19.0347c12.7616-7.8471,28.0255-10.2817,42.7914-10.5308
		c5.22,0.0791,10.361-0.7927,15.4791-1.7665c13.1351-1.3135,26.8478-0.8606,39.213,4.2575
		c9.6135,3.499,16.5095,12.3085,18.0496,22.3751c0.7246,5.0503,1.2795,10.1345,2.072,15.196
		c1.3362,8.1302,3.4197,16.9285,9.6362,22.7939c3.1707,2.6044,7.2925,5.3107,11.584,4.2463
		c4.2463-1.5174,5.6619-6.4431,5.6277-10.5195c-0.0566-2.8535-0.1021-6.5223-2.8647-8.1302
		c-2.0723-0.702-4.3254-0.3624-6.4319-0.4642c-0.1357,0.8832-0.249,1.7776-0.3281,2.6837c1.5398,1.1323,3.9631,1.7551,4.2803,3.9744
		c0.3962,2.7289-0.2493,5.4806-0.4756,8.2095c-2.3328-0.5773-5.1975-0.2378-6.8281-2.2986
		c-2.7063-2.8988-3.3403-6.9639-4.3369-10.6328c0.804-1.5513,1.6758-3.0687,2.6951-4.4841
		c4.4387-7.3376,16.634-4.3823,19.5781,2.9214c3.1479,7.9377,0.3171,17.0192-4.3481,23.7565
		c-3.8162,5.3786-9.4324,10.6893-16.4983,10.3949c-7.5073,0.3171-14.1882-3.6235-20.6652-6.8393
		c-3.601,7.0544-7.7567,13.8372-12.8069,19.9632c10.0212,11.3574,23.7679,18.6837,37.6278,24.3001
		c22.9524,9.2059,48.2266,12.4784,72.7415,9.2626c8.323-1.7325,17.1438-3.6349,24.0737-8.8097
		c1.7778-4.0878,2.3555-9.1154,6.2959-11.8556c6.4202-5.3107,17.2908-3.2498,21.1069,4.2576
		c3.1477,5.7749,1.7776,13.8599-3.5896,17.8796c-4.3936,3.601-10.678,2.0723-15.366,5.0277
		c-14.8901,8.7303-32.385,11.9009-49.4607,12.1726c-26.259,0.1812-52.2236-6.5902-75.8442-17.8571
		c10.2024,16.6001,21.3445,32.8492,35.1819,46.6526c8.0735,7.53,17.7551,15.1394,29.3389,15.1959
		c8.0396-0.0226,14.4148-5.4579,19.8162-10.7799c1.1208,6.0693,1.2681,12.4218-0.6567,18.3666
		c-1.3362,4.2463-3.6689,8.7305-7.9832,10.5421c-3.3176,1.0532-6.511-0.7134-9.4663-1.9589
		c0.249,4.3256-0.1587,9.0927-3.4197,12.3198c-6.8169,7.0093-17.1211,9.3759-26.5989,9.3079
		c-5.1746,0.1472-10.1003-1.6759-14.5732-4.1104c-1.3586,6.2845-5.1294,11.5952-10.0325,15.6489
		c9.3079,24.0624,12.1953,50.2648,10.2251,75.8898c-0.4871,5.0955-1.2117,10.1683-2.1174,15.2073
		c-1.8457,10.1345-4.8918,20.0537-9.2627,29.3844c-2.0835,4.0197-2.0835,8.5718-2.2759,12.9879
		c-3.1479,2.1174-6.5225,4.8802-5.3447,9.1493c6.8054-1.5627,13.8259-3.8501,20.8689-2.3779
		c3.4312,1.0984,5.8091,4.1331,7.5869,7.1338c2.2646,12.3538,0.1018,24.8209-0.7361,37.1862
		c11.312,0.7246,22.647,0.1924,33.9817,0.351c98.8875-0.0114,197.7864,0.0112,296.6736-0.0114V1600H147.6575v-267.7877
		c91.5612,0.0341,183.1224,0.0906,274.6837-0.0339c-1.5966-7.9943,1.8004-15.5017,4.7559-22.6923
		c3.2951-7.0317,6.8393-15.8187,15.1621-17.9249c8.2208-1.0643,14.4147,5.7637,20.167,10.576
		c1.2343-0.6567,2.4798-1.2908,3.7141-1.9136c-1.2343-2.7629-2.8082-5.3446-3.9858-8.1077c0.9398-3.0459,3.1253-5.4691,4.4048-8.334
		c0.2605-2.9214-0.1925-5.8315-0.4303-8.719c-1.0078-8.2775-0.9398-16.6342-0.8606-24.9456
		c-0.1019-9.0701,2.7516-18.3213-0.5775-27.1422c-2.8762,3.9292-6.1939,8.3114-11.3687,9.0701
		c-8.368,1.2908-16.3397-2.9554-22.9413-7.6545c6.9866-7.9377,12.7049-16.8833,17.3815-26.3384
		c12.7954-25.3418,23.8131-51.533,34.4685-77.8258c0.2718-0.6569,0.804-1.9703,1.0644-2.6271
		c6.2166-15.4111,12.8181-30.7205,17.993-46.5167c-15.5584,6.9866-31.4791,13.5768-48.3963,16.4642
		c-15.1055,3.0687-30.6412,2.7404-45.9618,2.1515c-7.2244-0.1698-14.3468-3.2384-21.5711-1.7891
		c-3.5103,1.3362-7.2017,2.8195-11.029,2.1061c-4.9483-0.6227-8.0963-4.8804-11.063-8.402
		c-0.0679-4.5634-0.8153-9.6588,2.1515-13.5427c3.4763-5.2994,10.7006-6.964,16.4869-4.9484
		c4.3595,2.0043,7.3602,6.3751,12.1953,7.4622c13.4749,3.2046,27.4706,2.6044,41.206,2.1854
		c27.4933-2.9102,55.0205-12.2633,76.3086-30.3242c2.6044-3.8386,3.782-8.368,5.1635-12.7162
		c-6.9413-3.3856-13.6334-7.5074-18.9893-13.1351c-4.9483-4.9936-8.4926-11.1309-11.731-17.3135
		c-4.2689,7.5527-8.4812,15.7962-16.1699,20.4501c-3.0913,1.9476-6.6808,2.8762-10.2137,3.6688
		c-9.7834,0.0113-21.0163,0.4303-28.6483-6.7941c-3.2272-2.6837-2.9554-7.1337-3.0347-10.9045l0.1246-0.6341
		c1.7438-1.5853,3.4989-3.1479,5.2541-4.7219c0.5209,1.3588,1.0417,2.7177,1.5966,4.0764
		c3.4989,11.1762,20.4841,13.5881,27.4593,4.4954c5.0616-5.9448,5.2654-14.1543,5.0276-21.5485
		c-0.385-8.0963,1.5853-16.0339,4.0538-23.666c5.8429-16.419,15.8075-32.5662,31.6377-40.9229
		c9.489-5.4013,20.9709-4.9144,31.3433-2.8988c7.3602,1.574,14.5732-1.7098,21.9448-1.2229
		c11.5159-0.2943,22.4543,5.3674,30.3468,13.4975c13.0898,13.1351,19.7594,31.4111,22.0014,49.54
		c0.7134,5.322-0.5322,10.6214-0.7247,15.9434c-0.2265,6.3864,1.9136,12.92,6.477,17.4947
		c6.6469,5.5598,17.7551,4.9257,23.5074-1.6079c2.0269-2.1854,0.9965-5.2541,0.8492-7.8585
		c-3.431,0.8152-6.9752,2.593-10.5308,1.6419c-5.5938-3.2498-0.8945-13.2937,5.0163-12.5917
		c4.7672,1.1776,8.0736,5.322,10.6327,9.2739c3.6122,5.4013,3.9972,13.3956-0.3397,18.5251
		c-9.0361,4.937-19.6009,5.8655-29.7014,4.8918c-4.3369-1.4607-8.4473-3.4877-12.3652-5.8203
		c-5.3107-6.092-8.9908-13.3277-12.4671-20.5633c-2.5704,4.0198-5.0389,8.1075-7.9603,11.9008
		c-1.642,2.0496-3.4084,4.0085-5.1522,5.9901c6.0807,7.7565,11.1309,16.2944,15.3206,25.2172
		c1.4155,2.5931,2.4912,6.0807,5.809,6.7375c16.4416,5.0729,33.8683,6.2052,50.9667,5.0162
		c6.9752-0.5889,13.8712-1.9929,20.5181-4.167c6.8054-2.3893,13.5315-5.3446,19.2725-9.7721
		c4.6879-3.431,3.2611-10.3837,7.213-14.3922c5.6503-6.7487,17.5626-5.8541,22.2053,1.6193
		c3.8046,5.1635-0.5662,12.6144,4.0424,17.4268c10.5988,12.6936,26.78,20.8917,43.4254,20.937
		c6.024,0.1359,12.0594,0.1586,18.0722-0.2037c11.5046-0.7814,22.4543-4.9485,32.7134-9.9646
		c-1.155-4.1105-2.3439-8.1982-3.1932-12.3652c9.9194-1.121,19.2725-4.8577,28.3199-8.8662
		c4.2689-1.642,8.4019-3.5895,12.5577-5.4806c6.3072-2.7969,12.3765-6.058,18.3326-9.5229
		c-2.2081-2.3892-4.4728-4.6879-6.6129-7.1224c-8.017-9.2173-12.9427-21.1522-13.4182-33.3928
		c-0.0906-10.9611-0.5435-22.1826,2.9554-32.736c4.1443-12.4897,13.4522-23.1677,25.3984-28.7275
		c14.9695-6.9752,32.351-7.4848,48.1812-3.3291c5.4692,1.4381,11.7311,3.397,16.77-0.3397
		c1.6758-5.9448-1.4266-13.1918-7.8698-14.4373c-1.2455-0.4417-2.4799-0.8606-3.7141-1.2682
		c3.2725-3.5895,7.0092-8.017,10.8025-10.2251c-0.351-0.3057-1.0304-0.9058-1.3701-1.2003
		c1.7664-1.2004,4.0425-0.0793,6.0354-0.2831c4.6653,0.8492,9.3306,2.3666,13.09,5.3786
		c7.7339,6.2166,11.3234,16.9625,9.2058,26.6328c-1.4381,6.4883-3.8047,13.0219-8.334,18.0269
		c-3.2385,2.2987-6.7714,4.1331-10.259,6.0354c5.8316,9.2852,10.2364,19.6575,10.7007,30.7544
		c0.8379,16.7813-6.4317,33.8344-19.1592,44.8068c-1.8231,1.574-3.6801,3.1026-5.4918,4.6765
		c10.2363,11.4366,24.1415,19.4877,39.3716,21.8768c3.3517,0.702,6.7374,1.3022,10.1118,1.959
		c-0.5889,1.3927-1.1776,2.8081-1.8231,4.2009c-1.4834,2.9102-3.2046,5.6958-4.8691,8.5039
		c6.7488,2.1628,13.5654,4.167,20.586,5.2542c6.1259,0.9285,12.252,1.9702,18.4572,2.1968
		c18.6724,0.736,38.3411-1.9817,54.2732-12.3879c4.5973-2.5817,3.4989-8.8209,6.6694-12.5237
		c4.9711-6.5449,15.6718-6.9639,21.1409-0.804c4.3483,3.9406,3.0913,10.3157,5.2314,15.2753
		c7.2583,15.23,21.4012,26.9951,37.809,31.0829c20.5293,5.2201,42.3722,1.1323,61.5654-7.0659
		c11.2894-4.9369,21.8995-11.5612,31.1735-19.6914c5.6277-4.7218,8.3114-11.7424,11.6177-18.0835
		c-8.1869-3.9518-15.9435-9.1379-21.639-16.317c-4.7333-5.639-7.9717-12.3312-10.5648-19.1705
		c-6.9412,8.6284-16.7587,15.9886-28.2406,16.2831c-9.9987-0.5209-17.925-9.6136-18.6837-19.3177
		c-0.4301-7.7565,1.891-15.9434,7.7566-21.288c3.363-3.6801,8.4926-4.4161,13.2257-4.3482c2.4572,1.6871,4.9484,3.363,7.4508,5.0276
		c-2.2874,0.77-4.5634,1.5966-6.6808,2.7289c-1.7665,3.1479-4.2577,6.7714-3.0687,10.5535c0.521,2.593,3.5896,2.7289,5.6051,3.6348
		c5.639-0.6907,11.5499-3.9632,12.8634-9.8967c2.627-9.6928,0.6569-20.1443,4.4161-29.6108
		c5.7863-14.6185,19.3857-26.123,35.1254-28.2633c9.0587-1.9589,18.2307,2.6271,27.1536-0.3737
		c13.5428-3.2272,28.5576,0.0793,39.2244,9.1154c6.0695,5.2314,11.0403,11.8669,13.6901,19.4763
		c2.1741,6.0128,1.9929,12.4898,2.7628,18.7743c0.4984,5.0162,1.257,10.6327,5.0391,14.3467
		c3.6008,3.4423,9.6702,5.1182,14.1202,2.3553c4.0311-6.6355-2.3665-13.3277-8.0396-16.1585
		c3.363-2.1288,6.9299-4.6426,11.1536-4.0652c6.3184,0.2265,10.7913,5.5598,13.656,10.6667
		c4.9596,9.6476,3.8273,22.5449-4.6653,29.8712c-3.295,2.3326-7.1564,4.1896-11.2894,3.9858
		c-9.8967,0.034-18.5818-5.9335-25.3872-12.6028c-4.0764,10.7913-10.8251,20.4388-19.8838,27.6292
		c8.3,15.9094,23.0546,28.1727,40.2321,33.3815c30.109,9.5343,65.5287-0.8833,85.322-25.5797
		c2.5818-4.5859,1.54-10.8365,5.7183-14.6525c4.9709-5.5825,13.6221-5.7297,19.7028-1.9137
		c3.5557,3.0574,5.2655,7.5302,5.7638,12.1047c0.2942,5.2201,4.9935,8.2435,8.5944,11.3008
		c2.208,1.8116,4.4728,3.5781,6.8733,5.1862c1.7098,0.9512,3.4764,1.8116,5.2767,2.6383c8.0397,3.7141,16.9171,5.2087,25.7382,5.322
		c-0.0679-2.4346-0.1245-4.8464-0.1812-7.2583c19.7253-3.9178,37.2767-14.845,52.2124-27.9575
		c9.2172-8.334,17.9136-17.3135,25.036-27.5159c-13.339-14.9583-18.0269-36.6653-13.1918-55.9603
		c2.627-9.6702,8.0963-18.4459,15.1055-25.557c15.6603-15.3093,38.2845-22.6469,59.9801-19.8613
		c8.5605,1.3022,16.8268,4.3595,24.2435,8.8323c3.6008,2.0043,7.7,4.4728,11.9915,3.2498
		c4.6879-1.2795,6.8507-6.2393,7.7566-10.5874c0.9398-5.1408,0.5887-11.0743-2.8649-15.2413
		c-2.2533-2.6723-5.9447-0.9738-8.7756-0.5209c2.4346,1.189,4.9143,2.3213,7.3716,3.5103c-0.0453,1.3588-0.068,2.7289-0.0793,4.1104
		c-4.5294,3.6008-9.7834,7.4282-15.9093,6.7374c-3.182-0.0566-5.6279-3.329-5.1863-6.3864
		C1666.2081,889.1606,1668.269,883.8499,1671.3943,879.3998 M1896.8323,1053.6107c-11.4706,2.1968-23.213,1.3363-34.8081,1.3475
		c-20.5521-1.5625-40.9116-9.3306-56.4586-23.0092c-2.4912-1.1096-5.1974-1.7438-7.9037-1.6758
		c-4.6201,2.627-8.7305,6.0919-13.5654,8.3453c-12.7164,6.4091-27.0404,9.0134-41.1721,9.4777
		c-0.1359,2.1176-0.2378,4.2351-0.1698,6.3751c-0.8267,0.8945-1.5966,1.8344-2.4005,2.7289
		c-8.6625,2.4006-17.8345,2.593-26.7347,1.5287c-15.2639-1.7212-28.7501-9.8514-40.6624-19.0687
		c4.7332,12.9767,7.0999,27.2216,3.0573,40.7303c-0.8832,12.3878-0.4755,24.8209-0.4755,37.2201
		c-0.1699,8.2435,1.3135,16.5775,5.0842,23.9717c4.3029,8.7756,13.3616,14.3921,22.7714,16.1812
		c9.4097,1.8571,19.0233,1.0757,28.4785,0.0114c-1.5402,5.7522-3.7029,11.3346-4.7673,17.2229
		c5.9901-1.7439,9.942-6.7375,13.475-11.55c-1.155-1.2909-2.2874-2.5704-3.3971-3.85c6.1713-5.2654,10.7346-12.1838,14.1316-19.4989
		c4.0313-3.7367,7.4849-9.1946,13.4976-9.6815c2.4685-0.4982,4.4276,1.3589,6.3638,2.6044
		c4.9031,4.9484,10.5082,9.172,15.3093,14.2449c-0.9738,4.7898-4.8918,8.7191-4.3708,13.8938
		c5.5259,0.8947,9.5682-3.2271,13.2937-6.658c8.8322,4.3481,15.7056,11.6177,22.4657,18.6156
		c2.3666,2.7404,5.3333,5.424,6.1711,9.0928c-0.0114,3.7933-4.1669,5.4464-6.9751,7.0544
		c-8.8323,3.9406-17.4608,9.7268-27.4819,9.5909c-3.7595,0.1472-7.5415-1.7212-9.4778-4.9597
		c-3.5215-5.5936-3.5555-12.4104-4.3707-18.7401c-1.4722-0.0793-2.933-0.1586-4.3822-0.2153
		c-1.0531,2.5931-1.7665,5.322-1.4608,8.1528c-2.9894,1.574-6.16,2.8535-9.5117,1.6194c-9.7267,13.2031-26.191,21.005-42.61,19.431
		c-1.6759,5.7749-3.6122,11.4706-5.2428,17.2682c-11.1649-1.0078-22.1825-4.0991-32.1472-9.2286
		c-14.6864-7.3602-25.6135-20.4954-32.804-35.0234c-8.2321-16.6-12.5236-34.7063-18.4684-52.1555
		c-1.1437-3.9631-2.5139-7.8472-3.8162-11.7311c-6.3749,2.4232-11.5271,7.0432-16.2717,11.7877
		c-4.9708,5.3107-10.1344,10.5986-13.6333,17.0304c-3.363,3.7253-5.0164,8.7756-6.9526,13.3729
		c-5.458,14.3582-5.2994,30.0751-3.4424,45.1125c1.3928,7.6886,2.9103,15.3433,4.5294,22.9866
		c-8.5491,0.1471-17.087,0.0112-25.6249,0.0906c-1.2456,11.3461-1.7891,22.8845,0.4869,34.1401
		c0.5548,3.4875,3.5894,5.8428,4.4387,9.2625c1.7665,5.6731,4.8578,10.7686,7.6886,15.9661
		c3.1139,5.8882,5.7635,13.5428,1.9137,19.7141c-8.0171,3.5782-16.4869,6.2166-24.9681,8.4812
		c-2.729-3.8839-4.9257-8.5039-9.4324-10.6213c-3.6123,4.5179-1.0645,10.0325-1.155,15.0375
		c-5.2314,4.1558-12.0708,5.1862-17.8911,8.2435c-6.7714,0.7247-13.3616,3.9972-20.2689,2.7177
		c-4.5406-5.0504-1.2456-12.5465-1.7098-18.6158c0.6682-6.6241,0.9626-13.5994,4.4841-19.4648
		c2.1628-4.0313,6.896-6.5223,11.448-5.9222c5.5259,0.6794,10.61,3.0913,15.6942,5.2316c0.8606-1.0305,1.7552-2.0497,2.6724-3.0461
		c-1.506-2.4685-3.4875-4.5634-6.3071-5.4012c0.1245-2.208,0.0906-4.4275,0.0114-6.6129c2.1967-1.0645,4.3936-2.0947,6.6128-3.1139
		c-3.6348-14.9469-4.2803-30.5507-2.4572-45.792c-1.8231-0.1924-3.6122-0.3623-5.4014-0.5322
		c-1.1548-3.7933-1.6531-7.7792-1.1323-11.7084c1.325-11.6064,4.9937-22.7714,8.6738-33.8004
		c3.2046-9.104,6.5676-18.1515,10.576-26.9384c0.1812-0.6567,0.5322-1.9929,0.7134-2.661
		c6.0242-12.0028,11.3461-24.3906,18.0723-36.0425c3.9858-7.5867,10.2137-14.1882,11.6743-22.9072
		c2.0497-2.2648,2.8536-5.322,3.9292-8.0963c4.1444-12.3765,6.9867-25.557,5.458-38.6355
		c-4.6653,8.9342-9.7382,17.8571-17.2229,24.7529c-15.5697,15.2527-37.9448,20.4049-59.0291,21.8542
		c-0.3511-2.4005-0.702-4.7898-1.019-7.1677c-21.0956,1.0078-42.4629-6.9299-57.3419-22.0015
		c-1.9702-1.7551-3.5895-4.6992-6.6241-4.2351c-3.1366-0.5321-4.5747,2.6837-6.4769,4.4954
		c-23.8019,26.1912-62.4828,36.9144-96.5663,27.9236c-3.2611-1.472-6.6808-2.5591-10.1005-3.4989
		c1.823,2.8875,3.8386,5.6616,6.16,8.1868c9.6249,13.6901,20.1329,26.8138,31.1619,39.4282
		c8.368,8.968,16.8606,18.1288,27.3348,24.6963c3.4763,2.276,7.7678,3.5104,10.5421,6.7715
		c1.6646,6.8168-3.6801,12.2972-8.6964,15.9773c-6.1486,4.1785-13.7354,7.3829-21.288,5.9789
		c-4.5974-0.8606-7.8585-4.4049-10.4063-8.051c-1.4155,6.0695-5.6617,12.1841-12.286,12.9767
		c-4.099,0.6569-7.4169-2.1627-10.361-4.5408c-3.2157,4.2012-7.7224,7.0999-12.818,8.4587
		c-0.0341,15.4904-0.9399,31.0828,0.8944,46.5052c1.608,17.4154,8.0284,34.9668,20.8352,47.2753
		c1.574-1.0078,3.1819-1.9816,4.8011-2.944c1.6758,1.3135,3.4083,2.5704,5.2427,3.6914c-0.453,2.8535,0.3511,5.5938,1.5287,8.1868
		c1.3248-0.3057,2.6837-0.5775,4.0425-0.8265c0.9965-5.6052,1.4042-11.5387,4.2916-16.5662
		c1.7324-3.1934,4.9709-5.7411,8.7303-5.7638c9.1946-0.7699,17.2343,4.5747,25.0134,8.6738
		c3.5442,2.0835,7.8358,3.5555,10.1232,7.213c1.5287,3.0007-1.574,5.6504-3.2159,7.8812
		c-7.7112,8.0396-16.0906,15.8528-26.225,20.7218c-3.5669-3.533-7.3602-7.8584-12.9314-7.2584
		c-1.1096,5.1976,3.2499,9.2966,3.431,14.3015c-2.5931,2.2308-5.2427,4.4048-7.7905,6.6921
		c85.8315,0.1133,171.6631,0.0568,257.4834,0.0227c147.5328-0.0566,295.0544,0.1133,442.576-0.0792
		c-8.9907-3.9293-17.7891-8.2434-26.4401-12.8408c-3.1254-2.8761-0.4871-7.0319-0.136-10.4402
		c0.6228-2.4573-0.5548-4.7557-1.5173-6.8959c-4.0878,2.1967-6.8846,5.9561-10.4063,8.8435
		c-3.4989-0.453-6.5336-2.3893-9.6362-3.8726c-3.9292-2.0609-8.0509-3.7482-11.7877-6.126
		c-4.5406-2.5365-3.0686-8.7983-1.8004-12.8634c4.0764-9.4551,12.3992-16.453,15.6603-26.3723
		c2.4459,0.2039,4.8918,0.4303,7.3602,0.6455c4.1671-7.281,6.7375-15.2866,8.889-23.3376
		c4.6652-20.9258,4.3481-42.8705-0.4644-63.7281c-1.9475-7.5188-3.9858-15.1621-7.6772-22.0242
		c-3.5216-2.2421-7.4508-3.8613-10.6554-6.579c-4.5632,14.313-20.5519,21.2654-34.5703,21.6278
		c-0.3058,10.7799-2.2987,21.6277-6.7941,31.4904c-7.0206,15.6038-19.9633,28.8523-36.235,34.6611
		c-8.9681,1.9137-18.1515,4.7332-27.3915,3.1251c-5.7975-0.4755-11.1875-2.9214-16.8718-3.7366
		c-6.1034-3.2158-12.2633-6.4204-17.5173-10.9385c-3.0121-2.978-7.3716-3.431-11.3348-4.0878
		c-0.3622-2.8649-1.8684-5.2994-3.5215-7.5641c-1.2909,0.8268-2.5818,1.608-3.85,2.4232
		c0.9512,6.4091,2.1968,12.9768,0.3737,19.3857c-2.0836,2.2987-4.0311,5.073-7.1451,6.0015
		c-7.1676,2.8422-14.8223,0.4869-22.0693-0.6116c-5.7976-1.1888-12.3652-1.4833-16.668-6.0807
		c1.37-5.9108,4.2349-11.2894,7.2809-16.4755c3.9293-6.511,8.017-13.1125,13.9052-18.0609
		c3.2272,1.6647,6.4543,3.6914,10.1685,4.0311c1.9137,0.4077,3.3518-1.0645,4.0764-2.6722
		c-1.9249-3.9293-5.2087-6.9075-7.8698-10.3044c4.8916-7.4395,9.0928-15.5017,15.1281-22.0807
		c6.7035-1.2455,12.9879,2.4346,17.6871,6.8621c5.4694,5.424,11.1422,10.8705,18.2648,14.0637
		c-0.8492,1.6532-1.7098,3.3064-2.4006,5.0389c-0.0339,0.1018-0.1018,0.2831-0.1359,0.3735
		c-0.0114,0.3965-0.0566,1.1777-0.0792,1.574c6.4091,7.6321,15.4905,13.475,25.5116,14.7886
		c9.7834,1.2682,19.8387-2.7858,26.6328-9.8175c8.0396-8.1755,12.1499-19.7594,11.9122-31.1394
		c-11.2102,4.3142-24.4246,6.16-35.5103,0.5435c-3.5782-1.6646-5.9108-5.1747-6.126-9.0814
		c-3.6461,3.8162-8.2208,7.6547-13.8259,7.3151c-6.16,0.3282-11.5498-3.9858-14.0184-9.3759
		c8.051-2.1515,16.5095-3.5216,23.666-8.1075c11.7084-6.9413,20.4049-17.9929,26.7799-29.8372
		c8.6964-16.6001,14.358-34.6951,18.0948-53.0164l0.4755-0.1019c2.2648-13.2937,6.0582-26.361,7.1226-39.8245
		C1944.8436,1039.9773,1921.5175,1049.9532,1896.8323,1053.6107 M690.5591,1061.1069c-6.7375,3.0686-13.4069,6.3864-20.6313,8.1868
		c-21.6843,6.2279-44.6935,5.0956-66.6724,1.0417c0.6115,1.7665,1.2456,3.5442,1.8458,5.3334l0.804,0.2378
		c2.5817,8.7076,6.6808,16.8606,10.1005,25.2626c5.9448,13.407,12.4445,26.7799,21.6165,38.3185
		c2.9441,3.9631,7.8585,6.2732,12.7955,5.8768c11.9462-0.634,23.9377-6.1372,30.8337-16.1699
		c2.1288,2.5592,4.9257,5.1409,5.0389,8.7305c0.7134,6.0127-0.2038,12.3538-3.9858,17.2568
		c-4.8917,7.5867-14.041,11.5612-22.9413,10.4515c1.189,1.7891,2.2194,3.7141,3.7028,5.3219
		c0.4982,5.3447-0.3171,11.1422-4.1218,15.2188c-6.0127,7.3376-16.0906,9.8854-25.2172,8.5605
		c1.6758,3.012,3.1026,6.1713,4.3708,9.3984c10.5648-0.249,22.1373-3.5896,28.7275-12.3766
		c4.5747-4.6652,7.8698-10.3721,10.8931-16.1132c3.0574-4.0311,6.2619-8.4021,11.097-10.3949
		c2.0721-0.8945,4.8351-1.3702,6.6808,0.2719c6.3072,4.7784,12.0142,10.3042,17.9137,15.5697
		c-0.4756,1.5059-0.9512,3.0232-1.4381,4.5519c-1.7551,2.7743-2.7176,5.9222-2.8875,9.2059
		c5.0956,1.3475,9.4211-2.3439,12.3652-6.0693c3.1252,0.7927,5.8203,2.6271,8.8096,3.7368
		c6.896,6.7827,14.9808,12.637,20.2802,20.8578c2.7968,3.714-1.5966,7.145-4.6766,8.6849
		c-7.5414,3.6914-14.8677,8.119-23.0771,10.1458c-4.7672,1.0192-10.678,1.0531-14.0977-2.9893
		c-4.7559-5.4353-4.5746-13.1353-5.6957-19.8727c-1.506,0.1925-2.9894,0.4417-4.4841,0.5889
		c-1.3928,2.1288-1.2682,4.7106-1.0078,7.145c-2.1061,0.8719-3.9066,2.6157-6.1486,3.0121
		c-2.1854-1.1437-4.0425-2.7969-5.9788-4.269c-13.1918,9.3872-28.6256,16.8947-45.1465,16.7701
		c-11.6178,0.2377-22.9073-3.7141-32.7587-9.6589c-2.0269,2.1742-4.0311,4.7333-7.0884,5.4353
		c-9.2513,2.4119-19.2159-0.1699-27.1536-5.1863c-2.0835,7.1451-7.8924,12.705-14.5619,15.6943
		c-3.6915,1.6871-8.1755,2.4459-11.9462,0.6001c-3.8953-1.7777-5.9788-5.7295-7.8019-9.3645
		c-1.8797,3.6123-3.9972,7.4509-7.7792,9.3986c-6.6242,3.85-15.5131,1.9589-20.6426-3.4989
		c-2.2986-2.344-3.465-5.4806-4.6992-8.4474c-2.0835,5.2428-5.9561,9.5231-11.1309,11.8557
		c-1.8004,15.7281-0.6454,31.615,1.4947,47.2413c1.8118,0.5321,3.9179,0.5095,5.4466,1.755
		c-0.1698,5.4353-0.4756,11.0518,1.472,16.2379l0.8039,0.2491c-0.4529,5.4691,0.4643,10.9609,0.0114,16.4415
		c-0.1812,3.7253-2.4572,7.9491-6.5789,8.2208c-7.5754,0.9285-15.23,0.2151-22.8394,0.5095
		c-1.8571-4.1217-3.4423-8.3453-5.4805-12.3766c-1.7664,0.7361-4.0312,1.155-4.7332,3.2273
		c-1.5627,3.6688-1.959,7.7112-3.2951,11.4707c110.6978-0.2379,221.407,0.1132,332.1048-0.1926
		c-5.3107-8.0282-12.9653-14.743-15.7396-24.2208c3.6008-3.0686,6.8846-6.7035,7.8358-11.4933
		c-3.4876-2.3098-7.3149-0.9285-10.5082,1.1437c-0.8492,0.1586-2.559,0.4757-3.4082,0.6455
		c-1.6533-1.5061-3.2612-3.0347-4.7898-4.62c-3.8613-5.4805-8.0283-10.7346-11.6179-16.385
		c1.4607-5.005,4.4954-9.5229,8.9908-12.2745c7.7793-4.8691,17.0191-7.5981,23.349-14.5732
		c1.189,1.1664,2.3779,2.3325,3.5782,3.5103c15.264-7.9491,30.2675-17.7665,40.368-32c5.4806-7.7339,9.4889-16.6794,10.3156-26.2024
		c-7.6999-2.2761-15.547-4.0085-23.2244-6.3865c7.1451-9.9645,13.9958-20.6653,16.8832-32.7134l0.9285,0.3284
		c2.5137-8.0963,5.5711-16.1019,6.9186-24.5039c0.9399-3.3744,2.0382-6.8053,1.8684-10.3384
		c-0.5209-2.7402-2.7289-4.9595-2.6384-7.8357c-0.2718-8.0171,0.0906-16.1019,2.0609-23.9152
		c1.5286-7.8018,4.8577-15.0828,6.9072-22.7374c-7.9037,6.443-16.5095,12.2747-26.5873,14.6299
		c-1.0644-2.7743-2.1288-5.5372-3.1251-8.3228c-5.8542,2.3779-11.6858,4.8805-17.7553,6.6696
		c-13.5768,4.3483-27.9122,5.3107-42.0665,4.5746c-12.0934-1.6191-24.0736-4.9482-34.5478-11.3574
		c-9.5117-5.288-16.7474-13.5994-23.4734-21.9674C699.1989,1054.8677,694.9073,1058.0382,690.5591,1061.1069 M947.0121,1065.3984
		c-0.3397,3.7594-0.3963,7.5527-0.1359,11.3461c0.9852,11.7311,6.7941,22.0919,12.5237,32.1019
		c-1.3475,0.5775-2.695,1.1776-4.0198,1.8004c0.7587,3.6802,1.5627,7.3715,2.3892,11.0515
		c1.4495,4.9144,2.7403,9.8854,4.3029,14.7657c5.2087,17.0758,13.4861,33.0643,23.8924,47.5358
		c-2.5025,0.77-4.9936,1.5399-7.5074,2.2419c-4.971,1.1777-9.874,2.661-14.8563,3.816c-0.7247,0.1132-2.1854,0.3624-2.9214,0.4869
		c0.5322,10.2703,2.1401,20.5859,5.0842,30.4487c0.5209,5.7635,2.4798,11.3008,3.6461,16.9624
		c3.884,16.3284,8.051,32.6115,11.2555,49.0984c2.4459-0.0905,4.9031-0.1812,7.3602-0.2264
		c0.8945,2.1062,1.8458,4.2236,3.0007,6.2391c-2.1854,1.9364-3.046,4.6313-3.2045,7.4962c1.189,0.5209,2.3892,1.0757,3.601,1.6418
		c4.6539-4.8805,8.9229-10.9498,15.7509-12.8521c3.9519-1.2003,7.5867,1.155,10.9045,2.9894
		c5.2994,5.0729,8.3906,11.7762,12.4897,17.7324c1.3702,4.201,4.5861,7.8812,4.7334,12.4445
		c0.1698,2.9215-3.1705,3.8953-5.3674,4.7219c-11.097,3.2611-22.7714,4.4727-34.2986,3.9518
		c-1.6758-4.9369-2.2761-11.1761-7.8019-13.4069c-2.4799,3.8953-2.8422,8.5266-3.6008,12.9766
		c-0.2831,0.3964-0.8606,1.2004-1.1437,1.5967c120.7757,0.0792,241.5513-0.0566,362.3156,0.0679
		c-2.4573-4.1556-4.5747-8.5264-7.4055-12.4445c-1.4607-3.6007-4.4163-6.2505-7.0771-8.9342
		c0.7247-1.1323,1.4607-2.2306,2.2195-3.3176c-9.3759-10.0099-17.0758-21.6958-21.6166-34.6951
		c-8.9115-24.334-7.5752-50.627-7.4169-76.0933c-4.3821,1.4041-9.0698,3.714-13.6787,1.9136
		c-4.4387-1.2343-7.0092-5.3334-9.2738-9.0021c-4.2236,2.0721-8.4813,4.0878-12.8069,5.9335
		c0.2491,14.1882,0.1133,28.5349-3.3857,42.3722c-2.7177,10.9838-7.5188,21.8542-15.9774,29.6334
		c-13.8146,13.4182-36.0311,14.6185-52.7218,6.058c-0.8492,1.0417-1.6759,2.1062-2.5026,3.1932
		c-2.1401-0.2378-4.2803-0.3397-6.4089-0.2491c-0.6682-2.7516-2.6271-4.7104-4.7672-6.3977
		c-1.155,0.7813-2.2874,1.5627-3.4197,2.3666c2.1401,6.6696,5.639,13.5995,3.7367,20.7672
		c-1.7665,5.3334-7.5527,7.6433-12.5803,8.7529c-7.1677,1.189-14.4601,1.3362-21.6957,1.3362
		c-2.7743-0.0566-5.6504-0.1245-8.1868-1.3135c-2.7743-2.2421-1.54-6.1713-1.1097-9.1379
		c2.661-10.5988,6.4091-21.1183,12.3878-30.3356c4.269,0.7247,8.8663,2.8422,13.1125,1.0078
		c1.9476-1.2568,1.1212-3.3177,0.0453-4.8124c-2.8422-2.0609-5.6165-4.2123-8.2887-6.4543
		c3.2384-8.085,5.7183-16.5662,9.9646-24.187c5.571-3.1931,12.5464-1.0189,17.7891,1.925
		c7.0432,4.0538,13.7467,9.0248,21.8317,10.8365c-0.2717,1.7665-0.5322,3.5442-0.7587,5.3334
		c5.254,2.4231,10.8705,5.2653,16.8606,3.9633c6.8054-0.974,11.0177-7.3602,13.1351-13.3617
		c4.62-13.1805,4.7445-27.4141,4.167-41.1947c-1.5853-1.4154-4.0764-0.2151-6.0013-0.5321
		c-7.2697,0.4755-13.7467-3.5669-18.9441-8.2322c-7.7339,5.741-15.6038,12.1614-25.2966,14.0751
		c-6.4203,1.4606-12.9993-0.1246-19.1139-2.095c1.0192-7.9491,5.1862-14.9469,8.3567-22.1486
		c5.1748-11.2102,11.5952-21.8202,16.702-33.0419c4.0425-6.0354,6.9979-12.6823,10.5988-18.9667
		c5.2087-9.6476,10.61-19.2046,15.7283-28.9088c3.8726-0.4529-1.5175-4.5634-1.4268-0.7699
		c-3.4536,0.7473-6.5223,2.6156-9.7948,3.8726c-14.9016,5.9561-30.8904,9.6702-47.0149,9.1946
		c-21.322,0.3171-43.1536-7.7225-57.7722-23.5302c-5.5032-5.571-9.455-12.3651-13.5315-18.9667
		c-4.7784,1.506-8.4813,5.0049-12.7954,7.3942c-10.5082,5.9901-22.3297,9.3984-34.2421,11.1423
		c-10.1118,1.7098-20.3934,0.8492-30.5732,1.087c-14.1883-1.8796-28.3312-4.5067-41.7834-9.5004
		c-1.2684,1.7325-2.5251,3.465-3.8046,5.1862C960.3624,1077.8202,952.855,1072.3962,947.0121,1065.3984 M888.6625,1136.4982
		c-1.0191,6.579-1.2795,13.2598-1.2116,19.918c-1.0304,5.8655-1.8457,11.7764-3.0912,17.6191
		c-1.9703,7.4396-4.4501,14.7545-7.5867,21.7864c-1.4947,3.8386-3.9292,7.3828-7.9037,8.9341
		c-0.9965,8.9342-4.8238,17.1437-8.5945,25.1833c-3.2725,4.6879-6.2279,9.6136-9.9307,13.9958
		c-10.9498,13.4523-25.2739,23.7225-40.2888,32.1924c0.3283,1.4608,0.6794,2.9441,1.0304,4.4388
		c-1.2682,1.3588-2.5138,2.729-3.6575,4.2009c-2.8535-0.0112-5.6165,0.6455-8.3001,1.5173c0.2491,1.3816,0.4756,2.797,0.7134,4.2124
		c3.0008,0.5887,6.0014,1.3135,9.0699,1.574c2.3213,0.9625,4.6654,1.9136,6.8394,3.2158c4.6652,2.5138,7.1224,8.5153,5.5485,13.5881
		c-1.5287,8.5945-7.4962,15.3093-10.8479,23.1677c14.5393,0.1359,29.1352,0.6455,43.6404-0.2378l-0.1132,0.7361
		c33.6985-0.4644,67.4196-0.068,101.1295-0.2039c-2.0269-4.1105-3.8726-8.4586-3.8387-13.1239
		c-0.0679-7.2017,1.574-14.426,0.2944-21.6051c-0.9285-3.3744,0.9399-6.7147,0.0566-10.0553
		c-6.0807-29.4069-15.1847-58.2136-18.8535-88.0848c-1.9816-0.385-5.2201,0.9171-5.9675-1.6871
		c-3.7933-9.9987-5.4352-20.62-7.3602-31.0715c0.736-9.2399-1.2795-18.3779-1.121-27.6066
		c-0.1585-1.7776,0.2831-4.937-2.2986-4.9823C906.8479,1133.8032,897.8004,1135.9661,888.6625,1136.4982 M464.3171,1303.3716
		c-0.8946,1.3588,1.4834,2.7515,2.3666,1.4833C467.6009,1303.4395,465.2003,1302.0354,464.3171,1303.3716z"/>
	<path fill="#4D0000" stroke="#4D0000" stroke-width="0.0938" d="M931.7028,898.1401c2.2307-4.5859,6.058-8.3227,11.0177-9.7834
		c0.3397,0.2943,1.0191,0.8945,1.3701,1.2003c-3.7933,2.2081-7.5301,6.6356-10.8025,10.2251
		c1.2343,0.4077,2.4685,0.8266,3.7141,1.2682c-0.6454,1.1437-1.2684,2.3099-1.891,3.4763
		c-0.7473,1.3362-1.4947,2.6723-2.2307,4.0311C932.1671,905.1267,931.5782,901.6504,931.7028,898.1401z"/>
	<path fill="#0B0201" stroke="#0B0201" stroke-width="0.0938" d="M438.9526,991.0035c2.5931-1.7098,6.6808-1.6985,8.4926,1.155
		c2.3666,2.8988,3.5443,8.436-0.4643,10.5308c-3.397,1.6079-6.5676-1.121-9.3871-2.6837c-0.8832,1.4608-1.7551,2.9328-2.627,4.4162
		c-0.5549-1.3588-1.0757-2.7177-1.5966-4.0764c-1.7551,1.574-3.5103,3.1366-5.2541,4.7219
		C430.1203,999.4055,433.8118,994.1967,438.9526,991.0035z"/>
	<path fill="#A26E2D" stroke="#A26E2D" stroke-width="0.0938" d="M1333.3447,1084.6595c3.4197,0.9399,6.8394,2.0269,10.1005,3.499
		c-1.5173-0.1472-3.0233-0.2491-4.5066-0.3058c0.1471,1.6533,0.3055,3.3291,0.5662,4.9937
		C1337.1833,1090.3213,1335.1677,1087.547,1333.3447,1084.6595z"/>
	<path fill="#7C5D31" stroke="#7C5D31" stroke-width="0.0938" d="M1220.1783,1095.2697c-0.0906-3.7933,5.2994,0.317,1.4268,0.77
		C1221.2542,1095.8472,1220.5294,1095.4622,1220.1783,1095.2697z"/>
	<path fill="#8B642D" stroke="#8B642D" stroke-width="0.0938" d="M1895.4169,1193.1493c0.0341-0.0906,0.1019-0.2717,0.1359-0.3737
		C1895.5188,1192.8776,1895.4509,1193.0587,1895.4169,1193.1493z"/>
	<path fill="#675847" stroke="#675847" stroke-width="0.0938" d="M464.3171,1303.3716c0.8832-1.3362,3.2838,0.0679,2.3666,1.4833
		C465.8004,1306.123,463.4225,1304.7303,464.3171,1303.3716z"/>
</g>
</svg>
