<svg width="800" height="322.40000000000003" xmlns="http://www.w3.org/2000/svg"><g transform="translate(0, 0)" id="single_state_map"><path d="M710.302331725843,321.8699103820313L709.7036429758618,321.8135626809567L703.459396412326,321.7996068573825L703.2865945922731,321.7986624774603L702.3670240920555,321.80076109935544L700.3211410498798,321.81429719731113L700.1417187915222,321.8119887171124L696.9628189660643,321.8039090311627L692.4355286048867,321.79887233967474L691.6271647075846,321.7966687861499L690.8834129360157,321.7921567460812L690.5988178919315,321.79236660846436L678.6907444572425,321.72363638212164L677.6577046726643,321.7252103633964L677.3381637706943,321.7230067895257L675.7550409857131,321.72489556716755L675.1237528623069,321.72699420846266L674.1481181440422,321.71828484347L672.1360077175214,321.725735023751L665.2911449346248,321.72258706110233L665.2756413765692,321.72248212899194L663.4379250274169,321.7245807709246L661.9289679120511,321.71985882580066L651.2643636364091,321.74157975023127L650.8040336666936,321.7408452271825L650.7814906552512,321.7407402953122L650.5398865586394,321.7392712489932L644.1312184767021,321.75385676831775L635.424504075896,321.75448635847897L633.5118678299787,321.74430797810464L630.2270409916482,321.74661647788344L626.997105129135,321.74546222807794L626.6791564844771,321.7408452271825L625.9738702974882,321.74136988650844L625.493762815875,321.7455671598859L622.6258559847056,321.74535729626814L620.7695353658855,321.7425241369069L619.91415797632,321.7565849919911L618.7642967867196,321.7402156359444L618.3865965912864,321.7498693628031L618.121192437985,321.752387724413L616.1221552820407,321.75354197321667L614.6139523938236,321.75070881676083L613.875312606262,321.75763430854204L612.3632547792859,321.74661647788344L610.585122374875,321.7661337675104L605.6475324448384,321.7517581340858L605.0571401934922,321.7476657957459L604.9471068328075,321.74745593218404L604.7883839195292,321.74724606861673L602.0204540870618,321.74388825079905L600.5168603647526,321.7534370415142L599.7735276082667,321.75102361197423L594.4253867003245,321.79383564500813L582.6594431816457,321.7819784137623L582.4920885576648,321.765084452079L582.162239884663,321.77683677703817L581.9472013442855,321.77494801169223L581.7230282751098,321.7737937659849L581.5861779491415,321.7622512997227L579.0091513882926,321.75700471862956L577.7303173562777,321.7762071886382L576.2601610375577,321.77180006846083L571.3327950755365,321.75070881676083L571.1056050977659,321.7506038850206L561.4520842163747,321.75595540199765L559.6804884472522,321.76728801432864L552.5676236175423,321.81660567684276L535.3760214006443,321.7578441718342L534.9527323642287,321.75070881676083L532.7648032090601,321.7491348405201L532.3726050917712,321.75406663170816L531.6545808462724,321.78040444368753L528.1162498829826,321.7602575993128L527.8531922141437,321.79383564500813L525.5408993824667,321.7600477360829L521.792725665825,321.7563751286666L521.0575218019412,321.75469622185665L518.8959905969741,321.76288088922183L518.7764036924082,321.7652943151743L517.6381073190878,321.7600477360829L517.2340091734532,321.76330061552835L516.1674481822693,321.77180006846083L513.4246592547561,321.7721148628416L512.7382287464843,321.777151571217L508.16928828609616,321.7865953908563L507.3562314198689,321.7791452674046L502.2553094106461,321.7793551301338L501.9516072787965,321.7770466398242L500.6100047874115,321.77767622815736L500.4162522132283,321.7753677373644L498.31078522631014,321.76749787736526L479.48024741543304,321.7937307138377L478.43237449693333,321.79561947473485L471.9497921544289,321.8121985789776L471.0630724366865,321.8084210645857L466.5015904447682,321.8053780655787L464.9421839134611,321.8096802362479L464.8920697095864,321.80569285863476L463.38043089769053,321.8094703743177L459.859614764855,321.8125133717608L457.2962480957003,321.7697014389487L456.1792376885751,321.77872554193436L452.27083260435666,321.7974033040591L446.2705366218961,321.8053780655787L445.0362857946657,321.7832375895987L445.031509022725,321.79519975013L443.45525808509774,321.8092605123811L424.04170268832604,321.845671475593L423.54433178531144,321.84745529372776L423.087437739272,321.8497637636633L417.50255330967775,321.87012024236947L414.53031172294686,321.867077266897L412.004153593125,321.8831315726875L409.4379376214074,321.8843907325604L408.4925557921033,321.90254359863775L406.96625145231883,321.8870139816554L397.8756354328598,321.88806328105466L397.2148486476399,321.8881682109868L392.61255458667983,321.830246678609L391.83511400247335,321.8276234108507L391.67245234741677,321.8299318865247L381.22531689963216,321.7794600614925L367.00897317806084,321.7728493830109L366.6776998537771,321.7602575993128L363.06310814546123,321.7345493125631L360.52060842741776,321.752387724413L360.3718580731038,321.7553258119492L360.05835098832176,321.75511594859154L354.0247852083048,321.7491348405201L353.13982535390824,321.7515482706308L353.09197383147875,321.74672140967596L343.55594477924205,321.72741393665774L340.62568850378557,321.7167108608328L338.9196266935778,321.75595540199765L332.6186454878625,321.73507397230287L332.2360009144559,321.7348641084127L322.29101314162654,321.71985882580066L319.8283776983226,321.71838977563584L311.62531942677197,321.6556400946665L308.97513283250737,321.71838977563584L304.85303005617607,321.7297224413237L302.49565120161424,321.71345796239484L301.1496071503534,321.71870457212344L301.1496071503534,321.7123037077886L300.9593743028654,321.71146424978997L300.8397035952821,321.71114945301906L300.4641822782796,321.71010013035357L296.31643577889554,321.72374131421657L290.67389487393666,321.7087360106884L288.7252233309191,321.7157664710994L287.97049336418604,321.6535414345999L278.1993130476094,321.5863840210027L278.15229955534414,321.58596428538794L277.2137057703767,321.5765202282678L269.7223027150703,321.50012788860977L259.68337176072964,321.5030660690459L259.173430405237,321.49593048610996L259.0664139531473,321.49519594044887L258.8030210722409,321.4930972381776L249.58334840734642,321.4427282180477L243.56419674617246,321.4557402453788L243.15993099450498,321.46056728237863L243.04403142266347,321.45038852702965L242.38014392583318,321.4558451809976L213.05562478093998,321.60915464489153L212.96469850802168,321.5970872716616L209.72613093480504,321.63475840242654L209.7190076784027,321.63234493698565L206.50457537394504,321.67158989312884L206.20648804420125,321.6809289050625L202.66790567186217,321.7069521615367L197.7264608030673,321.77295431445646L195.8512007025165,321.74168468208745L195.1313327906537,321.7605723941465L191.72624862362318,321.76959650745766L191.04233220584683,321.770226096377L187.57649085184312,321.81838950147494L184.55740337887983,321.8206979798192L183.50031212856447,321.805902720665L183.47399798137667,321.8252100037507L180.03991797063463,321.8681265689147L175.77132752143552,321.8794590219268L174.41883063790374,321.86560824383923L170.9872647176544,321.88753863137026L169.8850036414351,321.8923654071391L157.75501981901652,321.9759940802078L157.63576812651627,321.98438837790764L145.4937166697182,322.06549782450156L145.33641840771998,322.0695899998286L143.78555978409713,322.0767250697413L140.79479773071762,322.09309373542555L140.69951370093986,322.09750067814184L134.8064017766028,322.13474973959L131.97888799939392,322.14156997144755L128.94748148300278,322.15542027050196L125.16318866624351,322.1828060183234L125.0628764554749,322.1888917272986L99.85099034604536,322.33505227434216L91.63770810647839,322.38258272964595L91.63770810647839,322.38016949039184L89.3113363680277,322.3955932243457L88.13532863727414,322.40000000000055L88.1594639060313,319.07754463909396L88.15963151206415,318.4411048524639L88.16206179954315,318.2969724752761L88.17647591838431,318.0640246903695L88.16214560255867,317.99200790939676L88.15686601251946,310.48567641411L88.17144773739165,309.9159112731295L88.14773148371933,308.544608738458L88.14412795400858,308.544608738458L88.15527375520469,306.78672991305075L88.15854207284974,294.5381694651496L88.18359917478665,290.3795461467503L88.17077731326026,289.13214463728127L88.15762023966818,284.5872655251237L88.14798289276769,284.56554822389535L88.19533159710045,282.2248960823604L88.18259353858957,278.5457654178499L88.18318015970544,275.9243950594532L88.17597310028577,275.91225803993075L88.17211816152485,272.2562664965585L88.1733752067721,268.3931136422643L88.15410051297295,265.3083512654366L88.16390546590628,264.6821645893351L88.16432448098931,262.9073287161532L88.18745411354757,257.63140805692774L88.19021961309227,253.77843160072325L88.19047102214063,252.69745185277134L88.18108508429214,251.5133157552873L88.19114144627383,249.95109675676667L88.16583293528674,245.35008942141485L88.14220048462994,241.504332542665L88.09946094620682,238.47273053424806L88.07557708649983,236.90557907011544L88.0688728451787,234.71918814190167L88.05328548410762,230.07271109896647L88.0008247957685,223.89131389887916L88.00090859878401,223.68233577525143L87.9338661855727,211.19618183009925L87.96646555899679,204.01218188604844L87.93847535148052,202.73372102782787L87.96680077106248,200.94755041346525L87.95448172763645,189.4059083688153L87.94023521482814,187.3990292307799L87.93646407908636,182.75391393173095L87.90872528061846,175.05004726088737L87.95079439490837,171.6941507211809L87.90939570474984,171.27936112732914L87.87688013434308,167.64530989839432L87.88199211834944,162.10561998567846L87.88207592136678,162.09094867908743L87.89464637384299,160.13609549356033L87.88534423901183,157.99206312236265L87.88819354157204,156.3916581791932L87.88634987520891,153.93955934293854L87.87989704293796,150.3323961741703L87.89783088847253,144.4990246022512L87.89548440400904,143.92701548715922L87.89062382905104,143.89749612820196L87.89338932859755,142.66251921307457L87.89095904111673,142.4660468276361L87.88626607219157,141.4984275308384L87.87260618050095,135.40000684480492L87.87998084595347,135.27223321215388L87.87294139256664,133.70997739295035L87.86648856029569,132.27071367114695L87.87604210417885,130.5493481360645L87.87151674128472,129.0514132503822L87.77237777274968,103.8811191720747L87.72519667445158,94.95605022073823L87.71547552453558,94.16531819359898L87.61499570773412,76.19605463651806L87.57217236629549,68.54904371842031L87.55482514187679,65.30854005585888L87.53781312952378,63.723511258492636L87.53789693254112,63.16775597429614L87.51191799742082,54.174309980369344L87.51242081551936,50.85993728102403L87.52239337448555,50.616418830693874L87.50127501432326,46.798421108032926L87.48887216787989,44.811484307959745L87.44965235615018,38.96746418205112L87.47672073048489,38.122421896802734L87.43523823730902,35.75113829372822L87.37992824641151,20.12149931959857L87.37456485335315,18.559013605738983L87.37079371761138,17.450159375854582L87.35353029620819,16.758788678476776L87.33886476831867,0.00918977368155538L98.65629454261034,0.0021880423769289337L99.70550830937464,4.547473508864641e-13L104.99775260530078,0.04135389253406174L105.74058254368902,0.0250530468888428L107.79157756987115,0.03982227096776114L108.02832109152587,0.04485474065040762L122.92774320071112,0.059295721782746114L123.03350260755178,0.04934019989877925L130.03407139513365,0.060499135618556465L140.51481185254124,0.08073833923435814L141.12288654037184,0.0883964019776613L144.108536609745,0.07012643931238927L146.7455661304175,0.06367177115953382L148.3229903102747,0.050981220903850044L150.84085194146246,0.065969196057722L151.4640111722656,0.065969196057722L154.63863704388132,0.06771961455115161L157.45777051943878,0.06640680071814131L159.36965253820745,0.07340847182513244L160.49378620173775,0.07592469577821248L161.34028047155334,0.0672820099666751L164.50778308676308,0.0804101363692098L170.42343802254254,0.09353823970104713L173.15801425443897,0.09911767662924831L180.72199072204785,0.11126114259332098L195.68895806254295,0.09408524350465086L196.24599671331634,0.11312095095536279L197.8287842862319,0.09758606690638771L198.1130441182504,0.1149807588517433L198.84849939118612,0.11957557637651917L202.00728649267694,0.10152449127008367L203.95193549090254,0.10940133377152961L205.19096309007364,0.139924020008948L208.92019732498375,0.1374078176149851L209.43877039117615,0.12964040488486717L211.74494560264793,0.13926761946731858L213.03148951218463,0.13926761946731858L216.45241244933277,0.14462822220639282L218.4558073621356,0.1526144191552703L219.30565375261358,0.15425541746844829L219.4032004638375,0.1525050192544768L219.99660962377857,0.1573186133600757L221.81521888516545,0.1495512213341499L222.4848887901353,0.15184861981788345L226.5913204023782,0.1480196219526988L239.86806470278498,0.16836798809936226L240.05016865767175,0.16071000734473273L241.22952850908587,0.16771159005656955L242.77544275473338,0.18248053206662007L243.05777511737324,0.17383796954800346L243.3315595723252,0.17241577475488157L243.51106563370195,0.17733875556814382L244.37909727876104,0.17164997745021537L260.04162965632895,0.1814959368430209L260.40323967259064,0.1763541596669711L263.6249628394871,0.14758202207349314L263.93922415141606,0.17263457397120874L265.1111255343603,0.18007374351009275L267.1035422519999,0.1805113414866355L274.91876016312017,0.19276407444567667L278.08324586973686,0.16574239558303816L278.3781486848511,0.14856662176725877L279.04077913643414,0.17624476011314982L279.6591615952966,0.19910923182806073L280.514538984864,0.1468162222204228L281.74384543411907,0.1460504222882264L282.77629859758235,0.14812902191897592L290.4269273842674,0.14178382123100164L290.6252053213411,0.14189322128913773L301.0325343362838,0.12427979138965384L301.2665961614075,0.13182840929175654L301.37880840052094,0.13675141685507697L301.73036205480093,0.13401641305063094L302.7977610761518,0.13346941217105268L307.58819290918655,0.09758606690638771L308.5033218495282,0.141565021110182L309.2790025703889,0.13051560672329288L318.72242928937703,0.13270361087097626L319.06158009721366,0.12526439415523782L319.37072942513623,0.14036162033744404L321.79724576832086,0.11902857443601533L322.1024563544688,0.13182840929175654L324.95125609787283,0.12537379445757324L326.5254119600868,0.12351398914643141L327.25340876455084,0.1246079923275829L327.41623802564027,0.12964040488486717L328.08641074870866,0.12964040488486717L328.85312454680206,0.13532921500018347L332.77368106841277,0.10907313216875991L333.57173719468483,0.10600991649198477L335.9109307946619,0.11257394854555969L341.37983184940276,0.09824247111100703L341.5170173874376,0.09069381927110953L343.74332832416985,0.10611931707353506L345.4066505959563,0.10032108404675455L345.45408310330276,0.09780486831232338L346.3517810162084,0.0924442319692389L346.3593232876956,0.09747666619932716L348.54884470017714,0.10469710938969001L356.95730416520746,0.08741179434946389L358.1193167922029,0.09222543040596065L361.7552782697312,0.08784939775705425L361.9448406930878,0.09036561684251865L366.02152223446683,0.10283729893035343L367.35323596990384,0.10743212392617352L368.80369857974074,0.08631778572362236L368.94222496603834,0.0718768568312953L369.03910125313087,0.06717260881532638L370.50297234561185,0.08730239349642943L370.7623426817245,0.08226995241193436L372.0940564171615,0.09769546761162928L372.2062686562749,0.10032108404675455L373.19380340288626,0.07318966970160545L375.4527137130426,0.08336396163076643L377.1633846891582,0.07504948754285579L378.6821467574573,0.07461188338766078L379.9091067222489,0.09714846407223376L381.3666087854763,0.09594505613995352L383.0538149169679,0.09036561684251865L385.7790890140295,0.0917878272548478L403.92395054378176,0.07067344483084526L404.40975663051904,0.07351787288462219L405.93580956125334,0.09353823970104713L410.6727750697537,0.059952129352041084L411.8600962077344,0.07428368025330201L412.4505722620979,0.07920672574391574L414.98460787547265,0.07767511193787868L418.53550929123776,0.10229029576748871L420.5153555563993,0.09419464426127888L421.12988307650267,0.08828700113599552L422.69230651640646,0.09671086120897598L422.90918872314614,0.10677572052873074L425.67946504007705,0.10272789830059992L426.0360468753461,0.11038593850162215L429.21813121543164,0.11465255749226344L432.601678007215,0.12165418337599476L437.2569355746127,0.11596536284514514L438.83335411827284,0.12001317789690802L440.4315614462266,0.13697021711413981L441.8378598663621,0.12668659792643666L442.01988001823156,0.13171900908309908L445.56231732932974,0.10885433108978759L446.0968967716781,0.12964040488486717L446.22863511363903,0.127671200374607L446.3508199117168,0.12778060063919838L467.5058857946815,0.13795481821034628L467.8349802405355,0.13817361843393883L467.928588209983,0.14517522226924484L471.86557012283174,0.12198238442942966L473.4262336993879,0.13171900908309908L475.0368438737851,0.12187298407661729L475.6751714505781,0.12449859201615254L475.8421908624923,0.12701479875613586L479.75830582422986,0.12056017976237854L481.284107345914,0.13478221421610215L481.33640042821935,0.12974980512126422L490.14434887297557,0.18040194199375037L490.1518073414454,0.18543431696525658L493.73606235778425,0.18816930193997905L493.9137247527942,0.1764635592180639L495.4569573019153,0.1763541596669711L498.7526785323935,0.18237113260556725L499.1366639540638,0.1474726220985758L506.52834141972016,0.201187816694528L508.10886631118865,0.19910923182806073L509.9221959825363,0.18587191462711417L517.7219103356019,0.18116773840438327L520.708147026091,0.1875129056370497L520.8930164805224,0.1855437163840179L521.1608509213038,0.1875129056370497L521.2651856768653,0.18729410685864423L542.3341858618696,0.2192386609535788L543.3441798169051,0.24954210141777367L543.802163302159,0.2484481165379293L545.816117395043,0.2402432248190962L546.6539799541579,0.22656838526290812L547.7426649417021,0.24002442758228426L549.3253687116003,0.25282405510370154L550.3197753055647,0.2331323113758117L555.1104585476505,0.2402432248190962L555.312340014435,0.232694716478818L555.6388365667772,0.24013382620069024L568.9706394490349,0.2771104675389324L569.2630281736538,0.2767822733012508L574.4499320778223,0.27032778372176836L575.7348837300442,0.2661706518883875L576.0422731946201,0.26715523595385093L581.5570144993935,0.29176979538897285L581.5669870583579,0.2966926975432216L582.1602286122679,0.29352016097209344L583.9393666528767,0.2986618574955173L583.9518533023374,0.29483293488920026L586.969348517985,0.2891442462478153L587.6721206144794,0.27995481698280855L590.1614054170332,0.26638944835985967L592.4744524758589,0.26726463417617197L593.5984185333564,0.27612588478496036L598.0013452180274,0.2889254504434575L604.3381103117945,0.2945047414295914L612.2574953724443,0.29647390195941625L612.5465319764035,0.29527052614275817L646.8486150902108,0.3459215406410294L649.8119735571918,0.3460309377092017L652.460651697158,0.34614033477555495L652.4510981532758,1.0287468347974027L652.5033912355811,1.3722143384452465L652.5594554536292,1.5367231170107516L652.9452845416636,2.0570239135113297L654.0172927289204,2.7844217905535515L655.27081824995,3.3958362041676082L655.679022743393,3.6931595327860123L656.3521285720399,4.652955311832557L656.7042688474357,5.2796317404040565L657.3242435636112,5.9620064531864045L658.0676601231144,6.365914084211454L658.4549976654453,6.477189809682841L658.9282332997045,6.493257975082997L659.8418537857497,6.4223173111199685L660.1579587640426,6.474785047266323L660.3844783176828,6.556437229472522L661.1646005984194,7.021739277138295L661.4286639034572,7.541439900371188L661.4778562741521,8.20142404188482L661.3672362923517,8.82616412653897L661.0542320256691,9.620427737310365L661.0055424730735,9.953449217570778L661.0164368652213,10.233577858060926L661.055237661868,10.373638246372138L661.3735215185898,10.834879436341453L661.5904037253304,10.981701553580024L662.0539182096745,11.202257044741145L662.4101648328788,11.282109857433625L663.2575809358768,11.270858418282387L663.8573591250724,11.056313177667107L664.9017123168805,10.51467924921235L665.2210018098021,10.486383862232287L665.7545756159516,10.627859727416308L666.0564340814371,10.820677739502116L666.2452422776469,11.068111140902147L666.3490742151089,11.496976328735855L666.3589629710568,11.777921048108055L666.2786796812352,12.440262203267139L666.3360847475478,12.818919384827495L666.5134957335094,13.277716576961211L666.8075605184604,13.642135067327672L667.0040785921874,13.805828221678894L667.5555862438714,14.099243887307239L669.4205385733912,14.64531367138261L670.7407712955664,15.303034138594285L671.1727758457,15.44027032060876L671.4634885099895,15.45828442991342L673.8936921859031,15.168306594696787L674.7646569365415,15.121249644956606L675.1312951337932,15.040782667790154L675.6101455701591,14.735611717306256L675.9555816042339,14.387843616604187L676.165843372668,13.821225459032576L676.1912356866724,13.589499150061783L676.1218467889976,12.725212525946063L676.1810955216743,12.402690328123754L676.2524118887286,12.238638827157047L676.7255637199714,11.564701136928306L677.1941063853055,11.282765280551303L677.5889861991236,11.212525443210325L677.976239938439,11.23382686320474L679.1105137669665,11.604243402923203L679.3878179486128,11.641382357563998L680.160984578979,11.553777822212396L681.3680832288583,11.15353657917467L681.7090777030562,11.095093449886917L682.3573778388163,11.219407447066715L683.0003983845345,11.481902013868876L683.7859678613431,12.00227601653205L684.1981948995799,12.506012531095166L684.3387325582753,12.794564451542556L684.3838185811601,13.028936441918631L684.3927855039274,13.43388250063299L684.2910486418787,13.861301807829477L684.0398910013837,14.26991544543398L683.4257824963634,14.886615569806963L683.2621990081261,15.164376095129683L683.122750788646,15.529467032016328L683.1093423060038,16.016809503159493L683.3439907522443,16.52682574066239L683.5209827231229,16.76086266764969L684.4851364281267,17.684713188091337L685.2588058765914,18.25049357096168L685.8434157197989,18.437331415585504L686.4120191868524,18.500191699472907L687.290274799926,18.442569792711765L687.5571036045094,18.480984446435286L687.7716393267883,18.58225849896644L688.2677531845557,19.037974804251917L688.463517031134,19.299868191585574L688.6003673571022,19.601907204917097L688.6422688653602,19.946705655411733L688.6925506752686,20.74317310498327L688.6590294686621,21.441376352696352L688.2745412288932,22.48376011589744L688.0103941208381,22.822318235534567L687.4901449943136,23.10676505067204L687.2661395311698,23.164351130009436L684.5308090721264,23.31093188294608L684.1914906582588,23.471469421840084L683.9340477915257,23.68958557405449L683.7262163105688,24.03332376007711L683.6779457730554,24.49394313845687L683.718171220984,24.853346198368854L683.8053263581578,25.067933023145088L684.1915744612752,25.563378353496773L684.4785159898211,25.84772129017756L685.2696164657218,26.453004434486502L685.6463948279716,26.62742855900524L686.1533192748702,26.618707449023987L686.7473150559272,26.418119123276483L687.0731411841371,26.2053152143244L687.0921644688851,26.190052407042003L687.1734533949048,26.12507610878947L687.1861914534156,26.114828117784327L687.2025330416354,26.10174555574895L687.2090696769237,26.096512524549325L688.0238026034813,25.444753576110543L688.2302932361727,25.327871447077996L688.2334777508013,25.327871447077996L689.0948051545392,25.138588317907306L689.2205096793132,25.14949185353362L689.4301010236159,25.280333045554016L689.5893267549936,25.454784420287524L689.7653130896751,25.76006457009771L689.9664403293109,26.217961516849755L690.0753842507802,27.242677301023832L689.997615051454,27.696559896992767L689.782073692978,28.40893892797567L689.1786919740716,29.324381918638665L688.7177753832402,29.771164767506434L688.0054497428646,30.174336236677846L687.3684630143352,30.38136182655353L686.7339065732849,30.474194606882975L686.4576918308512,30.456761308385012L685.8328565397178,30.284169470595316L685.1409788353712,29.956408399682005L684.1620757994624,29.23981710075259L683.3897471992614,28.56326428013972L682.9271545481006,28.258207079929434L682.5931995272886,28.125673902781273L682.266032550815,28.08556471708289L682.0434517389504,28.115210657600528L681.6411972596798,28.401200779510873L681.2027398772752,28.837140377933338L680.7750092809838,29.593871436758036L680.7093077160362,29.900726823351306L680.7200345021492,30.571820330937044L680.9400174205011,32.28703684439006L680.8957694277815,33.86071739202225L680.8180002284553,34.285885729722395L680.7000055812023,34.57338347974019L680.2803200744956,35.12221229780562L679.8418626920911,35.42013116812632L679.6246452732848,35.50549755782913L678.8362264939133,35.644869172816925L678.1807192987344,35.65477752523111L677.5401290404952,35.73251952960709L677.0132594756669,35.89616708902122L676.7611800019904,36.047834601802606L676.2351484673263,36.525137240059394L675.9796330699728,36.85511595009939L675.1566874477976,38.22114566851724L675.0238596666204,38.57662759457844L674.5625240607069,39.15008707433708L674.1465258867274,39.85681114577437L673.8239680761626,40.67608835116471L673.6934029764325,41.25841846437697L673.6743796916835,41.62159033717353L673.8537181470256,42.45840742848395L674.2811973342677,43.29349995354096L674.4040525564778,43.802755427196644L674.4110920098647,44.025611846861466L674.3437143845877,44.50849918369204L674.1667224137072,45.11032489206946L673.7035431414306,45.8818399386264L673.528143427864,46.09071717520146L673.3084119185642,46.24674610673128L672.8893968359889,46.46605099729277L672.487477568784,46.56357819205914L672.2490579868008,46.5740158103813L671.8695979280201,46.50421396293859L670.7946566351848,46.040591515756205L670.2733180694458,46.08517183665526L669.991823736973,46.185965882668825L669.6454658697176,46.393421229661726L669.3791398832327,46.66860606733371L669.2913143219257,46.82179627562846L668.8200899600633,48.42092050651718L668.7798645121356,48.985261890694346L669.1362787413746,50.25205012542938L669.3632173100959,50.75496777521448L669.6739588953333,51.22329869974146L670.5274088155202,52.212674424822126L671.3646009505028,53.03060959936329L671.8064942565852,53.3738791285632L673.3132724935213,54.17865460340181L673.571469587403,54.414455267249195L673.9236936658153,54.84628482859216L674.0598735676522,55.11583995407727L674.119122300328,55.45239023615295L674.2427317496868,56.972055368167275L674.3463960811159,57.56365935621443L674.4651449555176,57.83637438372398L674.8787966450345,58.49553978999893L675.1536705392036,58.788411364451804L675.496592482782,59.09375425577855L675.9080652938701,59.3747716992566L676.9701009221608,59.96933498981707L678.6509380243988,60.4723654222812L679.1198997048159,60.687459045984724L679.7926703213952,61.299498225424486L680.0730752146555,61.76728411715567L680.2567714268553,62.80236502791922L680.5629876491994,63.344369733167696L681.1400552209216,63.82352768511555L682.0827553536956,64.19711313741436L682.3851166372815,64.42891341543418L682.6654377275245,64.76548301556431L682.797092266469,65.08631112094463L682.7661689533743,65.729336355962L682.8026232655602,66.17060506408097L682.8570952262935,66.36547518713542L683.1535902987234,66.83739360963818L683.3498569634012,67.00535563323956L683.5626328223325,67.1592181529636L683.8564461982332,67.26602010614488L684.7398975983324,67.38030194798739L685.0654723174921,67.30635507093257L685.3475532710809,67.179060660309L685.8736686087595,66.90614029854805L686.5238124108828,66.47966219239652L687.0973602559097,66.39648911212271L687.3599989096665,66.42381596164932L687.600764976115,66.51935071940352L687.931451679282,66.8046465445018L688.2706024871177,67.44459827870332L688.4129000091589,67.89118790216162L688.4290739913467,68.33319785743379L688.238673537825,68.90992945233756L687.9155291061434,69.28629900772376L687.4368462758111,69.59848075429363L686.9420732663075,69.69560133884261L686.7583770541078,69.77190949551687L686.4673291777517,69.99389248727493L686.0650746984802,70.38928357036866L685.8880827276007,70.6580683509942L685.8371304935599,70.84361098797535L685.7848374112546,71.29964506628812L686.0007139817972,73.97287432614758L686.229999034982,75.24143970725709L686.4136952471817,75.85663532845956L686.6724789621794,76.5150992609938L687.0774151379792,77.16311055308051L687.7613315557564,77.99989881053853L688.1367690697434,78.34117102989876L688.4934347080298,78.57849341817155L689.3944847415969,78.93522090167335L690.274081202936,79.36998351896L691.1751312365031,79.94847362087967L691.8845237713012,80.60485058032236L692.4195222287326,81.26982895685387L692.7533934465273,81.96072132141808L692.9062501486496,82.8437252567528L692.868706397252,83.21594123459818L692.7279173295055,83.67988722570863L692.1324968971694,84.77894090310292L692.1190884145271,85.12336991084203L692.245128151365,85.43316959232061L692.4020912012984,85.63392688308386L693.0631293955648,86.28981241913334L693.3232539588271,86.42478974995038L694.0794923798585,86.64455540023846L695.0851285780354,86.7068500185137L696.1175817414969,86.52861683380615L696.4113113143812,86.58399069823417L696.6057343126959,86.69300681415734L696.9141294134697,86.97678746120619L697.106876351455,87.29256748766284L697.5426520373321,88.438781949445L698.1460337562385,89.53066074610524L699.0511063345994,90.25496155829933L699.9226577063519,90.57925298601867L700.3752777985492,90.68734705438874L701.4563367115898,90.70896568362423L702.2524653684804,90.55763398790077L703.744578077527,89.67552643032877L704.5068503157454,89.1414556810937L705.0850911296984,89.05496295976945L706.0237687176796,89.30362688043306L706.4679247052072,89.6171480539133L706.7629113233406,90.81186951600057L706.5852489283288,91.94112594534181L707.5657442215524,92.3193807038906L708.462436498261,92.42745003631899L709.8117488671642,92.04920065346141L710.4905533009351,91.68174037849167L711.0771744165395,91.62770060497314L711.6722596368108,91.72497192077844L712.1499368309451,91.93031839004561L712.4935291986558,92.2221169915847L712.661135231685,93.79979698248644L712.4432473887464,94.28600224486672L711.7811197552628,95.08547223006099L711.336963767736,95.76592786637184L711.2280198462668,96.06838107097474L711.2012028809813,96.71213430000353L711.2112592429621,99.28660293613484L711.2028789413116,100.13952765763906L711.2112592429621,101.86667758081649L711.1190759247975,110.91680359038537L711.1358365280994,115.20630174147482L711.1358365280994,115.42179085033376L711.1582957365254,115.70277951784601L711.148909798676,115.75966553619719L711.1443006327663,121.47444433621104L711.1443006327663,123.04608615732468L711.1443006327663,123.16448444962407L711.1476527534287,123.25446592649223L711.1443006327663,123.9071228619814L711.1443006327663,124.57435967887704L711.1443006327663,125.41370402901521L711.1784922635052,127.52747558520014L711.1436302086349,129.30178846389163L711.0298257122085,136.67859312834617L711.0250489402679,136.86554393535016L710.8452076668264,148.1725431981463L710.8566886800891,149.28531597731535L710.8237540945984,149.77079620263248L710.8195639437727,150.9734238088422L710.8213238071194,154.09714654205936L710.8200667618712,154.10025537273077L710.7971047353458,154.48231038615768L710.7986969926606,157.34701186926168L710.789059645761,157.55060530632545L710.7578849236179,163.57807026812588L710.7510130762639,164.35717412461054L710.7535271667584,164.4870349616699L710.739280653951,165.08470921945081L710.6974629487104,173.01816245275995L710.7058432503618,174.1939685055031L710.7004798573053,176.6322658476147L710.7019045085863,177.18924179525857L710.7280510497385,180.24607034725886L710.742716577628,181.465430082103L710.7458172892402,181.9188752327036L710.7554546361389,182.48604486390423L710.7554546361389,183.80020206396375L710.741124320316,184.98590277617632L710.740705305232,185.14702191138485L710.753862378825,187.23091191448975L710.7603990141133,190.7129181090877L710.7586391507657,191.8628917571873L710.7566278783706,192.68811338770593L710.7567116813871,192.85899242269215L710.7429679866791,194.32346986838093L710.7407891082485,194.6651521882095L710.7219334295323,195.74875302133069L710.6926861767697,198.1627987635593L710.6653663933848,198.93821734050425L710.656315667602,200.09603172834431L710.6391360492162,208.8748477060335L710.6367895647536,209.02834042496488L710.6396388673156,209.64707061850686L710.6458402905382,212.10947672487328L710.6264817937235,216.8415096865392L710.6052796305439,217.33734161118855L710.5975697530239,219.1194392908128L710.5971507379418,221.19424849413554L710.5944690414135,221.3578075933633L710.592960587117,221.95462577138278L710.5810605587703,222.33643370321397L710.5742725144337,222.76880094281842L710.5790492863753,223.0344361843213L710.5452766707194,224.97393719084494L710.5275104312195,225.98854124951367L710.5211414019632,226.478907237537L710.501280087049,228.06460631493383L710.483262438499,228.96839159841284L710.4905533009351,229.58639233586564L710.4766420001943,230.58256490577605L710.440941915158,232.47647159078315L710.438930642762,233.29591858905815L710.4044037999583,235.21675154033028L710.3324170087717,240.14675576962964L710.3251261463356,244.7321655125852L710.3111310425775,245.53009616813824L710.3253775553849,248.9194701665242L710.3382832199286,249.18496123669001L710.3352663113328,249.2927647813799L710.3186733140637,249.76282601061303L710.3313275695573,250.72499248988288L710.3445684461667,252.78467241672934L710.3528649448026,254.5311028467413L710.367698078725,257.3535075434056L710.356971292611,257.4564387220489L710.369122730006,261.435764686481L710.3664410334759,261.47774068674335L710.3860509393417,261.9520433683829L710.379430501037,262.9780507475134L710.3772516226063,263.38217956208337L710.4005488611992,266.09637744488555L710.4105214201645,266.7614410938136L710.3909115142997,270.7486389279502L710.3775030316574,272.23757735256277L710.3777544407058,272.70869922010934L710.3742347140133,273.2077705367874L710.3756593652943,273.21864480913337L710.3759945773609,273.8082613272986L710.3817769854995,275.38844872289974L710.3706311843025,276.8957183143011L710.3500156422406,278.4390999405905L710.3461607034806,279.97237011996503L710.3404620983574,283.009654232505L710.3403782953401,283.0234674720955L710.3478367638108,283.34928422151506L710.339540265175,286.0837181525726L710.3345958872014,286.24972726831584L710.338534628977,287.64649024484106L710.3027507409261,296.40455432712497L710.2957950905557,296.7034004246307L710.2987281961332,297.5731374738457L710.296465514687,297.70080596550406L710.2906831065484,299.8422361649691L710.2834760471269,299.8880071528488L710.2823028048961,301.84097251336516L710.266715443825,302.6393585568958L710.2693971403532,303.3127174592296L710.2796211083669,304.8450746929334L710.3030021499753,307.7747764767546L710.3027507409261,308.04702223317963L710.2912697276633,309.7902253851589L710.2963817116715,310.75709389591975L710.3040915891897,311.5232755761108L710.3016613017107,311.8389941027822L710.3014936956788,311.85759011139316L710.3021641198102,312.59950390089807L710.2989796051825,312.65181976611166L710.3105444214616,313.79228324238284L710.3195113442289,315.7120149913867L710.3119690727426,317.41941985682524L710.3094549822481,320.728083480813Z" class="state" fill="coral" stroke="#111" stroke-width="0.5"></path></g></svg>