<?xml version="1.0" encoding="UTF-8" standalone="no"?>
<!-- Created with Inkscape (http://www.inkscape.org/) -->

<svg
   width="500"
   height="800"
   viewBox="0 0 132.29167 211.66667"
   version="1.1"
   id="svg1"
   inkscape:version="1.3.2 (091e20e, 2023-11-25, custom)"
   sodipodi:docname="01_youth.svg"
   xml:space="preserve"
   inkscape:export-filename="01_youth.png"
   inkscape:export-xdpi="96"
   inkscape:export-ydpi="96"
   xmlns:inkscape="http://www.inkscape.org/namespaces/inkscape"
   xmlns:sodipodi="http://sodipodi.sourceforge.net/DTD/sodipodi-0.dtd"
   xmlns="http://www.w3.org/2000/svg"
   xmlns:svg="http://www.w3.org/2000/svg"><sodipodi:namedview
     id="namedview1"
     pagecolor="#ffffff"
     bordercolor="#000000"
     borderopacity="0.25"
     inkscape:showpageshadow="2"
     inkscape:pageopacity="0.0"
     inkscape:pagecheckerboard="0"
     inkscape:deskcolor="#d1d1d1"
     inkscape:document-units="mm"
     inkscape:zoom="0.72426347"
     inkscape:cx="-358.29503"
     inkscape:cy="423.18854"
     inkscape:window-width="1920"
     inkscape:window-height="1009"
     inkscape:window-x="1912"
     inkscape:window-y="-8"
     inkscape:window-maximized="1"
     inkscape:current-layer="layer1"
     showgrid="false" /><defs
     id="defs1"><rect
       x="26.233547"
       y="139.45201"
       width="512.24453"
       height="262.33547"
       id="rect8" /><rect
       x="22.091408"
       y="197.44196"
       width="479.10742"
       height="171.20841"
       id="rect2" /><rect
       x="62.132088"
       y="675.16864"
       width="668.26508"
       height="201.58411"
       id="rect1" /><rect
       x="26.233547"
       y="139.45201"
       width="471.6465"
       height="49.73008"
       id="rect8-3" /></defs><g
     inkscape:label="Layer 1"
     inkscape:groupmode="layer"
     id="layer1"
     transform="translate(-74.273847,-182.25543)"><rect
       style="fill:#e20c8d;fill-opacity:0.60000002;fill-rule:evenodd;stroke:#cae7fd;stroke-width:0"
       id="rect3"
       width="132.29167"
       height="211.66667"
       x="74.273849"
       y="182.25543" /><text
       xml:space="preserve"
       transform="matrix(0.26458333,0,0,0.26458333,74.273847,182.25543)"
       id="text2"
       style="font-weight:bold;font-size:42px;line-height:1.5;font-family:'Public Sans';-inkscape-font-specification:'Public Sans, Bold';letter-spacing:0px;word-spacing:0px;white-space:pre;shape-inside:url(#rect2);display:inline;fill:#ffffff;fill-opacity:1;fill-rule:evenodd;stroke:#cae7fd;stroke-width:0" /><text
       xml:space="preserve"
       transform="matrix(0.34199817,0,0,0.34199817,43.854297,290.64872)"
       id="text8"
       style="font-weight:bold;font-size:42px;line-height:0;font-family:'Public Sans';-inkscape-font-specification:'Public Sans, Bold';letter-spacing:0px;word-spacing:0px;white-space:pre;shape-inside:url(#rect8);display:inline;fill:#ffffff;fill-opacity:1;fill-rule:evenodd;stroke:#cae7fd;stroke-width:0"
       x="117.36908"
       y="0"><tspan
         x="97.199417"
         y="177.60862"
         id="tspan2"><tspan
           style="line-height:1.2;text-align:center;text-anchor:middle"
           id="tspan1">Road to Statehood
</tspan></tspan><tspan
         x="204.45696"
         y="228.00861"
         id="tspan4"><tspan
           style="line-height:1.2;text-align:center;text-anchor:middle"
           id="tspan3">January
</tspan></tspan><tspan
         x="224.64846"
         y="278.40861"
         id="tspan6"><tspan
           style="line-height:1.2;text-align:center;text-anchor:middle"
           id="tspan5">Youth</tspan></tspan></text><text
       xml:space="preserve"
       transform="matrix(0.34193589,0,0,0.34193589,50.543507,138.66609)"
       id="text8-5"
       style="font-weight:bold;font-size:42px;line-height:0;font-family:'Public Sans';-inkscape-font-specification:'Public Sans, Bold';letter-spacing:0px;word-spacing:0px;white-space:pre;shape-inside:url(#rect8-3);display:inline;fill:#ffffff;fill-opacity:1;fill-rule:evenodd;stroke:#cae7fd;stroke-width:0"
       x="117.36908"
       y="0"><tspan
         x="143.37602"
         y="177.60862"
         id="tspan8"><tspan
           style="line-height:1.2;text-align:center;text-anchor:middle"
           id="tspan7">Kansas 250</tspan></tspan></text><g
       id="g819"
       transform="matrix(0.06200869,0,0,0.06200869,80.891339,215.33125)">
	<rect
   x="1.04"
   fill="#45c4f9"
   stroke="#45c4f9"
   stroke-width="0.0938"
   width="1918.96"
   height="1533"
   id="rect701"
   y="0" />
	<path
   fill="#b8ffff"
   stroke="#b8ffff"
   stroke-width="0.0938"
   d="M 0,0 H 1.04 C 0.94,191.35 1.05,382.7 1.01,574.05 0.93,617.84 1.14,661.64 0.9,705.43 L 0.81,706.59 0,705.68 Z"
   id="path703" />
	<path
   fill="#64bad3"
   stroke="#64bad3"
   stroke-width="0.0938"
   d="m 1.04,0 h 1.01 c 0.57,4.29 0.45,8.63 0.41,12.95 0,224.02 0,448.03 0,672.04 0.04,6.82 -0.19,13.66 0.3,20.47 C 2.3,705.45 1.37,705.44 0.9,705.43 1.14,661.64 0.93,617.84 1.01,574.05 1.05,382.7 0.94,191.35 1.04,0 Z"
   id="path705" />
	<path
   fill="#6ac7b8"
   stroke="#6ac7b8"
   stroke-width="0.0938"
   d="m 1113.79,95.65 c 19.2799,-25.58 48.62,-43.27 80.1499,-48.75 2.29,-0.25 4.8501,-0.86 6.9501,0.52 -19.54,2.62 -38.73,9.16 -55.0701,20.33 -25.13,16.4 -43.8999,42.2 -51.9199,71.11 -7.77,28.2 -5.73,59.15 6.4199,85.83 10.5601,23.66 28.67,43.83 50.9901,56.97 8.6599,4.92 17.6599,9.65 27.49,11.7 2.9199,0.73 5.84,1.5 8.74,2.36 0.35,0.37 1.0499,1.1 1.3999,1.46 l -0.09,0.4 c -7.59,-0.81 -14.76,-3.97 -21.95,-6.45 -18.39,-7.77 -35.23,-19.5 -48.15,-34.8 -21.88,-25.34 -33.37,-59.46 -30.8199,-92.85 2.04,-24.38 10.72,-48.46 25.86,-67.83 z"
   id="path707" />
	<path
   fill="#ccf587"
   stroke="#ccf587"
   stroke-width="0.0938"
   d="m 1200.89,47.42 c 4.61,-1.21 9.4,-0.99 14.13,-1.05 5.3199,0.06 10.72,-0.19 15.9399,1.15 16.1901,2.32 32.11,7.13 46.3501,15.29 17.45,9.73 32.45,23.75 43.5099,40.37 4.2201,6.42 8.25,13.11 10.64,20.45 -4.1599,-4.6 -6.0499,-10.66 -9.4099,-15.8 -9.7001,-15.77 -22.9,-29.41 -38.4501,-39.47 -16.16,-11.07 -35.36,-16.9 -54.62,-19.5 -12.84,-0.65 -25.96,-1.16 -38.5,2.15 -49.36,8.86 -90.28,51.5 -97.84,100.96 -3.54,18.16 -2.03,37.08 2.74,54.86 4.08,13.11 9.3199,26.08 17.63,37.14 8.63,12.78 19.91,23.7 32.6799,32.31 7.7401,5.41 16.14,9.91 25.04,13.08 2.8,1.07 5.91,1.74 8.0701,4 -9.8301,-2.05 -18.8301,-6.78 -27.49,-11.7 -22.3201,-13.14 -40.4301,-33.31 -50.9901,-56.97 -12.1499,-26.68 -14.1899,-57.63 -6.4199,-85.83 8.02,-28.91 26.7899,-54.71 51.9199,-71.11 C 1162.16,56.58 1181.35,50.04 1200.89,47.42 Z"
   id="path709" />
	<path
   fill="#6fc8b4"
   stroke="#6fc8b4"
   stroke-width="0.0938"
   d="m 1230.96,47.52 c 1.73,-1.41 4.02,-0.61 6.03,-0.49 9.71,1.19 18.88,4.71 28.03,7.99 10.26,5.06 20.71,10.09 29.51,17.53 20.3099,15.93 35.65,38.09 43.1,62.83 5.2,16.29 6.72,33.63 5.08,50.63 -0.1699,4.76 -2.21,9.32 -1.24,14.14 -0.59,-0.11 -1.77,-0.32 -2.35,-0.43 0.13,-1.48 0.25,-2.95 0.4401,-4.42 0.6899,-5.75 1.4099,-11.51 1.95,-17.27 0.38,-18.55 -2.91,-37.24 -10.05,-54.4 -2.39,-7.34 -6.4199,-14.03 -10.64,-20.45 C 1309.7602,86.56 1294.7602,72.54 1277.3102,62.81 1263.0699,54.65 1247.15,49.84 1230.96,47.52 Z"
   id="path711" />
	<path
   fill="#f7fb42"
   stroke="#f7fb42"
   stroke-width="0.0938"
   d="m 1190.48,51.01 c 12.54,-3.31 25.66,-2.8 38.5,-2.15 19.26,2.6 38.46,8.43 54.62,19.5 15.55,10.06 28.75,23.7 38.4501,39.47 3.36,5.14 5.25,11.2 9.4099,15.8 7.14,17.16 10.4301,35.85 10.05,54.4 -0.54,5.76 -1.26,11.52 -1.95,17.27 -0.78,0.79 -1.55,1.59 -2.3101,2.4 -7.59,-0.04 -15.37,-0.96 -22.76,1.24 -7.95,2.13 -15.99,4.49 -23.1799,8.58 -6.0701,4.38 -12.6101,8.58 -16.8,14.95 -3.3,4.5 -5.22,9.76 -7.26,14.89 -5.46,2.51 -11.66,1.93 -17.24,4.02 -5.84,2.05 -12.04,4.7 -15.49,10.13 -3.74,4.57 -4.86,10.44 -6.21,16.01 -8.8401,0.72 -18.6901,-2.21 -26.55,3.26 -3.76,3.11 -8,6.3 -9.79,11.01 -2.84,4.08 -4.8099,8.87 -4.4299,13.93 -2.9,-0.86 -5.8201,-1.63 -8.74,-2.36 -2.16,-2.26 -5.27,-2.93 -8.0701,-4 -8.9,-3.17 -17.2999,-7.67 -25.04,-13.08 -12.7699,-8.61 -24.0499,-19.53 -32.6799,-32.31 -8.3101,-11.06 -13.55,-24.03 -17.63,-37.14 -4.77,-17.78 -6.28,-36.7 -2.74,-54.86 7.5599,-49.46 48.4799,-92.1 97.8399,-100.96 z"
   id="path713" />
	<path
   fill="#fdfdfd"
   stroke="#fdfdfd"
   stroke-width="0.0938"
   d="m 174.04,124.09 c 20.47,-2.32 41.58,-2.3 61.56,3.3 10.88,2.81 20.46,9.54 31.72,11.05 10.05,1.71 20.33,0.21 30.37,1.97 11.36,1.4 22.48,6.14 30.69,14.23 4.8,4.82 7.97,11.56 7.27,18.47 0.03,4.1 -2.75,7.58 -5.85,9.97 -11.93,8.01 -25.62,13.35 -39.86,15.34 -6.3,0.51 -11.09,5.94 -12.88,11.69 -8.03,4.36 -17.37,3.97 -26.17,5.2 -9.25,1.18 -18.58,1.58 -27.89,2.1 -34.03,0.47 -68.16,0.56 -102.05,-3.03 -7.6,-1.09 -15.53,-1.42 -22.57,-4.79 -3.13,-1.48 -6.48,-2.6 -9.3,-4.65 -4.26,-3.21 -3.56,-9.77 -8.01,-12.79 -5.97,-3.86 -13.53,-4.65 -19.05,-9.3 -4.39,-3.35 -7.2,-8.46 -8.38,-13.79 -0.84,-5.83 4.48,-9.85 8.97,-12.35 10.13,-5.04 21.19,-8.11 32.36,-9.78 9.36,-1.43 18.88,-1.88 28.14,-3.92 7.38,-4.2 13.81,-10.39 22.23,-12.63 9.51,-2.31 19.01,-4.79 28.7,-6.29 z"
   id="path715" />
	<path
   fill="#fdfdfd"
   stroke="#fdfdfd"
   stroke-width="0.0938"
   d="m 945.02,850.75 c 5.8,-0.25 11.62,-0.18 17.43,-0.1 l 0.58,0.88 c 0.04,0.16 0.1299,0.47 0.17,0.62 29.77,226.4399 59.8,452.85 89.6,679.2899 106.0499,0.09 212.1,0.08 318.1499,0.1001 98.6801,0.27 197.3601,0.21 296.04,0.48 47.08,0.03 94.1801,0.1799 141.27,0.14 3.6899,0 7.39,-0.07 11.1,0.03 v 0.01 l 0.97,0.8 H 856.28 c 0.17,-0.4 0.5099,-1.2 0.68,-1.61 l 0.2,-1.02 c 25.64,-198.28 51.36,-396.5599 77.03,-594.85 3.53,-27.77 7.32,-55.52 10.71,-83.32 z"
   id="path717" />
	<path
   fill="#54bee6"
   stroke="#54bee6"
   stroke-width="0.0938"
   d="m 289.94,198.42 c 14.24,-1.99 27.93,-7.33 39.86,-15.34 0.14,2.17 -1.46,3.59 -3.2,4.5 -7.7,4.13 -15.63,7.96 -24.15,10.09 -5.65,2 -11.88,1.95 -17.3,4.59 -4.73,2.08 -4.26,8.92 -9.07,10.95 -4.45,1.97 -9.49,1.48 -14.12,2.83 -5.4,1.6 -11.08,0.83 -16.6,1.58 -5.1,0.66 -10.19,1.45 -15.34,1.57 -26.02,0.04 -52.04,0.27 -78.05,-0.11 -7.37,-0.1 -14.57,-2.07 -21.94,-1.99 -2.94,-0.19 -6.18,0.3 -8.81,-1.28 l -0.27,-1.43 c 33.89,3.59 68.02,3.5 102.05,3.03 9.31,-0.52 18.64,-0.92 27.89,-2.1 8.8,-1.23 18.14,-0.84 26.17,-5.2 1.79,-5.75 6.58,-11.18 12.88,-11.69 z"
   id="path719" />
	<path
   fill="#54bee6"
   stroke="#54bee6"
   stroke-width="0.0938"
   d="m 1016.81,500.9 c 1.11,-0.33 2.27,-0.57 3.44,-0.73 1.94,5.43 5.6,10.99 3.9399,16.99 -0.6599,3.6 -3.5499,6.09 -5.14,9.26 -5.51,0.84 -10.46,3.59 -15.87,4.77 -16.64,2.27 -33.46,1.33 -50.21,1.48 -40.65,0.06 -81.3,-0.02 -121.95,0.02 -13.95,-0.23 -28.02,0.65 -41.87,-1.09 -5.39,-2.85 -11.72,-4.88 -15.47,-10 0.58,0.05 1.74,0.14 2.33,0.19 5.15,3.65 10.77,6.88 17,8.23 3.29,0.58 6.66,0.3 9.99,0.35 59,-0.01 118,0 177,-0.01 11.03,0.13 22.5,0.08 32.8,-4.38 4.28,-1.9 8.77,-5.08 9.61,-10.03 1.0201,-5.62 -2.2399,-10.84 -5.5999,-15.05 z"
   id="path721" />
	<path
   fill="#f7f99b"
   stroke="#f7f99b"
   stroke-width="0.0938"
   d="m 1337.25,197.7 c 0.76,-0.81 1.53,-1.61 2.3101,-2.4 -0.1901,1.47 -0.3101,2.94 -0.4401,4.42 -8.8199,-0.53 -17.8,-0.91 -26.38,1.55 -11.9299,2.99 -23.61,8.26 -32.36,17.11 -5.36,4.95 -8.66,11.61 -10.91,18.45 -1.28,3.94 -6.14,3.34 -9.37,4.01 -8.9299,1.7 -18.96,4.07 -24.48,11.99 -3.89,4.71 -4.5599,10.96 -6.24,16.62 -6.83,1.11 -13.6901,-2.7 -20.38,-0.01 -7.4,1.37 -11.4301,8.11 -17.03,12.35 1.79,-4.71 6.03,-7.9 9.79,-11.01 7.86,-5.47 17.71,-2.54 26.55,-3.26 1.35,-5.57 2.47,-11.44 6.21,-16.01 3.45,-5.43 9.65,-8.08 15.49,-10.13 5.58,-2.09 11.78,-1.51 17.24,-4.02 2.04,-5.13 3.96,-10.39 7.26,-14.89 4.1899,-6.37 10.73,-10.57 16.8,-14.95 7.1899,-4.09 15.23,-6.45 23.1799,-8.58 7.3901,-2.2 15.1701,-1.28 22.7601,-1.24 z"
   id="path723" />
	<path
   fill="#ffffff"
   stroke="#ffffff"
   stroke-width="0.0938"
   d="m 1312.74,201.27 c 8.58,-2.46 17.5601,-2.08 26.38,-1.55 0.58,0.11 1.76,0.32 2.35,0.43 7.2101,2.13 13.76,6 20.4301,9.41 1.96,-0.08 3.5,-1.53 5.24,-2.33 7.54,-3.88 15.3199,-7.84 23.9,-8.66 13.9099,-1.23 27.8099,2.75 40.12,9.03 8.58,4.71 16.45,11.32 21.12,20.06 1.95,3.33 2.83,7.13 4.36,10.66 9.1899,2.84 19.5699,2.56 27.62,8.55 7.52,4.64 9.74,13.73 11.5,21.78 6.1,0.68 12.2,-1.61 18.28,-0.28 4.89,0.66 9.4099,3.23 12.6,7 4.92,4.66 10.51,10.35 10.0499,17.69 0.26,4.67 -3.87,7.93 -7.4199,10.18 -7.59,3.78 -16.1801,5.02 -24.5601,5.29 -3.88,4.73 -9.5299,7.37 -14.62,10.51 -8.0399,4.81 -17.37,6.43 -26.2899,8.77 -3.75,0.93 -8.4601,0.25 -10.8,4 -6.8101,9.43 -18.37,12.93 -28.98,16.14 -9.13,2.26 -18.17,5.06 -27.49,6.41 -20.47,1.5 -41.04,4.43 -61.5701,2.23 -11.49,-0.57 -22.85,-2.73 -33.99,-5.53 -11.95,-2.55 -24.4399,-4.54 -34.9199,-11.24 -4.28,-2.85 -9.3201,-5.71 -10.87,-10.97 -1.01,-3.28 -2.53,-6.79 -6.03,-8.01 -7.88,-2.88 -16.09,-6 -21.87,-12.37 -11.15,0.17 -22.92,-0.26 -32.88,-5.87 -2.38,-1.21 -3.92,-3.37 -5.4601,-5.42 -0.35,-0.36 -1.0499,-1.09 -1.3999,-1.46 -0.38,-5.06 1.59,-9.85 4.4299,-13.93 5.6,-4.24 9.63,-10.98 17.03,-12.35 6.6899,-2.69 13.55,1.12 20.38,0.01 1.6801,-5.66 2.35,-11.91 6.24,-16.62 5.52,-7.92 15.55,-10.29 24.48,-11.99 3.23,-0.67 8.09,-0.07 9.37,-4.01 2.25,-6.84 5.55,-13.5 10.91,-18.45 8.75,-8.85 20.4301,-14.12 32.36,-17.11 z"
   id="path725" />
	<path
   fill="#ffffff"
   stroke="#ffffff"
   stroke-width="0.0938"
   d="m 339.02,393.13 c 5.79,-3.13 12.37,-5.33 19.03,-4.5 10.78,1.33 22.02,5.55 28.83,14.41 2.41,2.92 3.12,6.9 5.36,9.84 5.39,1.3 11.39,1.4 15.99,4.95 4.26,2.81 6,7.97 6.61,12.81 4.57,0.21 9.38,-1.19 13.76,0.67 3.7,1.31 6.14,4.56 8.59,7.44 2.56,3.05 3.78,8.19 0.52,11.21 -4.12,4.1 -10.34,4.43 -15.78,5.06 -3.25,1.06 -5.52,3.94 -8.6,5.39 -6.78,4.42 -14.92,5.7 -22.7,7.25 -2.82,3.58 -6.24,6.82 -10.63,8.33 -11.83,4.52 -24.35,7.29 -37.02,7.68 -13.63,1.48 -27.5,0.93 -40.9,-1.98 -9.84,-2.33 -20.54,-3.51 -28.64,-10.14 -2.53,-1.79 -3.61,-4.78 -4.32,-7.66 -4.92,-2.87 -11.02,-3.88 -14.95,-8.33 -6.7,-1.35 -14.01,-0.06 -20.08,-3.88 -4.93,-2.16 -5.08,-9.04 -1.86,-12.73 2.92,-3.42 6.04,-7.4 10.74,-8.25 4.01,-0.99 8.12,0.51 12.13,-0.35 -0.14,-6.74 4.54,-12.99 10.94,-14.96 3.88,-1.7 8.27,-1.4 12.13,-3.03 2.4,-9.1 9.73,-16.15 18.26,-19.68 7.64,-3.16 16.21,-5.45 24.44,-3.37 4.49,0.87 8.36,3.42 12.49,5.21 2,0.94 3.89,-0.63 5.66,-1.39 z"
   id="path727" />
	<path
   fill="#feffff"
   stroke="#feffff"
   stroke-width="0.0938"
   d="m 1741.46,399.39 c 12.6801,-4.72 27.0701,-7.05 40.14,-2.47 7.9601,2.95 15.5601,6.92 22.65,11.62 7.54,4.97 13.63,12.42 16.11,21.19 1.1,4.8 1.75,9.7 2.38,14.59 6.0601,1.45 6.78,8.31 7.74,13.41 3.7001,2.56 7.39,5.23 10.52,8.5 4.39,0.94 8.61,-1.28 13.02,-0.92 8.14,0.18 15.46,5 20.53,11.12 3.4399,4.16 6.4099,9.64 4.87,15.19 -1.4601,4.81 -6.13,7.51 -10.52,9.24 -8.23,3.19 -17.16,3.94 -25.91,3.64 -60.33,0 -120.66,-0.03 -180.98,0.02 -7.21,0.56 -13.91,-2.96 -19.79,-6.73 -5.4399,-3.77 -10.6599,-9.76 -9.89,-16.83 0.65,-8.15 7.4601,-14.91 15.39,-16.36 6.4501,-0.96 13.0601,-0.32 19.37,1.31 1.2001,-7.48 2.8,-15.79 8.92,-20.92 7.5,-6.8 18.01,-8.1 27.6,-9.61 3.29,-0.28 3.5701,-3.92 4.48,-6.35 5.4799,-14.61 18.95,-24.77 33.37,-29.64 z"
   id="path729" />
	<path
   fill="#fefefe"
   stroke="#fefefe"
   stroke-width="0.0938"
   d="m 887.04,420.04 c 12.96,-3.9 27.61,-4.23 39.98,1.81 11.72,5.41 24,11.82 30.86,23.28 4.77,7.19 4.44,16.12 6.57,24.19 0.69,0.09 2.06,0.28 2.74,0.38 3.15,3.35 3.94,8.04 4.6,12.42 4.25,2.8 7.91,6.39 12.04,9.37 3.75,0.01 7.34,-1.46 11.11,-1.34 8.54,-0.48 16.48,4.45 21.87,10.75 3.36,4.21 6.62,9.43 5.6,15.05 -0.84,4.95 -5.33,8.13 -9.61,10.03 -10.3,4.46 -21.77,4.51 -32.8,4.38 -59,0.01 -118,0 -177,0.01 -3.33,-0.05 -6.7,0.23 -9.99,-0.35 -6.23,-1.35 -11.85,-4.58 -17,-8.23 -4.29,-3.68 -8.32,-8.82 -7.87,-14.8 0.16,-6.53 4.22,-12.93 10.2,-15.69 7.83,-4 17.05,-2.84 25.2,-0.5 1.48,-5.46 1.9901,-11.32 5.03,-16.23 4.37,-7.71 13.08,-11.7 21.46,-13.29 4.67,-1.29 9.66,-1.17 14.14,-3.12 2.77,-9.87 8.32,-19.21 16.71,-25.29 7.59,-6.24 16.8,-10.1 26.16,-12.83 z"
   id="path731" />
	<path
   fill="#4d9607"
   stroke="#4d9607"
   stroke-width="0.0938"
   d="m 129.01,487.09 c 16.55,-21.43 44.31,-32.69 71.05,-31.78 11.54,-0.43 23.07,1.76 33.86,5.78 21.71,7.96 40.95,25.33 46.93,48.19 7.08,0.07 14.2,-0.3 21.24,0.59 16.99,2.83 33.11,10.59 45.94,22.07 8.45,6.89 14.88,15.75 21.19,24.53 0.58,1.98 1.35,3.92 2.38,5.73 10.29,18.45 15.31,39.68 15.04,60.77 0.08,19.8101 -4.42,39.7 -13.67,57.27 -12.23,23.32 -32.67,43.21 -58.17,51.13 -18.65,6.18 -39.38,5.6 -57.65,-1.64 -2.4,-0.99 -4.84,-1.84 -7.29,-2.67 -0.19,-0.07 -0.58,-0.22 -0.77,-0.29 -0.31,-0.1 -0.92,-0.3 -1.23,-0.4 -4.28,-3.45 -9.49,-5.45 -13.89,-8.7 -4.36,-5.39 -5.91,-12.36 -9.28,-18.32 -0.57,0.01 -1.71,0.03 -2.28,0.04 -5.11,9.17 -9.45,19.48 -18.34,25.69 -4.6,4.23 -11.2,2.73 -16.83,3.54 -5.4,3.25 -10.19,7.45 -14.94,11.59 -3.09,2.62 -6.89,4.54 -9.19,8 -3.43,4.55 -2.44,10.63 -4.67,15.69 -1.46,-3.58 -0.94,-7.44 -0.63,-11.16 -15.81,-1.26 -31.7,-5.59 -45.05,-14.37 -6.07,-4.55 -12.39,-8.89 -17.73,-14.31 -3.43,-4.28 -7.16,-8.44 -9.5,-13.44 l -0.19,-0.4 c -0.63,-5.9 -4.72,-10.45 -6.82,-15.8 -1.97,-4.83 -3.01,-9.97 -4.36,-14.98 -2.06,-7.64 -1.75,-15.62 -1.65,-23.45 -0.03,-2.15 0.28,-4.63 -1.57,-6.15 -19.31,-17.19 -32.03,-42.75 -30.65,-68.9 -0.45,-11.86 2.8,-23.57 7.47,-34.38 1.52,-3.74 4.08,-7 5.07,-10.96 15.3,-24.31 41.44,-40.97 69.55,-46.09 2.29,-0.44 4.99,-0.52 6.63,-2.42 z"
   id="path733" />
	<path
   fill="#42ab81"
   stroke="#42ab81"
   stroke-width="0.0938"
   d="m 49.36,540.18 c 0.86,-1.73 2.17,-3.17 3.47,-4.58 -0.99,3.96 -3.55,7.22 -5.07,10.96 -4.67,10.81 -7.92,22.52 -7.47,34.38 -1.38,26.15 11.34,51.71 30.65,68.9 0.2,6.71 -0.29,13.46 0.54,20.16 1.11,14.07 6.47,27.42 13.5,39.53 -7.36,0.62 -14.66,-0.82 -21.99,-1.21 -20.71,-0.83 -41.44,-2.21 -62.18,-1.73 l 0.09,-1.16 c 0.47,0.01 1.4,0.02 1.86,0.03 15.44,0.46 30.93,-0.56 46.31,1.03 5.68,-0.12 11.25,1.31 16.94,1.07 5.33,-0.16 10.57,1.06 15.89,1.11 -0.29,-4.55 -3.23,-8.2 -4.77,-12.34 C 73.22,687.69 71.55,678.3 70,669.02 69.22,662.97 69.8,656.86 69.72,650.78 54.17,636.77 43.08,617.7 39.69,596.96 c -3.35,-19.31 0.58,-39.53 9.67,-56.78 z"
   id="path735" />
	<path
   fill="#53be9a"
   stroke="#53be9a"
   stroke-width="0.0938"
   d="m 369.22,556.47 c 1.11,1.26 2.32,2.5 3.14,4 6.73,11.7401 10.99,24.77 13.75,37.97 0.62,5.93 1.63,11.81 2.2,17.73 1.26,31.23 -8.5,63.39 -29.19,87.13 -12.9,15.28 -30.62,26.54 -50.11,31.17 -8.72,2.89 -17.99,2.07 -27.01,2.19 -7.2,0.19 -14.15,-1.95 -20.95,-4 -3.9,-1.47 -8.39,-2.24 -11.19,-5.6 2.45,0.83 4.89,1.68 7.29,2.67 18.27,7.24 39,7.82 57.65,1.64 25.5,-7.92 45.94,-27.81 58.17,-51.13 9.25,-17.57 13.75,-37.46 13.67,-57.27 0.27,-21.09 -4.75,-42.3199 -15.04,-60.77 -1.03,-1.81 -1.8,-3.75 -2.38,-5.73 z"
   id="path737" />
	<path
   fill="#38943a"
   stroke="#38943a"
   stroke-width="0.0938"
   d="m 71.48,670 c -0.83,-6.7 -0.34,-13.45 -0.54,-20.16 1.85,1.52 1.54,4 1.57,6.15 -0.1,7.83 -0.41,15.81 1.65,23.45 1.35,5.01 2.39,10.15 4.36,14.98 2.1,5.35 6.19,9.9 6.82,15.8 -0.09,-0.17 -0.27,-0.52 -0.36,-0.6899 C 77.95,697.42 72.59,684.07 71.48,670 Z"
   id="path739" />
	<path
   fill="#8f5901"
   stroke="#8f5901"
   stroke-width="0.0938"
   d="m 222.41,699.39 c 0.57,-0.01 1.71,-0.03 2.28,-0.04 3.37,5.96 4.92,12.9301 9.28,18.32 0.35,0.41 1.03,1.24 1.38,1.65 1.68,5.5 0.77,11.35 2.28,16.86 0.5,6.01 -1.19,11.87 -1.22,17.86 -0.18,4.34 -1.13,8.62 -0.97,12.9901 0.07,15.49 -0.81,31.09 1.81,46.4399 0.3,7.59 2.06,15.01 2.74,22.57 1.75,12.81 3.43,25.63 4.96,38.47 1.39,9.81 3.03,19.6 3.56,29.51 0.25,14.01 -0.02,28.01 -0.11,42.02 -1.29,12.03 -0.15,24.31 -3.06,36.15 -5.03,1.26 -9.96,3.33 -15.2,3.47 -3.3,0.23 -3.52,-4.06 -4.67,-6.2599 -6.5,-15.67 -14.69,-30.63 -23.97,-44.83 -2.38,-3.54 -3.95,-8.29 -8.35,-9.8 -2.86,-0.92 -6.17,-1.9 -9.07,-0.83 -7.67,8.79 -10.51,20.54 -17.05,30.06 -4.23,6.45 -8.75,12.69 -12.66,19.35 -4.87,1.16 -9.89,1.32 -14.88,1.2401 -0.09,-17.2 -0.02,-34.39 0.06,-51.59 -0.15,-8.91 0.83,-17.8 1.91,-26.63 0.74,-11.89 2.95,-23.61 4.53,-35.4 4.09,-27.28 6.86,-54.73 11.27,-81.96 0.62,-5.02 1.36,-10.05 1.18,-15.11 2.23,-5.06 1.24,-11.14 4.67,-15.69 2.3,-3.46 6.1,-5.38 9.19,-8 4.75,-4.14 9.54,-8.34 14.94,-11.59 5.63,-0.81 12.23,0.69 16.83,-3.54 8.89,-6.2102 13.23,-16.5202 18.34,-25.6902 z"
   id="path741" />
	<path
   fill="#4bc5bd"
   stroke="#4bc5bd"
   stroke-width="0.0938"
   d="m 1869.9,705.59 c 15.45,-0.19 30.89,-0.92 46.35,-1.01 l 0.05,1.61 c -13.78,0.27 -27.5901,-0.06 -41.3301,1.08 -13.98,0.62 -28.02,1.06 -41.88,3.02 -48.0499,4.05 -95.7899,12.03 -142.61,23.6 -41.4,9.92 -81.6799,23.9 -121.28,39.43 -37.1899,14.66 -74.33,29.43 -111.7699,43.42 -29.3101,11.23 -58.7401,22.2 -87.64,34.43 -87.92,0.28 -175.8401,0.04 -263.76,0.12 -14.49,0.17 -28.99,-0.37 -43.47,0.26 l -0.29,-0.33 c -0.36,-0.4399 -1.0701,-1.31 -1.4301,-1.75 99.7101,0.08 199.4501,0.0601 299.17,0.01 4.2,-0.24 8.6,0.23 12.61,-1.39 3.4401,-1.4 6.89,-2.81 10.37,-4.14 17.65,-7.84 36.03,-13.9 53.89,-21.23 36.58,-14.08 73.26,-27.81 109.66,-42.3199 39.73,-15.98 79.9399,-30.9901 121.24,-42.46 9.2999,-2.46 18.6599,-4.74 27.9399,-7.28 19.1901,-4.54 38.55,-8.24 57.88,-12.08 5.35,-1.44 10.98,-1.1 16.36,-2.45 15.9601,-2.66 32.03,-4.39 48.0701,-6.52 6.62,-0.47 13.2999,-0.51 19.86,-1.72 C 1848.54,706.87 1859.26,706.82 1869.9,705.59 Z"
   id="path743" />
	<path
   fill="#c6ffa9"
   stroke="#c6ffa9"
   stroke-width="0.0938"
   d="m 0,705.68 0.81,0.91 0.32,0.35 C 0.86,829.82 1.21,952.7 0.96,1075.58 L 0,1074.57 Z"
   id="path745" />
	<path
   fill="#2ba533"
   stroke="#2ba533"
   stroke-width="0.0938"
   d="m 0.81,706.59 c 20.74,-0.48 41.47,0.9 62.18,1.73 7.33,0.39 14.63,1.83 21.99,1.21 0.09,0.17 0.27,0.52 0.36,0.6899 l 0.19,0.4 c -6.54,0.07 -13.1,0.19 -19.58,-0.73 -5.63,-0.81 -11.33,-0.34 -16.98,-0.83 -12.61,-1.03 -25.32,0.07 -37.91,-1.32 -2.6,-0.17 -5.21,-0.09 -7.81,-0.2 -0.53,-0.15 -1.59,-0.45 -2.12,-0.6 z"
   id="path747" />
	<path
   fill="#2ba531"
   stroke="#2ba531"
   stroke-width="0.0938"
   d="m 1874.97,707.27 c 13.74,-1.14 27.55,-0.81 41.3301,-1.08 l 0.9199,0.01 c 0.04,0.53 0.1,1.59 0.13,2.13 -3.78,-0.4 -7.6,-0.85 -11.37,-0.34 -6.9399,0.86 -13.9399,0.34 -20.9,0.48 -15.0499,0.29 -30.0199,1.55 -45,2.78 -2.39,0.3 -4.72,-0.44 -6.99,-0.96 13.86,-1.96 27.9,-2.4 41.88,-3.02 z"
   id="path749" />
	<path
   fill="#4f9c2e"
   stroke="#4f9c2e"
   stroke-width="0.0938"
   d="m 1917.22,706.2 c 0.4401,0.01 1.3,0.03 1.73,0.03 0.13,133.71 -0.12,267.43 0.14,401.14 -0.21,13.2 -0.04,26.41 -0.08,39.62 0.22,9.35 -0.37,18.73 0.41,28.0701 -0.07,8.49 0.11,16.98 -0.12,25.47 -1.8201,-5.6801 -0.7001,-11.7001 -0.9601,-17.53 -0.22,-16.6801 0.41,-33.37 -0.65,-50.02 -0.2,-126.32 -0.1,-252.65 -0.09,-378.98 -0.14,-15.22 0.28,-30.46 -0.25,-45.67 -0.03,-0.5401 -0.09,-1.6001 -0.1299,-2.1301 z"
   id="path751" />
	<path
   fill="#c9ffaf"
   stroke="#c9ffaf"
   stroke-width="0.0938"
   d="m 1918.95,706.23 1.05,0.03 v 399.95 l -0.91,1.16 c -0.26,-133.71 -0.01,-267.43 -0.14,-401.14 z"
   id="path753" />
	<path
   fill="#419d1c"
   stroke="#419d1c"
   stroke-width="0.0938"
   d="m 1.13,706.94 c 0.53,0.15 1.59,0.45 2.12,0.6 -0.78,17.15 -0.5,34.32 -0.51,51.48 0,99.32 -0.03,198.64 -0.03,297.97 -0.06,28.33 0.1,56.66 -0.43,84.99 -0.03,27.34 0,54.6901 -0.04,82.03 0.19,4.84 -0.02,9.7 -1.2,14.42 -0.18,-29.16 0.15,-58.3301 -0.11,-87.4801 0.05,-25.13 0.22,-50.25 0.03,-75.37 C 1.21,952.7 0.86,829.82 1.13,706.94 Z"
   id="path755" />
	<path
   fill="#32ac01"
   stroke="#32ac01"
   stroke-width="0.0938"
   d="m 3.25,707.54 c 2.6,0.11 5.21,0.03 7.81,0.2 12.59,1.39 25.3,0.29 37.91,1.32 5.65,0.49 11.35,0.02 16.98,0.83 6.48,0.92 13.04,0.8 19.58,0.73 2.34,5 6.07,9.16 9.5,13.44 5.34,5.42 11.66,9.76 17.73,14.31 13.35,8.78 29.24,13.11 45.05,14.37 -0.31,3.72 -0.83,7.58 0.63,11.16 0.18,5.06 -0.56,10.09 -1.18,15.11 -4.41,27.23 -7.18,54.68 -11.27,81.96 -1.58,11.79 -3.79,23.51 -4.53,35.4 -1.08,8.83 -2.06,17.72 -1.91,26.63 -0.08,17.2 -0.15,34.39 -0.06,51.59 4.99,0.08 10.01,-0.08 14.88,-1.2401 3.91,-6.66 8.43,-12.9 12.66,-19.35 6.54,-9.52 9.38,-21.27 17.05,-30.06 2.9,-1.07 6.21,-0.09 9.07,0.83 4.4,1.51 5.97,6.26 8.35,9.8 9.28,14.2 17.47,29.16 23.97,44.83 1.15,2.2 1.37,6.49 4.67,6.2599 5.24,-0.14 10.17,-2.21 15.2,-3.47 2.91,-11.84 1.77,-24.12 3.06,-36.15 0.09,-14.0099 0.36,-28.0099 0.11,-42.02 -0.53,-9.91 -2.17,-19.7 -3.56,-29.51 -1.53,-12.84 -3.21,-25.66 -4.96,-38.47 -0.68,-7.56 -2.44,-14.98 -2.74,-22.57 -2.62,-15.35 -1.74,-30.95 -1.81,-46.4399 -0.16,-4.3701 0.79,-8.65 0.97,-12.9901 0.03,-5.99 1.72,-11.85 1.22,-17.86 34.68,8.18 68.38,20.07 101.65,32.73 38.38,14.79 76.47,30.33 115.01,44.71 32.07,12.25 64.26,24.24 95.91,37.56 1.98,1.03 4.19,1.38 6.41,1.59 15.29,7.77 31.86,12.49 47.62,19.17 13.3,5.33 26.8,10.13 40.45,14.48 12.22,4.19 24.97,6.59 37.16,10.87 25.06,6.85 50.3199,13.12 75.96,17.39 3.87,0.59 7.66,1.63 11.48,2.51 -6.53,5.86 -12.9901,11.8 -19.72,17.43 -5.96,6.06 -12.91,11.02 -18.77,17.18 -5.41,5.65 -12.27,9.69 -17.37,15.65 -11.12,10.57 -23.29,19.98 -34.18,30.8 -4.42,4.63 -9.91,8.08 -14.23,12.84 -4.54,4.84 -10.61,7.93 -14.95,12.9799 -3.29,3.7201 -7.04,6.9901 -10.99,9.9801 -4,2.98 -7.23,6.7999 -10.82,10.22 -21.6,18.71 -42.55,38.13 -63.88,57.13 -3.61,3.5699 -9.44,5.75 -10.18,11.38 -70.5,63.4099 -141.01,126.8099 -211.47,190.26 -6.91,1.7999 -11.24,7.8199 -16.1,12.5599 -4.33,4.42 -9.82,7.5 -13.97,12.11 -4.9,5.4601 -11,9.63 -16.15,14.8401 -7.09,6.2 -14.17,12.3999 -21,18.8899 -7.58,6.41 -14.96,13.0701 -22.22,19.8501 -6.53,6.5499 -14.16,11.86 -20.62,18.49 -5.37,4.5599 -10.4,9.51 -15.59,14.28 -9.95,7.6399 -18.2,17.24 -28.14,24.8999 -2.02,1.3301 -2.9,3.61 -3.78,5.76 -31.24,28.4 -62.92,56.3201 -94.04,84.86 4.3,0.11 8.6,0.06 12.9,0.07 -3.69,1.14 -7.65,0.03 -11.33,1.1799 -0.57,0.17 -1.72,0.52 -2.29,0.6901 -12.77,0 -25.55,-0.1901 -38.32,0.22 -14.64,0.87 -29.35,1.85 -44,0.63 -1.87,-0.22 -3.79,-0.33 -5.57,-0.98 -2.28,-2.73 -2.09,-6.64 -2.5,-9.98 v -9.85 c 1.18,-6.13 0.77,-12.38 0.8,-18.5701 -0.08,-30.65 0.06,-61.29 -0.02,-91.9299 0.05,-10.3501 -0.13,-20.7001 0.31,-31.04 -0.11,-17.65 0.11,-35.3101 0.13,-52.96 -0.12,-6.66 0.41,-13.3401 -0.53,-19.9501 0.04,-19.5599 0,-39.13 0.35,-58.6799 1.18,-4.7201 1.39,-9.5801 1.2,-14.42 0.04,-27.34 0.01,-54.6901 0.04,-82.03 0.53,-28.33 0.37,-56.66 0.43,-84.99 0,-99.33 0.03,-198.65 0.03,-297.97 C 2.75,741.86 2.47,724.69 3.25,707.54 Z"
   id="path757" />
	<path
   fill="#32ac01"
   stroke="#32ac01"
   stroke-width="0.0938"
   d="m 1885.08,708.47 c 6.9601,-0.14 13.9601,0.38 20.9,-0.48 3.77,-0.51 7.59,-0.06 11.37,0.34 0.53,15.21 0.11,30.45 0.25,45.67 -0.01,126.33 -0.11,252.66 0.09,378.98 1.0601,16.65 0.4301,33.34 0.65,50.02 0.26,5.83 -0.86,11.85 0.9601,17.53 0.3199,53.58 0.3199,107.1799 0.4399,160.77 -1.55,5.7799 -0.63,11.7799 -0.8199,17.6799 -0.01,20.35 -0.17,40.71 0.3099,61.0601 0.41,27.89 -1.3199,55.8099 0.59,83.6799 -0.6799,3.02 -0.5199,8.36 -4.8199,8.29 -17.04,2.04 -34.2,0.23 -51.26,-0.37 1.1,-0.37 2.21,-0.75 3.35,-1.12 -15.0499,-0.36 -30.1,-0.1901 -45.15,-0.2001 -2.5299,0.25 -4.1599,-1.95 -5.8899,-3.37 -4.79,-4.5699 -9.5901,-9.1399 -14.75,-13.2899 -5.52,-5.4701 -11.26,-10.7201 -17.27,-15.65 -12.5,-11.53 -25.27,-22.78 -37.86,-34.23 -3.3,-2.98 -6.3301,-6.65 -10.86,-7.6901 -16.63,-14.63 -32.9701,-29.59 -49.4801,-44.35 -0.5599,-2.3 -1.3099,-4.74 -3.48,-6 -6.39,-4.17 -11.66,-9.74 -17.25,-14.86 -4.24,-4.5 -9.5499,-7.78 -13.83,-12.22 -5.1901,-5.41 -11.3,-9.8101 -16.36,-15.3401 -6.63,-5.4199 -13.2001,-10.9199 -19.26,-16.99 -13.41,-11.58 -26.3201,-23.73 -39.6801,-35.36 -5.38,-5.2899 -11.5599,-9.6799 -16.7,-15.2 -4.71,-5.04 -10.6801,-8.67 -15.39,-13.6901 -5.8,-6.97 -14.02,-11.22 -20.02,-17.97 -7.66,-6.61 -15.13,-13.47 -22.28,-20.63 -3.83,-3.1799 -7.9199,-6.0499 -11.4399,-9.59 -4.86,-4.8201 -10.4301,-8.85 -15.16,-13.8 -5.9399,-6.12 -12.95,-11.0699 -18.9,-17.1799 -8.5499,-7.4401 -16.87,-15.13 -25.48,-22.5 -6.1,-6.24 -12.95,-11.64 -19.2999,-17.5901 -2.66,-2.4099 -5.3201,-5.0499 -8.9501,-5.8099 -0.48,-0.4301 -0.9299,-0.86 -1.36,-1.27 -1.79,-5.62 -7.26,-8.59 -11.46,-12.22 -5.77,-4.2001 -9.4501,-10.65 -15.5901,-14.39 -8.3199,-6.64 -16.0199,-14.03 -23.87,-21.21 -5.48,-5.5701 -12.0499,-9.9 -17.46,-15.54 -5.95,-6.1 -13.11,-10.85 -18.92,-17.09 -14.1,-13.1901 -28.99,-25.5 -43.0299,-38.75 -5.02,-4.7101 -10.62,-8.78 -15.38,-13.77 -5.0801,-5.31 -11.4401,-9.2 -16.29,-14.73 -4.79,-5.62 -11.72,-8.89 -16.21,-14.82 -3.13,-4.34 -7.8,-6.99 -11.92,-10.23 -7.97,-7.32 -16.16,-14.41 -24.0699,-21.79 -5.17,-5.19 -11.3101,-9.26 -16.37,-14.56 -4.4301,-3.87 -8.27,-8.86 -14.1001,-10.64 -5.9199,-5.36 -11.9399,-10.61 -17.7799,-16.06 13.0599,-3.51 26.7899,-4.15 39.6799,-8.37 8.73,-2.73 17.88,-3.65 26.65,-6.28 11.92,-2.11 23.37,-6.13 35.1801,-8.75 8.2699,-1.62 15.9099,-5.36 24.1399,-7.17 9.55,-3.45 19.65,-5.19 29.01,-9.19 7.74,-3.27 15.7101,-5.92 23.6901,-8.56 10.24,-3.84 20.52,-7.65 30.48,-12.22 4.72,-2.28 9.97,-3.53 14.26,-6.69 2.78,0.02 5.6801,-0.11 8.16,-1.54 28.8999,-12.23 58.33,-23.2 87.64,-34.43 37.4399,-13.99 74.58,-28.76 111.7699,-43.42 39.6001,-15.53 79.88,-29.51 121.28,-39.43 46.8201,-11.57 94.5601,-19.55 142.61,-23.6 2.27,0.52 4.6,1.26 6.99,0.96 14.98,-1.2297 29.9499,-2.4897 44.9999,-2.7797 z"
   id="path759" />
	<path
   fill="#4dc4bd"
   stroke="#4dc4bd"
   stroke-width="0.0938"
   d="m 233.97,717.67 c 4.4,3.25 9.61,5.25 13.89,8.7 -2.43,-0.51 -4.84,-1.1 -7.2,-1.87 -0.11,3.24 -1.87,6.9 -0.22,9.91 3.2,1.63 6.78,2.25 10.21,3.1801 8.11,1.85 15.91,4.79 23.96,6.85 14.4,5.05 29.2,8.95 43.33,14.76 34.75,12.26 68.58,26.94 103.14,39.7 10.14,4.5 20.7,7.95 31.06,11.91 31.56,12.28 63.3,24.09 94.62,37 2.28,0.97 4.7,1.67 7.2,1.69 91.68,0.03 183.37,0.02 275.06,0.02 4.5,-0.16 9.02,-0.52 13.52,0 0.94,0.5 1.88,1.01 2.84,1.53 l -1.73,0.35 c -97.81,-0.34 -195.64,0.12 -293.45,-0.22 -31.65,-13.32 -63.84,-25.31 -95.91,-37.56 -38.54,-14.38 -76.63,-29.92 -115.01,-44.71 -33.27,-12.66 -66.97,-24.55 -101.65,-32.73 0.98,-4 1.17,-8.17 0.84,-12.26 -0.74,-1.72 -1.97,-3.16 -3.12,-4.6 C 235,718.91 234.32,718.08 233.97,717.67 Z"
   id="path761" />
	<path
   fill="#6d6327"
   stroke="#6d6327"
   stroke-width="0.0938"
   d="m 235.35,719.32 c 1.15,1.44 2.38,2.88 3.12,4.6 0.33,4.09 0.14,8.26 -0.84,12.26 -1.51,-5.51 -0.6,-11.36 -2.28,-16.86 z"
   id="path763" />
	<path
   fill="#5bbde5"
   stroke="#5bbde5"
   stroke-width="0.0938"
   d="m 842.54,849.52 c 7.4901,-0.64 14.9901,-0.17 22.5,-0.24 26.3,-0.05 52.6,0.3 78.9,-0.19 12.01,-1.05 24.01,0.54 36.04,0.16 17.33,-0.04 34.67,0.11 52.01,0.09 9.62,0.15 19.24,-0.5 28.85,0.1299 0.36,0.44 1.0701,1.3101 1.4301,1.75 -33.0801,0.6 -66.16,0.17 -99.24,0.3101 l -0.58,-0.88 c -5.81,-0.08 -11.63,-0.15 -17.43,0.1 -11.99,0.65 -24.01,0.17 -36.01,0.31 -21.21,0.05 -42.43,-0.08 -63.63,-0.01 -0.9601,-0.52 -1.9001,-1.03 -2.8401,-1.53 z"
   id="path765" />
	<path
   fill="#4eb151"
   stroke="#4eb151"
   stroke-width="0.0938"
   d="m 550.2,851.18 c 97.81,0.34 195.64,-0.12 293.45,0.22 l 0.99,0.05 c -0.84,0.69 -1.62,1.46 -2.44,2.18 -2.96,-0.99 -6.08,-1.27 -9.18,-1.11 -92.13,0.3 -184.28,-0.19 -276.41,0.25 -2.22,-0.21 -4.43,-0.56 -6.41,-1.59 z"
   id="path767" />
	<path
   fill="#4eb151"
   stroke="#4eb151"
   stroke-width="0.0938"
   d="m 1062.5601,851.55 c 14.48,-0.63 28.98,-0.09 43.47,-0.26 87.9199,-0.08 175.84,0.16 263.76,-0.12 -2.48,1.43 -5.38,1.56 -8.16,1.54 -93.54,-0.27 -187.0699,0.01 -280.61,-0.14 -5.47,0.09 -11.0701,-0.59 -16.38,1.06 -0.7201,-0.69 -1.4301,-1.38 -2.08,-2.08 z"
   id="path769" />
	<path
   fill="#255d76"
   stroke="#255d76"
   stroke-width="0.0938"
   d="m 843.65,851.4 1.73,-0.35 c 21.2,-0.07 42.42,0.06 63.63,0.01 12,-0.14 24.02,0.34 36.01,-0.31 l -0.12,1.45 c -26.28,0.4 -52.58,0.05 -78.86,0.2 -3.07,0.05 -6.14,-0.1 -9.16,-0.52 -4.07,-0.57 -8.17,-0.19 -12.24,-0.43 z"
   id="path771" />
	<path
   fill="#010201"
   stroke="#010201"
   stroke-width="0.0938"
   d="m 963.03,851.53 c 33.08,-0.14 66.1599,0.29 99.24,-0.3101 l 0.29,0.33 c 0.6499,0.7 1.36,1.39 2.08,2.08 24.65,22.08 49.23,44.25 73.9,66.31 5.84,5.45 11.86,10.7 17.7799,16.06 57.5601,52.02 115.42,103.71 173.0601,155.65 23.91,21.3199 47.54,42.96 71.61,64.09 0.4301,0.41 0.88,0.84 1.36,1.27 53.64,48.59 107.66,96.76 161.41,145.23 40.75,36.4301 81.24,73.17 122.0699,109.5 16.51,14.76 32.8501,29.72 49.4801,44.35 21.71,19.8301 43.75,39.28 65.5399,59.02 6.12,5.74 12.8,10.9 18.51,17.08 -3.71,-0.1 -7.41,-0.03 -11.1,-0.03 -250.34,-225.12 -500.85,-450.05 -751.26,-675.09 -2.46,-1.93 -4.4399,-5.41 -7.97,-5.09 -28.61,0.13 -57.23,-0.19 -85.83,0.17 C 963.16,852 963.07,851.69 963.03,851.53 Z"
   id="path773" />
	<path
   fill="#010202"
   stroke="#010202"
   stroke-width="0.0938"
   d="m 844.64,851.45 c 4.07,0.24 8.17,-0.14 12.24,0.43 -248.96,224.0599 -497.99,448.04 -746.98,672.0599 -1.44,1.39 -2.82,2.8401 -4.25,4.2401 -0.41,0.37 -1.23,1.1 -1.64,1.47 -4.3,-0.01 -8.6,0.04 -12.9,-0.07 31.12,-28.5399 62.8,-56.46 94.04,-84.86 25.74,-22.77 51.11,-45.9299 76.74,-68.8199 26.85,-24.39 54.02,-48.4301 80.83,-72.86 70.46,-63.4501 140.97,-126.8501 211.47,-190.26 54.29,-48.54 108.27,-97.4301 162.48,-146.0601 18.22,-16.49 36.61,-32.8 54.76,-49.35 8.66,-7.99 17.52,-15.75 26.22,-23.68 14.86,-13.34 29.71,-26.69 44.55,-40.06 0.82,-0.7199 1.6,-1.4899 2.44,-2.1799 z"
   id="path775" />
	<path
   fill="#434343"
   stroke="#434343"
   stroke-width="0.0938"
   d="m 856.88,851.88 c 3.02,0.42 6.09,0.57 9.16,0.52 26.28,-0.15 52.58,0.2 78.86,-0.2 -3.39,27.8 -7.1801,55.55 -10.71,83.32 -25.67,198.29 -51.39,396.5699 -77.03,594.85 -27.05,-0.09 -54.1,-0.1899 -81.15,-0.04 -24.32,-1.1 -48.67,-0.2799 -73.01,-0.5599 -57.01,0.06 -114.02,-0.34 -171.03,-0.25 -103.33,0.06 -206.65,-0.1901 -309.98,-0.22 -7.34,0.2999 -14.66,-0.39 -21.98,-0.5801 -24.34,0.08 -48.68,-0.05 -73.03,0 -7.11,-0.03 -14.25,0.36 -21.33,-0.5399 1.43,-1.4 2.81,-2.8501 4.25,-4.2401 248.99,-224.02 498.02,-448.0001 746.98,-672.06 z"
   id="path777" />
	<path
   fill="#434343"
   stroke="#434343"
   stroke-width="0.0938"
   d="m 963.2,852.15 c 28.6,-0.36 57.22,-0.04 85.83,-0.17 3.53,-0.32 5.51,3.16 7.97,5.09 250.41,225.04 500.92,449.97 751.26,675.09 -47.09,0.04 -94.1901,-0.11 -141.27,-0.14 -98.6799,-0.27 -197.36,-0.21 -296.04,-0.48 -106.0499,-0.02 -212.1,-0.01 -318.1499,-0.1001 C 1023,1305 992.97,1078.59 963.2,852.15 Z"
   id="path779" />
	<path
   fill="#5bb300"
   stroke="#5bb300"
   stroke-width="0.0938"
   d="m 556.61,852.77 c 92.13,-0.44 184.28,0.05 276.41,-0.25 1.11,1.18 2.23,2.36 3.35,3.56 -8.29,5.49 -15.31,12.58 -22.11,19.78 -1.27,-0.83 -2.52,-1.64 -3.79,-2.45 -0.71,0.27 -1.42,0.55 -2.11,0.85 0.74,1.37 1.52,2.73 2.11,4.19 -4.3199,4.62 -9.2,8.77 -14.02,12.89 0.39,0.77 0.78,1.55 1.2,2.35 -8.7,7.93 -17.56,15.69 -26.22,23.68 -0.54,-0.05 -1.61,-0.14 -2.15,-0.18 -3.82,-0.88 -7.61,-1.92 -11.48,-2.51 -25.64,-4.27 -50.9,-10.54 -75.96,-17.39 -12.19,-4.28 -24.94,-6.68 -37.16,-10.87 -13.65,-4.35 -27.15,-9.15 -40.45,-14.48 -15.76,-6.68 -32.33,-11.4 -47.62,-19.17 z"
   id="path781" />
	<path
   fill="#5bb300"
   stroke="#5bb300"
   stroke-width="0.0938"
   d="m 1064.64,853.63 c 5.3099,-1.65 10.91,-0.97 16.38,-1.06 93.54,0.15 187.0699,-0.13 280.61,0.14 -4.29,3.16 -9.54,4.41 -14.26,6.69 -9.96,4.5699 -20.24,8.38 -30.48,12.22 -7.98,2.64 -15.9501,5.29 -23.6901,8.56 -9.36,4 -19.46,5.74 -29.01,9.19 -8.23,1.81 -15.87,5.55 -24.1399,7.17 -11.8101,2.62 -23.26,6.64 -35.1801,8.75 -8.77,2.63 -17.92,3.55 -26.65,6.28 -12.89,4.22 -26.62,4.86 -39.6799,8.37 -24.67,-22.06 -49.25,-44.23 -73.9,-66.31 z"
   id="path783" />
	<path
   fill="#61ad16"
   stroke="#61ad16"
   stroke-width="0.0938"
   d="m 833.02,852.52 c 3.1,-0.16 6.22,0.12 9.18,1.11 -14.84,13.37 -29.69,26.72 -44.55,40.06 -0.42,-0.8 -0.81,-1.58 -1.2,-2.35 4.82,-4.1201 9.7,-8.27 14.02,-12.89 -0.59,-1.46 -1.37,-2.82 -2.11,-4.19 0.69,-0.3 1.4,-0.58 2.11,-0.85 1.27,0.81 2.52,1.6201 3.79,2.45 6.8,-7.2 13.82,-14.29 22.11,-19.78 -1.12,-1.2 -2.24,-2.38 -3.35,-3.56 z"
   id="path785" />
	<path
   fill="#3b8e1c"
   stroke="#3b8e1c"
   stroke-width="0.0938"
   d="m 769.28,917.19 c 0.54,0.04 1.61,0.13 2.15,0.18 -18.15,16.55 -36.54,32.86 -54.76,49.35 -54.21,48.63 -108.19,97.52 -162.48,146.0601 0.74,-5.63 6.57,-7.8101 10.18,-11.38 21.33,-19 42.28,-38.42 63.88,-57.13 3.59,-3.42 6.82,-7.24 10.82,-10.22 3.95,-2.99 7.7,-6.26 10.99,-9.9801 4.34,-5.0499 10.41,-8.14 14.95,-12.9799 4.32,-4.76 9.81,-8.21 14.23,-12.84 10.89,-10.82 23.06,-20.23 34.18,-30.8 5.1,-5.96 11.96,-10 17.37,-15.65 5.86,-6.16 12.81,-11.12 18.77,-17.18 6.73,-5.6301 13.19,-11.5701 19.72,-17.4301 z"
   id="path787" />
	<path
   fill="#3b8e1c"
   stroke="#3b8e1c"
   stroke-width="0.0938"
   d="m 1402.35,1157.01 c 3.63,0.76 6.29,3.4 8.9501,5.8099 6.35,5.9501 13.2,11.3501 19.2999,17.5901 8.61,7.37 16.9301,15.0599 25.48,22.5 5.9501,6.11 12.9601,11.0599 18.9,17.1799 4.73,4.9501 10.3,8.98 15.16,13.8 3.52,3.54 7.61,6.41 11.4399,9.59 7.15,7.16 14.62,14.02 22.28,20.63 6,6.75 14.22,11 20.02,17.97 4.71,5.02 10.6801,8.65 15.39,13.6901 5.14,5.52 11.3199,9.91 16.7,15.2 13.36,11.63 26.27,23.78 39.6801,35.36 6.0599,6.0701 12.63,11.5701 19.26,16.99 5.0599,5.53 11.1699,9.9301 16.36,15.3401 4.28,4.4399 9.59,7.72 13.83,12.22 5.59,5.12 10.86,10.6899 17.25,14.86 2.17,1.26 2.92,3.7 3.48,6 -40.83,-36.33 -81.3199,-73.0699 -122.0699,-109.5 C 1510.01,1253.77 1455.99,1205.6 1402.35,1157.01 Z"
   id="path789" />
	<path
   fill="#3b8e1c"
   stroke="#3b8e1c"
   stroke-width="0.0938"
   d="m 326.62,1315.6 c 4.86,-4.74 9.19,-10.76 16.1,-12.5599 -26.81,24.4299 -53.98,48.47 -80.83,72.86 -25.63,22.89 -51,46.0499 -76.74,68.8199 0.88,-2.15 1.76,-4.4299 3.78,-5.76 9.94,-7.6599 18.19,-17.26 28.14,-24.8999 5.19,-4.77 10.22,-9.7201 15.59,-14.28 6.46,-6.63 14.09,-11.9401 20.62,-18.49 7.26,-6.78 14.64,-13.4401 22.22,-19.8501 6.83,-6.49 13.91,-12.6899 21,-18.8899 5.15,-5.2101 11.25,-9.38 16.15,-14.8401 4.15,-4.61 9.64,-7.69 13.97,-12.11 z"
   id="path791" />
	<path
   fill="#3b8d1c"
   stroke="#3b8d1c"
   stroke-width="0.0938"
   d="m 1156.3199,936 c 5.8301,1.78 9.67,6.77 14.1001,10.64 5.0599,5.3 11.2,9.37 16.37,14.56 7.9099,7.38 16.1,14.47 24.0699,21.79 4.12,3.24 8.79,5.89 11.92,10.23 4.49,5.9301 11.4199,9.2 16.21,14.82 4.85,5.53 11.21,9.42 16.29,14.73 4.76,4.99 10.36,9.0599 15.38,13.77 14.0399,13.25 28.9299,25.5599 43.0299,38.75 5.8101,6.24 12.9701,10.99 18.92,17.09 5.41,5.64 11.98,9.97 17.46,15.54 7.8501,7.1799 15.55,14.5699 23.87,21.21 6.14,3.74 9.8201,10.1899 15.5901,14.39 4.2,3.63 9.6699,6.6 11.46,12.22 -24.0699,-21.13 -47.7,-42.77 -71.61,-64.09 C 1271.74,1039.71 1213.88,988.02 1156.3199,936 Z"
   id="path793" />
	<path
   fill="#b7ff97"
   stroke="#b7ff97"
   stroke-width="0.0938"
   d="m 0,1074.5699 0.96,1.01 c 0.19,25.12 0.02,50.24 -0.03,75.37 L 0,1149.55 Z"
   id="path795" />
	<path
   fill="#b8ff97"
   stroke="#b8ff97"
   stroke-width="0.0938"
   d="m 1919.09,1107.37 0.91,-1.16 v 67.41 l -0.58,1.4401 c -0.78,-9.3401 -0.1901,-18.7201 -0.41,-28.0701 0.04,-13.21 -0.13,-26.4201 0.08,-39.62 z"
   id="path797" />
	<path
   fill="#8be967"
   stroke="#8be967"
   stroke-width="0.0938"
   d="m 0,1149.55 0.93,1.3999 c 0.26,29.15 -0.07,58.3201 0.11,87.4801 -0.35,19.5499 -0.31,39.12 -0.35,58.6799 L 0,1298.5 Z"
   id="path799" />
	<path
   fill="#e7ffdc"
   stroke="#e7ffdc"
   stroke-width="0.0938"
   d="m 1919.42,1175.0601 0.58,-1.4401 v 189.39 l -0.26,-1.71 c -0.12,-53.5901 -0.12,-107.1901 -0.4399,-160.77 0.2299,-8.49 0.05,-16.98 0.1199,-25.4699 z"
   id="path801" />
	<path
   fill="#e7ffdc"
   stroke="#e7ffdc"
   stroke-width="0.0938"
   d="m 0,1521.41 c 0.41,3.34 0.22,7.25 2.5,9.98 1.78,0.65 3.7,0.76 5.57,0.98 14.65,1.22 29.36,0.24 44,-0.63 12.77,-0.41 25.55,-0.22 38.32,-0.22 3.86,0.59 7.77,0.59 11.67,0.51 59.98,-0.06 119.95,0.01 179.93,-0.03 23.83,0.09 47.67,-0.1899 71.5,0.15 l -1.57,0.85 H 0 Z"
   id="path803" />
	<path
   fill="#e7ffdc"
   stroke="#e7ffdc"
   stroke-width="0.0938"
   d="M 1919.8199,1523.72 1920,1522.46 V 1533 h -99.67 l -0.97,-0.8 c 1.5,-0.47 3.05,-0.6899 4.65,-0.6699 13.24,0.09 26.49,-0.02 39.73,0.11 17.0601,0.6 34.22,2.41 51.26,0.37 4.3,0.07 4.14,-5.2701 4.8199,-8.2901 z"
   id="path805" />
	<path
   fill="#4fc223"
   stroke="#4fc223"
   stroke-width="0.0938"
   d="m 0,1298.5 0.69,-1.39 c 0.94,6.61 0.41,13.29 0.53,19.9501 -0.02,17.6499 -0.24,35.3099 -0.13,52.96 -0.44,10.34 -0.26,20.6899 -0.31,31.04 0.08,30.6399 -0.06,61.2799 0.02,91.9299 -0.03,6.1901 0.38,12.4401 -0.8,18.5701 z"
   id="path807" />
	<path
   fill="#50c324"
   stroke="#50c324"
   stroke-width="0.0938"
   d="m 1919.74,1361.3 0.26,1.71 v 159.45 l -0.1801,1.26 c -1.9099,-27.87 -0.1799,-55.7899 -0.59,-83.6799 -0.48,-20.3501 -0.3199,-40.7101 -0.3099,-61.0601 0.19,-5.9 -0.7301,-11.9 0.82,-17.68 z"
   id="path809" />
	<path
   fill="#4a9d2a"
   stroke="#4a9d2a"
   stroke-width="0.0938"
   d="m 1735.3101,1456.09 c 4.5299,1.04 7.5599,4.7101 10.86,7.6901 12.59,11.45 25.36,22.7 37.86,34.23 6.01,4.9299 11.75,10.1799 17.27,15.65 5.1599,4.15 9.96,8.72 14.75,13.2899 1.73,1.42 3.36,3.62 5.8899,3.37 15.05,0.01 30.1001,-0.1599 45.15,0.2001 -1.14,0.37 -2.25,0.75 -3.35,1.12 -13.24,-0.13 -26.49,-0.02 -39.73,-0.11 -1.6,-0.02 -3.15,0.2 -4.65,0.6699 v -0.01 c -5.71,-6.1799 -12.39,-11.34 -18.51,-17.08 -21.7899,-19.74 -43.83,-39.19 -65.5399,-59.02 z"
   id="path811" />
	<path
   fill="#436a33"
   stroke="#436a33"
   stroke-width="0.0938"
   d="m 104.01,1529.65 c 0.41,-0.37 1.23,-1.1 1.64,-1.47 7.08,0.8999 14.22,0.5099 21.33,0.5399 24.35,-0.05 48.69,0.08 73.03,0 7.32,0.1901 14.64,0.88 21.98,0.5801 103.33,0.03 206.65,0.2799 309.98,0.22 57.01,-0.09 114.02,0.3099 171.03,0.25 24.34,0.28 48.69,-0.54 73.01,0.5599 27.05,-0.1499 54.1,-0.05 81.15,0.04 l -0.2,1.02 c -29.57,0.13 -59.15,0.03 -88.72,0.07 -50.75,-0.4299 -101.51,-0.06 -152.27,-0.2799 -54.31,-0.07 -108.64,0.05 -162.95,-0.3401 -120.11,0.01 -240.23,-0.24 -360.34,-0.01 3.68,-1.1497 7.64,-0.04 11.33,-1.1798 z"
   id="path813" />
	<path
   fill="#97c984"
   stroke="#97c984"
   stroke-width="0.0938"
   d="m 90.39,1531.52 c 0.57,-0.17 1.72,-0.52 2.29,-0.6901 120.11,-0.23 240.23,0.02 360.34,0.01 54.31,0.39 108.64,0.27 162.95,0.3401 50.76,0.22 101.52,-0.15 152.27,0.2799 -51.4,0.49 -102.81,0.07 -154.21,0.3301 -55.01,-0.02 -110.02,0.08 -165.02,0.2899 -31.84,0.06 -63.68,-0.11 -95.52,0.07 -23.83,-0.34 -47.67,-0.06 -71.5,-0.15 -59.98,0.04 -119.95,-0.03 -179.93,0.03 -3.9,0.08 -7.81,0.08 -11.67,-0.51 z"
   id="path815" />
	<path
   fill="#f2ffec"
   stroke="#f2ffec"
   stroke-width="0.0938"
   d="m 768.24,1531.46 c 29.57,-0.04 59.15,0.06 88.72,-0.07 -0.17,0.41 -0.51,1.21 -0.68,1.61 H 351.92 l 1.57,-0.85 c 31.84,-0.1801 63.68,-0.01 95.52,-0.07 55,-0.21 110.01,-0.3099 165.02,-0.2899 51.4,-0.2601 102.81,0.1599 154.21,-0.3301 z"
   id="path817" />
</g></g></svg>
