<?xml version="1.0" encoding="UTF-8" standalone="no"?>
<!-- Created with Inkscape (http://www.inkscape.org/) -->

<svg
   width="500"
   height="800"
   viewBox="0 0 132.29167 211.66667"
   version="1.1"
   id="svg1"
   inkscape:version="1.2.1 (9c6d41e410, 2022-07-14)"
   sodipodi:docname="02_adult.svg"
   xml:space="preserve"
   xmlns:inkscape="http://www.inkscape.org/namespaces/inkscape"
   xmlns:sodipodi="http://sodipodi.sourceforge.net/DTD/sodipodi-0.dtd"
   xmlns="http://www.w3.org/2000/svg"
   xmlns:svg="http://www.w3.org/2000/svg"><sodipodi:namedview
     id="namedview1"
     pagecolor="#ffffff"
     bordercolor="#000000"
     borderopacity="0.25"
     inkscape:showpageshadow="2"
     inkscape:pageopacity="0.0"
     inkscape:pagecheckerboard="0"
     inkscape:deskcolor="#d1d1d1"
     inkscape:document-units="mm"
     inkscape:zoom="0.72426347"
     inkscape:cx="-358.29503"
     inkscape:cy="423.8789"
     inkscape:window-width="1920"
     inkscape:window-height="1129"
     inkscape:window-x="-8"
     inkscape:window-y="-8"
     inkscape:window-maximized="1"
     inkscape:current-layer="layer1"
     showgrid="false" /><defs
     id="defs1"><rect
       x="26.233547"
       y="139.45201"
       width="512.24453"
       height="262.33547"
       id="rect8" /><rect
       x="22.091408"
       y="197.44196"
       width="479.10742"
       height="171.20841"
       id="rect2" /><rect
       x="62.132088"
       y="675.16864"
       width="668.26508"
       height="201.58411"
       id="rect1" /><rect
       x="26.233547"
       y="139.45201"
       width="471.6465"
       height="49.73008"
       id="rect8-3" /><filter
       id="filter3863"
       x="-0.0042242667"
       y="-0.010351339"
       width="1.0084485"
       height="1.0207027"><feGaussianBlur
         id="feGaussianBlur3865"
         stdDeviation="3.394375" /></filter><clipPath
       id="clipPath3867"
       clipPathUnits="userSpaceOnUse"><path
         id="path3869"
         d="m0.2411 538.81h50v233h93v-118.28l59.5 0.73749 59.5 0.73749v-140.19h120v214h18v-9c0-7.3333 0.2778-9 1.5-9s1.5 1.6667 1.5 9v9h42v44h31v-19h14v19h41v-142h84v-60h109v51h11v49h46v-30h26v-272h17v-57.874l3.25-0.31336 3.25-0.31336v-57l9.25-0.28753 9.25-0.28753v-31.83l6.25-0.29772 6.25-0.29771 0.27418-16.75 0.27418-16.75h59.854l-0.0107 16.75-0.0107 16.75 6.0598 0.29771 6.0599 0.29772v31.83l9.25 0.28753 9.25 0.28753 0.26534 28.75 0.26533 28.75h5.9694v57.924l9.25 0.28752 9.25 0.28753-0.38998 238.85c-0.33165 203.13-0.18208 238.99 1 239.73 1.579 0.99989 12.908 1.2248 15.308 0.30385 1.4259-0.54716 1.5818-9.3196 1.5818-89l-0.00005-88.393h110v-17h31v17h9v109h11v-33h10v33h118v93h18v-335h31v-19h76v19h24v426h59v-577h92.033l-0.052 137.25-0.052 137.25 13.035 0.27903 13.035 0.27902v-189.06h13v-17h9v-7.7788l11.25-0.41326c7.2046-0.26465 11.514-0.0347 11.985 0.63938 0.4041 0.57895 0.7416 2.5151 0.75 4.3026 0.015 3.1169 0.1775 3.25 3.9749 3.25h3.9595l0.2905 8.0434 0.2904 8.0434 92.25-0.0633 92.25-0.0633v65.196l34.75-0.25291 34.75-0.25291v853.86l-959.25 0.01-959.25 0.01v-851.52z"
         stroke="#f00"
         fill="none" /></clipPath><linearGradient
       id="linearGradient3779"
       y2="-29.861"
       gradientUnits="userSpaceOnUse"
       x2="-490.84"
       y1="1165.5"
       x1="-490.84"><stop
         id="stop3841"
         offset="0" /><stop
         id="stop3843"
         stop-color="#595235"
         offset="1" /></linearGradient><linearGradient
       id="linearGradient3783"
       y2="-221.92"
       gradientUnits="userSpaceOnUse"
       x2="-448.82"
       gradientTransform="translate(-4.8987e-5)"
       y1="744.12"
       x1="-448.82"><stop
         id="stop3814"
         stop-color="#f60"
         offset="0" /><stop
         id="stop3816"
         stop-color="#336"
         offset="1" /></linearGradient><radialGradient
       id="radialGradient3791"
       gradientUnits="userSpaceOnUse"
       cy="1068.1"
       cx="946"
       gradientTransform="matrix(0.54526,0,0,0.58703,443.69,125.49)"
       r="959.25"><stop
         id="stop3787"
         stop-color="#ff8000"
         offset="0" /><stop
         id="stop3789"
         stop-color="#ff8000"
         stop-opacity=".3"
         offset="1" /></radialGradient><filter
       id="filter3805"
       x="-0.023999444"
       y="-0.023999443"
       width="1.0479989"
       height="1.0479989"><feGaussianBlur
         id="feGaussianBlur3807"
         stdDeviation="1.595363" /></filter></defs><g
     inkscape:label="Layer 1"
     inkscape:groupmode="layer"
     id="layer1"
     transform="translate(-74.273847,-182.25543)"><rect
       style="fill:#da7576;fill-opacity:0.60000002;fill-rule:evenodd;stroke:#cae7fd;stroke-width:0"
       id="rect3"
       width="132.29167"
       height="211.66667"
       x="74.273849"
       y="182.25543" /><text
       xml:space="preserve"
       transform="matrix(0.26458333,0,0,0.26458333,74.273847,182.25543)"
       id="text2"
       style="fill:#000000;stroke-width:0;font-size:42px;-inkscape-font-specification:'Public Sans, Bold';font-family:'Public Sans';stroke:#cae7fd;fill-rule:evenodd;line-height:1.5;letter-spacing:0px;word-spacing:0px;font-weight:bold;white-space:pre;shape-inside:url(#rect2)" /><text
       xml:space="preserve"
       transform="matrix(0.34199817,0,0,0.34199817,43.854297,277.41956)"
       id="text8"
       style="font-weight:bold;font-size:42px;line-height:0;font-family:'Public Sans';-inkscape-font-specification:'Public Sans, Bold';letter-spacing:0px;word-spacing:0px;white-space:pre;shape-inside:url(#rect8);fill:#000000;fill-rule:evenodd;stroke:#cae7fd;stroke-width:0"
       x="117.36908"
       y="0"><tspan
         x="186.05044"
         y="177.60862"
         id="tspan530"><tspan
           style="line-height:1.2;text-align:center;text-anchor:middle"
           id="tspan528">Love Your
</tspan></tspan><tspan
         x="166.3524"
         y="228.00861"
         id="tspan534"><tspan
           style="line-height:1.2;text-align:center;text-anchor:middle"
           id="tspan532">Community
</tspan></tspan><tspan
         x="191.25846"
         y="278.40861"
         id="tspan538"><tspan
           style="line-height:1.2;text-align:center;text-anchor:middle"
           id="tspan536">February
</tspan></tspan><tspan
         x="227.23149"
         y="328.8086"
         id="tspan542"><tspan
           style="line-height:1.2;text-align:center;text-anchor:middle"
           id="tspan540">Adult</tspan></tspan></text><text
       xml:space="preserve"
       transform="matrix(0.34193589,0,0,0.34193589,50.543507,138.66609)"
       id="text8-5"
       style="font-weight:bold;font-size:42px;line-height:0;font-family:'Public Sans';-inkscape-font-specification:'Public Sans, Bold';letter-spacing:0px;word-spacing:0px;white-space:pre;shape-inside:url(#rect8-3);fill:#000000;fill-rule:evenodd;stroke:#cae7fd;stroke-width:0"
       x="117.36908"
       y="0"><tspan
         x="143.37602"
         y="177.60862"
         id="tspan546"><tspan
           style="line-height:1.2;text-align:center;text-anchor:middle"
           id="tspan544">Kansas 250</tspan></tspan></text><g
       id="g3809"
       transform="matrix(0.06204403,0,0,0.06204403,168.26574,235.71174)"><rect
         id="rect3032"
         height="966.04999"
         width="1918.5"
         y="-221.92"
         x="-1408.1"
         fill="url(#linearGradient3783)"
         style="fill:url(#linearGradient3783)" /><path
         id="path3005"
         filter="url(#filter3805)"
         d="m 512.9,424.17 a 79.77,79.77 0 1 1 -159.54,0 79.77,79.77 0 1 1 159.54,0 z"
         fill="#ff8000"
         transform="matrix(3.4584,0,0,3.4584,-1946.7,-936.38)" /><path
         id="path3013"
         d="m -546.03,-35.125 -0.53125,33.5 -12.5,0.59375 v 31.844 l -18.5,0.5625 v 57 l -6.5,0.625 v 57.875 h -17 v 272 h -26 v 30 h -46 v -49 h -11 v -51 h -109 v 60 h -84 v 142 h -41 v -19 h -14 v 19 h -31 v -44 h -63.00005 v -214 h -120 v 140.22 l -119,-1.5 v 118.28 h -93 v -233 h -50 l -0.25,0.0312 V 1169.1565 H 510.68875 V 314.15645 l -69.75,0.875 v -65.188 l -184.5,0.125 -0.59375,-16.094 -7.4688,-0.375 -1.2188,-7.1562 -23.219,1.7188 v 5.8125 h -9 v 17 h -13 v 189.06 l -26.094,-0.5625 0.125,-274.5 h -92.031 v 577 h -59 v -426 h -24 v -19 h -76 v 19 h -31 v 335 h -18 v -93 h -118 v -33 h -10 v 33 h -11 v -109 h -9 v -17 h -31 v 17 h -110 l -1.5938,177.41 -15.312,-0.3125 -0.59375,-478.59 -18.5,-0.5625 v -57.938 h -5.9688 l -0.53125,-57.5 -18.5,-0.5625 v -31.844 l -12.125,-0.59375 0.0312,-33.5 h -59.875 z"
         fill="#ffff7f" /><path
         id="path3018"
         d="M -1408.1,742.65 V 316.89 h 50 v 233 h 93 V 431.61 l 59.5,0.73749 59.5,0.73749 v -140.19 h 120 v 214 h 18 v -9 c 0,-7.3333 0.2778,-9 1.5,-9 1.2222,0 1.5,1.6667 1.5,9 v 9 h 42 v 44 h 31 v -19 h 14 v 19 h 41 v -142 h 84 v -60 h 109 v 51 h 11 v 49 h 46 v -30 h 26 v -272 h 17 v -57.874 l 3.25,-0.31336 3.25,-0.31336 v -57 l 9.25,-0.28753 9.25,-0.28753 v -31.83 l 6.25,-0.29772 6.25,-0.29772 0.27418,-16.75 0.27418,-16.75 h 59.854 l -0.0107,16.75 -0.0107,16.75 6.0598,0.29772 6.0599,0.29772 v 31.83 l 9.25,0.28753 9.25,0.28753 0.26534,28.75 0.26533,28.75 h 5.9694 v 57.924 l 9.25,0.28752 9.25,0.28753 -0.38998,238.85 c -0.33165,203.13 -0.18208,238.99 1,239.73 1.579,0.99989 12.908,1.2248 15.308,0.30385 1.4259,-0.54716 1.5818,-9.3196 1.5818,-89 l -5e-5,-88.393 h 110 v -17 h 31 v 17 h 9 v 109 h 11 v -33 h 10 v 33 h 118 v 93 h 18 v -335 h 31 v -19 h 76 v 19 h 24 v 426 h 59 v -577 h 92.034 l -0.052,137.25 -0.052,137.25 13.035,0.27903 13.035,0.27902 v -189.06 h 13 v -17 h 9 v -7.7788 l 11.25,-0.41326 c 7.2046,-0.26465 11.514,-0.0347 11.985,0.63938 0.4041,0.57895 0.7416,2.5151 0.75,4.3026 0.015,3.1169 0.1775,3.25 3.9749,3.25 h 3.9595 l 0.2905,8.0434 0.2904,8.0434 92.25,-0.0633 92.25,-0.0633 v 65.196 l 34.75,-0.25291 34.75,-0.25291 v 853.85999 l -959.25,0.01 -959.25,0.01 V 742.65251 Z m 1240,384.24 v -17 h -16 v 34 h 16 z m 24,0 v -17 h -15.907 l -0.2967,16.586 c -0.1631,9.1223 -0.1091,16.772 0.1201,17 0.2291,0.2277 3.9416,0.414 8.25,0.414 h 7.8333 z m 389,-0.5 v -17.5 h -17 v 35 h 17 z m 49.5,0 v -17 l -8.25,-0.2904 -8.25,-0.2905 v 35.162 l 8.25,-0.2905 8.25,-0.2904 v -17 z m 25.5,0 v -17.5 h -17 v 16.833 c 0,9.2584 0.3,17.133 0.6667,17.5 0.3666,0.3667 4.1916,0.6667 8.5,0.6667 H 319.9 Z m 48,0 v -17.5 h -17 v 35 h 17 z m 48,0 v -17.5 h -17 v 35 h 17 z m -1516,-23.04 v -17.54 l -8.25,0.2905 -8.25,0.2904 -0.2765,15.96 c -0.152,8.7779 -0.054,16.54 0.2187,17.25 0.3474,0.9053 2.8905,1.2901 8.5264,1.2901 h 8.0314 z m 556,-16.96 v -17.5 h -17 v 35 h 17 z m 51,0 v -17.5 h -17 v 35 h 17 z m 48,0 v -17.5 h -17 v 35 h 17 z m 765,-13.04 v -17.54 l -8.25,0.2905 -8.25,0.2904 -0.2736,17.25 -0.2736,17.25 h 17.047 z m -390.23,-15.71 -0.2736,-17.25 -8.25,-0.2904 -8.25,-0.2905 v 35.08 h 17.047 z m 25.226,-0.25 v -17.5 h -16 v 35 h 16 z m 25.774,0.25 -0.2736,-17.25 h -16 l -0.2736,17.25 -0.2736,17.25 h 17.094 z m 24,0 -0.2736,-17.25 h -16 l -0.2736,17.25 -0.2736,17.25 h 17.094 z m -1237.8,-19.75 v -17 h -17 v 34 h 17 z m 500.77,-4.75 0.27362,-17.25 h -17.047 v 35.08 l 8.25,-0.2905 8.25,-0.2904 z m 24,0 0.27362,-17.25 h -17.047 v 35.08 l 8.25,-0.2905 8.25,-0.2904 z m 759.23,-20.79 v -17.541 l -8.25,0.2905 -8.25,0.2904 -0.2765,15.96 c -0.152,8.7779 -0.054,16.54 0.2187,17.25 0.3474,0.9052 2.8905,1.29 8.5264,1.29 H 50.87 v -17.54 z m 24,0 v -17.541 l -8.25,0.2905 -8.25,0.2904 -0.2765,15.96 c -0.152,8.7779 -0.054,16.54 0.2187,17.25 0.3474,0.9052 2.8905,1.29 8.5264,1.29 H 74.87 v -17.54 z m 194,-0.9596 v -17.5 h -17 v 35 h 17 z m 51,0 v -17.5 h -17 v 16.833 c 0,9.2584 0.3,17.133 0.6667,17.5 0.3666,0.3667 4.1916,0.6667 8.5,0.6667 h 7.8333 z m 24,0 v -17.5 h -17 v 35 h 17 z m 24,0 v -17.5 h -17 v 35 h 17 z m -587,-11.04 v -17.541 l -8.25,0.2905 -8.25,0.2904 -0.2736,17.25 -0.2736,17.25 h 17.047 z m 51,0.04 v -17.5 h -16 v 35 h 16 z m 24,0 v -17.5 h -16 v 35 h 16 z m -514.23,-18.407 0.27362,-17.094 h -17.047 v 16.833 c 0,9.2584 0.18711,17.021 0.41579,17.25 0.22869,0.2292 3.9412,0.3463 8.25,0.2602 l 7.8342,-0.1566 z m -344.77,-3.5931 v -17.5 h -17 v 16.833 c 0,9.2584 0.3,17.133 0.6667,17.5 0.3666,0.3667 4.1916,0.6667 8.5,0.6667 h 7.8333 z m 45,0 v -17.5 h -17 v 35 h 17 z m 22,-0.04 v -17.54 l -8.25,0.29044 -8.25,0.29044 -0.27646,15.96 c -0.15205,8.7779 -0.0537,16.54 0.21862,17.25 0.34741,0.9053 2.8906,1.2901 8.5265,1.2901 h 8.0314 z m 22.774,-0.2096 0.27362,-17.25 h -17.047 v 35.08 l 8.25,-0.2905 8.25,-0.2904 z m 1026.2,-8.2504 v -17 h -16 v 34 h 16 z m 26,0 v -17 h -17 v 34 h 17 z m 334.25,12.75 c -0.1375,-0.4125 -0.25,-8.175 -0.25,-17.25 v -16.5 h -16 v 35.08 l 8.25,-0.2905 c 4.5375,-0.1597 8.1375,-0.6279 8,-1.0404 z m 25.75,-16.25 v -17.5 h -17 v 16.833 c 0,9.2584 0.3,17.133 0.6667,17.5 0.3666,0.3667 4.1916,0.6667 8.5,0.6667 h 7.8333 z m -718,-15 v -17.5 h -17 v 16.833 c 0,9.2583 0.3,17.133 0.6667,17.5 0.3666,0.3667 4.1916,0.6667 8.5,0.6667 h 7.8333 z m 25.774,-0.25 0.2736,-17.25 h -17.047 v 35.08 l 8.25,-0.2905 8.25,-0.2904 z m 25.226,0.25 v -17.5 h -16 v 35 h 16 z m -1147,-14.5 v -17 h -17 v 34 h 17 z m 104,-1.5 v -17.5 h -16 v 35 h 16 z m 22.774,0.25 -0.2736,-17.25 h -16 l -0.2736,17.25 -0.2736,17.25 h 17.094 z m 22.226,-0.29044 v -17.54 l -8.25,0.29044 -8.25,0.29044 -0.2736,17.25 -0.2736,17.25 h 17.047 z m 230,-2 v -17.54 l -8.25,0.29044 -8.25,0.29044 -0.27646,15.96 c -0.15205,8.7779 -0.0537,16.54 0.21862,17.25 0.34741,0.90533 2.8906,1.2901 8.5265,1.2901 h 8.0314 z m 987,-22.96 v -17.5 h -17 v 16.833 c 0,9.2583 0.3,17.133 0.6667,17.5 0.3666,0.36667 4.1916,0.66667 8.5,0.66667 h 7.8333 z m 62,1 c 0,-9.075 0.1125,-16.838 0.25,-17.25 0.1375,-0.4125 -3.4625,-0.8807 -8,-1.0404 l -8.25,-0.29044 v 35.08 h 16 z m 25.774,-0.75 -0.2736,-17.25 h -16 l -0.2736,17.25 -0.2736,17.25 h 17.094 z m 24,0 -0.2736,-17.25 h -16 l -0.2736,17.25 -0.2736,17.25 h 17.094 z m 106,-1.5 0.2736,-17.25 h -17.047 v 16.833 c 0,9.2583 0.3173,17.151 0.705,17.538 0.3878,0.38777 4.1003,0.57527 8.25,0.41666 l 7.545,-0.28837 z m 51.226,0.25 v -17.5 h -17 v 16.833 c 0,9.2583 0.3,17.133 0.6667,17.5 0.3666,0.36667 4.1916,0.66667 8.5,0.66667 h 7.8333 z m 23.774,-0.25 0.2736,-17.25 h -17.047 v 16.833 c 0,9.2583 0.3173,17.151 0.705,17.538 0.3878,0.38777 4.1003,0.57527 8.25,0.41666 l 7.545,-0.28837 z m 24,0 0.2736,-17.25 h -17.047 v 16.833 c 0,9.2583 0.3173,17.151 0.705,17.538 0.3878,0.38777 4.1003,0.57527 8.25,0.41666 l 7.545,-0.28837 z m -1214,-15.341 -0.27361,-17.091 -6,-0.0355 c -11.795,-0.0698 -10.5,-2.1937 -10.5,17.217 v 17 h 17.047 z m 22,-0.0939 -0.27361,-17.185 -3.5,0.0671 c -1.925,0.0369 -5.6375,0.12003 -8.25,0.18472 l -4.75,0.11756 v 34 h 17.047 l -0.27362,-17.185 z m 22.226,0.3013 c 0,-19.281 0.7594,-17.933 -9.75,-17.31 l -6.25,0.37064 v 33.822 h 16 z m -535.23,-1.8666 0.2736,-17.25 h -17.047 v 35.08 l 8.25,-0.29044 8.25,-0.29044 z m 22.226,0.25 v -17.5 h -17 v 16.833 c 0,9.2583 0.3,17.133 0.6667,17.5 0.3666,0.36667 4.1916,0.66667 8.5,0.66667 h 7.8333 z m 22,0 v -17.5 h -16 v 35 h 16 z m 22.774,-0.25 0.2736,-17.25 h -17.047 v 35.08 l 8.25,-0.29044 8.25,-0.29044 z m 170.23,0.20956 v -17.54 l -8.25,0.29044 -8.25,0.29044 -0.2736,17.25 -0.2736,17.25 h 17.047 z m 45,0 v -17.54 l -8.25,0.29044 -8.25,0.29044 -0.2736,17.25 -0.2736,17.25 h 17.047 z m 486.77,-7.2096 0.27362,-17.25 h -17.047 v 35.08 l 8.25,-0.29044 8.25,-0.29044 z m 24,0 0.27362,-17.25 h -17.047 v 35.08 l 8.25,-0.29044 8.25,-0.29044 z m 25.226,0.20956 v -17.54 l -8.25,0.29044 -8.25,0.29044 -0.20544,16.418 c -0.113,9.0297 0.0261,16.792 0.30901,17.25 0.28296,0.45783 4.0879,0.83242 8.4554,0.83242 h 7.941 z m 25.774,-0.20956 0.27362,-17.25 h -17.047 v 16.833 c 0,9.2583 0.31727,17.151 0.70504,17.538 0.38777,0.38777 4.1003,0.57527 8.25,0.41666 l 7.545,-0.28837 z m 24,0 0.27362,-17.25 h -17.047 v 16.833 c 0,9.2583 0.31727,17.151 0.70504,17.538 0.38777,0.38777 4.1003,0.57527 8.25,0.41666 l 7.545,-0.28837 z m 24,0 0.27362,-17.25 h -17.047 v 35.08 l 8.25,-0.29044 8.25,-0.29044 z m 226.23,-10.79 v -17.54 l -8.25,0.29044 -8.25,0.29044 -0.2736,17.25 -0.2736,17.25 h 17.047 z m 25.774,0.29044 -0.2736,-17.25 -8.25,-0.29044 -8.25,-0.29044 v 35.08 h 17.047 z m 25.226,-0.25 v -17.5 h -16 v 35 h 16 z m 24,0 v -17.5 h -16 v 35 h 16 z m 99,-2 v -17.5 h -15.909 l -0.2956,17.086 c -0.1626,9.3972 -0.1081,17.272 0.1211,17.5 0.2291,0.22776 3.9416,0.41411 8.25,0.41411 h 7.8333 z m 26,0 v -17.5 h -17 v 35 h 17 z m 24,0 v -17.5 h -17 v 35 h 17 z m 240,-11 v -17.5 h -17 v 16.833 c 0,9.2583 0.3,17.133 0.6667,17.5 0.3666,0.36667 4.1916,0.66667 8.5,0.66667 h 7.8333 z m 24,0 v -17.5 h -17 v 16.833 c 0,9.2583 0.3,17.133 0.6667,17.5 0.3666,0.36667 4.1916,0.66667 8.5,0.66667 h 7.8333 z m 51,0 v -17.5 h -17 v 16.833 c 0,9.2583 0.3,17.133 0.6667,17.5 0.3666,0.36667 4.1916,0.66667 8.5,0.66667 h 7.8333 z m 24,0 v -17.5 h -17 v 16.833 c 0,9.2583 0.3,17.133 0.6667,17.5 0.3666,0.36667 4.1916,0.66667 8.5,0.66667 h 7.8333 z m 24,0 v -17.5 h -17 v 16.833 c 0,9.2583 0.3,17.133 0.6667,17.5 0.3666,0.36667 4.1916,0.66667 8.5,0.66667 h 7.8333 z m 24,0 v -17.5 h -17 v 16.833 c 0,9.2583 0.3,17.133 0.6667,17.5 0.3666,0.36667 4.1916,0.66667 8.5,0.66667 h 7.8333 z m 24,0 v -17.5 h -17 v 16.833 c 0,9.2583 0.3,17.133 0.6667,17.5 0.3666,0.36667 4.1916,0.66667 8.5,0.66667 h 7.8333 z m -1649,-7 v -17.5 h -17 v 35 h 17 z m 45,0 v -17.5 h -17 v 35 h 17 z m -149,-5.5 v -17 h -17 v 34 h 17 z m 22,0 v -17 h -17 v 34 h 17 z m 22,0 v -17 h -16 v 34 h 16 z m 658.77,-15.25 -0.27361,-17.25 -8.25,-0.29044 -8.25,-0.29044 v 35.08 h 17.047 z m 24,0 -0.27361,-17.25 -8.25,-0.29044 -8.25,-0.29044 v 35.08 h 17.047 z m 255.23,-12.25 v -17.5 h -17 v 35 h 17 z m 27,0 v -17.5 h -17 v 35 h 17 z m 24,0 v -17.5 h -17 v 35 h 17 z m 259,-6.5 v -17 h -15.909 l -0.2956,17.001 -0.2956,17.001 8.25,-10e-4 8.25,-0.001 v -17 z m 50,0 v -17 h -17 v 34 h 17 z m 315,-4.5 v -17.5 h -17 v 16.833 c 0,9.2583 0.3,17.133 0.6667,17.5 0.3666,0.36667 4.1916,0.66667 8.5,0.66667 h 7.8333 z m -1553,-1.0404 v -17.54 l -8.25,0.29044 -8.25,0.29044 -0.2736,17.25 -0.2736,17.25 h 17.047 z m 44.774,0.29044 -0.2736,-17.25 -8.25,-0.29044 -8.25,-0.29044 v 35.08 h 17.047 z m 22.226,-0.29044 v -17.54 l -8.25,0.29044 -8.25,0.29044 -0.2736,17.25 -0.2736,17.25 h 17.047 z m 1664.8,-1.2096 0.2736,-17.25 h -17.047 v 16.833 c 0,9.2583 0.2649,17.098 0.5886,17.422 0.3238,0.32376 4.0363,0.51126 8.25,0.41667 l 7.6614,-0.17198 z m -1835.8,-2.25 v -17 h -17 v 34 h 17 z m 44,0 v -17 h -16 v 34 h 16 z m 313,0 v -17 h -17 v 34 h 17 z m 22,0 v -17 h -17 v 34 h 17 z m 22,-0.0404 v -17.04 l -8.25,0.29044 -8.25,0.29044 -0.27418,16.75 -0.27418,16.75 h 17.048 z m 23,0.0404 v -17 h -17 v 34 h 17 z m 158,-34.5 v -17.5 h -16 v 35 h 16 z m 22.774,-0.25 0.27362,-17.25 h -17.047 v 35.08 l 8.25,-0.29044 8.25,-0.29044 z m 24,0 0.27362,-17.25 h -17.047 v 35.08 l 8.25,-0.29044 8.25,-0.29044 z m -115.77,-0.23095 c 0,-19.54 0.67335,-18.401 -10.542,-17.825 l -5.9583,0.30612 -0.27361,17.25 -0.27362,17.25 h 17.047 z m 21.774,-0.26905 -0.27361,-17.25 h -15 l -0.27361,17.25 -0.27362,17.25 h 16.094 z m 877.23,-1.2904 v -17.54 l -8.25,0.29044 -8.25,0.29044 -0.2736,17.25 -0.2736,17.25 h 17.047 z m -544.23,-0.70956 -0.27361,-17.25 -8.25,-0.29044 -8.25,-0.29044 v 35.08 h 17.047 z m 582.23,-0.25 v -17.5 h -16 v 35 h 16 z m 50,-0.0404 v -17.54 l -8.25,0.29044 -8.25,0.29044 -0.2736,17.25 -0.2736,17.25 h 17.047 z m -1373.8,-3.4609 0.2956,-17.001 -8.25,10e-4 -8.25,0.001 v 34 h 15.909 l 0.2956,-17.001 z m 22.796,0.001 v -17 h -17 v 34 h 17 z m 995,-0.5 v -17.5 h -17 v 35 h 17 z m 25,0 v -17.5 h -16 v 35 h 16 z m 24,0 v -17.5 h -16 v 35 h 16 z m -1193,-1.4238 v -16.924 l -8.0879,-0.32614 c -4.4483,-0.17938 -8.2733,-0.13865 -8.5,0.0905 -0.2266,0.22918 -0.4121,7.9917 -0.4121,17.25 v 16.833 h 17 z m 237,-9.6166 v -17.54 l -8.25,0.29044 -8.25,0.29044 -0.2765,15.96 c -0.152,8.7779 -0.054,16.54 0.2187,17.25 0.3474,0.90533 2.8905,1.2901 8.5264,1.2901 h 8.0314 z m 22.774,0.29044 -0.2736,-17.25 -8.25,-0.29044 -8.25,-0.29044 v 35.08 h 17.047 z m 22,0 -0.2736,-17.25 h -16 l -0.2736,17.25 -0.2736,17.25 h 17.094 z m -259.77,-35.25 v -17.5 h -17 v 16.833 c 0,9.2583 0.3,17.133 0.6667,17.5 0.3666,0.36667 4.1916,0.66667 8.5,0.66667 h 7.8333 z m 22,0 v -17.5 h -16 v 35 h 16 z m 60,-0.0404 v -17.54 l -8.25,0.29044 -8.25,0.29044 -0.2736,17.25 -0.2736,17.25 h 17.047 z m 22,0.0404 v -17.5 h -16 v 35 h 16 z m 22.774,0.25 -0.2736,-17.25 -8.25,-0.29044 -8.25,-0.29044 v 35.08 h 17.047 z m 22.226,-0.29044 v -17.54 l -8.25,0.29044 -8.25,0.29044 -0.2736,17.25 -0.2736,17.25 h 17.047 z m 973,-3.4596 v -17 h -17 v 34 h 17 z m 49,0 v -17 h -16 v 34 h 16 z m 389,-2 v -17 h -17 v 34 h 17 z m 123,0 v -17 h -17 v 34 h 17 z m 24,0 v -17 h -17 v 34 h 17 z m 24,0 v -17 h -17 v 34 h 17 z m -1240,-12.54 v -17.54 l -8.25,0.29044 -8.25,0.29044 -0.27361,17.25 -0.27362,17.25 h 17.047 z m -156.5,-2.9596 v -17 l -8.25,-0.29044 -8.25,-0.29044 v 35.162 l 8.25,-0.29044 8.25,-0.29044 z m 22.5,0 v -17.5 h -17 v 35 h 17 z m 22,-0.0404 v -17.54 l -8.25,0.29044 -8.25,0.29044 -0.27646,15.96 c -0.15205,8.7779 -0.0537,16.54 0.21862,17.25 0.34741,0.90533 2.8906,1.2901 8.5265,1.2901 l 8.0314,-4e-5 v -17.54 z m 891,-22.96 v -17.5 h -16 v 35 h 16 z m -1292,-1 v -17.5 h -17 v 35 h 17 z m 22,0 v -17.5 h -17 v 16.833 c 0,9.2583 0.3,17.133 0.6667,17.5 0.3666,0.36667 4.1916,0.66667 8.5,0.66667 h 7.8333 z m 22,0 v -17.5 h -16 v 35 h 16 z m 23,0 v -17.5 h -17 v 35 h 17 z m 1383,-2 v -17.5 h -16 v 35 h 16 z m 26,0 v -17.5 h -17 v 16.833 c 0,9.2583 0.3,17.133 0.6667,17.5 0.3666,0.36667 4.1916,0.66667 8.5,0.66667 h 7.8333 z m 24,0 v -17.5 h -17 v 16.833 c 0,9.2583 0.3,17.133 0.6667,17.5 0.3666,0.36667 4.1916,0.66667 8.5,0.66667 h 7.8333 z m 310,-5.5 v -17 h -16 v 34 h 16 z m -1453.5,-13.5 v -17 l -8.25,-0.29044 -8.25,-0.29044 v 35.162 l 8.25,-0.29044 8.25,-0.29044 z m 44.5,-0.0404 v -17.54 l -8.25,0.29044 -8.25,0.29044 -0.27646,15.96 c -0.15205,8.7779 -0.0537,16.54 0.21862,17.25 0.34741,0.90533 2.8906,1.2901 8.5265,1.2901 h 8.0314 z m 45,0 v -17.54 l -8.25,0.29044 -8.25,0.29044 -0.27361,17.25 -0.27362,17.25 h 17.047 z m -186.5,-1.9596 v -17 l -8.25,-0.29044 -8.25,-0.29044 v 35.162 l 8.25,-0.29044 8.25,-0.29044 z m 345.5,-2 v -17.5 h -17 v 35 h 17 z m 163.77,-4.25 0.27362,-17.25 h -17.047 v 35.08 l 8.25,-0.29044 8.25,-0.29044 z m 49.226,0.20956 v -17.54 l -8.25,0.29044 -8.25,0.29044 -0.20544,16.418 c -0.113,9.0297 0.0261,16.792 0.30901,17.25 0.28296,0.45783 4.0879,0.83242 8.4554,0.83242 h 7.941 z m 49.774,-0.20956 0.27362,-17.25 h -17.047 v 16.833 c 0,9.2583 0.31727,17.151 0.70504,17.538 0.38777,0.38777 4.1003,0.57527 8.25,0.41666 l 7.545,-0.28837 z m 24,0 0.27362,-17.25 h -17.047 v 16.833 c 0,9.2583 0.31727,17.151 0.70504,17.538 0.38777,0.38777 4.1003,0.57527 8.25,0.41666 l 7.545,-0.28837 z m 226.23,-10.79 v -17.54 l -8.25,0.29044 -8.25,0.29044 -0.2736,17.25 -0.2736,17.25 h 17.047 z m 26,0.0404 v -17.5 h -17 v 35 h 17 z m 25,0 v -17.5 h -16 v 35 h 16 z m 24,0 v -17.5 h -16 v 35 h 16 z m -1193.2,-6.25 0.2736,-17.25 h -17.047 v 35.08 l 8.25,-0.29044 8.25,-0.29044 z m 44.226,0.25 v -17.5 h -16 v 35 h 16 z m 22.774,-0.25 0.2736,-17.25 h -17.047 v 16.833 c 0,9.2583 0.3173,17.151 0.705,17.538 0.3878,0.38777 4.1003,0.57527 8.25,0.41666 l 7.545,-0.28837 z m 1565,-15 0.2736,-17.25 h -17.047 v 35.08 l 8.25,-0.29044 8.25,-0.29044 z m 49,0 0.2736,-17.25 h -17.047 v 16.833 c 0,9.2583 0.3173,17.151 0.705,17.538 0.3878,0.38777 4.1003,0.57527 8.25,0.41666 l 7.545,-0.28837 z m -978,-7 0.27362,-17.25 h -17.047 v 35.08 l 8.25,-0.29044 8.25,-0.29044 z m 252,-2.5 -0.2736,-17.25 -8.25,-0.29044 -8.25,-0.29044 v 35.08 h 17.047 z m 102.23,-0.29044 v -17.54 l -8.25,0.29044 -8.25,0.29044 -0.2736,17.25 -0.2736,17.25 h 17.047 z m 137.77,-15.71 -0.2736,-17.25 h -16 l -0.2736,17.25 -0.2736,17.25 h 17.094 z m 72,0 -0.2736,-17.25 -8.25,-0.29044 -8.25,-0.29044 v 35.08 h 17.047 z m 25.226,-0.25 v -17.5 h -16 v 35 h 16 z m 25.774,0.25 -0.2736,-17.25 h -16 l -0.2736,17.25 -0.2736,17.25 h 17.094 z m 24,0 -0.2736,-17.25 h -16 l -0.2736,17.25 -0.2736,17.25 h 17.094 z m -1341.8,-4.25 v -17.5 h -17 v 35 h 17 z m 22,0 v -17.5 h -17 v 16.833 c 0,9.2583 0.3,17.133 0.6667,17.5 0.3666,0.36667 4.1916,0.66667 8.5,0.66667 h 7.8333 z m 22,0 v -17.5 h -16 v 35 h 16 z m 23,0 v -17.5 h -17 v 35 h 17 z m 267,-0.0404 v -17.54 l -8.25,0.29044 -8.25,0.29044 -0.2765,15.96 c -0.152,8.7779 -0.054,16.54 0.2187,17.25 0.3474,0.90533 2.8905,1.2901 8.5264,1.2901 h 8.0314 z m 22.5,0.0404 v -17 l -8.25,-0.29044 -8.25,-0.29044 v 35.162 l 8.25,-0.29044 8.25,-0.29044 z m 22.5,0 v -17.5 h -17 v 35 h 17 z m 22,-0.0404 v -17.54 l -8.25,0.29044 -8.25,0.29044 -0.27646,15.96 c -0.15205,8.7779 -0.0537,16.54 0.21862,17.25 0.34741,0.90533 2.8906,1.2901 8.5265,1.2901 h 8.0314 z m 22.774,-0.20956 0.27362,-17.25 h -17.047 v 35.08 l 8.25,-0.29044 8.25,-0.29044 z m 22.226,0.24996 v -17.5 h -17 v 35 h 17 z m 136,-7.5 v -17 h -16 v 34 h 16 z m 23,0 v -17 h -17 v 34 h 17 z m 24,0 v -17 h -17 v 34 h 17 z m -503,-22.5 v -17.5 h -16 v 35 h 16 z m 1350,-4 v -17.5 h -17 v 16.833 c 0,9.2583 0.3,17.133 0.6667,17.5 0.3666,0.36667 4.1916,0.66667 8.5,0.66667 h 7.8333 z m 130,0 v -17.5 h -17 v 35 h 17 z m 25.5,0 v -17 l -8.25,-0.29044 -8.25,-0.29044 v 35.162 l 8.25,-0.29044 8.25,-0.29044 z m 25.5,0 v -17.5 h -17 v 16.833 c 0,9.2583 0.3,17.133 0.6667,17.5 0.3666,0.36667 4.1916,0.66667 8.5,0.66667 h 7.8333 z m 24,0 v -17.5 h -17 v 35 h 17 z m 48,0 v -17.5 h -17 v 35 h 17 z m -747,-8 v -17.5 h -17 v 35 h 17 z m -447.55,4.3713 c 0.68739,-0.70983 0.78601,-3.4581 0.6682,-18.621 l -0.11848,-15.25 h -16 l -3e-4,17.25 -2.9e-4,17.25 7.5456,-0.12868 c 4.1501,-0.0708 7.7075,-0.29578 7.9052,-0.5 z m -43.45,-16.871 v -17 h -17 v 34 h 17 z m -531,-2.5 v -17.5 h -17 v 35 h 17 z m 883.77,-12.25 0.27362,-17.25 h -17.047 v 16.833 c 0,9.2583 0.31727,17.151 0.70504,17.538 0.38777,0.38777 4.1003,0.57527 8.25,0.41666 l 7.545,-0.28837 z m -739.77,-5.25 v -17 h -17 v 34 h 17 z m 22,0 v -17 h -16 v 34 h 16 z m 23,0 v -17 h -17 v 34 h 17 z m 22,0 v -17 h -17 v 34 h 17 z m 1305,-4.5404 v -17.54 l -8.25,0.29044 -8.25,0.29044 -0.2736,17.25 -0.2736,17.25 h 17.047 z m 24,0 v -17.54 l -8.25,0.29044 -8.25,0.29044 -0.2736,17.25 -0.2736,17.25 h 17.047 z m -821,-27.46 v -17 h -17 v 34 h 17 z m 24,0 v -17 h -17 v 34 h 17 z m 24,0 v -17 h -17 v 34 h 17 z m 565,-1 v -17 h -16 v 34 h 16 z m 26,0 v -17 h -17 v 34 h 17 z m 24,0 v -17 h -17 v 34 h 17 z m -387.23,0.75 -0.2736,-17.25 -8.25,-0.29044 -8.25,-0.29044 v 35.08 h 17.047 z m 54,0 -0.2736,-17.25 h -16 l -0.2736,17.25 -0.2736,17.25 h 17.094 z m 24,0 -0.2736,-17.25 h -16 l -0.2736,17.25 -0.2736,17.25 h 17.094 z m 24,0 -0.2736,-17.25 -8.25,-0.29044 -8.25,-0.29044 v 35.08 h 17.047 z m -819.77,-8.2904 v -17.54 l -8.25,0.29044 -8.25,0.29044 -0.2765,15.96 c -0.152,8.7779 -0.054,16.54 0.2187,17.25 0.3474,0.90533 2.8905,1.2901 8.5264,1.2901 h 8.0314 z m 22.5,0.0404 v -17 l -8.25,-0.29044 -8.25,-0.29044 v 35.162 l 8.25,-0.29044 8.25,-0.29044 z m 22.5,0 v -17.5 h -17 v 35 h 17 z m -112,-6.5 v -17 h -17 v 34 h 17 z m 1280,-2 v -17 h -16 v 34 h 16 z m 26,0 v -17 h -17 v 34 h 17 z m 156,-8 v -17 h -17 v 34 h 17 z m 49,0 v -17 h -17 v 34 h 17 z m 48,0 v -17 h -17 v 34 h 17 z m -1769,-10 v -17 h -17 v 34 h 17 z m 531,-4 v -17 h -17 v 34 h 17 z m 22,0 v -17 h -17 v 34 h 17 z m 22.204,0.001 -0.2956,-17.001 h -15.909 v 34 l 8.25,0.001 8.25,10e-4 -0.29559,-17.001 z m -297.43,-14.751 0.2736,-17.25 h -17.047 v 35.08 l 8.25,-0.29044 8.25,-0.29044 z m 22.226,0.25 v -17.5 h -17 v 16.833 c 0,9.2583 0.3,17.133 0.6667,17.5 0.3666,0.36667 4.1916,0.66667 8.5,0.66667 h 7.8333 z m 1190.2,-6.4987 -0.2956,-17.001 h -15.909 v 34 l 8.25,0.001 8.25,10e-4 -0.2956,-17.001 z m 25.796,-0.001 v -17 h -17 v 34 h 17 z m 24,0 v -17 h -17 v 34 h 17 z m 310,-5.5 v -17.5 h -16 v 35 h 16 z m 26,0 v -17.5 h -17 v 35 h 17 z m -1067,-10.5 v -17 h -17 v 34 h 17 z m 24,0 v -17 h -17 v 34 h 17 z m 51,0 v -17 h -17 v 34 h 17 z m 48,0 v -17 h -17 v 34 h 17 z m 400,-3.5404 v -17.54 l -8.25,0.29044 c -4.5375,0.15974 -8.1375,0.62794 -8,1.0404 0.1375,0.4125 0.25,8.175 0.25,17.25 v 16.5 h 16 z m -1332,-1.9596 v -17.5 h -17 v 35 h 17 z m 644.77,-14.25 0.27362,-17.25 h -17.047 v 16.833 c 0,9.2583 0.31727,17.151 0.70504,17.538 0.38777,0.38777 4.1003,0.57527 8.25,0.41666 l 7.545,-0.28837 z m -367.77,-6.7904 v -17.54 l -8.25,0.29044 -8.25,0.29044 -0.2736,17.25 -0.2736,17.25 h 17.047 z m 22.774,0.29044 -0.2736,-17.25 h -16 l -0.2736,17.25 -0.2736,17.25 h 17.094 z m 22,0 -0.2736,-17.25 h -16 l -0.2736,17.25 -0.2736,17.25 h 17.094 z m 1300.2,-4.25 v -17.5 h -17 v 35 h 17 z m 24,0 v -17.5 h -17 v 35 h 17 z m 25.5,0 v -17 l -8.25,-0.29044 -8.25,-0.29044 v 35.162 l 8.25,-0.29044 8.25,-0.29044 z m 49.5,0 v -17.5 h -17 v 35 h 17 z m 48,0 v -17.5 h -17 v 35 h 17 z m -462.23,-19.25 0.2736,-17.25 h -17.047 v 35.08 l 8.25,-0.29044 8.25,-0.29044 z m 25.226,0.25 v -17.5 h -16 v 35 h 16 z m 26,0 v -17.5 h -17 v 35 h 17 z m 24,0 v -17.5 h -17 v 35 h 17 z m -1382.2,-2.25 0.2736,-17.25 h -17.047 v 35.08 l 8.25,-0.29044 8.25,-0.29044 z m 1876,-6.5 -0.2736,-17.25 h -16 l -0.2736,17.25 -0.2736,17.25 h 17.094 z m -1574.8,-15.29 v -17.54 l -8.25,0.29044 -8.25,0.29044 -0.2765,15.96 c -0.152,8.7779 -0.054,16.54 0.2187,17.25 0.3474,0.90533 2.8905,1.2901 8.5264,1.2901 h 8.0314 z m 22.5,0.0404 v -17 l -8.25,-0.29044 -8.25,-0.29044 v 35.162 l 8.25,-0.29044 8.25,-0.29044 z m 1192.5,-45.04 v -17.54 l -8.25,0.29044 -8.25,0.29044 -0.2736,17.25 -0.2736,17.25 h 17.047 z m -707,-1.4595 v -17 h -17 v 34 h 17 z m 75,0 v -17 h -17 v 34 h 17 z m 48,0 v -17 h -17 v 34 h 17 z m 690,0 v -17 h -17 v 34 h 17 z m 50,0 v -17 h -17 v 34 h 17 z m 25,0 v -17 h -17 v 34 h 17 z m 48,0 v -17 h -17 v 34 h 17 z m 24,0 v -17 h -17 v 34 h 17 z m 24,0 v -17 h -17 v 34 h 17 z m -277,-43 v -17 h -17 v 34 h 17 z m -26,-45.5 c 0,-9.075 0.68481,-17.915 0.25,-17.915 h -16.25 v 34.415 h 16 z m 26,-1.0404 v -16.875 h -16.5 l -0.2736,17.165 -0.2736,17.25 h 17.047 z m 24,0 v -16.875 h -16.5 l -0.2736,17.165 -0.2736,17.25 h 17.047 z m -731,-12.46 v -17 h -17 v 34 h 17 z m 24,0 v -17 h -17 v 34 h 17 z m 51,0 v -17 h -17 v 34 h 17 z m 24,0 v -17 h -17 v 34 h 17 z m 24,0 v -17 h -17 v 34 h 17 z m -112.23,-60.75 0.27362,-17.25 h -17.047 v 35.08 l 8.25,-0.29044 8.25,-0.29044 z m 23.726,0.25 v -17 l -8.25,-0.29044 -8.25,-0.29044 v 35.162 l 8.25,-0.29044 8.25,-0.29044 z m 64.274,-0.25 0.27362,-17.25 h -17.047 v 16.833 c 0,9.2583 0.31727,17.151 0.70504,17.538 0.38777,0.38777 4.1003,0.57527 8.25,0.41666 l 7.545,-0.28837 z m -81.774,-55.75 v -17.5 h -17 v 35 h 17 z m 33,-76.5 v -10 h -17 v 20 h 17 z m 20,0 v -10 h -16 v 20 h 16 z"
         fill="url(#linearGradient3779)"
         style="fill:url(#linearGradient3779)" /><path
         id="path3823"
         style="color:#000000;text-indent:0;text-transform:none;fill:url(#radialGradient3791)"
         d="m 857.38,181.81 -0.0937,4.9375 -0.25,16.75 -0.1875,12.062 -1.5938,0.0625 -6.25,0.3125 -4.75,0.21875 v 31.75 l -4.4062,0.125 -9.25,0.28125 -4.8438,0.15625 v 57.313 l -2,0.1875 -4.5,0.4375 v 57.407 h -17 v 272 h -26 v 30 h -36 v -49 h -11 v -51 h -119 v 60 h -84 v 142 h -31 v -19 h -24 v 19 h -21 v -44 h -42 v -4 c 0,-3.7298 -0.031,-5.996 -0.375,-8.0625 -0.1722,-1.0332 -0.33925,-2.1253 -1.3438,-3.5 -1.00455,-1.3747 -3.3394,-2.4375 -4.7812,-2.4375 -1.4419,0 -3.7766,1.0628 -4.7812,2.4375 -1.0045,1.3747 -1.2027,2.4668 -1.375,3.5 -0.3444,2.0665 -0.34375,4.3327 -0.34375,8.0625 v 4 h -8 v -214 h -130 v 140.16 l -54.438,-0.6875 -59.5,-0.75 -5.0625,-0.0625 v 118.34 h -83 v -233 h -60 v 10 h 50 v 233 h 103 v -118.22 l 54.438,0.6875 59.5,0.75 5.0625,0.0625 v -140.28 h 110 v 214 h 63 v 44 h 41 v -19 h 4 v 19 h 51 v -142 h 84 v -60 h 99 v 51 h 11 v 49 h 56 v -30 h 26 v -272 h 17 v -58.313 l 1.9688,-0.1875 4.5312,-0.4375 v -56.718 l 4.4062,-0.125 9.25,-0.28125 4.8438,-0.15625 v -31.906 l 1.4688,-0.0625 6.25,-0.3125 4.6875,-0.21875 0.0937,-4.6875 0.25,-16.75 0.1875,-11.844 h 49.969 l -0.0312,11.75 v 21.531 l 4.75,0.21875 6.0625,0.3125 1.3125,0.0625 v 31.906 l 4.8438,0.15625 9.25,0.28125 4.4375,0.125 0.2187,23.969 0.28125,28.75 0.0312,4.9375 h 5.9376 v 57.782 l 4.8438,0.15625 9.25,0.28125 4.4062,0.125 -0.40625,234 c -0.16583,101.57 -0.20632,161.34 -0.0625,195.81 0.0719,17.239 0.19771,28.15 0.375,34.875 0.0886,3.3625 0.18127,5.6502 0.3125,7.2812 0.0656,0.81551 0.12464,1.4534 0.25,2.125 0.0627,0.33581 0.1209,0.66109 0.3125,1.1875 0.1916,0.52641 0.21898,1.4607 2.1562,2.6875 1.3032,0.8253 1.907,0.87696 2.625,1.0312 0.71803,0.15429 1.447,0.22648 2.2188,0.3125 1.5436,0.17203 3.2765,0.27705 5.0625,0.3125 1.786,0.0354 3.6011,0.0117 5.2188,-0.0937 1.6177,-0.1054 2.733,-0.0865 4.625,-0.8125 2.2501,-0.86345 3.132,-2.8034 3.4688,-3.875 0.33671,-1.0716 0.43867,-1.9844 0.5625,-3.2188 0.24767,-2.4687 0.39054,-6.1535 0.5,-12.312 0.21885,-12.318 0.28125,-34.407 0.28125,-74.25 v -83.406 h 110 v -17 h 21 v 17 h 9 v 109 h 139 v 93 h 28 v -335 h 31 v -19 h 66 v 19 h 24 v 426 h 69 v -577 h 82.031 l -0.062,132.25 -0.063,137.25 v 4.9062 l 4.9064,0.0937 13.031,0.28125 13.031,0.28125 5.125,0.125 v -189.19 h 13 v -17 h 9 v -7.9688 l 6.4375,-0.21875 c 3.2811,-0.12053 5.7523,-0.10767 7.5313,-0.0312 0,0.8225 -0.026,1.583 0.1562,2.6562 0.1824,1.0732 0.8308,2.8396 2.25,4 1.4191,1.1604 2.8336,1.3598 3.8125,1.4688 0.6784,0.0755 1.2753,0.058 1.9063,0.0625 l 0.125,3.2812 0.2812,8.0312 0.1561,4.8125 h 4.8439 l 92.25,-0.0625 87.25,-0.0625 v 65.25 l 5.0311,-0.0625 34.75,-0.25 26.688,-0.1875 v -0.0312 h 13.031 v -10.062 l -5.0312,0.0312 -34.75,0.25 -29.719,0.21875 v -65.156 h -5 l -92.25,0.0625 -87.438,0.0625 -0.125,-3.2188 -0.2813,-8.0312 -0.1874,-4.8438 h -7.9063 c -0.051,-0.56242 -0.032,-1.1529 -0.125,-1.6875 -0.1899,-1.0896 -0.05,-1.8199 -1.375,-3.7188 -1.0458,-1.4984 -1.9613,-1.7487 -2.5937,-2 -0.6329,-0.25128 -1.1077,-0.37515 -1.5938,-0.46875 -0.9722,-0.18721 -1.943,-0.28236 -3.0938,-0.34375 -2.3009,-0.12277 -5.2768,-0.10432 -8.9687,0.0312 l -11.25,0.4375 -4.8125,0.15625 v 7.5937 h -9 v 17 h -13 v 188.94 l -7.9375,-0.15625 -8.1563,-0.1875 0.063,-132.34 0.062,-137.25 v -5 h -102.03 v 577 h -49 v -426 h -24 v -19 h -86 v 19 h -31 v 335 h -8 v -93 h -118 v -33 h -20 v 33 h -1 v -109 h -9 v -17 h -41 v 17 H 990.25555 v 93.406 c 0,39.837 -0.0345,61.969 -0.25,74.094 -0.0978,5.5011 -0.27548,8.4503 -0.4375,10.406 -1.1398,0.0569 -2.447,0.089 -3.7812,0.0625 -1.0797,-0.0214 -1.9832,-0.11703 -2.9062,-0.1875 -0.0751,-1.3074 -0.15462,-2.5988 -0.21875,-5.0312 -0.17285,-6.5564 -0.30321,-17.446 -0.375,-34.656 -0.14358,-34.42 -0.10332,-94.156 0.0625,-195.72 l 0.40625,-238.84 v -4.875 l -4.8438,-0.15625 -9.25,-0.28125 -4.4062,-0.125 v -58.094 h -6.0312 l -0.2187,-23.781 -0.25,-28.75 -0.0625,-4.8125 -4.7812,-0.15625 -9.25,-0.28125 -4.4062,-0.125 v -31.75 l -4.75,-0.21875 -6.0625,-0.3125 -1.3125,-0.0625 v -11.969 l 0.0312,-16.75 v -5.0312 h -69.782 z"
         clip-path="url(#clipPath3867)"
         transform="translate(-1408.3,-221.92)"
         filter="url(#filter3863)"
         fill="url(#radialGradient3791)" /></g></g></svg>
