<?xml version="1.0" encoding="UTF-8" standalone="no"?>
<!-- Created with Inkscape (http://www.inkscape.org/) -->

<svg
   width="500"
   height="800"
   viewBox="0 0 132.29167 211.66667"
   version="1.1"
   id="svg1"
   inkscape:version="1.3.2 (091e20e, 2023-11-25, custom)"
   sodipodi:docname="03_adult.svg"
   xml:space="preserve"
   inkscape:export-filename="03_adult.png"
   inkscape:export-xdpi="96"
   inkscape:export-ydpi="96"
   xmlns:inkscape="http://www.inkscape.org/namespaces/inkscape"
   xmlns:sodipodi="http://sodipodi.sourceforge.net/DTD/sodipodi-0.dtd"
   xmlns="http://www.w3.org/2000/svg"
   xmlns:svg="http://www.w3.org/2000/svg"><sodipodi:namedview
     id="namedview1"
     pagecolor="#ffffff"
     bordercolor="#000000"
     borderopacity="0.25"
     inkscape:showpageshadow="2"
     inkscape:pageopacity="0.0"
     inkscape:pagecheckerboard="0"
     inkscape:deskcolor="#d1d1d1"
     inkscape:document-units="mm"
     inkscape:zoom="0.72426347"
     inkscape:cx="250.59941"
     inkscape:cy="399.71642"
     inkscape:window-width="1920"
     inkscape:window-height="1009"
     inkscape:window-x="1912"
     inkscape:window-y="-8"
     inkscape:window-maximized="1"
     inkscape:current-layer="layer1"
     showgrid="false" /><defs
     id="defs1"><rect
       x="26.233547"
       y="139.45201"
       width="512.24453"
       height="262.33547"
       id="rect8" /><rect
       x="22.091408"
       y="197.44196"
       width="479.10742"
       height="171.20841"
       id="rect2" /><rect
       x="62.132088"
       y="675.16864"
       width="668.26508"
       height="201.58411"
       id="rect1" /><rect
       x="26.233547"
       y="139.45201"
       width="471.6465"
       height="49.73008"
       id="rect8-3" /></defs><g
     inkscape:label="Layer 1"
     inkscape:groupmode="layer"
     id="layer1"
     transform="translate(-74.273847,-182.25543)"><rect
       style="fill:#f0a283;fill-opacity:0.60000002;fill-rule:evenodd;stroke:#cae7fd;stroke-width:0"
       id="rect3"
       width="132.29167"
       height="211.66667"
       x="74.273849"
       y="182.25543" /><text
       xml:space="preserve"
       transform="matrix(0.26458333,0,0,0.26458333,74.273847,182.25543)"
       id="text2"
       style="font-weight:bold;font-size:42px;line-height:1.5;font-family:'Public Sans';-inkscape-font-specification:'Public Sans, Bold';letter-spacing:0px;word-spacing:0px;white-space:pre;shape-inside:url(#rect2);display:inline;fill:#ffffff;fill-opacity:1;fill-rule:evenodd;stroke:#cae7fd;stroke-width:0" /><text
       xml:space="preserve"
       transform="matrix(0.34199817,0,0,0.34199817,43.854297,290.64872)"
       id="text8"
       style="font-weight:bold;font-size:42px;line-height:0;font-family:'Public Sans';-inkscape-font-specification:'Public Sans, Bold';letter-spacing:0px;word-spacing:0px;white-space:pre;shape-inside:url(#rect8);display:inline;fill:#ffffff;fill-opacity:1;fill-rule:evenodd;stroke:#cae7fd;stroke-width:0"
       x="117.36908"
       y="0"><tspan
         x="138.05486"
         y="177.60862"
         id="tspan2"><tspan
           style="line-height:1.2;text-align:center;text-anchor:middle"
           id="tspan1">Kansas Poetry
</tspan></tspan><tspan
         x="218.72639"
         y="228.00861"
         id="tspan5"><tspan
           style="line-height:1.2;text-align:center;text-anchor:middle"
           id="tspan3">March</tspan><tspan
           style="line-height:1.2;text-align:center;text-anchor:middle"
           id="tspan4">
</tspan></tspan><tspan
         x="227.23149"
         y="278.40861"
         id="tspan7"><tspan
           style="line-height:1.2;text-align:center;text-anchor:middle"
           id="tspan6">Adult</tspan></tspan></text><text
       xml:space="preserve"
       transform="matrix(0.34193589,0,0,0.34193589,50.543507,138.66609)"
       id="text8-5"
       style="font-weight:bold;font-size:42px;line-height:0;font-family:'Public Sans';-inkscape-font-specification:'Public Sans, Bold';letter-spacing:0px;word-spacing:0px;white-space:pre;shape-inside:url(#rect8-3);display:inline;fill:#ffffff;fill-opacity:1;fill-rule:evenodd;stroke:#cae7fd;stroke-width:0"
       x="117.36908"
       y="0"><tspan
         x="143.37602"
         y="177.60862"
         id="tspan9"><tspan
           style="line-height:1.2;text-align:center;text-anchor:middle"
           id="tspan8">Kansas 250</tspan></tspan></text><path
       id="path2384"
       d="m 177.87013,308.38759 c -0.35098,-0.12436 -0.92282,-0.65088 -1.27681,-1.17475 -0.76549,-1.13242 -2.02716,-1.29646 -2.95906,-0.381 -1.51281,1.48695 -4.82887,1.94733 -7.90895,1.09802 -2.06044,-0.56886 -2.55966,-1.06627 -6.2267,-6.19125 -2.21778,-3.10092 -3.37054,-4.42913 -4.82888,-5.56154 -1.21026,-0.94457 -2.27224,-2.08492 -2.89854,-3.10886 -1.05896,-1.73831 -1.55214,-1.96056 -2.29644,-1.03187 -0.55671,0.69585 -0.60512,1.7727 -0.12406,2.69875 0.26928,0.51329 0.26021,0.75935 -0.0362,1.07156 -0.31465,0.33073 -1.24957,0.40217 -5.26456,0.39952 -2.68372,-0.003 -5.08,-0.11642 -5.3281,-0.25135 -0.37518,-0.20902 -0.31164,-0.37307 0.39635,-1.01865 0.708,-0.64823 1.15881,-0.79375 2.85618,-0.93398 1.9969,-0.1614 2.02716,-0.17727 4.06642,-1.94733 2.22685,-1.93146 2.63531,-2.97657 1.51281,-3.86557 -0.78363,-0.62177 -8.73494,-3.6195 -9.59422,-3.6195 -0.5083,0 -1.00147,0.33603 -1.63988,1.12448 -1.32219,1.62455 -1.92429,2.19605 -2.70187,2.55852 -1.07712,0.50536 -3.06888,3.38667 -3.06888,4.445 0,1.2409 0.48198,1.92617 1.36243,1.92617 0.7201,0 1.61266,0.92604 1.21932,1.26736 -0.25112,0.22225 -11.07767,0.36777 -11.65859,0.15875 -0.55822,-0.20109 1.26017,-0.84667 2.47132,-0.87842 1.32219,-0.0318 1.75788,-0.29369 2.41293,-1.44198 0.3425,-0.6006 1.41447,-1.80446 2.38206,-2.67758 1.95061,-1.76213 3.02168,-3.25967 3.02168,-4.22805 0,-1.03452 -2.07133,-4.37091 -3.85584,-6.21241 -0.9098,-0.93663 -2.79476,-3.22263 -4.18926,-5.07471 -1.39451,-1.85208 -2.67706,-3.44223 -2.84983,-3.53748 -0.56095,-0.30162 -2.00083,-3.11415 -2.84407,-5.5536 -0.45294,-1.30969 -1.22296,-3.33375 -1.71189,-4.49792 -1.02569,-2.44475 -1.88163,-4.93713 -2.4093,-7.01146 -0.20362,-0.80169 -0.49045,-1.80446 -0.6375,-2.23044 -0.80905,-2.33891 -0.59453,-5.86607 0.48168,-7.92797 0.61027,-1.16867 1.30071,-3.96267 1.488,-6.01901 0.13736,-1.51315 0.0778,-1.82112 -0.43085,-2.22382 -0.32495,-0.25691 -0.5906,-0.60907 -0.5906,-0.78264 0,-0.1733 -0.20998,-0.68315 -0.46685,-1.13321 -0.75459,-1.32291 -2.56602,-2.00501 -7.09748,-2.67282 -2.23321,-0.32914 -4.5248,-0.76808 -5.09272,-0.97578 -0.88581,-0.32359 -0.97684,-0.43577 -0.64127,-0.78925 0.91307,-0.96203 4.6782,-2.41142 7.5495,-2.90645 2.37118,-0.40852 3.78686,-1.00621 5.02766,-2.12302 0.70497,-0.63418 1.66621,-1.22989 2.13609,-1.32376 0.46988,-0.0939 2.01173,-0.50663 3.4262,-0.91721 3.33877,-0.96909 5.0207,-1.16731 6.67783,-0.78692 2.03079,0.46622 6.2606,3.02921 7.92167,4.80192 0.7927,0.84349 2.72607,2.49529 4.29636,3.6703 2.78054,2.08095 4.39622,3.71608 5.44006,5.50651 0.37517,0.64135 1.01962,1.0885 2.38417,1.65338 1.02872,0.42598 2.07558,0.77576 2.3267,0.77708 0.81086,0.005 3.51274,1.52427 4.95596,2.78686 2.8592,2.50111 6.05122,7.25831 7.88777,11.75358 0.44173,1.08744 0.91071,2.09815 1.04384,2.24896 0.31769,0.36777 0.86532,2.34686 1.09527,3.97934 0.10292,0.7276 0.44174,1.97643 0.75338,2.77812 0.3086,0.79904 0.92583,2.88396 1.37059,4.63021 0.44477,1.74625 1.13158,4.10369 1.53096,5.2414 0.39938,1.13506 0.72615,2.32833 0.72615,2.65112 0,0.92604 2.03624,6.87388 2.96207,8.64394 0.3419,0.65352 1.11948,2.48708 1.72764,4.06929 0.6384,1.66687 1.70946,3.73062 2.53848,4.89479 0.78969,1.10861 1.71855,2.55058 2.06044,3.20675 1.03174,1.95792 2.2087,4.29154 2.2087,4.37886 0,0.045 -0.3086,0.11906 -0.68076,0.16668 -0.60209,0.0741 -0.67169,0.21167 -0.58696,1.20915 0.0544,0.61912 0.5688,2.01612 1.14367,3.10356 1.26774,2.40242 1.53701,3.43958 1.03174,3.9714 -0.41753,0.43921 -1.03174,0.48154 -1.99691,0.14023 z"
       style="stroke-width:0.282935" /></g></svg>
