<?xml version="1.0" encoding="UTF-8" standalone="no"?>
<!-- Created with Inkscape (http://www.inkscape.org/) -->

<svg
   width="500"
   height="800"
   viewBox="0 0 132.29167 211.66667"
   version="1.1"
   id="svg1"
   inkscape:version="1.2.1 (9c6d41e410, 2022-07-14)"
   sodipodi:docname="04_adult.svg"
   xml:space="preserve"
   inkscape:export-filename="04_youth.png"
   inkscape:export-xdpi="96"
   inkscape:export-ydpi="96"
   xmlns:inkscape="http://www.inkscape.org/namespaces/inkscape"
   xmlns:sodipodi="http://sodipodi.sourceforge.net/DTD/sodipodi-0.dtd"
   xmlns="http://www.w3.org/2000/svg"
   xmlns:svg="http://www.w3.org/2000/svg"><sodipodi:namedview
     id="namedview1"
     pagecolor="#ffffff"
     bordercolor="#000000"
     borderopacity="0.25"
     inkscape:showpageshadow="2"
     inkscape:pageopacity="0.0"
     inkscape:pagecheckerboard="0"
     inkscape:deskcolor="#d1d1d1"
     inkscape:document-units="mm"
     inkscape:zoom="0.72426347"
     inkscape:cx="-430.0921"
     inkscape:cy="423.8789"
     inkscape:window-width="1920"
     inkscape:window-height="1129"
     inkscape:window-x="-8"
     inkscape:window-y="-8"
     inkscape:window-maximized="1"
     inkscape:current-layer="layer1"
     showgrid="false" /><defs
     id="defs1"><rect
       x="26.233547"
       y="139.45201"
       width="512.24453"
       height="262.33547"
       id="rect8" /><rect
       x="22.091408"
       y="197.44196"
       width="479.10742"
       height="171.20841"
       id="rect2" /><rect
       x="62.132088"
       y="675.16864"
       width="668.26508"
       height="201.58411"
       id="rect1" /><rect
       x="26.233547"
       y="139.45201"
       width="471.6465"
       height="49.73008"
       id="rect8-3" /></defs><g
     inkscape:label="Layer 1"
     inkscape:groupmode="layer"
     id="layer1"
     transform="translate(-74.273847,-182.25543)"><rect
       style="fill:#f0b477;fill-opacity:0.60000002;fill-rule:evenodd;stroke:#cae7fd;stroke-width:0"
       id="rect3"
       width="132.29167"
       height="211.66667"
       x="74.273849"
       y="182.25543" /><text
       xml:space="preserve"
       transform="matrix(0.26458333,0,0,0.26458333,74.273847,182.25543)"
       id="text2"
       style="font-weight:bold;font-size:42px;line-height:1.5;font-family:'Public Sans';-inkscape-font-specification:'Public Sans, Bold';letter-spacing:0px;word-spacing:0px;white-space:pre;shape-inside:url(#rect2);display:inline;fill:#000000;fill-rule:evenodd;stroke:#cae7fd;stroke-width:0" /><text
       xml:space="preserve"
       transform="matrix(0.31887741,0,0,0.31887741,50.097993,281.09178)"
       id="text8"
       style="font-weight:bold;font-size:42px;line-height:0;font-family:'Public Sans';-inkscape-font-specification:'Public Sans, Bold';letter-spacing:0px;word-spacing:0px;white-space:pre;shape-inside:url(#rect8);display:inline;fill:#000000;fill-rule:evenodd;stroke:#cae7fd;stroke-width:0"
       x="117.36908"
       y="0"><tspan
         x="93.156855"
         y="177.60862"
         id="tspan404"><tspan
           style="line-height:1.2;text-align:center;text-anchor:middle"
           id="tspan402">Nature &amp; Outdoors
</tspan></tspan><tspan
         x="186.44934"
         y="228.00861"
         id="tspan408"><tspan
           style="line-height:1.2;text-align:center;text-anchor:middle"
           id="tspan406">in Kansas
</tspan></tspan><tspan
         x="233.12191"
         y="278.40861"
         id="tspan412"><tspan
           style="line-height:1.2;text-align:center;text-anchor:middle"
           id="tspan410">April
</tspan></tspan><tspan
         x="227.23149"
         y="328.8086"
         id="tspan416"><tspan
           style="line-height:1.2;text-align:center;text-anchor:middle"
           id="tspan414">Adult</tspan></tspan></text><text
       xml:space="preserve"
       transform="matrix(0.34193589,0,0,0.34193589,50.543507,138.66609)"
       id="text8-5"
       style="font-weight:bold;font-size:42px;line-height:0;font-family:'Public Sans';-inkscape-font-specification:'Public Sans, Bold';letter-spacing:0px;word-spacing:0px;white-space:pre;shape-inside:url(#rect8-3);display:inline;fill:#000000;fill-rule:evenodd;stroke:#cae7fd;stroke-width:0"
       x="117.36908"
       y="0"><tspan
         x="143.37602"
         y="177.60862"
         id="tspan420"><tspan
           style="line-height:1.2;text-align:center;text-anchor:middle"
           id="tspan418">Kansas 250</tspan></tspan></text><path
       d="m 192.93264,279.66876 c -0.17456,-0.26035 -0.35496,-0.52972 -0.39029,-0.806 0.1876,-0.17752 0.2652,-0.32497 0.23018,-0.43782 -0.0312,-0.10126 -0.15356,-0.16991 -0.36357,-0.20362 -0.19233,-0.52071 -0.20347,-1.1268 -0.21534,-1.76826 -0.0153,-0.83392 -0.0312,-1.69622 -0.4671,-2.39886 0.007,-0.76115 -0.15891,-1.50255 -0.31886,-2.21945 -0.16557,-0.74246 -0.33694,-1.51032 -0.3168,-2.29954 0.0487,-0.57907 -0.13545,-1.14177 -0.31352,-1.68593 -0.23064,-0.70443 -0.44838,-1.36978 -0.21312,-2.07599 0.18372,-0.46099 0.20376,-0.91992 0.0614,-1.40305 -0.12712,-0.43114 -0.36995,-0.84373 -0.60476,-1.24264 -0.18936,-0.3217 -0.38511,-0.65422 -0.52264,-0.99805 -0.11717,-0.43694 -0.33638,-0.66031 -0.68985,-0.70293 -0.4175,-0.68719 -0.62512,-1.45325 -0.82577,-2.1942 -0.16351,-0.60373 -0.33253,-1.22795 -0.61367,-1.79677 l -0.0194,-0.0557 c -0.13479,-0.38481 -0.27466,-0.78227 -0.68283,-0.94711 -0.0164,-0.17914 0.0913,-0.30578 0.19583,-0.42817 0.16849,-0.19696 0.32733,-0.38315 -0.0845,-0.74868 0.005,-0.10514 0.0196,-0.2132 0.0344,-0.31782 0.0332,-0.23455 0.0669,-0.47692 -0.0175,-0.70851 l 9.1e-4,1.6e-4 -0.005,-0.0114 6.1e-4,-0.005 -0.002,-6e-4 c -0.22842,-0.58277 -0.33685,-1.21669 -0.4418,-1.82986 -0.17509,-1.02366 -0.35629,-2.08222 -1.10661,-2.88793 l -0.001,-0.001 -0.0354,-0.0566 c -0.0451,-0.0705 -0.1008,-0.15784 -0.13335,-0.21025 -0.055,-0.59255 -0.10743,-1.22434 -0.0973,-1.86333 l 0.001,3e-4 -0.001,-0.0103 1.2e-4,-0.005 -6e-4,-1.6e-4 c -0.0942,-0.81849 -0.13639,-1.66965 -0.17715,-2.49283 -0.1096,-2.21165 -0.22294,-4.49868 -1.3444,-6.48904 -0.2097,-0.32414 -0.36683,-0.69031 -0.51861,-1.04452 -0.29897,-0.69692 -0.60804,-1.41753 -1.32969,-1.8244 -0.55292,-0.35443 -1.09621,-0.73799 -1.62166,-1.10883 -0.94265,-0.66543 -1.91737,-1.35352 -2.97452,-1.8919 -0.55635,-0.31626 -1.09918,-0.67939 -1.62419,-1.03049 -1.0019,-0.67004 -2.03797,-1.36287 -3.20888,-1.7586 -2.79523,-1.70154 -6.09598,-2.22399 -9.28803,-2.72922 -1.64372,-0.66637 -3.47732,-1.19582 -5.60519,-1.6185 -1.8988,-0.37715 -3.85627,-0.63721 -5.74913,-0.88872 -1.5128,-0.20103 -3.07714,-0.40887 -4.61178,-0.67606 -0.0412,9.1e-4 -0.0834,0.001 -0.12535,0.001 -0.90981,0 -1.82112,-0.22345 -2.70242,-0.43955 -0.87374,-0.21424 -1.77717,-0.43574 -2.67132,-0.43574 -0.37004,0 -0.71259,0.0366 -1.04716,0.11165 -0.96181,-0.46359 -2.08241,-0.56542 -3.16629,-0.66379 -0.80898,-0.0735 -1.64558,-0.14942 -2.41683,-0.37427 l -0.002,-6.1e-4 -0.002,6.1e-4 c -0.2608,0.0737 -0.54743,0.10948 -0.87632,0.10948 -0.31049,0 -0.62772,-0.0314 -0.93448,-0.0617 -0.30588,-0.0303 -0.62215,-0.0616 -0.93076,-0.0616 -0.31797,0 -0.59526,0.0337 -0.84767,0.10297 l -0.0103,-9.1e-4 3e-4,9.1e-4 c -0.67622,-0.008 -1.36713,-0.0392 -2.03551,-0.0693 -0.78105,-0.0353 -1.58869,-0.0718 -2.38112,-0.0718 -1.54584,0 -2.78366,0.14547 -3.89459,0.45766 -1.12397,0.15913 -2.24179,0.45899 -3.32278,0.74898 -1.57354,0.42209 -3.2007,0.8585 -4.87503,0.86772 -0.91413,0.20814 -1.74612,0.66082 -2.29088,0.98258 -0.39119,0.11859 -0.76264,0.29875 -1.12183,0.47297 -0.47326,0.22945 -0.96255,0.46678 -1.49617,0.56102 l -0.003,6e-4 -10e-4,0.003 c -0.0597,0.11733 -0.0945,0.25723 -0.12817,0.39246 -0.0713,0.28589 -0.14495,0.58152 -0.45855,0.68095 -0.40367,0.18409 -0.75632,0.49569 -1.01988,0.90106 -0.24722,0.38031 -0.40667,0.82499 -0.46163,1.28632 -0.15022,0.0145 -0.28144,0.0835 -0.36961,0.19595 -0.0847,0.108 -0.11931,0.24519 -0.0983,0.38651 -0.0369,0.0342 -0.1104,0.10309 -0.14975,0.14086 -0.61278,0.48752 -1.07688,1.12475 -1.4189,1.94791 -0.30491,0.73397 -0.48698,1.54519 -0.66298,2.32966 -0.26555,1.18301 -0.54001,2.40628 -1.24161,3.39489 -0.24112,0.0252 -0.48752,0.038 -0.73249,0.038 h -8e-5 c -0.7901,0 -2.68905,-0.15311 -3.256613,-1.57153 l -0.003,-0.009 -0.008,0.007 c -0.14548,0.13604 -0.29689,0.20214 -0.46292,0.20214 -0.20652,0 -0.40837,-0.0991 -0.62208,-0.20414 -0.22734,-0.11166 -0.46272,-0.22756 -0.71509,-0.22327 -0.0816,-0.21707 -0.41364,-0.71537 -0.61718,-0.71537 -0.0905,0 -0.14273,0.095 -0.15513,0.28389 0.016,0.1024 0.002,0.17704 -0.041,0.22798 -0.0679,0.0794 -0.2005,0.0903 -0.33364,0.0903 -0.0346,0 -0.0703,-9e-4 -0.10491,-0.001 -0.0346,-9e-4 -0.0693,-0.001 -0.10274,-0.001 -0.076,0 -0.12971,0.005 -0.17445,0.0138 -0.0439,-0.0437 -0.0868,-0.0909 -0.12837,-0.13655 -0.13724,-0.1512 -0.27922,-0.30751 -0.48514,-0.37071 l -0.0103,-0.003 0.001,0.0114 c 0.0331,0.26638 0.0836,0.53467 0.13255,0.79413 0.0934,0.49583 0.18981,1.00829 0.16908,1.52676 -0.21297,-0.16908 -0.40879,-0.38459 -0.58226,-0.6407 l -6.1e-4,-6e-4 1.3e-4,-1.5e-4 c -0.0896,-0.1072 -0.14177,-0.28205 -0.19226,-0.45106 -0.0889,-0.29748 -0.18082,-0.60513 -0.47786,-0.60513 -0.0165,0 -0.0336,9.1e-4 -0.0509,0.003 l -0.0103,0.001 0.003,0.009 c 0.14251,0.32406 0.18009,0.5302 0.11489,0.63008 -0.0347,0.0533 -0.0987,0.0781 -0.20147,0.0781 0,0 0,0 -7e-5,0 -0.071,0 -0.15261,-0.0119 -0.23162,-0.0233 -0.0686,-0.0103 -0.13953,-0.0202 -0.20265,-0.0226 l -0.007,-3e-4 -1.5e-4,0.007 c -0.005,0.21492 0.0423,0.51405 0.29158,0.72208 l -6.1e-4,0.005 0.001,10e-6 c 0.051,0.41816 -0.16814,0.83365 -0.54766,1.03687 -0.3912,-0.29919 -0.78187,-0.57173 -1.256013,-0.62519 l -0.008,-9e-4 1.37e-4,0.008 c 0.0023,0.13619 0.109713,0.31085 0.213575,0.47979 0.113484,0.18468 0.220843,0.35911 0.169232,0.4515 -0.02708,0.0483 -0.09611,0.0718 -0.211118,0.0718 -0.02549,0 -0.0536,-0.001 -0.08263,-0.003 -0.114799,-0.0222 -0.195827,-0.005 -0.242901,0.0527 -0.0904,0.10891 -0.04503,0.34856 -0.0011,0.58032 0.03577,0.18991 0.07269,0.38601 0.03417,0.50474 -0.0312,0.0271 -0.06286,0.0539 -0.09463,0.0808 -0.225163,0.19071 -0.457652,0.38796 -0.540269,0.68881 -0.06606,0.0357 -0.12345,0.0542 -0.170238,0.0542 -0.194409,0 -0.201461,-0.31791 -0.208295,-0.62541 -0.0069,-0.31397 -0.01406,-0.63871 -0.222112,-0.63871 -0.07394,0 -0.166924,0.0403 -0.284328,0.12357 l -0.0023,0.001 -9.03e-4,0.002 c -0.06674,0.18833 -0.131153,0.38384 -0.191529,0.5823 l -1.37e-4,-4e-5 c -0.238284,0.6259 -0.380545,1.25428 -0.423036,1.86774 -0.11577,0.17647 -0.23546,0.35481 -0.351265,0.52741 -0.67085,0.99968 -1.364511,2.03343 -1.663251,3.23665 -0.306683,0.27364 -0.202284,0.60535 -0.101256,0.92623 0.09589,0.30476 0.195152,0.61991 -0.04103,0.89994 -0.397219,0.53348 -0.446224,1.1866 -0.493527,1.81824 -0.04023,0.53674 -0.08194,1.09174 -0.334396,1.57874 l -9.03e-4,0.002 1.49e-4,0.002 c 0.01326,0.16596 0.01771,0.34419 0.02251,0.5328 0.02114,0.84684 0.0456,1.8063 0.883739,2.17792 -0.01029,0.24833 -0.01737,0.50113 -0.02423,0.74573 -0.01154,0.40861 -0.02354,0.831 -0.05006,1.24617 -0.181072,0.28855 -0.238626,0.49858 -0.17089,0.62427 0.04891,0.0906 0.16345,0.13866 0.33978,0.14343 0.24714,0.73258 0.246569,1.5206 0.245826,2.2826 -9.03e-4,0.9768 -0.0023,1.98687 0.527754,2.86892 0.607068,0.9061 0.643982,1.97455 0.679627,3.00793 0.02731,0.79108 0.05554,1.60911 0.339665,2.34835 l -2.97e-4,0.006 0.0023,3e-5 c 0.04251,0.24549 0.208398,0.455 0.468429,0.59056 0.142685,0.12681 0.291426,0.25123 0.435287,0.3715 l 0.06457,0.0542 c 0.06891,0.28912 0.291254,0.48424 0.567731,0.49839 0.138182,0.0861 0.298569,0.18622 0.458327,0.28728 0.411859,0.62031 1.218986,0.6836 1.999706,0.7449 0.51847,0.0407 1.00822,0.0792 1.39221,0.26763 0.43268,0.21234 0.65258,0.57994 0.69201,1.15577 l -10e-4,6.1e-4 10e-4,0.003 -0.007,0.0142 0.0103,-0.005 c 0.32371,0.87793 0.64125,1.83657 0.9706,2.93063 l 0.068,0.0909 -0.003,2.9e-4 0.009,0.008 -10e-4,0.006 0.006,-3e-4 0.007,0.009 9.2e-4,-0.003 c 0.36172,0.32571 1.02289,0.7019 1.71207,0.7019 0.27812,0 0.52675,-0.0642 0.7397,-0.18992 0.0792,0.15531 0.136603,0.26903 0.165663,0.3282 l 3e-4,1.5e-4 -1.1e-4,9e-5 c 0.0558,0.10148 0.11131,0.20912 0.16493,0.31323 0.26368,0.51182 0.53665,1.04058 1.05723,1.29943 l -6.1e-4,9e-4 0.006,0.002 0.005,0.008 0.002,-0.005 0.0153,0.008 -0.002,-0.003 c 0.12871,0.0529 0.25733,0.0806 0.38272,0.0806 0.40875,0 0.74561,-0.28402 0.86055,-0.72368 l 0.003,6.1e-4 -9.2e-4,-0.007 c 0.0686,-0.12829 0.13987,-0.25742 0.20895,-0.38243 0.13251,-0.23958 0.2695,-0.48743 0.39116,-0.73753 l 0.003,-0.001 -9.1e-4,-0.002 c 0.10812,-0.15721 0.20797,-0.32657 0.30457,-0.49043 0.26971,-0.45788 0.54864,-0.93151 1.03994,-1.19558 l 0.002,-0.001 c 0.18331,-0.21482 0.28764,-0.49349 0.32841,-0.87638 0.3219,-0.40781 0.39087,-0.90948 0.45747,-1.39475 0.0389,-0.28248 0.079,-0.57465 0.16802,-0.84582 0.48134,-0.15222 0.66372,-0.59566 0.83983,-1.02477 0.0391,-0.0952 0.0794,-0.19352 0.12245,-0.28664 0.14043,-0.48283 0.48974,-0.83555 0.82762,-1.1767 0.22798,-0.23028 0.46363,-0.46828 0.63525,-0.74541 0.16763,-0.11703 0.34775,-0.23974 0.54265,-0.33871 0.32763,-0.0229 0.71533,-0.0463 1.10727,-0.0463 0.69607,0 1.26518,0.0738 1.79079,0.23182 0.0402,0.42042 0.38503,0.4324 0.75026,0.44454 0.19753,0.007 0.40175,0.0135 0.55963,0.0887 0.32042,0.14272 0.65533,0.26123 0.9791,0.37574 0.13729,0.0487 0.27918,0.0989 0.41823,0.15033 v 1.2e-4 l 0.003,9.1e-4 c 0.31572,0.61212 1.00436,0.66862 1.67034,0.72305 0.53173,0.0435 1.03384,0.0848 1.35643,0.38731 l -2.9e-4,0.003 0.003,6e-4 c 0.0743,0.16295 0.19097,0.24609 0.34752,0.24609 0.17027,0 0.38384,-0.0965 0.63458,-0.28616 l 6e-4,0.002 0.008,-0.008 0.005,-9e-4 -5.9e-4,-0.003 0.0181,-0.0137 -0.005,6e-4 c 0.0699,-0.0691 0.14102,-0.1056 0.21152,-0.1056 0.11132,0 0.22301,0.0822 0.35133,0.25842 l 6e-4,9e-4 c 0.0287,0.0424 0.0848,0.12144 0.10994,0.15675 l -0.007,-5e-5 0.015,0.012 0.002,0.002 h 0.001 c 0.0665,0.0537 0.13808,0.11856 0.21394,0.18743 0.26999,0.24506 0.57595,0.52278 0.88946,0.52278 0.14362,0 0.27795,-0.0611 0.39922,-0.18163 0.0497,-0.051 0.1008,-0.0767 0.15194,-0.0767 0.12253,0 0.22842,0.14273 0.31352,0.25752 0.0103,0.0131 0.0191,0.0257 0.0282,0.0378 l -1.5e-4,9.1e-4 0.001,10e-4 c 0.029,0.34055 0.46605,0.77334 0.78224,0.77334 0.10938,0 0.24924,-0.0534 0.29559,-0.30703 0.1104,-0.18107 0.20132,-0.26923 0.27807,-0.26923 0.12468,0 0.20383,0.23867 0.2876,0.49145 0.0828,0.24926 0.16843,0.50594 0.31158,0.6148 l -0.005,0.002 0.0128,0.005 0.003,0.002 10e-4,-9.2e-4 c 0.0733,0.0283 0.14394,0.0425 0.21569,0.0425 0.23451,0 0.4324,-0.15446 0.62377,-0.30388 0.16219,-0.12668 0.32978,-0.25752 0.52041,-0.29659 0.10674,0.16456 0.18647,0.34739 0.26362,0.52427 0.0743,0.17035 0.15119,0.34665 0.25337,0.50853 0.2827,0.27877 0.68029,0.32526 1.06472,0.37025 0.354,0.0416 0.71995,0.0843 0.99463,0.30848 0.0723,0.26748 0.1048,0.55427 0.13619,0.83141 0.0617,0.54623 0.12577,1.11093 0.49749,1.55959 0.0183,0.15894 0.0297,0.32172 0.0418,0.49395 0.0518,0.73648 0.10526,1.49816 0.70354,1.96606 0.0424,0.0475 0.0854,0.095 0.12822,0.1426 0.24157,0.26774 0.49123,0.54456 0.67488,0.8622 0.2195,0.82846 0.91609,1.36673 1.5898,1.88732 0.23581,0.18217 0.47946,0.37054 0.69381,0.56584 -0.009,0.34698 -0.013,0.70684 -0.017,1.05493 -0.001,0.11857 -0.002,0.23713 -0.005,0.35513 -0.15014,0.15001 -0.25866,0.35957 -0.3313,0.64112 l -6.1e-4,0.002 6.1e-4,0.002 c 0.009,0.0272 0.0222,0.067 0.0357,0.108 0.0156,0.0474 0.0316,0.096 0.0425,0.12813 -0.0443,0.0916 -0.12488,0.257 -0.16679,0.34267 l -0.14941,-0.0168 -0.002,0.005 c -0.0725,0.16559 -0.13812,0.31991 -0.20088,0.47184 -0.0274,0.076 -0.0822,0.2296 -0.10971,0.30773 l -0.029,0.10846 -0.005,0.0241 c -0.0402,0.20113 -0.0817,0.40905 -0.12118,0.61508 -0.0759,0.11723 -0.1502,0.23753 -0.22212,0.35385 -0.0201,0.0324 -0.0402,0.0651 -0.0608,0.0985 -0.1902,0.19247 -0.48582,0.26611 -0.77168,0.33722 -0.43888,0.10914 -0.85332,0.21224 -0.82547,0.72967 l 3.1e-4,0.006 0.006,10e-4 c 0.66016,0.14524 1.33903,0.21579 2.07561,0.21579 1.52461,0 3.05509,-0.31248 4.53522,-0.61471 0.37574,-0.0768 0.76435,-0.15624 1.14671,-0.22917 l 0.002,-0.001 c 0.18684,-0.12356 0.40976,-0.18891 0.64449,-0.18891 0.10171,0 0.20474,0.0122 0.30654,0.0362 l 0.0103,0.002 -0.002,-0.0103 c -0.0468,-0.26747 -0.21861,-0.47035 -0.38466,-0.66654 -0.20139,-0.23793 -0.40968,-0.48402 -0.39401,-0.84834 l -0.0274,-0.15044 c -0.0461,-0.23914 -0.0931,-0.49427 -0.11975,-0.75504 0.0773,-0.15956 0.14191,-0.29284 0.21034,-0.42972 l 8e-5,3e-5 c 0.15342,-0.30105 0.25359,-0.62155 0.29777,-0.95305 0.19056,0.0347 0.38125,0.0843 0.56579,0.13233 0.28663,0.0745 0.58302,0.15175 0.88594,0.17492 0.50831,0.33662 1.14711,0.34402 1.82339,0.35173 0.76617,0.009 1.55833,0.0177 2.16866,0.53766 l 1.5e-4,0.001 0.003,10e-4 0.0121,0.0103 -6e-4,-0.007 c 0.0911,0.034 0.18798,0.0528 0.28158,0.0528 0.17802,0 0.33331,-0.0613 0.44956,-0.17728 l 0.10503,-0.0713 c 0.11665,0.0882 0.26376,0.13715 0.41518,0.13715 0.12858,0 0.25475,-0.0342 0.36547,-0.0986 0.12567,0.029 0.31638,0.0727 0.50336,0.11531 0.16738,0.0383 0.33164,0.0759 0.44332,0.1016 l 0.002,6.1e-4 0.11028,-0.0496 c 0.0493,-0.0241 0.14645,-0.0699 0.20452,-0.0974 l 0.0114,-0.006 0.257,0.006 c 0.17116,0.0783 0.33349,0.1181 0.48264,0.1181 0.0859,0 0.16886,-0.0133 0.24668,-0.0392 l 0.003,-10e-4 9.1e-4,-0.003 c 0.007,-0.0264 0.0182,-0.0669 0.029,-0.10697 0.0103,-0.0368 0.0198,-0.0729 0.0264,-0.0982 l 0.10446,-0.0501 0.13953,-0.0328 6.1e-4,-0.006 c 0.0256,-0.3416 0.044,-0.64115 0.0563,-0.9171 -0.10514,-0.86304 -0.55755,-1.57116 -0.99493,-2.25614 -0.13411,-0.20999 -0.27283,-0.42714 -0.40158,-0.64798 -0.69581,-0.76175 -1.60741,-0.97918 -2.48902,-1.18948 -0.34412,-0.0822 -0.70012,-0.16709 -1.03925,-0.28248 -0.3208,-0.19382 -0.38838,-0.54402 -0.45366,-0.88264 -0.023,-0.11937 -0.0469,-0.24256 -0.0814,-0.35635 l -1.5e-4,-0.002 -0.002,-0.002 c -0.25895,-0.20199 -0.37687,-0.52368 -0.29355,-0.80037 0.0705,-0.23437 0.27425,-0.38139 0.55865,-0.40352 0.34345,-0.0149 0.55523,-0.25501 0.58687,-0.48447 0.032,-0.23183 -0.10823,-0.42269 -0.3736,-0.50971 -0.13099,-0.0794 -0.19151,-0.15446 -0.17985,-0.22293 0.0185,-0.10822 0.21806,-0.20596 0.57606,-0.28319 l -6e-4,9e-4 0.0168,-0.005 c 1.5e-4,-5e-5 5.9e-4,-9e-5 5.9e-4,-1.4e-4 l 0.003,-6.1e-4 3.1e-4,-6e-4 c 0.50572,-0.14027 0.56605,-0.70116 0.61911,-1.19622 0.017,-0.15921 0.0333,-0.30965 0.0629,-0.44154 l 1.5e-4,-0.002 c -0.0159,-0.19991 0.0362,-0.42283 0.0913,-0.65882 0.10617,-0.45431 0.21584,-0.92392 -0.19121,-1.22275 -0.0166,-0.0184 -0.0394,-0.0431 -0.0641,-0.0696 -0.0417,-0.045 -0.0882,-0.0951 -0.11734,-0.12809 0.43855,-0.67352 0.54978,-1.43114 0.65705,-2.16399 0.0614,-0.41822 0.1246,-0.85056 0.24742,-1.26849 l 6.1e-4,-0.002 -9e-4,-0.002 c -0.13649,-0.40366 -0.13739,-0.69119 -0.002,-0.87877 0.12758,-0.17778 0.38169,-0.26421 0.77704,-0.26421 0.31887,0 0.68541,0.0541 1.03992,0.10617 0.32541,0.048 0.63284,0.0933 0.87863,0.0933 0.0305,0 0.06,-9e-4 0.0877,-0.002 0.15463,0.0345 0.31354,0.0643 0.4671,0.0933 0.30566,0.0574 0.62185,0.11659 0.92305,0.21668 0.13411,0.0422 0.2709,0.0872 0.40321,0.13084 0.20225,0.0669 0.41133,0.13569 0.62217,0.19753 l -1e-5,1.5e-4 c 0.82664,0.21372 1.69398,0.24774 2.53267,0.28071 0.74615,0.0292 1.5177,0.0594 2.26504,0.21535 0.12743,0.0134 0.26198,0.02 0.40026,0.02 0.56659,0 1.1522,-0.11257 1.71849,-0.22145 0.5568,-0.10697 1.13246,-0.21757 1.68019,-0.21757 0.4401,0 0.8226,0.071 1.16952,0.21671 0.16224,0.34511 0.26898,0.73773 0.37194,1.11757 0.20288,0.74749 0.41259,1.52054 1.05686,1.99267 0.0823,0.27179 0.17436,0.54566 0.26347,0.81061 0.17081,0.50783 0.34753,1.03289 0.46234,1.56548 -0.0373,0.19781 -0.10663,0.55589 -0.14838,0.77105 -0.0103,0.0552 -0.02,0.1032 -0.0261,0.13401 -0.13732,0.22298 -0.24629,0.4053 -0.34309,0.57379 -0.2365,0.27139 -0.32349,0.63582 -0.26609,1.114 -0.23312,0.0797 -0.36634,0.32328 -0.31942,0.58443 -0.21727,0.0347 -0.35993,0.22609 -0.33576,0.45058 l -0.003,1.5e-4 0.002,0.005 c -0.20383,0.15516 -0.30495,0.39418 -0.26479,0.6262 -0.10617,0.13259 -0.22609,0.28235 -0.34111,0.43155 -0.28397,0.12802 -0.44337,0.43121 -0.4071,0.7739 -0.0211,0.021 -0.0529,0.0531 -0.0832,0.0841 -0.0231,0.0232 -0.0449,0.0455 -0.0603,0.0609 -0.33413,0.1952 -0.56222,0.44798 -0.67808,0.75114 -0.0159,0.0189 -0.0397,0.0469 -0.0636,0.0747 -0.0245,0.0288 -0.0491,0.0575 -0.0652,0.0767 v 0 c -0.0229,0.023 -0.0457,0.0459 -0.0686,0.0688 -0.25701,0.25714 -0.52244,0.52293 -0.68521,0.86084 -0.24858,0.0706 -0.48355,0.28433 -0.45229,0.60471 -0.0935,0.18274 -0.19929,0.38969 -0.30212,0.59521 -0.1112,0.024 -0.20763,0.0899 -0.26491,0.18185 -0.0542,0.0871 -0.0697,0.19105 -0.045,0.29346 -0.28562,0.0758 -0.47167,0.31066 -0.46453,0.58744 l -0.005,0.006 c -0.14813,0.15271 -0.30143,0.31044 -0.4537,0.46569 -0.38255,0.0465 -0.62364,0.17106 -0.7585,0.3923 l -0.002,0.003 0.0543,0.0922 c -0.0536,0.0213 -0.14536,0.059 -0.19169,0.0785 -0.0248,-0.002 -0.0501,-0.003 -0.075,-0.003 -0.37293,0 -0.75432,0.24328 -0.97175,0.61977 -0.16175,0.28011 -0.18937,0.5666 -0.0741,0.76635 0.11155,0.19323 0.34784,0.29541 0.68304,0.29541 l 0.0153,-3.1e-4 c 0.76116,0.11777 1.37127,0.17258 1.92004,0.17258 0.92507,0 1.63046,-0.15691 2.15655,-0.4794 0.16877,0.0223 0.34133,0.0488 0.5083,0.0744 0.3257,0.0502 0.66239,0.10205 0.99567,0.12609 0.23897,0.0114 0.42328,0.0217 0.59764,0.0351 0.0407,0.002 0.0815,0.002 0.12163,0.002 0.27431,0 0.77036,-0.0474 1.01126,-0.36506 0.14569,-0.19248 0.17391,-0.45342 0.0838,-0.77556 0.0297,-0.25322 0.068,-0.50556 0.10503,-0.74957 0.023,-0.15227 0.0468,-0.30957 0.0684,-0.46553 l 0.14657,0.0603 0.006,0.002 0.003,-0.006 c 0.15476,-0.25263 0.26734,-0.53006 0.37635,-0.79844 0.02,-0.0491 0.04,-0.0983 0.0601,-0.14732 1.58518,-1.73176 3.20275,-3.62921 4.29611,-5.76822 0.37099,-0.35848 0.97902,-1.09259 0.8973,-1.99175 0.98375,-0.74599 1.39065,-1.86721 1.78411,-2.95159 0.15342,-0.42268 0.31204,-0.85977 0.50229,-1.26745 l 0.002,-0.006 -0.005,-0.003 c -0.79622,-0.54067 -0.73442,-1.65115 -0.27201,-2.42165 0.74824,-0.68309 0.98171,-1.6936 0.60971,-2.63783 l 4e-5,-6.1e-4 -0.001,-0.002 c -0.11394,-0.18446 -0.15341,-0.31086 -0.11732,-0.37561 0.0355,-0.064 0.15,-0.0685 0.34053,-0.0127 0.1707,0.16749 0.32226,0.25253 0.45078,0.25253 0.1,0 0.18401,-0.0506 0.2498,-0.15074 0.20553,-0.31266 0.17592,-1.01668 0.0146,-1.39352 l 0.002,-0.005 -0.003,-9e-4 c -0.0258,-0.0862 -0.022,-0.15168 0.0123,-0.19965 0.0742,-0.10343 0.27921,-0.10903 0.47763,-0.11435 0.19663,-0.006 0.38244,-0.0103 0.44348,-0.10754 0.0313,-0.0497 0.0265,-0.11838 -0.0145,-0.21016 -0.26451,-0.47555 0.0462,-0.94235 0.35867,-1.34305 0.11718,-0.17094 0.23481,-0.34738 0.34857,-0.51787 0.50319,-0.75403 1.02329,-1.53359 1.69949,-2.15218 0.16382,0.0248 0.29882,0.13084 0.42952,0.23332 0.15237,0.11957 0.30996,0.24313 0.51611,0.24313 0.0715,0 0.1439,-0.0143 0.22217,-0.0445 0.0282,-0.0174 0.0665,-0.0412 0.108,-0.067 0.0703,-0.0439 0.14835,-0.0925 0.20075,-0.12424 l 0.002,0.13241 h -1.1e-4 c -0.0575,0.39566 -0.12269,0.84418 0.0402,1.03264 0.0536,0.0618 0.1298,0.0932 0.22663,0.0932 0.0824,0 0.18269,-0.0226 0.29674,-0.067 0.1307,-0.0243 0.21832,-0.008 0.26704,0.0493 0.0799,0.0953 0.0455,0.29006 0.009,0.49634 -0.0387,0.21967 -0.079,0.4469 0.0215,0.56823 0.0478,0.0578 0.12208,0.0864 0.22707,0.0878 h 0.001 l 0.001,-2.9e-4 c 0.14718,-0.0403 0.27639,-0.12492 0.41318,-0.21462 0.14929,-0.0977 0.30394,-0.19763 0.48277,-0.23446 -0.24516,0.47616 -0.0276,0.76376 0.20337,1.06765 0.15893,0.20911 0.32318,0.42536 0.35007,0.71839 0.0393,0.30505 0.31129,0.3554 0.57431,0.40411 0.28531,0.0529 0.55486,0.10274 0.52531,0.46426 -0.008,0.1056 0.008,0.17897 0.0506,0.22471 0.0342,0.0368 0.0843,0.0546 0.15356,0.0546 0.0879,0 0.19486,-0.0289 0.29823,-0.057 0.0958,-0.0261 0.18618,-0.0504 0.2605,-0.0529 0.13994,0.35405 0.3785,0.65154 0.60907,0.93924 0.29139,0.36343 0.59258,0.73903 0.68585,1.22468 l 9.2e-4,0.005 0.007,10e-4 c 0.23488,0.0518 0.4774,0.10537 0.70561,0.19777 -0.17113,0.73741 0.26331,1.17214 0.72343,1.63212 0.37249,0.37234 0.75759,0.75743 0.79547,1.32017 l 6e-4,0.009 0.009,-0.002 c 0.12372,-0.0389 0.23407,-0.1163 0.34071,-0.19115 0.15134,-0.10606 0.2942,-0.20614 0.47154,-0.20614 0.0408,0 0.0826,0.006 0.12434,0.0169 -0.12789,0.22378 -0.10903,0.48972 0.0479,0.66665 l -2.9e-4,10e-4 0.002,0.002 c 0.0937,0.4239 0.39766,0.61115 0.71966,0.80927 0.27673,0.17029 0.56281,0.34649 0.71913,0.68716 -0.0824,0.27387 -0.0792,0.46582 0.0103,0.58668 0.0839,0.11325 0.24417,0.16604 0.50408,0.16604 0.0772,0 0.16745,-0.005 0.27338,-0.0142 -0.1285,0.27797 -0.0371,0.59262 0.2307,0.78843 l -1.6e-4,9e-4 0.003,0.002 c 0.3984,0.54833 0.80751,1.15108 1.25086,1.84267 -0.0617,0.31503 0.0427,0.63906 0.28696,0.89003 l -1.6e-4,9e-4 1.6e-4,1.1e-4 c -0.0768,0.32962 -0.038,0.59274 0.1155,0.78187 0.0931,0.26957 0.17033,0.49701 0.2437,0.72953 -0.0473,0.10572 -0.14568,0.36701 -0.0657,0.56626 0.0351,0.0871 0.10034,0.15058 0.19383,0.18969 -0.0384,1.14993 -0.0297,2.27909 -0.0152,3.52961 -0.20744,0.12575 -0.26239,0.37348 -0.16268,0.73678 -2e-5,1.6e-4 -4e-5,3.1e-4 -5e-5,6.1e-4 -0.0522,0.31098 -0.0899,0.63444 -0.1264,0.94714 -0.0114,0.0979 -0.0229,0.1955 -0.0346,0.29281 -0.0754,0.19945 -0.17131,0.39272 -0.26401,0.57944 l -0.007,0.0134 c -0.0848,0.0582 -0.25251,0.16949 -0.33189,0.22139 -0.26169,0.19738 -0.53229,0.40159 -0.79413,0.60833 l -0.003,0.002 9.2e-4,0.005 c 0.005,0.0302 0.012,0.0768 0.019,0.12208 0.006,0.037 0.0114,0.0727 0.0153,0.0986 -0.0233,0.0166 -0.056,0.0395 -0.0891,0.0628 -0.0346,0.0244 -0.0693,0.0486 -0.0928,0.0654 l -2e-5,3e-5 -0.0993,0.0642 c -0.2314,0.19441 -0.38081,0.53526 -0.38066,0.86809 1.5e-4,0.25827 0.0911,0.47674 0.25589,0.61501 l 0.002,10e-4 h 0.002 c 0.10229,0.002 0.20851,0.006 0.31129,0.0103 0.16857,0.006 0.34292,0.0126 0.51565,0.0126 0.44492,0 0.96125,-0.0367 1.41809,-0.30936 l 6.1e-4,-1.4e-4 c 0.0306,-0.0177 0.0738,-0.0428 0.1191,-0.0689 0.0594,-0.0343 0.12156,-0.0703 0.16317,-0.0942 0.069,0.008 0.20369,0.0225 0.27274,0.0302 0.16693,-0.009 0.34099,-0.0393 0.50926,-0.0686 0.20704,-0.036 0.4212,-0.073 0.62957,-0.073 0.18134,0 0.33967,0.0282 0.48417,0.0864 0.11143,0.0385 0.23184,0.058 0.35837,0.058 0.40799,0 0.82844,-0.20673 1.04631,-0.51462 0.11644,-0.16455 0.22976,-0.43278 0.10811,-0.77734 -0.0351,-0.0719 -0.0425,-0.13203 -0.023,-0.18386 0.0363,-0.0963 0.16189,-0.14882 0.28323,-0.19961 0.0559,-0.0234 0.10846,-0.0455 0.15303,-0.0717 0.0278,0.005 0.056,0.007 0.084,0.007 0.22753,0 0.43014,-0.15359 0.49634,-0.37404 l 0.002,10e-4 6.1e-4,-0.009 c 0.043,-0.0945 0.0832,-0.19257 0.12202,-0.28754 0.0912,-0.22262 0.18535,-0.45283 0.32451,-0.65348 0.64293,-0.60873 0.2948,-1.12795 -0.0417,-1.63009 z"
       id="path371"
       style="stroke-width:0.0413401" /></g></svg>
