<?xml version="1.0" encoding="UTF-8" standalone="no"?>
<!-- Created with Inkscape (http://www.inkscape.org/) -->

<svg
   width="500"
   height="800"
   viewBox="0 0 132.29167 211.66667"
   version="1.1"
   id="svg1"
   inkscape:version="1.3.2 (091e20e, 2023-11-25, custom)"
   sodipodi:docname="06_youth.svg"
   xml:space="preserve"
   inkscape:export-filename="06_youth.png"
   inkscape:export-xdpi="96"
   inkscape:export-ydpi="96"
   xmlns:inkscape="http://www.inkscape.org/namespaces/inkscape"
   xmlns:sodipodi="http://sodipodi.sourceforge.net/DTD/sodipodi-0.dtd"
   xmlns:xlink="http://www.w3.org/1999/xlink"
   xmlns="http://www.w3.org/2000/svg"
   xmlns:svg="http://www.w3.org/2000/svg"><sodipodi:namedview
     id="namedview1"
     pagecolor="#ffffff"
     bordercolor="#000000"
     borderopacity="0.25"
     inkscape:showpageshadow="2"
     inkscape:pageopacity="0.0"
     inkscape:pagecheckerboard="0"
     inkscape:deskcolor="#d1d1d1"
     inkscape:document-units="mm"
     inkscape:zoom="0.72426347"
     inkscape:cx="250.59941"
     inkscape:cy="398.33571"
     inkscape:window-width="1920"
     inkscape:window-height="1009"
     inkscape:window-x="1912"
     inkscape:window-y="-8"
     inkscape:window-maximized="1"
     inkscape:current-layer="layer1"
     showgrid="false" /><defs
     id="defs1"><rect
       x="26.233547"
       y="139.45201"
       width="512.24453"
       height="262.33547"
       id="rect8" /><rect
       x="22.091408"
       y="197.44196"
       width="479.10742"
       height="171.20841"
       id="rect2" /><rect
       x="62.132088"
       y="675.16864"
       width="668.26508"
       height="201.58411"
       id="rect1" /><rect
       x="26.233547"
       y="139.45201"
       width="471.6465"
       height="49.73008"
       id="rect8-3" /><filter
       id="filter6669"
       style="color-interpolation-filters:sRGB"
       height="1.0335704"
       width="1.0186744"
       y="-0.01678522"
       x="-0.0093372133"><feGaussianBlur
         id="feGaussianBlur6671"
         stdDeviation="12.781126" /></filter></defs><g
     inkscape:label="Layer 1"
     inkscape:groupmode="layer"
     id="layer1"
     transform="translate(-74.273847,-182.25543)"><rect
       style="fill:#d4ef89;fill-opacity:0.60000002;fill-rule:evenodd;stroke:#cae7fd;stroke-width:0"
       id="rect3"
       width="132.29167"
       height="211.66667"
       x="74.273849"
       y="182.25543" /><text
       xml:space="preserve"
       transform="matrix(0.26458333,0,0,0.26458333,74.273847,182.25543)"
       id="text2"
       style="font-weight:bold;font-size:42px;line-height:1.5;font-family:'Public Sans';-inkscape-font-specification:'Public Sans, Bold';letter-spacing:0px;word-spacing:0px;white-space:pre;shape-inside:url(#rect2);display:inline;fill:#ffffff;fill-rule:evenodd;stroke:#cae7fd;stroke-width:0;fill-opacity:1" /><text
       xml:space="preserve"
       transform="matrix(0.34199817,0,0,0.34199817,43.854297,270.96298)"
       id="text8"
       style="font-weight:bold;font-size:42px;line-height:0;font-family:'Public Sans';-inkscape-font-specification:'Public Sans, Bold';letter-spacing:0px;word-spacing:0px;white-space:pre;shape-inside:url(#rect8);display:inline;fill:#ffffff;fill-rule:evenodd;stroke:#cae7fd;stroke-width:0;fill-opacity:1"
       x="117.36908"
       y="0"><tspan
         x="183.53034"
         y="177.60862"
         id="tspan2"><tspan
           style="line-height:1.2;text-align:center;text-anchor:middle"
           id="tspan1">Kansas &amp; 
</tspan></tspan><tspan
         x="163.0659"
         y="228.00861"
         id="tspan4"><tspan
           style="line-height:1.2;text-align:center;text-anchor:middle"
           id="tspan3">U.S. History
</tspan></tspan><tspan
         x="236.79694"
         y="278.40861"
         id="tspan7"><tspan
           style="line-height:1.2;text-align:center;text-anchor:middle"
           id="tspan5">June</tspan><tspan
           style="line-height:1.2;text-align:center;text-anchor:middle"
           id="tspan6">
</tspan></tspan><tspan
         x="224.64846"
         y="328.8086"
         id="tspan9"><tspan
           style="line-height:1.2;text-align:center;text-anchor:middle"
           id="tspan8">Youth</tspan></tspan></text><text
       xml:space="preserve"
       transform="matrix(0.34193589,0,0,0.34193589,50.543507,138.66609)"
       id="text8-5"
       style="font-weight:bold;font-size:42px;line-height:0;font-family:'Public Sans';-inkscape-font-specification:'Public Sans, Bold';letter-spacing:0px;word-spacing:0px;white-space:pre;shape-inside:url(#rect8-3);display:inline;fill:#ffffff;fill-rule:evenodd;stroke:#cae7fd;stroke-width:0;fill-opacity:1"
       x="117.36908"
       y="0"><tspan
         x="143.37602"
         y="177.60862"
         id="tspan11"><tspan
           style="line-height:1.2;text-align:center;text-anchor:middle"
           id="tspan10">Kansas 250</tspan></tspan></text><g
       id="g4182"
       transform="matrix(0.03162453,0,0,0.03162453,87.5029,221.95071)"><path
         id="path6667"
         d="m 168.39,30.675 -33.106,0.26367 -33.106,0.26172 -0.625,7.5 c -2.7451,32.939 -31.559,62.331 -66.195,67.525 l -4.6797,0.70313 v 47.271 47.27 l 5.3047,0.66406 c 87.639,10.95 86.353,135.92 -1.5547,151.01 l -3.75,0.64453 v 40.26 40.26 l 7.25,1.2246 c 32.588,5.5036 52.666,26.888 60.043,51.945 h 1.6211 c 7.5354,37.886 -12.641,81.409 -60.779,91.064 l -8.1348,1.6309 v 36.154 36.154 l 7.125,1.2226 c 84.85,14.55 84.231,135.48 -0.7695,150.28 l -6.3555,1.1074 v 36.396 36.396 h 2.3106 c 14.445,0 39.573,13.657 51.363,27.916 37.423,45.258 11.534,112.92999 -47.107,123.14999 l -6.5664,1.1445 v 40.172 40.172 l 8.75,1.791 c 64.937,13.295 84.777,94.403 32.811,134.14 -10.728,8.2025 -30.73,16.522 -39.721,16.522 -1.7487,0 -1.8399,1.6026 -1.8399,32.275 v 32.275 l 8.3516,1.7187 c 73.667,15.164 86.001,111.24 18.393,143.27 -6.8649,3.2523 -20.917,7.4629 -24.904,7.4629 -1.7563,0 -1.8399,1.8372 -1.8399,40.387 v 40.387 l 4.6797,0.7032 c 87.501,13.122 87.501,137.93 0,151.05 l -4.6797,0.7031 v 32.137 32.135 l 10.25,0.1777 c 41.71,0.7219 77.649,34.737 77.734,73.572 l 0.0156,6.75 h 33.031 c 25.576,0 33.108,-0.2821 33.373,-1.25 0.1881,-0.6875 0.8826,-4.175 1.543,-7.75 14.816,-80.196 140.34,-79.771 155.91,0.5274 l 1.6426,8.4667 h 37.205 37.203 l 0.6446,-3.75 c 9.1379,-53.208 65.77,-81.661 114.95,-57.75 23.808,11.576 36.816,29.364 42.963,58.75 l 0.5742,2.75 h 32.936 32.936 l 0.5957,-3.75 c 13.59,-85.611 141.56,-87.912 157.7,-2.8359 l 1.2481,6.5859 h 37.17 37.17 l 1.1485,-6.6015 c 14.518,-83.37 147.04,-82.65 156.65,0.8515 l 0.6621,5.75 h 41.768 41.77 l 1.1719,-6.75 c 14.481,-83.357 144.77,-82.633 156.79,0.8711 l 0.7735,5.3789 37.514,0.2618 37.512,0.2617 1.0761,-6.8281 c 8.3364,-52.942 76.344,-80.993 122.17,-50.393 19.714,13.163 35.197,37.11 35.197,54.438 v 2.7812 l 41.693,-0.2597 41.695,-0.2618 1.3672,-7.5 c 9.4559,-51.829 73.815,-78.703 120.53,-50.328 19.182,11.652 36.719,38.186 36.719,55.559 v 2.7695 h 37.455 37.455 l 0.6152,-3.75 c 14.565,-88.653 141.13,-87.852 157.99,1 l 0.5215,2.75 h 41.438 41.434 l 0.6172,-3.75 c 14.652,-89.183 140.61,-87.988 158.07,1.5 l 0.4375,2.25 h 41.463 41.463 l 0.5195,-2.75 c 7.753,-40.865 38.755,-67.25 79.018,-67.25 40.3,0 71.257,26.347 79.016,67.25 l 0.5215,2.75 h 41.463 41.463 l 0.5195,-2.75 c 16.866,-88.901 143.42,-89.702 157.99,-1 l 0.6153,3.75 h 37.205 37.205 l 1.6426,-8.4667 c 15.548,-80.17 141.31,-80.595 155.92,-0.5274 0.652,3.575 1.3413,7.0625 1.5293,7.75 0.265,0.9678 7.7881,1.25 33.328,1.25 h 32.984 l 0.6172,-3.75 c 14.221,-86.557 140.47,-88.16 157.48,-2 l 1.1367,5.75 h 36.785 36.785 l 0.6836,-8.25 c 3.006,-36.224 27.718,-62.938 65.854,-71.191 l 2.75,-0.5957 v -32.463 -32.461 l -2.75,-0.5957 c -40.097,-8.6786 -65.588,-38 -65.588,-75.443 0,-37.472 25.461,-66.756 65.588,-75.441 l 2.75,-0.5957 v -40.512 c 0,-31.573 -0.276,-40.583 -1.25,-40.832 -0.688,-0.1758 -4.4,-1.0713 -8.25,-1.9882 -77.675,-18.498 -77.295,-130.95 0.5,-147.62 3.025,-0.6483 6.287,-1.3962 7.25,-1.6602 2.265,-0.6214 2.756,-65.15 0.5,-65.727 -0.688,-0.1758 -4.4,-1.0713 -8.25,-1.9882 -81.91,-19.507 -76.863,-130.98 6.75,-149.07 l 2.75,-0.5957 v -40.512 c 0,-31.547 -0.277,-40.595 -1.25,-40.881 -0.688,-0.202 -4.4,-1.082 -8.25,-1.957 -72.239,-16.419 -79.512,-116.11999 -10.5,-143.91999 5.883,-2.3703 8.377,-3.1091 17.25,-5.1075 l 2.75,-0.6191 v -36.512 c 0,-28.347 -0.28,-36.596 -1.25,-36.881 -0.688,-0.202 -4.4,-1.0941 -8.25,-1.9824 -79.578,-18.36 -76.705,-132.17 3.75,-148.56 l 5.75,-1.1719 v -36.461 c 0,-28.306 -0.28,-36.543 -1.25,-36.828 -0.688,-0.202 -4.3743,-1.0912 -8.1933,-1.9765 -44.63,-10.345 -63.242,-52.943 -56.359,-90.004 h 1.3242 c 7.5004,-24.307 27.131,-45.231 58.728,-51.738 l 5.75,-1.1836 v -40.701 -40.701 l -6.5039,-1.2344 c -81.999,-15.555 -81.409,-132.26 0.7539,-149.18 l 5.75,-1.1836 -0.01,-47.18 -0.01,-47.18 -8.7363,-0.2168 h -0.01 c -39.588,-0.9945 -76.234,-35.338 -76.234,-71.443 v -4.8398 h -41.5 -41.5 v 3.543 c 0,92.315 -150.89,95.886 -158.68,3.7559 l -0.6153,-7.2988 h -32.674 -32.674 l -1.1758,8.832 c -11.773,88.423 -143.65,89.722 -157.99,1.5566 l -1.6895,-10.385 h -36.75 -36.75 v 3.543 c 0,92.358 -150.89,95.929 -158.68,3.7558 l -0.6153,-7.2988 h -41.354 -41.354 v 3.543 c 0,32.139 -28.277,63.994 -63.5,71.533 -45.882,9.8209 -95.5,-27.203 -95.5,-71.26 v -3.8164 h -41.363 -41.361 l -0.6836,6.75 c -9.2343,91.163 -150.57,91.653 -158.27,0.54882 l -0.6153,-7.2988 h -41.207 -41.207 l -0.625,7.3848 c -7.6273,90.231 -150.71,90.223 -158.34,-0.01 l -0.6231,-7.375 h -36.728 -36.728 l -0.625,3.125 c -0.3437,1.7188 -0.625,4.3355 -0.625,5.8164 0,15.126 -14.074,39.423 -29.463,50.863 -49.549,36.836 -120.77,8.7422 -128.69,-50.766 l -1.2051,-9.0391 h -40.703 -40.703 l -0.6015,2.25 c -0.3317,1.2375 -0.6097,3.7957 -0.6172,5.6855 -0.064,16.181 -13.528,39.8 -29.508,51.768 -50.063,37.492 -122.91,7.6125 -129.09,-52.953 l -0.6894,-6.75 h -36.682 -36.682 l -1.1758,8.8301 c -11.916,89.495 -150.57,88.547 -157.85,-1.0801 l -0.6289,-7.75 h -41.213 -41.215 l -0.6484,6.3301 c -9.4334,92.073 -158.63,90.764 -158.63,-1.3945 v -4.9394 h -37.5 -37.5 v 5.3398 c 0,91.384 -150.07,92.718 -158.65,1.4102 l -0.6348,-6.75 h -32.711 -32.709 l -0.6172,7.25 c -8.17,91.024 -159.08,88.464 -159.08,-2.953 v -4.5527 h -32.791 -32.789 l -1.6328,10.299 c -14.023,88.403 -151.44,86.17 -157.54,-2.5606 l -0.5351,-7.7637 z"
         filter="url(#filter6669)" /><path
         id="path4687"
         d="m 162.39,24.675 -33.106,0.26367 -33.105,0.26172 -0.625,7.5 c -2.7451,32.939 -31.56,62.331 -66.195,67.525 l -4.6797,0.70313 v 47.271 47.27 l 5.3047,0.66406 c 87.639,10.95 86.353,135.92 -1.5547,151.01 l -3.75,0.64453 v 40.26 40.26 l 7.25,1.2246 c 32.588,5.5036 52.666,26.888 60.043,51.945 h 1.6211 c 7.5354,37.886 -12.641,81.409 -60.779,91.064 l -8.1348,1.6309 v 36.154 36.154 l 7.125,1.2226 c 84.85,14.55 84.231,135.48 -0.7695,150.28 l -6.3555,1.1074 v 36.396 36.396 h 2.3106 c 14.445,0 39.573,13.657 51.363,27.916 37.423,45.258 11.534,112.92999 -47.107,123.14999 l -6.5664,1.1445 v 40.172 40.172 l 8.75,1.791 c 64.937,13.295 84.777,94.403 32.811,134.14 -10.728,8.2025 -30.73,16.522 -39.721,16.522 -1.7487,0 -1.8399,1.6026 -1.8399,32.275 v 32.275 l 8.3516,1.7187 c 73.667,15.164 86.001,111.24 18.393,143.27 -6.8649,3.2523 -20.917,7.4629 -24.904,7.4629 -1.7563,0 -1.8399,1.8372 -1.8399,40.387 v 40.387 l 4.6797,0.7032 c 87.501,13.122 87.501,137.93 0,151.05 l -4.6797,0.7031 v 32.137 32.135 l 10.25,0.1777 c 41.71,0.7219 77.649,34.737 77.734,73.572 l 0.0156,6.75 h 33.031 c 25.576,0 33.108,-0.2821 33.373,-1.25 0.1881,-0.6875 0.8826,-4.175 1.543,-7.75 14.816,-80.196 140.34,-79.771 155.91,0.5274 l 1.6426,8.4667 h 37.205 37.203 l 0.6446,-3.75 c 9.1379,-53.208 65.77,-81.661 114.95,-57.75 23.808,11.576 36.816,29.364 42.963,58.75 l 0.5742,2.75 h 32.936 32.936 l 0.5957,-3.75 c 13.59,-85.611 141.56,-87.912 157.7,-2.8359 l 1.2481,6.5859 h 37.17 37.17 l 1.1485,-6.6015 c 14.518,-83.37 147.04,-82.65 156.65,0.8515 l 0.6621,5.75 h 41.768 41.77 l 1.1719,-6.75 c 14.481,-83.357 144.77,-82.633 156.79,0.8711 l 0.7735,5.3789 37.514,0.2618 37.512,0.2617 1.0761,-6.8281 c 8.3364,-52.942 76.344,-80.993 122.17,-50.393 19.714,13.163 35.197,37.11 35.197,54.438 v 2.7812 l 41.693,-0.2597 41.695,-0.2618 1.3672,-7.5 c 9.4559,-51.829 73.815,-78.703 120.53,-50.328 19.182,11.652 36.719,38.186 36.719,55.559 v 2.7695 h 37.455 37.455 l 0.6152,-3.75 c 14.565,-88.653 141.13,-87.852 157.99,1 l 0.5215,2.75 h 41.438 41.434 l 0.6172,-3.75 c 14.652,-89.183 140.61,-87.988 158.07,1.5 l 0.4375,2.25 h 41.463 41.463 l 0.5195,-2.75 c 7.753,-40.865 38.755,-67.25 79.018,-67.25 40.3,0 71.257,26.347 79.016,67.25 l 0.5215,2.75 h 41.463 41.463 l 0.5195,-2.75 c 16.866,-88.901 143.42,-89.702 157.99,-1 l 0.6153,3.75 h 37.205 37.205 l 1.6426,-8.4667 c 15.548,-80.17 141.31,-80.595 155.92,-0.5274 0.652,3.575 1.3413,7.0625 1.5293,7.75 0.265,0.9678 7.7881,1.25 33.328,1.25 h 32.984 l 0.6172,-3.75 c 14.221,-86.557 140.47,-88.16 157.48,-2 l 1.1367,5.75 h 36.785 36.785 l 0.6836,-8.25 c 3.006,-36.224 27.718,-62.938 65.854,-71.191 l 2.75,-0.5957 v -32.463 -32.461 l -2.75,-0.5957 c -40.097,-8.6786 -65.588,-38 -65.588,-75.443 0,-37.472 25.461,-66.756 65.588,-75.441 l 2.75,-0.5957 v -40.512 c 0,-31.573 -0.276,-40.583 -1.25,-40.832 -0.688,-0.1758 -4.4,-1.0713 -8.25,-1.9882 -77.675,-18.498 -77.295,-130.95 0.5,-147.62 3.025,-0.6483 6.287,-1.3962 7.25,-1.6602 2.265,-0.6214 2.756,-65.15 0.5,-65.727 -0.688,-0.1758 -4.4,-1.0713 -8.25,-1.9882 -81.91,-19.507 -76.863,-130.98 6.75,-149.07 l 2.75,-0.5957 v -40.512 c 0,-31.547 -0.277,-40.595 -1.25,-40.881 -0.688,-0.202 -4.4,-1.082 -8.25,-1.957 -72.239,-16.419 -79.512,-116.11999 -10.5,-143.91999 5.883,-2.3703 8.377,-3.1091 17.25,-5.1075 l 2.75,-0.6191 v -36.512 c 0,-28.347 -0.28,-36.596 -1.25,-36.881 -0.688,-0.202 -4.4,-1.0941 -8.25,-1.9824 -79.578,-18.36 -76.705,-132.17 3.75,-148.56 l 5.75,-1.1719 v -36.461 c 0,-28.306 -0.28,-36.543 -1.25,-36.828 -0.688,-0.202 -4.3743,-1.0912 -8.1933,-1.9765 -44.63,-10.345 -63.242,-52.943 -56.359,-90.004 h 1.3242 c 7.5004,-24.307 27.131,-45.231 58.728,-51.738 l 5.75,-1.1836 v -40.701 -40.701 l -6.5039,-1.2344 c -81.999,-15.555 -81.409,-132.26 0.7539,-149.18 l 5.75,-1.1836 -0.01,-47.18 -0.01,-47.18 -8.7363,-0.2168 h -0.01 c -39.9,-1.251 -76.5,-35.594 -76.5,-71.7 v -4.8398 h -41.5 -41.5 v 3.543 c 0,92.315 -150.89,95.886 -158.68,3.7559 l -0.6153,-7.2988 h -32.674 -32.674 l -1.1758,8.832 c -11.773,88.423 -143.65,89.722 -157.99,1.5566 l -1.6895,-10.385 h -36.75 -36.75 v 3.543 c 0,92.358 -150.89,95.929 -158.68,3.7558 l -0.6153,-7.2988 h -41.354 -41.354 v 3.543 c 0,32.139 -28.277,63.994 -63.5,71.533 -45.882,9.8209 -95.5,-27.203 -95.5,-71.26 v -3.8164 h -41.363 -41.361 l -0.6836,6.75 c -9.2343,91.163 -150.57,91.653 -158.27,0.54882 l -0.6153,-7.2988 h -41.207 -41.207 l -0.625,7.3848 c -7.6273,90.231 -150.71,90.223 -158.34,-0.01 l -0.6231,-7.375 h -36.728 -36.728 l -0.625,3.125 c -0.3437,1.7188 -0.625,4.3355 -0.625,5.8164 0,15.126 -14.074,39.423 -29.463,50.863 -49.549,36.836 -120.77,8.7422 -128.69,-50.766 l -1.2051,-9.0391 h -40.703 -40.703 l -0.6015,2.25 c -0.3317,1.2375 -0.6097,3.7957 -0.6172,5.6855 -0.064,16.181 -13.528,39.8 -29.508,51.768 -50.063,37.492 -122.91,7.6125 -129.09,-52.953 l -0.6894,-6.75 h -36.682 -36.682 l -1.1758,8.8301 c -11.916,89.495 -150.57,88.547 -157.85,-1.0801 l -0.6289,-7.75 h -41.213 -41.215 l -0.6484,6.3301 c -9.4334,92.073 -158.63,90.764 -158.63,-1.3945 v -4.9394 h -37.5 -37.5 v 5.3398 c 0,91.384 -150.07,92.718 -158.65,1.4102 l -0.6348,-6.75 h -32.711 -32.709 l -0.6172,7.25 c -7.77,91.28 -158.68,88.72 -158.68,-2.697 v -4.5527 h -32.791 -32.789 l -1.6328,10.299 c -14.023,88.403 -151.44,86.17 -157.54,-2.5606 l -0.5351,-7.7637 z"
         fill="#f2f2f2" /><g
         id="g4167"
         transform="matrix(0.40282,0,0,0.39151,177.58,174.92)"><rect
           id="rect4"
           height="3900"
           width="7410"
           y="0"
           x="0"
           fill="#b22234" /><path
           id="path6"
           stroke-width="300"
           stroke="#ffffff"
           d="m 0,450 h 7410 m 0,600 H 0 m 0,600 h 7410 m 0,600 H 0 m 0,600 h 7410 m 0,600 H 0" /><rect
           id="rect8-36"
           height="2100"
           width="2964"
           y="0"
           x="0"
           fill="#3c3b6e" /><g
           id="g10"
           fill="#ffffff"><g
             id="s18"><g
               id="s9"><g
                 id="s5"><g
                   id="s4"><path
                     id="s"
                     d="m 247,90 70.534,217.08 -184.66,-134.16 h 228.25 l -184.66,134.16 z" /><use
                     id="use17"
                     xlink:href="#s"
                     height="100%"
                     width="100%"
                     y="420"
                     x="0" /><use
                     id="use19"
                     xlink:href="#s"
                     height="100%"
                     width="100%"
                     y="840"
                     x="0" /><use
                     id="use21"
                     xlink:href="#s"
                     height="100%"
                     width="100%"
                     y="1260"
                     x="0" /></g><use
                   id="use23"
                   xlink:href="#s"
                   height="100%"
                   width="100%"
                   y="1680"
                   x="0" /></g><use
                 id="use25"
                 xlink:href="#s4"
                 height="100%"
                 width="100%"
                 y="210"
                 x="247" /></g><use
               id="use27"
               xlink:href="#s9"
               height="100%"
               width="100%"
               y="0"
               x="494" /></g><use
             id="use29"
             xlink:href="#s18"
             height="100%"
             width="100%"
             y="0"
             x="988" /><use
             id="use31"
             xlink:href="#s9"
             height="100%"
             width="100%"
             y="0"
             x="1976" /><use
             id="use33"
             xlink:href="#s5"
             height="100%"
             width="100%"
             y="0"
             x="2470" /></g></g></g></g></svg>
