<?xml version="1.0" encoding="UTF-8" standalone="no"?>
<!-- Created with Inkscape (http://www.inkscape.org/) -->

<svg
   width="500"
   height="800"
   viewBox="0 0 132.29167 211.66667"
   version="1.1"
   id="svg1"
   inkscape:version="1.3.2 (091e20e, 2023-11-25, custom)"
   sodipodi:docname="08_adult.svg"
   xml:space="preserve"
   inkscape:export-filename="08_adult.png"
   inkscape:export-xdpi="96"
   inkscape:export-ydpi="96"
   xmlns:inkscape="http://www.inkscape.org/namespaces/inkscape"
   xmlns:sodipodi="http://sodipodi.sourceforge.net/DTD/sodipodi-0.dtd"
   xmlns="http://www.w3.org/2000/svg"
   xmlns:svg="http://www.w3.org/2000/svg"><sodipodi:namedview
     id="namedview1"
     pagecolor="#ffffff"
     bordercolor="#000000"
     borderopacity="0.25"
     inkscape:showpageshadow="2"
     inkscape:pageopacity="0.0"
     inkscape:pagecheckerboard="0"
     inkscape:deskcolor="#d1d1d1"
     inkscape:document-units="mm"
     inkscape:zoom="0.72426347"
     inkscape:cx="229.88872"
     inkscape:cy="399.71642"
     inkscape:window-width="1920"
     inkscape:window-height="1009"
     inkscape:window-x="1912"
     inkscape:window-y="-8"
     inkscape:window-maximized="1"
     inkscape:current-layer="layer1"
     showgrid="false" /><defs
     id="defs1"><rect
       x="26.233547"
       y="139.45201"
       width="512.24453"
       height="262.33547"
       id="rect8" /><rect
       x="22.091408"
       y="197.44196"
       width="479.10742"
       height="171.20841"
       id="rect2" /><rect
       x="62.132088"
       y="675.16864"
       width="668.26508"
       height="201.58411"
       id="rect1" /><rect
       x="26.233547"
       y="139.45201"
       width="471.6465"
       height="49.73008"
       id="rect8-3" /></defs><g
     inkscape:label="Layer 1"
     inkscape:groupmode="layer"
     id="layer1"
     transform="translate(-74.273847,-182.25543)"><rect
       style="fill:#83c8c9;fill-opacity:0.5;fill-rule:evenodd;stroke:#cae7fd;stroke-width:0"
       id="rect3"
       width="132.29167"
       height="211.66667"
       x="74.273849"
       y="182.25543" /><text
       xml:space="preserve"
       transform="matrix(0.26458333,0,0,0.26458333,74.273847,182.25543)"
       id="text2"
       style="fill:#ffffff;stroke-width:0;font-size:42px;-inkscape-font-specification:'Public Sans, Bold';font-family:'Public Sans';stroke:#cae7fd;fill-rule:evenodd;line-height:1.5;letter-spacing:0px;word-spacing:0px;font-weight:bold;white-space:pre;shape-inside:url(#rect2);fill-opacity:1" /><text
       xml:space="preserve"
       transform="matrix(0.32057219,0,0,0.32057219,49.617949,280.84365)"
       id="text8"
       style="font-weight:bold;font-size:42px;line-height:0;font-family:'Public Sans';-inkscape-font-specification:'Public Sans, Bold';letter-spacing:0px;word-spacing:0px;white-space:pre;shape-inside:url(#rect8);fill:#ffffff;fill-rule:evenodd;stroke:#cae7fd;stroke-width:0;fill-opacity:1"
       x="117.36908"
       y="0"><tspan
         x="154.35089"
         y="177.60862"
         id="tspan2"><tspan
           style="line-height:1.2;text-align:center;text-anchor:middle"
           id="tspan1">Spotlight on 
</tspan></tspan><tspan
         x="94.143833"
         y="228.00861"
         id="tspan4"><tspan
           style="line-height:1.2;text-align:center;text-anchor:middle"
           id="tspan3">Individual Kansans
</tspan></tspan><tspan
         x="222.21244"
         y="278.40861"
         id="tspan7"><tspan
           style="line-height:1.2;text-align:center;text-anchor:middle"
           id="tspan5">Augst</tspan><tspan
           style="line-height:1.2;text-align:center;text-anchor:middle"
           id="tspan6">
</tspan></tspan><tspan
         x="216.23798"
         y="328.8086"
         id="tspan9"><tspan
           style="line-height:1.2;text-align:center;text-anchor:middle"
           id="tspan8">Adults</tspan></tspan></text><text
       xml:space="preserve"
       transform="matrix(0.34193589,0,0,0.34193589,50.543507,138.66609)"
       id="text8-5"
       style="font-weight:bold;font-size:42px;line-height:0;font-family:'Public Sans';-inkscape-font-specification:'Public Sans, Bold';letter-spacing:0px;word-spacing:0px;white-space:pre;shape-inside:url(#rect8-3);fill:#ffffff;fill-rule:evenodd;stroke:#cae7fd;stroke-width:0;fill-opacity:1"
       x="117.36908"
       y="0"><tspan
         x="143.37602"
         y="177.60862"
         id="tspan11"><tspan
           style="line-height:1.2;text-align:center;text-anchor:middle"
           id="tspan10">Kansas 250</tspan></tspan></text><path
       d="m 192.89512,276.42405 -0.10125,-0.01 -1.05597,-0.003 -0.0292,-1.6e-4 -0.15551,3.3e-4 -0.34598,0.003 -0.0304,-3.4e-4 -0.53759,-0.001 -0.76561,-6.4e-4 -0.1367,-3.4e-4 -0.12578,-6.4e-4 -0.0481,4e-5 -2.01378,-0.0116 -0.17471,3.4e-4 -0.054,-3.4e-4 -0.26772,3.4e-4 -0.10676,3.4e-4 -0.16499,-10e-4 -0.34027,10e-4 -1.15754,-5e-4 -0.003,-2e-5 -0.31078,3.3e-4 -0.25518,-6.3e-4 -1.8035,0.004 -0.0778,-1.2e-4 -0.004,-2e-5 -0.0408,-1.7e-4 -1.08378,0.003 -1.4724,1.1e-4 -0.32345,-0.002 -0.5555,3.3e-4 -0.54622,-1.6e-4 -0.0537,-6.4e-4 -0.11927,9e-5 -0.0812,6.4e-4 -0.48499,-4e-5 -0.31393,-5.1e-4 -0.14465,0.003 -0.19445,-0.003 -0.0639,0.002 -0.0449,5.1e-4 -0.33806,1.7e-4 -0.25505,-5.1e-4 -0.12492,10e-4 -0.2557,-0.002 -0.3007,0.003 -0.835,-0.003 -0.0999,-6.4e-4 -0.0186,-4e-5 -0.0268,-4e-5 -0.46809,-5e-4 -0.25427,0.002 -0.1257,-3.3e-4 -0.90443,0.007 -1.98976,-0.002 -0.0283,-0.003 -0.0558,0.002 -0.0364,-3.4e-4 -0.0379,-1.6e-4 -0.0231,-0.002 -0.4358,-6.4e-4 -0.21627,0.003 -0.24862,-6.4e-4 -0.83327,-0.004 -0.0384,-2e-5 -1.63252,6.4e-4 -0.29959,0.002 -1.20287,0.008 -2.90728,-0.01 -0.0716,-10e-4 -0.37,-3.4e-4 -0.0663,6.4e-4 -0.12143,0.004 -0.59837,-0.003 -0.0445,0.006 -0.39103,-0.006 -0.63386,-6.4e-4 -0.12433,-3.4e-4 -0.36554,10e-4 -0.0202,3.4e-4 -0.1925,-6.4e-4 -0.0683,5e-4 -0.18037,0.001 -0.46383,5e-5 -0.11609,6.4e-4 -0.77266,0.001 -0.13749,-0.001 -0.86263,4e-5 -0.0514,-3.4e-4 -0.22688,1.1e-4 -0.0328,-3.4e-4 -0.35605,-0.001 -3.18445,0.004 -0.17721,3.4e-4 -1.09627,0.003 -0.14996,-6.4e-4 -0.7714,-5e-4 -0.26371,6.4e-4 -0.008,-6.4e-4 -0.25563,6.4e-4 -0.59541,5e-4 -0.43349,-0.007 -0.18891,0.001 -0.66095,0.003 -1.01471,10e-4 -0.20872,-0.004 -6.4e-4,0.002 -0.26656,0.003 -3.28305,0.006 -0.0841,3.4e-4 -0.0773,3.4e-4 -0.94446,0.003 -0.50264,-5.1e-4 -0.42721,0.003 -0.43397,1.6e-4 -0.15987,0.003 -0.25812,-0.003 -1.53732,1.7e-4 -0.11175,2e-5 -0.77829,-0.01 -0.13148,-5.1e-4 -0.0275,3.4e-4 -1.76672,-0.009 -2.40414,-10e-4 -0.056,-0.002 -0.61127,-0.004 -0.42996,0.003 -0.0252,5.1e-4 -0.053,-3e-5 -1.02034,-10e-4 -0.14965,3.4e-4 -0.008,-6.4e-4 -1.61265,-0.003 -0.49554,-0.002 -0.28851,0.007 -1.06556,-0.004 -0.0647,-4e-5 -1.68181,-0.003 -0.41646,-1.6e-4 -1.38722,-0.0106 -0.44818,0.0106 -0.69709,0.002 -0.39866,-0.003 -0.22763,6.4e-4 v -10e-4 l -0.0322,-1.4e-4 -0.0203,-5e-5 -0.0635,-1.8e-4 -0.70143,0.003 -0.95422,-0.003 -0.32954,10e-4 -0.12763,-0.0105 -1.65242,-0.0114 -0.008,-7e-5 -0.15873,-10e-4 -1.26687,-0.0129 -1.69769,5e-4 -0.0862,-10e-4 -0.0181,-1.3e-4 -0.0446,-3.3e-4 -1.55915,-0.009 -1.01791,0.002 -0.0684,6.4e-4 -0.0196,-0.002 -0.11226,6.4e-4 -4.9591,0.026 -0.0153,-0.002 -0.54768,0.006 -0.001,-3.4e-4 -0.5436,0.007 -0.0504,10e-4 -0.59841,0.004 -0.83565,0.0112 -0.31713,-0.005 -0.12174,0.003 -0.57583,0.001 -0.11566,1.1e-4 -0.58612,0.008 -0.51056,3.4e-4 -0.17876,-0.003 -0.005,0.003 -0.58074,0.007 -0.72187,0.002 -0.22872,-0.003 -0.58032,0.004 -0.18641,6.4e-4 -2.051306,0.0141 -0.0202,10e-4 -2.053351,0.0137 -0.02659,6.4e-4 -0.262266,0.001 -0.505773,0.003 -0.01611,6.3e-4 -0.99659,0.006 -0.478162,0.001 -0.512644,0.003 -0.639964,0.004 -0.017,10e-4 -4.263601,0.0247 -1.388957,0.008 v -3.4e-4 l -0.393415,0.003 -0.198875,6.4e-4 0.0041,-0.56186 2.9e-5,-0.10763 4.06e-4,-0.0243 0.0024,-0.0394 -0.0024,-0.0121 -8.95e-4,-1.2694 0.0025,-0.0964 -0.004,-0.23191 h -6.08e-4 l 0.0019,-0.29727 5.58e-4,-2.07137 0.0042,-0.70327 -0.0022,-0.21094 -0.0022,-0.76859 -0.0016,-0.004 0.008,-0.39583 -0.0022,-0.62218 9.9e-5,-0.4433 -0.0012,-0.002 -6.39e-4,-0.61827 2.19e-4,-0.6533 -0.0033,-0.52167 0.0017,-0.1059 7e-5,-0.30014 0.0039,-0.89221 4.74e-4,-0.65158 4.2e-5,-0.18281 -0.0016,-0.20025 0.0017,-0.26419 -0.0043,-0.77808 -0.004,-0.65036 -0.0072,-0.51267 -0.004,-0.26503 -0.0011,-0.36974 -0.0026,-0.78577 -0.0089,-1.04534 1.4e-5,-0.0353 -0.01134,-2.11155 0.0055,-1.21489 -0.0047,-0.21621 0.0048,-0.30206 -0.0021,-1.95182 -0.0024,-0.33938 -6.39e-4,-0.78554 -0.0047,-1.30281 0.0071,-0.56751 -0.007,-0.0702 -0.0055,-0.61456 8.31e-4,-0.93682 1.5e-5,-0.003 0.0021,-0.33058 -0.0016,-0.36259 4.74e-4,-0.27064 -3.05e-4,-0.41468 -0.0011,-0.61 0.003,-0.98649 -3.89e-4,-0.0967 -8.31e-4,-0.005 4.73e-4,-0.20884 -4.06e-4,-0.0332 -7.67e-4,-0.16364 -0.0023,-1.03131 0.0013,-0.0216 -0.0012,-0.26419 -0.0011,-0.2434 0.0016,-0.2911 -7.67e-4,-0.25332 -0.01677,-4.25657 -0.008,-1.50933 -0.0017,-0.13371 -0.01699,-3.0388 -0.0072,-1.2932 -0.0029,-0.548 -0.0029,-0.26805 1.4e-5,-0.094 -0.0044,-1.52089 8.5e-5,-0.56049 0.0017,-0.0412 -0.0036,-0.64566 -0.0021,-0.33601 -0.0066,-0.98829 0.0046,-0.14291 -0.007,-0.401 -0.0094,-2.64315 -8.95e-4,-0.26423 -6.39e-4,-0.18752 -0.0029,-0.11692 -0.0025,-2.83212 1.9139,-0.001 0.17743,-3.7e-4 0.894977,0.007 0.12562,-0.003 0.346846,0.003 0.04001,6.4e-4 2.519655,0.003 0.0179,-0.002 1.18387,0.002 1.772408,0.003 0.102834,0.001 0.504904,-0.003 0.445954,-0.001 0.26676,-0.002 0.425795,0.003 h 0.105384 l 0.536862,3e-4 0.476749,-2.2e-4 0.323319,0.001 0.190105,4.3e-4 0.143149,-0.001 0.53566,0.002 1.0004,0.002 0.46245,6.4e-4 1.27915,0.002 2.53107,-0.003 0.0942,0.003 0.26767,-0.003 0.0481,0.003 0.12437,6.4e-4 0.53419,-0.003 0.32886,0.001 0.20953,0.005 0.63066,-4.2e-4 0.0877,-10e-4 0.39,0.002 h 0.21757 l 0.57851,6.4e-4 0.3388,0.001 0.14372,2.7e-4 0.0165,-2.9e-4 0.10035,6.4e-4 0.30755,-0.001 0.11325,3.9e-4 0.69444,-6.4e-4 2.24524,0.003 0.0308,-10e-4 0.19944,10e-4 0.26143,0.003 0.0477,-0.001 0.0463,-2.5e-4 0.0304,6.4e-4 0.1468,-6.4e-4 2.64871,0.002 0.0612,-6.4e-4 0.54482,-0.005 0.0532,0.004 0.19819,0.001 0.33694,8e-5 1.32164,0.002 0.53514,-0.004 0.0499,-0.003 0.11206,0.004 0.10458,0.004 0.14466,-0.009 0.20788,-1.3e-4 0.1746,3.5e-4 1.29381,-10e-4 0.0336,2e-5 1.75999,-0.003 0.0396,0.001 0.019,6.4e-4 0.0594,-4.6e-4 0.1805,-9e-5 0.81012,-0.006 0.15476,0.007 0.13117,-0.002 1.59699,3.7e-4 0.0573,-0.001 0.0523,0.003 0.41035,-0.004 0.0516,0.002 0.48176,-0.001 0.26621,-3.1e-4 0.12311,1.9e-4 0.0275,6.4e-4 h 0.11333 l 0.12966,0.001 0.66301,-0.004 0.13496,-5.2e-4 0.39558,0.001 0.92486,-0.003 0.0232,-0.001 0.37649,0.003 0.28128,-0.001 0.008,-4.2e-4 0.15181,-6.4e-4 10e-4,6.4e-4 0.37027,0.001 1.42196,-0.003 0.19651,6.4e-4 0.61489,-6.4e-4 0.0321,4.3e-4 0.68941,0.002 0.22521,6.4e-4 0.24529,-0.004 0.0234,-0.003 0.0164,-6.4e-4 0.24755,0.003 0.0439,-6.3e-4 0.22521,0.003 0.019,4.4e-4 0.167,-0.004 0.382,0.002 0.2893,-0.001 0.25684,-8e-5 0.20749,0.004 0.24648,-2e-4 0.28533,-6.4e-4 0.46087,2.4e-4 3.06849,-0.004 0.0822,4.8e-4 0.25807,0.003 0.80108,-0.006 0.20078,0.003 0.0999,6.4e-4 0.42853,-2.7e-4 0.6005,0.004 0.33482,-0.001 0.10392,-0.001 0.26422,0.001 0.0367,0.002 0.46849,-6.4e-4 0.0603,10e-4 0.53812,6.3e-4 0.5722,0.001 0.78725,-0.001 0.26659,6.4e-4 0.27027,0.003 0.23783,-0.002 0.0308,6.4e-4 0.59906,-0.004 0.0904,0.003 0.0222,-3.3e-4 0.0206,2e-5 3.57756,0.002 0.0557,4e-5 0.0159,0.001 0.66578,-0.004 0.26392,0.002 0.27238,-0.002 0.10794,4.4e-4 0.0283,4.3e-4 0.66226,-0.001 0.25803,0.003 0.009,-6.4e-4 1.48952,0.009 0.001,6.4e-4 0.60614,4.7e-4 0.03,-0.002 0.26098,-2e-5 0.55734,0.001 0.0649,-0.006 1.25002,0.009 0.26728,-3.5e-4 0.30666,-0.003 1.31901,-6.4e-4 0.50501,0.001 0.0312,-3.3e-4 0.0453,3.3e-4 0.0176,-3e-5 3.563,0.005 0.1708,0.005 0.0774,-1.9e-4 0.34058,-0.001 0.14169,-0.003 0.18411,0.003 0.26766,0.002 0.16816,-0.003 0.81016,0.001 0.0341,-0.001 0.0552,0.001 2.25455,0.006 0.0495,-6e-5 0.87716,-10e-4 0.21729,-6.4e-4 0.052,1.7e-4 0.93259,0.004 0.002,6.4e-4 0.10033,-5.4e-4 0.30087,6.4e-4 0.002,-6.4e-4 0.51029,-0.001 0.11885,-0.001 0.42096,-0.003 0.39116,1.4e-4 0.19008,0.001 0.74458,0.002 1.07161,6.4e-4 1.33926,3.3e-4 0.0489,-2e-4 5.80086,0.009 0.50114,1e-5 0.44792,2e-5 -0.002,0.11544 0.009,0.0581 0.01,0.0278 0.0652,0.088 0.18129,0.12301 0.21198,0.1034 0.069,0.0503 0.11384,0.16232 0.0596,0.10597 0.10484,0.1154 0.12572,0.0683 0.0655,0.0188 0.08,0.003 0.15451,-0.012 0.0534,0.009 0.0383,0.0138 0.13193,0.0787 0.0447,0.0879 0.008,0.11161 -0.0187,0.10565 -0.0529,0.13432 -0.008,0.0563 0.002,0.0474 0.007,0.0237 0.0538,0.078 0.0367,0.0248 0.0784,0.0373 0.0603,0.0135 0.1433,-0.002 0.10143,-0.0363 0.17661,-0.0916 0.054,-0.004 0.0902,0.0239 0.0511,0.0326 0.032,0.0419 0.0176,0.0725 0.002,0.0475 -0.0135,0.11202 0.01,0.064 0.03,0.0776 0.0497,0.0616 0.0332,0.0277 0.0933,0.0496 0.31538,0.0924 0.22327,0.11123 0.0731,0.0232 0.0491,0.003 0.41097,-0.049 0.14729,-0.008 0.062,-0.0136 0.081,-0.0516 0.0584,-0.0588 0.0355,-0.0958 0.005,-0.0392 -0.0118,-0.14616 0.01,-0.0545 0.0121,-0.0277 0.08,-0.11396 0.0792,-0.0477 0.0668,-0.0119 0.0655,0.004 0.19182,0.0626 0.0469,0.006 0.13074,-0.0148 0.20414,-0.0677 0.0576,-0.01 0.10963,0.021 0.10874,0.0444 0.13285,0.088 0.0697,0.0852 0.0238,0.0488 0.008,0.0396 0.001,0.0685 -0.0172,0.0723 -0.0425,0.0691 -0.10386,0.10429 -0.0277,0.047 -0.0236,0.0617 -0.003,0.0824 0.0397,0.0863 0.0299,0.0396 0.16306,0.15623 0.13084,0.0957 0.0989,0.0316 0.0962,0.0106 0.14852,-0.01 0.0451,0.007 0.0363,0.0171 0.0839,0.0771 0.0331,0.0443 0.0231,0.0511 0.007,0.0583 0.008,0.13469 -0.006,0.11807 -0.065,0.17628 -0.0447,0.0573 -0.088,0.0481 -0.0379,0.01 -0.46258,0.0248 -0.0574,0.0272 -0.0435,0.0369 -0.0352,0.0581 -0.008,0.0779 0.007,0.0608 0.0148,0.0363 0.0653,0.0838 0.0485,0.0481 0.13379,0.10236 0.0637,0.0295 0.0857,-10e-4 0.10045,-0.0339 0.0551,-0.036 0.003,-0.003 0.0137,-0.011 0.002,-0.002 0.003,-0.002 0.001,-6.4e-4 0.13777,-0.11022 0.0349,-0.0198 h 5.1e-4 l 0.14566,-0.032 0.0213,0.002 0.0355,0.0221 0.0269,0.0295 0.0298,0.0516 0.034,0.0774 0.0184,0.17329 -0.0132,0.0768 -0.0364,0.12048 -0.10204,0.15481 -0.0779,0.0755 -0.12046,0.0682 -0.10772,0.035 -0.10731,0.0157 -0.0467,-0.003 -0.10567,-0.0292 -0.117,-0.0554 -0.16555,-0.12118 -0.1306,-0.11441 -0.0782,-0.0516 -0.0565,-0.0224 -0.0554,-0.007 -0.0377,0.005 -0.068,0.0484 -0.0742,0.0737 -0.0723,0.12797 -0.0111,0.0519 0.002,0.11349 0.0372,0.29006 -0.007,0.26613 -0.0132,0.0719 -0.0199,0.0486 -0.071,0.0928 -0.0742,0.0504 -0.0368,0.0144 -0.13333,0.0236 -0.11086,0.002 -0.10833,0.0132 -0.0891,0.0277 -0.0426,0.0256 -0.089,0.0807 -0.0432,0.0558 -0.13917,0.23101 -0.0224,0.0601 -0.078,0.097 -0.0703,0.11952 -0.0545,0.13855 -0.0221,0.0985 -0.003,0.0614 0.0303,0.14151 0.0723,0.14123 0.0208,0.0861 0.001,0.0377 -0.0114,0.0817 -0.0299,0.10177 -0.0783,0.13047 -0.0297,0.0353 -0.0371,0.0264 -0.0709,0.0371 -0.068,0.0165 -0.0403,0.002 -0.0642,-0.0118 -0.18178,-0.0784 -0.0882,0.008 -0.0476,0.0171 -0.0585,0.0351 -0.0451,0.0465 -0.0148,0.0259 -0.0797,0.27043 -0.007,0.0954 0.0603,0.21423 0.0384,0.0851 0.0525,0.0792 0.14433,0.16732 0.14157,0.13832 0.0747,0.058 0.25481,0.1361 0.0436,0.0399 0.0596,0.073 0.023,0.0456 0.01,0.0569 0.0209,0.25699 0.0175,0.10005 0.0201,0.0462 0.07,0.11147 0.0465,0.0495 0.058,0.0517 0.0696,0.0476 0.1796,0.10054 0.28425,0.0851 0.0793,0.0364 0.11378,0.1035 0.0474,0.0791 0.0311,0.17504 0.0518,0.0917 0.0976,0.081 0.15942,0.0631 0.0511,0.0392 0.0474,0.057 0.0222,0.0543 -0.005,0.10874 0.006,0.0746 0.009,0.033 0.0501,0.0798 0.0332,0.0284 0.036,0.026 0.0497,0.0181 0.14941,0.0193 0.055,-0.0125 0.0477,-0.0215 0.089,-0.0461 0.10994,-0.0721 0.097,-0.0141 0.0444,0.004 0.0407,0.0162 0.0559,0.0482 0.0573,0.10823 0.024,0.0755 0.003,0.0747 -0.0322,0.0975 -0.0547,0.0637 -0.081,0.0528 -0.0837,0.0164 -0.0311,0.0129 -0.0492,0.0375 -0.068,0.0669 -0.0299,0.0454 -0.009,0.0314 -0.009,0.0771 0.0365,0.45207 0.0388,0.21453 0.0311,0.10404 0.0438,0.11135 0.0685,0.10959 0.11566,0.14151 0.0635,0.0577 0.0603,0.0401 0.15238,0.0603 0.14875,0.0735 0.15237,0.0978 0.11997,0.111 0.0905,0.11246 0.0564,0.11683 0.0258,0.14932 -0.006,0.063 -0.0238,0.0785 -0.1007,0.18586 -0.003,0.0582 0.0213,0.0524 0.0265,0.0339 0.11179,0.11092 0.044,0.0228 0.12789,0.0371 0.17006,0.0105 0.1746,-0.0301 0.0497,0.009 0.0328,0.0184 0.0522,0.048 0.0326,0.0534 0.0737,0.19383 0.10204,0.18466 0.15306,0.12248 0.14739,0.0548 0.0765,0.0183 0.18282,0.004 0.13463,-0.0256 0.25233,-0.14918 0.12891,-0.0903 0.0978,-0.0146 0.15873,0.0421 0.0751,0.053 0.0498,0.20204 -0.03,0.19097 0.16581,0.064 0.15165,0.0183 0.22818,-0.064 0.11479,-0.0621 0.0992,-0.009 0.10064,0.0164 0.0808,0.0347 0.0581,0.0493 0.0284,0.26681 -0.0369,0.0822 -0.11197,0.1352 -0.0751,0.11507 -0.0184,0.0511 -0.005,0.10886 0.002,0.43538 -0.001,0.14424 0.001,0.29207 -0.0156,1.53048 0.003,0.7254 v 0.0364 l 0.004,0.0475 -0.001,0.01 -6.4e-4,0.96643 v 0.26578 0.02 l 5.1e-4,0.0152 -5.1e-4,0.11037 v 0.11284 0.14194 l 0.006,0.35746 -0.006,0.30006 -0.0192,1.2475 -6.4e-4,0.0316 -0.0304,1.91214 0.002,0.18819 -0.006,0.0821 -6.4e-4,0.20337 3.4e-4,0.52826 -1.7e-4,5e-4 -0.004,0.0646 3.4e-4,0.48445 -0.002,0.0344 -0.005,1.0193 -0.001,0.13176 5e-4,0.022 -0.003,0.10107 -0.007,1.34163 0.001,0.19884 -6.4e-4,0.41235 1.7e-4,0.0942 0.005,0.51694 0.003,0.20621 5.1e-4,0.0767 0.002,0.0959 v 0.22223 l -0.003,0.20052 -7e-5,0.0272 0.002,0.3524 0.001,0.58885 -3.4e-4,0.19448 -3.4e-4,0.13954 2e-5,0.0289 -0.003,0.24766 -3.4e-4,0.0578 -0.003,0.18325 -0.005,0.40824 -0.005,0.13113 -0.001,0.1958 -0.003,1.48459 -3.4e-4,0.0259 5e-4,0.10463 10e-4,0.41643 -0.003,0.80023 -0.004,0.0838 -0.001,0.30137 -7e-5,0.35088 -5e-4,0.0277 -3.4e-4,0.10093 -0.002,0.0646 -0.001,0.0731 6.4e-4,0.0449 -0.006,0.32799 -0.003,0.17157 -0.001,0.0829 -0.003,0.26816 -0.003,0.15284 0.001,0.10451 -0.003,0.16846 -0.006,0.32028 -3.4e-4,0.13858 -0.006,0.32483 -0.0121,0.83372 -0.001,0.77545 -0.003,0.13493 0.003,0.57319 0.002,0.0449 -5.1e-4,0.0182 -0.003,0.0795 0.002,0.16271 0.002,0.34831 10e-4,0.29535 0.003,0.47729 -0.002,0.0174 0.002,0.67295 -5.1e-4,0.007 0.003,0.0802 -0.001,0.17351 -3.4e-4,0.0683 0.004,0.459 0.002,0.11247 -0.003,0.67428 -0.003,0.25179 3e-5,0.0797 -6.3e-4,0.0844 1.7e-4,0.002 6e-5,0.0997 0.001,0.26722 -0.002,0.2549 -0.003,0.261 -6.4e-4,0.2593 -0.001,0.51363 -2e-5,0.003 0.001,0.0551 -0.001,0.46242 -6.4e-4,0.0281 6.4e-4,0.23621 -0.006,1.48108 -10e-4,0.0506 5.1e-4,0.14708 -3.4e-4,0.0216 -0.001,0.36214 -0.001,0.008 -1.7e-4,0.33026 -0.003,0.13502 5.1e-4,0.11387 0.002,0.25914 0.004,0.49545 -4e-5,0.046 -0.002,0.29479 6.4e-4,0.1635 0.001,0.12958 -3.4e-4,0.0534 -3e-5,0.003 1.1e-4,0.12546 -5e-4,0.009 0.002,0.19287 0.001,0.32465 -0.001,0.28874 -5.1e-4,0.55953 z"
       class="state"
       fill="#ff7f50"
       stroke="#111111"
       stroke-width="0.0845557"
       id="path638"
       style="fill:#c87137;fill-opacity:1" /></g></svg>
