<?xml version="1.0" encoding="UTF-8" standalone="no"?>
<!-- Created with Inkscape (http://www.inkscape.org/) -->

<svg
   width="500"
   height="800"
   viewBox="0 0 132.29167 211.66667"
   version="1.1"
   id="svg1"
   inkscape:version="1.3.2 (091e20e, 2023-11-25, custom)"
   sodipodi:docname="10_youth.svg"
   xml:space="preserve"
   inkscape:export-filename="10_youth.png"
   inkscape:export-xdpi="96"
   inkscape:export-ydpi="96"
   xmlns:inkscape="http://www.inkscape.org/namespaces/inkscape"
   xmlns:sodipodi="http://sodipodi.sourceforge.net/DTD/sodipodi-0.dtd"
   xmlns:xlink="http://www.w3.org/1999/xlink"
   xmlns="http://www.w3.org/2000/svg"
   xmlns:svg="http://www.w3.org/2000/svg"><sodipodi:namedview
     id="namedview1"
     pagecolor="#ffffff"
     bordercolor="#000000"
     borderopacity="0.25"
     inkscape:showpageshadow="2"
     inkscape:pageopacity="0.0"
     inkscape:pagecheckerboard="0"
     inkscape:deskcolor="#d1d1d1"
     inkscape:document-units="mm"
     inkscape:zoom="0.72426347"
     inkscape:cx="249.2187"
     inkscape:cy="399.71642"
     inkscape:window-width="1920"
     inkscape:window-height="1009"
     inkscape:window-x="1912"
     inkscape:window-y="-8"
     inkscape:window-maximized="1"
     inkscape:current-layer="layer1"
     showgrid="false" /><defs
     id="defs1"><rect
       x="26.233547"
       y="139.45201"
       width="512.24453"
       height="262.33547"
       id="rect8" /><rect
       x="22.091408"
       y="197.44196"
       width="479.10742"
       height="171.20841"
       id="rect2" /><rect
       x="62.132088"
       y="675.16864"
       width="668.26508"
       height="201.58411"
       id="rect1" /><rect
       x="26.233547"
       y="139.45201"
       width="471.6465"
       height="49.73008"
       id="rect8-3" /><filter
       id="filter5131-6"
       color-interpolation-filters="sRGB"
       x="-0.092801335"
       y="-0.099428529"
       width="1.1856027"
       height="1.1988571"><feGaussianBlur
         id="feGaussianBlur5133-6"
         stdDeviation="1.1208081" /></filter><radialGradient
       id="radialGradient5323-6"
       xlink:href="#linearGradient5091-8"
       gradientUnits="userSpaceOnUse"
       cy="633.7"
       cx="941.09"
       gradientTransform="matrix(0.66667,0.066667,-0.09287,0.9287,372.55,-17.627)"
       r="14.493" /><linearGradient
       id="linearGradient5091-8"><stop
         id="stop5093-9"
         style="stop-color:#d40000"
         offset="0" /><stop
         id="stop5095-3"
         style="stop-color:#d40000;stop-opacity:0"
         offset="1" /></linearGradient><radialGradient
       id="radialGradient5325-4"
       xlink:href="#linearGradient4119-0"
       gradientUnits="userSpaceOnUse"
       cy="289.49"
       cx="431.79"
       gradientTransform="matrix(0.57143,0.92857,-0.72999,0.44923,396.38,-239.23)"
       r="38.26" /><linearGradient
       id="linearGradient4119-0"><stop
         id="stop4121-5"
         style="stop-color:#ff6600"
         offset="0" /><stop
         id="stop4123-0"
         style="stop-color:#ff6600;stop-opacity:0"
         offset="1" /></linearGradient><radialGradient
       id="radialGradient5528-9"
       xlink:href="#linearGradient4119-0"
       gradientUnits="userSpaceOnUse"
       cy="4582.6"
       cx="1725"
       gradientTransform="matrix(4.7546,-0.34717,0.21997,15.446,-8810.1,-69761)"
       r="16.02" /><radialGradient
       id="radialGradient5311-4"
       xlink:href="#linearGradient4119-0"
       gradientUnits="userSpaceOnUse"
       cy="4582.6"
       cx="1725"
       gradientTransform="matrix(0.90309,-0.039118,0.041782,1.7405,-24.752,-3326.9)"
       r="16.02" /><filter
       id="filter5423-2"
       height="1.1354025"
       width="1.3699186"
       color-interpolation-filters="sRGB"
       y="-0.067701269"
       x="-0.1849593"><feGaussianBlur
         id="feGaussianBlur5425-5"
         stdDeviation="3.8187218" /></filter><radialGradient
       id="radialGradient7514"
       gradientUnits="userSpaceOnUse"
       cy="-325.67"
       cx="1239"
       gradientTransform="matrix(0.086936,-1.2655,5.1445,0.20058,1988.3,2294.6)"
       r="63.797"><stop
         id="stop5201-3"
         style="stop-color:#000000"
         offset="0" /><stop
         id="stop5203-9"
         style="stop-color:#000000;stop-opacity:0"
         offset="1" /></radialGradient></defs><g
     inkscape:label="Layer 1"
     inkscape:groupmode="layer"
     id="layer1"
     transform="translate(-74.273847,-182.25543)"><rect
       style="fill:#af8ffa;fill-opacity:1;fill-rule:evenodd;stroke:#cae7fd;stroke-width:0"
       id="rect3"
       width="132.29167"
       height="211.66667"
       x="74.273849"
       y="182.25543" /><text
       xml:space="preserve"
       transform="matrix(0.26458333,0,0,0.26458333,74.273847,182.25543)"
       id="text2"
       style="font-weight:bold;font-size:42px;line-height:1.5;font-family:'Public Sans';-inkscape-font-specification:'Public Sans, Bold';letter-spacing:0px;word-spacing:0px;white-space:pre;shape-inside:url(#rect2);display:inline;fill:#ffffff;fill-opacity:1;fill-rule:evenodd;stroke:#cae7fd;stroke-width:0" /><text
       xml:space="preserve"
       transform="matrix(0.3223976,0,0,0.3223976,49.202054,307.65049)"
       id="text8"
       style="font-weight:bold;font-size:30.4605px;line-height:0;font-family:'Public Sans';-inkscape-font-specification:'Public Sans, Bold';letter-spacing:0px;word-spacing:0px;white-space:pre;shape-inside:url(#rect8);display:inline;fill:#ffffff;fill-opacity:1;fill-rule:evenodd;stroke:#cae7fd;stroke-width:0"
       x="117.36908"
       y="0"><tspan
         x="95.816235"
         y="167.12486"
         id="tspan10"><tspan
           style="line-height:1.2;text-align:center;text-anchor:middle"
           id="tspan9">Horror, Murder, Suspense
</tspan></tspan><tspan
         x="223.71998"
         y="203.67746"
         id="tspan12"><tspan
           style="line-height:1.2;text-align:center;text-anchor:middle"
           id="tspan11">October
</tspan></tspan><tspan
         x="240.50373"
         y="240.23006"
         id="tspan14"><tspan
           style="line-height:1.2;text-align:center;text-anchor:middle"
           id="tspan13">Youth</tspan></tspan></text><text
       xml:space="preserve"
       transform="matrix(0.34193589,0,0,0.34193589,50.543507,138.66609)"
       id="text8-5"
       style="font-weight:bold;font-size:42px;line-height:0;font-family:'Public Sans';-inkscape-font-specification:'Public Sans, Bold';letter-spacing:0px;word-spacing:0px;white-space:pre;shape-inside:url(#rect8-3);display:inline;fill:#ffffff;fill-opacity:1;fill-rule:evenodd;stroke:#cae7fd;stroke-width:0"
       x="117.36908"
       y="0"><tspan
         x="143.37602"
         y="177.60862"
         id="tspan16"><tspan
           style="line-height:1.2;text-align:center;text-anchor:middle"
           id="tspan15">Kansas 250</tspan></tspan></text><g
       id="g7763"
       transform="matrix(0.17639671,0,0,0.17639671,68.891554,211.73295)"><path
         id="path5207"
         style="fill:url(#radialGradient7514)"
         d="M 412.21,512.17 C 593,524.29 732.21,596.41 723.13,673.26 714.06,750.11 560.14,802.59 379.35,790.47 198.56,778.35 59.36,706.23 68.43,629.38 77.509,552.53 231.42,500.06 412.21,512.17 Z" /><path
         id="path5209"
         style="fill:#803300;fill-opacity:0.97647"
         d="m 495.97,74.318 c 8.0396,15.675 -32.957,59.607 -32.957,83.268 v 80.675 c 0,23.662 -14.322,42.71 -32.113,42.71 -17.79,0 -21.386,-20.047 -20.281,-43.675 l 4.2251,-90.332 c 1.1319,-24.196 52.682,-128.1 81.126,-72.645 z" /><g
         id="g5211"
         transform="matrix(10.186,0,0,10.186,-17194,-46294)"><path
           id="path5213"
           style="fill:#803300;fill-opacity:0.97647"
           d="m 1740.7,4583.8 c 0,15.407 -7.1726,27.898 -16.02,27.898 -8.8478,0 -16.02,-12.49 -16.02,-27.898 0,-15.407 7.1726,-27.898 16.02,-27.898 8.8478,0 16.02,12.49 16.02,27.898 z"
           transform="matrix(1.1837,0,0,0.88119,-325.44,547.92)" /><path
           id="path5215"
           style="fill:url(#radialGradient1)"
           d="m 1740.7,4583.8 c 0,15.407 -7.1726,27.898 -16.02,27.898 -8.8478,0 -16.02,-12.49 -16.02,-27.898 0,-15.407 7.1726,-27.898 16.02,-27.898 8.8478,0 16.02,12.49 16.02,27.898 z"
           transform="matrix(1.1837,0,0,0.88119,-325.44,547.92)" /><path
           id="path5217"
           style="fill:url(#radialGradient2)"
           d="m 1740.7,4583.8 c 0,15.407 -7.1726,27.898 -16.02,27.898 -8.8478,0 -16.02,-12.49 -16.02,-27.898 0,-15.407 7.1726,-27.898 16.02,-27.898 8.8478,0 16.02,12.49 16.02,27.898 z"
           transform="matrix(1.1837,0,0,0.88119,-325.44,547.92)" /></g><path
         id="path5219"
         style="fill:#ff6600;fill-opacity:0.97647;filter:url(#filter5423-2)"
         d="m 1338,-1522.2 c 1.8755,7.6017 -28.56,19.498 -27.625,73.127 l 0.6424,36.838 c 0.186,10.615 -0.5215,20.448 -8.3512,20.448 -7.8301,0 -14.134,-8.5465 -14.134,-19.163 v -36.196 c 0,-50.974 44.508,-95.153 49.467,-75.054 z"
         transform="matrix(1.0925,0,0,1.4348,-980.59,2262.2)" /><g
         id="g5221"
         transform="matrix(10.186,0,0,10.186,-16930,-46288)"><path
           id="path5223"
           style="fill:#803300;fill-opacity:0.97647"
           d="m 1740.7,4583.8 c 0,15.407 -7.1726,27.898 -16.02,27.898 -8.8478,0 -16.02,-12.49 -16.02,-27.898 0,-15.407 7.1726,-27.898 16.02,-27.898 8.8478,0 16.02,12.49 16.02,27.898 z"
           transform="matrix(1.1837,0,0,0.88119,-325.44,547.92)" /><path
           id="path5225"
           style="fill:url(#radialGradient3)"
           d="m 1740.7,4583.8 c 0,15.407 -7.1726,27.898 -16.02,27.898 -8.8478,0 -16.02,-12.49 -16.02,-27.898 0,-15.407 7.1726,-27.898 16.02,-27.898 8.8478,0 16.02,12.49 16.02,27.898 z"
           transform="matrix(1.1837,0,0,0.88119,-325.44,547.92)" /><path
           id="path5227"
           style="fill:url(#radialGradient4)"
           d="m 1740.7,4583.8 c 0,15.407 -7.1726,27.898 -16.02,27.898 -8.8478,0 -16.02,-12.49 -16.02,-27.898 0,-15.407 7.1726,-27.898 16.02,-27.898 8.8478,0 16.02,12.49 16.02,27.898 z"
           transform="matrix(1.1837,0,0,0.88119,-325.44,547.92)" /></g><g
         id="g5229"
         transform="matrix(9.2957,0,0,10.071,-15599,-45766)"><path
           id="path5231"
           style="fill:#803300;fill-opacity:0.97647"
           d="m 1740.7,4583.8 c 0,15.407 -7.1726,27.898 -16.02,27.898 -8.8478,0 -16.02,-12.49 -16.02,-27.898 0,-15.407 7.1726,-27.898 16.02,-27.898 8.8478,0 16.02,12.49 16.02,27.898 z"
           transform="matrix(1.1837,0,0,0.88119,-325.44,547.92)" /><path
           id="path5233"
           style="fill:url(#radialGradient5)"
           d="m 1740.7,4583.8 c 0,15.407 -7.1726,27.898 -16.02,27.898 -8.8478,0 -16.02,-12.49 -16.02,-27.898 0,-15.407 7.1726,-27.898 16.02,-27.898 8.8478,0 16.02,12.49 16.02,27.898 z"
           transform="matrix(1.1837,0,0,0.88119,-325.44,547.92)" /><path
           id="path5235"
           style="fill:url(#radialGradient6)"
           d="m 1740.7,4583.8 c 0,15.407 -7.1726,27.898 -16.02,27.898 -8.8478,0 -16.02,-12.49 -16.02,-27.898 0,-15.407 7.1726,-27.898 16.02,-27.898 8.8478,0 16.02,12.49 16.02,27.898 z"
           transform="matrix(1.1837,0,0,0.88119,-325.44,547.92)" /></g><g
         id="g5237"
         transform="matrix(9.2957,0,0,10.071,-15475,-45766)"><path
           id="path5239"
           style="fill:#803300;fill-opacity:0.97647"
           d="m 1740.7,4583.8 c 0,15.407 -7.1726,27.898 -16.02,27.898 -8.8478,0 -16.02,-12.49 -16.02,-27.898 0,-15.407 7.1726,-27.898 16.02,-27.898 8.8478,0 16.02,12.49 16.02,27.898 z"
           transform="matrix(1.1837,0,0,0.88119,-325.44,547.92)" /><path
           id="path5241"
           style="fill:url(#radialGradient7)"
           d="m 1740.7,4583.8 c 0,15.407 -7.1726,27.898 -16.02,27.898 -8.8478,0 -16.02,-12.49 -16.02,-27.898 0,-15.407 7.1726,-27.898 16.02,-27.898 8.8478,0 16.02,12.49 16.02,27.898 z"
           transform="matrix(1.1837,0,0,0.88119,-325.44,547.92)" /><path
           id="path5243"
           style="fill:url(#radialGradient8)"
           d="m 1740.7,4583.8 c 0,15.407 -7.1726,27.898 -16.02,27.898 -8.8478,0 -16.02,-12.49 -16.02,-27.898 0,-15.407 7.1726,-27.898 16.02,-27.898 8.8478,0 16.02,12.49 16.02,27.898 z"
           transform="matrix(1.1837,0,0,0.88119,-325.44,547.92)" /></g><g
         id="g5245"
         transform="matrix(7.3669,0,0,10.071,-12219,-45772)"><path
           id="path5247"
           style="fill:#803300;fill-opacity:0.97647"
           d="m 1740.7,4583.8 c 0,15.407 -7.1726,27.898 -16.02,27.898 -8.8478,0 -16.02,-12.49 -16.02,-27.898 0,-15.407 7.1726,-27.898 16.02,-27.898 8.8478,0 16.02,12.49 16.02,27.898 z"
           transform="matrix(1.1837,0,0,0.88119,-325.44,547.92)" /><path
           id="path5249"
           style="fill:url(#radialGradient9)"
           d="m 1740.7,4583.8 c 0,15.407 -7.1726,27.898 -16.02,27.898 -8.8478,0 -16.02,-12.49 -16.02,-27.898 0,-15.407 7.1726,-27.898 16.02,-27.898 8.8478,0 16.02,12.49 16.02,27.898 z"
           transform="matrix(1.1837,0,0,0.88119,-325.44,547.92)" /><path
           id="path5251"
           style="fill:url(#radialGradient5311-4)"
           d="m 1740.7,4583.8 c 0,15.407 -7.1726,27.898 -16.02,27.898 -8.8478,0 -16.02,-12.49 -16.02,-27.898 0,-15.407 7.1726,-27.898 16.02,-27.898 8.8478,0 16.02,12.49 16.02,27.898 z"
           transform="matrix(1.1837,0,0,0.88119,-325.44,547.92)" /></g><path
         id="path5253"
         style="fill:url(#radialGradient5528-9)"
         d="m 484.67,444.87 c 0,136.74 -37.762,247.59 -84.344,247.59 -46.582,0 -84.344,-110.85 -84.344,-247.59 0,-136.74 37.762,-247.59 84.344,-247.59 46.582,0 84.344,110.85 84.344,247.59 z" /><path
         id="path5257"
         style="fill:#ff6600;stroke:#000000;stroke-width:1px"
         d="m 278.35,382.75 c -12.755,-9.5024 29.859,-111.64 51.318,-115.49 15.2,-2.9323 79.292,80.766 70.689,94.811 -5.8048,18.609 -110.13,33.86 -122.01,20.676 z" /><path
         id="path5259"
         style="fill:#000000;stroke:#000000;stroke-width:1px"
         d="m 285.43,385.64 c -11.703,-8.7183 27.396,-102.43 47.086,-105.96 13.947,-2.6903 72.753,74.101 64.859,86.988 -5.3261,17.074 -101.05,31.066 -111.95,18.97 z" /><path
         id="path5261"
         style="fill:#ff6600"
         d="m 236.98,437.9 c -0.0219,0.9807 -0.14452,1.9457 -0.14452,2.9306 0,88.981 83.731,161.11 187.02,161.11 96.638,0 176.16,-63.152 186,-144.16 -1.8052,3.1427 -3.559,6.3208 -5.6033,9.35 -3.0816,4.5658 -6.3723,9.0416 -9.9696,13.327 -3.5973,4.2857 -7.4911,8.3719 -11.571,12.35 -4.0795,3.9786 -8.3525,7.7988 -12.88,11.443 -4.5279,3.6445 -9.3199,7.1133 -14.263,10.397 -4.9431,3.2834 -10.03,6.3849 -15.355,9.2802 -5.3248,2.8954 -10.846,5.6139 -16.519,8.0942 -5.6727,2.4802 -11.551,4.73 -17.538,6.7683 -5.9872,2.0382 -12.07,3.8733 -18.338,5.4425 -6.2679,1.5692 -12.696,2.9042 -19.211,3.9773 -6.5153,1.0731 -13.137,1.8921 -19.866,2.4421 -6.7293,0.5501 -13.539,0.8374 -20.449,0.8374 -6.9095,0 -13.792,-0.2873 -20.521,-0.8374 -6.7293,-0.55 -13.351,-1.369 -19.867,-2.4421 -6.5153,-1.0731 -12.871,-2.4081 -19.139,-3.9773 -6.2679,-1.5692 -12.424,-3.4043 -18.411,-5.4425 -5.9872,-2.0383 -11.792,-4.2881 -17.465,-6.7683 -5.6727,-2.4803 -11.194,-5.1988 -16.519,-8.0942 -5.3248,-2.8953 -10.484,-5.9968 -15.428,-9.2802 -4.9431,-3.2834 -9.6622,-6.7522 -14.19,-10.397 -4.5282,-3.6445 -8.8739,-7.4647 -12.953,-11.443 -4.0795,-3.9786 -7.9006,-8.0648 -11.498,-12.35 -3.5973,-4.2857 -6.9607,-8.7615 -10.042,-13.327 -3.0816,-4.5658 -5.9092,-9.2759 -8.4414,-14.095 -2.5324,-4.8189 -4.7454,-9.7477 -6.6949,-14.793 -0.046,-0.1172 -0.10072,-0.2317 -0.14671,-0.3489 z" /><path
         id="path5263"
         style="fill:#000000"
         d="m 239.83,444.87 c -0.0219,0.8943 -0.14452,1.7744 -0.14452,2.6727 0,68.634 59.289,126.28 139.44,142.42 2.0759,0.4182 5.9946,-14.282 7.6711,-15.745 3.6634,-3.1964 -0.18612,-0.8403 -0.18612,-0.8403 l 55.083,2.5737 c 0,0 0.89582,2.9017 9.0289,17.094 0.50276,0.8774 2.7321,-0.2566 4.0904,-0.4039 82.055,-8.8937 145.43,-63.644 154.13,-129.64 -1.7868,2.866 -3.5228,5.7644 -5.5466,8.5271 -3.0503,4.1638 -6.308,8.2457 -9.8687,12.154 -3.5612,3.9084 -7.4155,7.6349 -11.454,11.263 -4.0383,3.6284 -8.268,7.1123 -12.75,10.436 -4.4824,3.3237 -9.226,6.4871 -14.119,9.4816 -4.8932,2.9944 -9.9285,5.8229 -15.199,8.4634 -5.2705,2.6405 -10.736,5.1196 -16.352,7.3816 -5.6154,2.262 -11.434,4.3137 -17.361,6.1726 -5.9265,1.8588 -1.3609,18.891 -7.5658,20.322 -6.2042,1.4311 -36.388,6.2624 -42.838,7.2411 -6.4496,0.9786 0.22948,-17.247 -6.4319,-16.746 -6.6612,0.5017 -13.402,0.7636 -20.242,0.7636 -6.8396,0 -13.652,-0.2619 -20.314,-0.7636 -6.661,-0.5016 -13.216,-1.2485 -19.665,-2.2272 -6.4492,-0.9786 -12.74,-2.1961 -18.945,-3.6272 -6.2044,-1.431 0.93545,21.289 -4.9908,19.43 -5.9267,-1.8588 -34.171,-12.945 -39.786,-15.207 -5.6154,-2.262 -1.8177,-20.1 -7.0882,-22.74 -5.2709,-2.6405 -10.378,-5.469 -15.271,-8.4634 -4.8932,-2.9945 -9.5645,-6.1579 -14.047,-9.4816 -4.482,-3.3238 -8.7839,-6.8077 -12.822,-10.436 -4.0385,-3.6284 -7.8208,-7.3549 -11.382,-11.263 -3.5609,-3.9085 -6.8906,-7.9904 -9.9407,-12.154 -3.0505,-4.164 -5.8496,-8.4595 -8.356,-12.854 -2.5068,-4.3947 -4.6976,-8.8896 -6.6274,-13.49 -0.0482,-0.1067 -0.0985,-0.2113 -0.14452,-0.3182 z" /><path
         id="path5265"
         style="fill:#ff6600;stroke:#000000;stroke-width:1px"
         d="m 570.19,386.99 c 12.755,-9.5024 -29.859,-111.64 -51.318,-115.49 -15.2,-2.9323 -79.292,80.766 -70.689,94.811 5.8048,18.609 110.13,33.86 122.01,20.676 z" /><path
         id="path5267"
         style="fill:#000000;stroke:#000000;stroke-width:1px"
         d="m 563.1,389.87 c 11.703,-8.7183 -27.396,-102.43 -47.086,-105.96 -13.947,-2.6903 -72.753,74.101 -64.859,86.988 5.3261,17.074 101.05,31.066 111.95,18.97 z" /><g
         id="g5269"
         transform="matrix(-0.56674,2.1151,-2.1151,-0.56674,2285.7,-1284.4)"><g
           id="g5271"
           transform="translate(9.6621,26.088)"><path
             id="path5273"
             style="fill:#800000;filter:url(#filter5131-6)"
             d="m 953.65,632.67 a 14.493,13.527 0 1 1 -28.986,0 14.493,13.527 0 1 1 28.986,0 z" /><path
             id="path5275"
             style="fill:url(#radialGradient10)"
             d="m 953.65,632.67 a 14.493,13.527 0 1 1 -28.986,0 14.493,13.527 0 1 1 28.986,0 z"
             transform="translate(2.8986,1.9324)" /></g><path
           id="path5277"
           style="fill:url(#radialGradient11)"
           d="m 478.25,305.43 a 38.26,32.794 0 1 1 -76.52,0 38.26,32.794 0 1 1 76.52,0 z"
           transform="matrix(0.38865,0,0,0.38865,778.91,539.24)" /><path
           id="path5279"
           style="fill:url(#radialGradient12)"
           d="m 478.25,305.43 a 38.26,32.794 0 1 1 -76.52,0 38.26,32.794 0 1 1 76.52,0 z"
           transform="matrix(0.38865,0,0,0.38865,778.91,539.24)" /></g><g
         id="g5281"
         transform="matrix(0.56674,2.1151,2.1151,-0.56674,-1435.9,-1281.4)"><g
           id="g5283"
           transform="translate(9.6621,26.088)"><path
             id="path5285"
             style="fill:#800000;filter:url(#filter5131-6)"
             d="m 953.65,632.67 a 14.493,13.527 0 1 1 -28.986,0 14.493,13.527 0 1 1 28.986,0 z" /><path
             id="path5287"
             style="fill:url(#radialGradient5323-6)"
             d="m 953.65,632.67 a 14.493,13.527 0 1 1 -28.986,0 14.493,13.527 0 1 1 28.986,0 z"
             transform="translate(2.8986,1.9324)" /></g><path
           id="path5289"
           style="fill:url(#radialGradient13)"
           d="m 478.25,305.43 a 38.26,32.794 0 1 1 -76.52,0 38.26,32.794 0 1 1 76.52,0 z"
           transform="matrix(0.38865,0,0,0.38865,778.91,539.24)" /><path
           id="path5291"
           style="fill:url(#radialGradient5325-4)"
           d="m 478.25,305.43 a 38.26,32.794 0 1 1 -76.52,0 38.26,32.794 0 1 1 76.52,0 z"
           transform="matrix(0.38865,0,0,0.38865,778.91,539.24)" /></g></g></g></svg>
