<?xml version="1.0" encoding="UTF-8" standalone="no"?>
<!-- Created with Inkscape (http://www.inkscape.org/) -->

<svg
   width="500"
   height="800"
   viewBox="0 0 132.29167 211.66667"
   version="1.1"
   id="svg1"
   inkscape:version="1.2.1 (9c6d41e410, 2022-07-14)"
   sodipodi:docname="december_youth.svg"
   xml:space="preserve"
   inkscape:export-filename="december_youth.png"
   inkscape:export-xdpi="96"
   inkscape:export-ydpi="96"
   xmlns:inkscape="http://www.inkscape.org/namespaces/inkscape"
   xmlns:sodipodi="http://sodipodi.sourceforge.net/DTD/sodipodi-0.dtd"
   xmlns="http://www.w3.org/2000/svg"
   xmlns:svg="http://www.w3.org/2000/svg"><sodipodi:namedview
     id="namedview1"
     pagecolor="#ffffff"
     bordercolor="#000000"
     borderopacity="0.25"
     inkscape:showpageshadow="2"
     inkscape:pageopacity="0.0"
     inkscape:pagecheckerboard="0"
     inkscape:deskcolor="#d1d1d1"
     inkscape:document-units="mm"
     inkscape:zoom="0.78135299"
     inkscape:cx="374.35065"
     inkscape:cy="440.26196"
     inkscape:window-width="1920"
     inkscape:window-height="1129"
     inkscape:window-x="-8"
     inkscape:window-y="-8"
     inkscape:window-maximized="1"
     inkscape:current-layer="layer1"
     inkscape:export-bgcolor="#2a7111ff"
     showgrid="false" /><defs
     id="defs1"><linearGradient
       id="swatch16"
       inkscape:swatch="solid"><stop
         style="stop-color:#ffffff;stop-opacity:1;"
         offset="0"
         id="stop16" /></linearGradient><rect
       x="26.233547"
       y="139.45201"
       width="512.24453"
       height="262.33547"
       id="rect8" /><rect
       x="22.091408"
       y="197.44196"
       width="479.10742"
       height="171.20841"
       id="rect2" /><rect
       x="62.132088"
       y="675.16864"
       width="668.26508"
       height="201.58411"
       id="rect1" /><rect
       x="26.233547"
       y="139.45201"
       width="471.6465"
       height="49.73008"
       id="rect8-3" /></defs><g
     inkscape:label="Layer 1"
     inkscape:groupmode="layer"
     id="layer1"
     transform="translate(-74.273847,-182.25543)"><rect
       style="fill:#2e6f40;fill-opacity:1;fill-rule:evenodd;stroke:#cae7fd;stroke-width:0"
       id="rect3"
       width="132.29167"
       height="211.66667"
       x="74.273849"
       y="182.25543" /><text
       xml:space="preserve"
       transform="matrix(0.26458333,0,0,0.26458333,74.273847,182.25543)"
       id="text2"
       style="font-weight:bold;font-size:42px;line-height:1.5;font-family:'Public Sans';-inkscape-font-specification:'Public Sans, Bold';letter-spacing:0px;word-spacing:0px;white-space:pre;shape-inside:url(#rect2);display:inline;fill:#000000;fill-rule:evenodd;stroke:#cae7fd;stroke-width:0" /><text
       xml:space="preserve"
       transform="matrix(0.25898969,0,0,0.34199817,67.061127,290.936)"
       id="text8"
       style="font-weight:bold;font-size:42px;line-height:0;font-family:'Public Sans';-inkscape-font-specification:'Public Sans, Bold';letter-spacing:0px;word-spacing:0px;white-space:pre;shape-inside:url(#rect8);display:inline;fill:#ffffff;fill-opacity:1;fill-rule:evenodd;stroke:#cae7fd;stroke-width:0"
       x="117.36908"
       y="0"><tspan
         x="75.527346"
         y="177.60862"
         id="tspan2190"><tspan
           style="line-height:1.2;text-align:center;text-anchor:middle"
           id="tspan2188">Kansas' Great Reads
</tspan></tspan><tspan
         x="179.22542"
         y="228.00861"
         id="tspan2194"><tspan
           style="line-height:1.2;text-align:center;text-anchor:middle"
           id="tspan2192">December
</tspan></tspan><tspan
         x="224.64846"
         y="278.40861"
         id="tspan2198"><tspan
           style="line-height:1.2;text-align:center;text-anchor:middle"
           id="tspan2196">Youth</tspan></tspan></text><text
       xml:space="preserve"
       transform="matrix(0.34193588,0,0,0.34193588,50.543507,138.66609)"
       id="text8-5"
       style="font-weight:bold;font-size:42px;line-height:0;font-family:'Public Sans';-inkscape-font-specification:'Public Sans, Bold';letter-spacing:0px;word-spacing:0px;white-space:pre;shape-inside:url(#rect8-3);display:inline;fill:#ffffff;fill-opacity:1;fill-rule:evenodd;stroke:#cae7fd;stroke-width:0"
       x="117.36908"
       y="0"><tspan
         x="143.37602"
         y="177.60862"
         id="tspan2202"><tspan
           style="line-height:1.2;text-align:center;text-anchor:middle"
           id="tspan2200">Kansas 250</tspan></tspan></text><g
       id="g27"
       transform="matrix(0.84038157,0,0,0.84038157,59.825374,-101.9031)"
       style="fill:#ffffff"><path
         d="m 148.54854,456.39094 -5.5,-9.526 -15.645,9.036 -18.505,-10.682 18.504,-10.683 15.656,9.037 5.5,-9.526 -10.16,-5.862 12.6,-7.27 -6.5,-11.258 -12.596,7.27 v -11.72 h -11 v 18.07 l -18.504,10.685 v -21.368 l 15.652,-9.036 -5.5,-9.53 -10.152,5.861 v -14.533 H 89.398539 v 14.54 l -10.15,-5.865 -5.5,9.526 15.65,9.035 v 21.367 l -18.503,-10.683 v -18.072 h -11 v 11.72 l -12.59,-7.268 -6.5,11.257 12.59,7.27 -10.152,5.862 5.5,9.526 15.653,-9.037 18.502,10.685 -18.503,10.683 -15.65,-9.037 -5.5,9.526 10.15,5.86 -12.59,7.27 6.5,11.26 12.59,-7.27 v 11.727 h 11 v -18.079 l 18.503,-10.68 v 21.365 l -15.65,9.035 5.5,9.53 10.15,-5.87 v 14.54 h 13.000001 v -14.54 l 10.15,5.87 5.5,-9.53 -15.65,-9.034 v -21.37 l 18.504,10.684 v 18.07 h 11 v -11.72 l 12.596,7.27 6.5,-11.257 -12.6,-7.27 z"
         id="path1"
         style="fill:#ffffff" /></g></g></svg>
