<?xml version="1.0" encoding="UTF-8" standalone="no"?>
<!-- Created with Inkscape (http://www.inkscape.org/) -->

<svg
   width="500"
   height="800"
   viewBox="0 0 132.29167 211.66667"
   version="1.1"
   id="svg1"
   inkscape:version="1.3.2 (091e20e, 2023-11-25, custom)"
   sodipodi:docname="november_adult.svg"
   xml:space="preserve"
   inkscape:export-filename="november_adult.png"
   inkscape:export-xdpi="96"
   inkscape:export-ydpi="96"
   xmlns:inkscape="http://www.inkscape.org/namespaces/inkscape"
   xmlns:sodipodi="http://sodipodi.sourceforge.net/DTD/sodipodi-0.dtd"
   xmlns="http://www.w3.org/2000/svg"
   xmlns:svg="http://www.w3.org/2000/svg"><sodipodi:namedview
     id="namedview1"
     pagecolor="#ffffff"
     bordercolor="#000000"
     borderopacity="0.25"
     inkscape:showpageshadow="2"
     inkscape:pageopacity="0.0"
     inkscape:pagecheckerboard="0"
     inkscape:deskcolor="#d1d1d1"
     inkscape:document-units="mm"
     inkscape:zoom="0.72426347"
     inkscape:cx="115.28954"
     inkscape:cy="532.26487"
     inkscape:window-width="1920"
     inkscape:window-height="1009"
     inkscape:window-x="1912"
     inkscape:window-y="-8"
     inkscape:window-maximized="1"
     inkscape:current-layer="layer1" /><defs
     id="defs1"><rect
       x="26.233547"
       y="139.45201"
       width="512.24453"
       height="262.33547"
       id="rect8" /><rect
       x="22.091408"
       y="197.44196"
       width="479.10742"
       height="171.20841"
       id="rect2" /><rect
       x="62.132088"
       y="675.16864"
       width="668.26508"
       height="201.58411"
       id="rect1" /><rect
       x="26.233547"
       y="139.45201"
       width="471.6465"
       height="49.73008"
       id="rect8-3" /></defs><g
     inkscape:label="Layer 1"
     inkscape:groupmode="layer"
     id="layer1"
     transform="translate(-74.273847,-182.25543)"><rect
       style="fill:#ffeeaa;fill-opacity:1;fill-rule:evenodd;stroke:#cae7fd;stroke-width:0"
       id="rect3"
       width="132.29167"
       height="211.66667"
       x="74.273849"
       y="182.25543" /><text
       xml:space="preserve"
       transform="matrix(0.26458333,0,0,0.26458333,74.273847,182.25543)"
       id="text2"
       style="fill:#000000;stroke-width:0;font-size:42px;-inkscape-font-specification:'Public Sans, Bold';font-family:'Public Sans';stroke:#cae7fd;fill-rule:evenodd;line-height:1.5;letter-spacing:0px;word-spacing:0px;font-weight:bold;white-space:pre;shape-inside:url(#rect2)" /><text
       xml:space="preserve"
       transform="matrix(0.24166224,0,0,0.24166224,72.090902,305.62544)"
       id="text8"
       style="font-weight:bold;font-size:42px;line-height:0;font-family:'Public Sans';-inkscape-font-specification:'Public Sans, Bold';letter-spacing:0px;word-spacing:0px;white-space:pre;shape-inside:url(#rect8);fill:#000000;fill-rule:evenodd;stroke:#cae7fd;stroke-width:0"
       x="117.36908"
       y="0"><tspan
         x="33.002234"
         y="177.60862"
         id="tspan3"><tspan
           style="line-height:1.2;text-align:center;text-anchor:middle"
           id="tspan1">Kansans that Persevered
</tspan></tspan><tspan
         x="179.4039"
         y="228.00861"
         id="tspan6"><tspan
           style="line-height:1.2;text-align:center;text-anchor:middle"
           id="tspan4">November</tspan><tspan
           style="line-height:1.2;text-align:center;text-anchor:middle"
           id="tspan5">
</tspan></tspan><tspan
         x="227.23149"
         y="278.40861"
         id="tspan8"><tspan
           style="line-height:1.2;text-align:center;text-anchor:middle"
           id="tspan7">Adult</tspan></tspan></text><text
       xml:space="preserve"
       transform="matrix(0.34193589,0,0,0.34193589,50.543507,138.66609)"
       id="text8-5"
       style="font-weight:bold;font-size:42px;line-height:0;font-family:'Public Sans';-inkscape-font-specification:'Public Sans, Bold';letter-spacing:0px;word-spacing:0px;white-space:pre;shape-inside:url(#rect8-3);fill:#000000;fill-rule:evenodd;stroke:#cae7fd;stroke-width:0"
       x="117.36908"
       y="0"><tspan
         x="143.37602"
         y="177.60862"
         id="tspan10"><tspan
           style="line-height:1.2;text-align:center;text-anchor:middle"
           id="tspan9">Kansas 250</tspan></tspan></text><g
       id="g4053"
       style="fill:#aa4400"
       transform="matrix(0.17533701,0,0,0.17533701,68.352637,201.37144)"><g
         id="g3999"
         style="fill:#552200"
         transform="matrix(0.28995,-0.23735,-0.23735,-0.28995,529.48,445.94)"><path
           id="path4001"
           sodipodi:nodetypes="ccsssssscsssssssssssscscscccssscccsccccscsssssscsscssssssscsscssssccssscsccsssssscssccsssccssc"
           style="fill:#552200;stroke:#000000;stroke-width:5.5"
           d="m 54.22,658.03 18.484,1.2323 c 0,0 -1.2323,-8.6259 7.3936,-19.716 8.6259,-11.0901 103.51,-101.05 123.23,-117.07 19.716,-16.02 82.562,-69.007 88.724,-69.007 6.1614,0 29.575,13.555 34.504,25.878 4.9291,12.323 20.949,39.433 28.342,43.13 7.3936,3.6968 50.523,24.645 61.614,24.645 11.09,0 4.9291,-20.949 4.9291,-20.949 0,0 34.504,14.787 40.665,13.555 6.1614,-1.2323 1.2323,-8.6259 7.3936,-7.3936 6.1614,1.2323 17.252,11.09 30.807,4.9291 13.555,-6.1614 -2.4646,-14.787 14.787,-19.716 17.252,-4.9291 14.787,2.4646 23.413,-3.6968 8.6259,-6.1614 -8.6259,-4.9291 9.8582,-6.1614 18.4841,-1.2323 18.484,-1.2323 19.716,-7.3936 1.2323,-6.1614 -12.323,-4.9291 8.6259,-6.1614 20.9489,-1.2323 22.181,2.4646 32.039,-1.2323 9.8582,-3.6968 -7.3936,-8.6259 9.8582,-6.1614 17.2518,2.4645 8.6259,11.09 25.878,3.6968 17.252,-7.3936 34.504,-17.252 38.2,-20.949 3.6968,-3.6968 4.9291,-7.3936 4.9291,-7.3936 0,0 -27.11,3.6968 -36.968,-2.4646 -9.8582,-6.1614 -18.484,-12.323 -18.484,-12.323 0,0 -7.3936,2.4646 -12.323,-2.4646 -4.9291,-4.9291 -9.8582,-12.323 -9.8582,-12.323 l -14.787,-2.4646 -11.09,-11.09 c 0,0 -13.555,-7.3936 -19.716,-9.8582 -6.1614,-2.4646 6.1614,-8.6259 0,-12.323 -6.1614,-3.6968 -18.484,-7.3936 -23.413,-11.09 -4.9291,-3.6968 -4.9291,-4.9291 -4.9291,-4.9291 l 19.755,-24.996 -4.9676,-11.973 c 0,0 18.484,-2.4646 27.11,-20.949 8.6259,-18.484 8.6259,-32.039 8.6259,-32.039 l -13.555,-6.1614 12.323,-29.575 -6.7775,-2.4646 c 0,0 9.242,-12.323 8.0098,-17.252 -1.2323,-4.9291 -3.6968,-8.6259 -3.6968,-8.6259 0,0 17.252,-27.11 17.252,-29.575 0,-2.4645 -4.9291,-6.1614 -1.8484,-11.09 3.0807,-4.9291 0.61614,-0.61614 9.2421,-6.7775 8.6259,-6.1614 2.4646,-13.555 7.3936,-21.565 4.9291,-8.0098 3.6968,-8.0098 7.3936,-16.636 3.6968,-8.6259 8.6259,-15.403 8.6259,-24.029 v -14.787 c 0,0 -50.523,57.917 -54.22,57.917 -3.6968,0 -4.313,2.4646 -7.3936,-1.2323 -3.0807,-3.6968 -3.6968,-3.6968 -3.6968,-3.6968 0,0 -22.181,20.949 -27.726,20.949 -5.5452,0 -4.313,-6.7775 -9.2421,-8.6259 -4.9291,-1.8484 -3.0807,-1.8484 -15.403,4.9291 -12.323,6.7775 3.0807,11.707 -6.1614,9.8582 -9.2421,-1.8484 -4.313,-7.3936 -11.09,-4.313 -6.7775,3.0807 -9.242,1.8484 -16.636,8.0098 -7.3936,6.1614 -7.3936,9.242 -7.3936,6.1614 0,-3.0807 -7.3936,-26.494 -7.3936,-26.494 0,0 -30.191,8.6259 -37.584,16.02 -7.3936,7.3936 -12.323,12.939 -12.323,14.787 0,1.8484 -2.4645,4.9291 -2.4645,4.9291 0,0 -4.313,-4.9291 -7.3936,-4.9291 -3.0807,0 0,-6.7775 -13.555,3.0807 -13.555,9.8582 -30.191,17.252 -30.191,20.333 0,3.0807 2.4645,5.5452 0,3.0807 -2.4646,-2.4646 -20.949,-38.817 -20.949,-38.817 l -3.6968,1.8484 c 0,0 -4.9291,-28.958 -8.6259,-35.736 -3.6968,-6.7775 -6.7775,-1.8484 -6.7775,-12.323 v -18.484 c 0,-10.474 -3.6968,-22.797 -3.6968,-22.797 0,0 -28.958,43.746 -35.736,54.836 -6.7775,11.09 -5.5452,17.252 -5.5452,17.252 l -5.5452,-1.2323 c 0,0 -6.7775,-1.8484 -11.09,10.474 -4.313,12.323 -10.474,35.12 -11.707,38.817 -1.2323,3.6968 -1.2323,5.5452 -3.6968,5.5452 -2.4646,0 -2.4646,-4.313 -4.9291,-3.0807 -2.4646,1.2323 -8.0098,-0.61614 -8.6259,8.0098 -0.61614,8.6259 6.7775,67.159 4.313,72.704 -2.4646,5.5452 -3.6968,5.5452 -3.6968,5.5452 0,0 -11.707,-3.6968 -12.323,-0.61614 -0.61613,3.0807 -8.0098,9.242 -3.0807,15.403 4.9291,6.1614 11.09,14.787 11.09,14.787 h -8.6259 c 0,0 26.494,31.423 21.565,34.504 -4.9291,3.0807 -5.5452,-0.61613 -7.3936,5.5452 -1.8484,6.1614 3.6968,14.171 9.8582,19.716 6.1614,5.5452 44.978,44.978 44.978,44.978 l -0.61613,6.7775 c 0,0 -140.48,104.13 -140.48,106.59 0,2.4646 -83.795,79.482 -86.259,86.875 -2.4645,7.3936 -6.1614,19.1 -5.5452,17.868 z" /><path
           id="path4003"
           style="fill:#552200;stroke:#000000;stroke-width:3"
           transform="translate(51.402,93.984)"
           d="m 246.1,347.21 c 0,0 -7.9817,-53.212 -11.973,-81.148 -3.9909,-27.936 -15.963,-18.624 -3.9909,-51.881 11.973,-33.257 5.3212,-73.166 9.312,-87.799 3.9909,-14.633 25.275,-115.74 25.275,-115.74" /><path
           id="path4005"
           style="fill:#552200;stroke:#000000;stroke-width:1px"
           transform="translate(51.402,93.984)"
           d="m 400.42,214.18 c 0,0 34.588,9.312 61.193,-1.3303 26.606,-10.642 45.23,-3.9909 54.542,-7.9817 9.312,-3.9909 15.963,-7.9817 15.963,-7.9817" /><path
           id="path4007"
           sodipodi:nodetypes="cssc"
           transform="translate(51.402,93.984)"
           style="fill:#552200;stroke:#000000;stroke-width:1px"
           d="m 358.54,236.9 c 0,0 -21.979,-20.062 -8.6766,-50.659 13.303,-30.597 21.285,-27.936 30.597,-50.551 9.312,-22.615 30.597,-59.863 30.597,-59.863" /><path
           id="path4009"
           style="fill:#552200;stroke:#000000;stroke-width:1px"
           d="m 333.79,419.74 c 0,0 -14.633,-17.294 -2.6606,-42.569 11.973,-25.275 15.963,-25.275 11.973,-38.578 -3.9909,-13.303 -6.6514,-63.854 -6.6514,-63.854" /><path
           id="path4011"
           style="fill:#552200;stroke:#000000;stroke-width:1px"
           transform="translate(51.402,93.984)"
           d="m 305.97,295.32 c 0,0 55.872,15.963 71.836,9.312 15.963,-6.6514 23.945,-18.624 45.23,-25.275 21.285,-6.6514 18.624,0 29.266,1.3303 10.642,1.3303 15.963,2.6606 15.963,2.6606" /><path
           id="path4013"
           d="m 235.95,445.12 c 0,0 -39.538,7.6525 -58.669,3.1886 -19.131,-4.464 -61.858,-8.928 -66.96,-9.5657 -5.1017,-0.63771 -14.667,-3.1886 -14.667,-3.1886"
           style="fill:#552200;stroke:#000000;stroke-width:1px"
           transform="matrix(2.6688,0,0,2.6688,51.402,-722)" /><path
           id="path4015"
           d="m 90.555,437.47 c 0,0 15.943,-6.3771 22.32,-17.218 6.3771,-10.841 0.63771,-12.754 14.03,-21.044 13.392,-8.2902 19.769,-8.928 23.595,-14.03 3.8263,-5.1017 35.074,-36.987 40.814,-43.364 5.7394,-6.3771 11.479,-5.1017 14.03,-10.203 2.5508,-5.1017 11.479,-19.769 11.479,-19.769"
           style="fill:#552200;stroke:#000000;stroke-width:1px"
           transform="matrix(2.6688,0,0,2.6688,51.402,-722)" /></g><g
         id="g3873"
         style="fill:#803300"
         transform="matrix(0.25174,0.27755,-0.27755,0.25174,329.47,280.06)"><path
           id="path3875"
           sodipodi:nodetypes="ccsssssscsssssssssssscscscccssscccsccccscsssssscsscssssssscsscssssccssscsccsssssscssccsssccssc"
           style="fill:#803300;stroke:#000000;stroke-width:5.5"
           d="m 54.22,658.03 18.484,1.2323 c 0,0 -1.2323,-8.6259 7.3936,-19.716 8.6259,-11.0901 103.51,-101.05 123.23,-117.07 19.716,-16.02 82.562,-69.007 88.724,-69.007 6.1614,0 29.575,13.555 34.504,25.878 4.9291,12.323 20.949,39.433 28.342,43.13 7.3936,3.6968 50.523,24.645 61.614,24.645 11.09,0 4.9291,-20.949 4.9291,-20.949 0,0 34.504,14.787 40.665,13.555 6.1614,-1.2323 1.2323,-8.6259 7.3936,-7.3936 6.1614,1.2323 17.252,11.09 30.807,4.9291 13.555,-6.1614 -2.4646,-14.787 14.787,-19.716 17.252,-4.9291 14.787,2.4646 23.413,-3.6968 8.6259,-6.1614 -8.6259,-4.9291 9.8582,-6.1614 18.4841,-1.2323 18.484,-1.2323 19.716,-7.3936 1.2323,-6.1614 -12.323,-4.9291 8.6259,-6.1614 20.9489,-1.2323 22.181,2.4646 32.039,-1.2323 9.8582,-3.6968 -7.3936,-8.6259 9.8582,-6.1614 17.2518,2.4645 8.6259,11.09 25.878,3.6968 17.252,-7.3936 34.504,-17.252 38.2,-20.949 3.6968,-3.6968 4.9291,-7.3936 4.9291,-7.3936 0,0 -27.11,3.6968 -36.968,-2.4646 -9.8582,-6.1614 -18.484,-12.323 -18.484,-12.323 0,0 -7.3936,2.4646 -12.323,-2.4646 -4.9291,-4.9291 -9.8582,-12.323 -9.8582,-12.323 l -14.787,-2.4646 -11.09,-11.09 c 0,0 -13.555,-7.3936 -19.716,-9.8582 -6.1614,-2.4646 6.1614,-8.6259 0,-12.323 -6.1614,-3.6968 -18.484,-7.3936 -23.413,-11.09 -4.9291,-3.6968 -4.9291,-4.9291 -4.9291,-4.9291 l 19.755,-24.996 -4.9676,-11.973 c 0,0 18.484,-2.4646 27.11,-20.949 8.6259,-18.484 8.6259,-32.039 8.6259,-32.039 l -13.555,-6.1614 12.323,-29.575 -6.7775,-2.4646 c 0,0 9.242,-12.323 8.0098,-17.252 -1.2323,-4.9291 -3.6968,-8.6259 -3.6968,-8.6259 0,0 17.252,-27.11 17.252,-29.575 0,-2.4645 -4.9291,-6.1614 -1.8484,-11.09 3.0807,-4.9291 0.61614,-0.61614 9.2421,-6.7775 8.6259,-6.1614 2.4646,-13.555 7.3936,-21.565 4.9291,-8.0098 3.6968,-8.0098 7.3936,-16.636 3.6968,-8.6259 8.6259,-15.403 8.6259,-24.029 v -14.787 c 0,0 -50.523,57.917 -54.22,57.917 -3.6968,0 -4.313,2.4646 -7.3936,-1.2323 -3.0807,-3.6968 -3.6968,-3.6968 -3.6968,-3.6968 0,0 -22.181,20.949 -27.726,20.949 -5.5452,0 -4.313,-6.7775 -9.2421,-8.6259 -4.9291,-1.8484 -3.0807,-1.8484 -15.403,4.9291 -12.323,6.7775 3.0807,11.707 -6.1614,9.8582 -9.2421,-1.8484 -4.313,-7.3936 -11.09,-4.313 -6.7775,3.0807 -9.242,1.8484 -16.636,8.0098 -7.3936,6.1614 -7.3936,9.242 -7.3936,6.1614 0,-3.0807 -7.3936,-26.494 -7.3936,-26.494 0,0 -30.191,8.6259 -37.584,16.02 -7.3936,7.3936 -12.323,12.939 -12.323,14.787 0,1.8484 -2.4645,4.9291 -2.4645,4.9291 0,0 -4.313,-4.9291 -7.3936,-4.9291 -3.0807,0 0,-6.7775 -13.555,3.0807 -13.555,9.8582 -30.191,17.252 -30.191,20.333 0,3.0807 2.4645,5.5452 0,3.0807 -2.4646,-2.4646 -20.949,-38.817 -20.949,-38.817 l -3.6968,1.8484 c 0,0 -4.9291,-28.958 -8.6259,-35.736 -3.6968,-6.7775 -6.7775,-1.8484 -6.7775,-12.323 v -18.484 c 0,-10.474 -3.6968,-22.797 -3.6968,-22.797 0,0 -28.958,43.746 -35.736,54.836 -6.7775,11.09 -5.5452,17.252 -5.5452,17.252 l -5.5452,-1.2323 c 0,0 -6.7775,-1.8484 -11.09,10.474 -4.313,12.323 -10.474,35.12 -11.707,38.817 -1.2323,3.6968 -1.2323,5.5452 -3.6968,5.5452 -2.4646,0 -2.4646,-4.313 -4.9291,-3.0807 -2.4646,1.2323 -8.0098,-0.61614 -8.6259,8.0098 -0.61614,8.6259 6.7775,67.159 4.313,72.704 -2.4646,5.5452 -3.6968,5.5452 -3.6968,5.5452 0,0 -11.707,-3.6968 -12.323,-0.61614 -0.61613,3.0807 -8.0098,9.242 -3.0807,15.403 4.9291,6.1614 11.09,14.787 11.09,14.787 h -8.6259 c 0,0 26.494,31.423 21.565,34.504 -4.9291,3.0807 -5.5452,-0.61613 -7.3936,5.5452 -1.8484,6.1614 3.6968,14.171 9.8582,19.716 6.1614,5.5452 44.978,44.978 44.978,44.978 l -0.61613,6.7775 c 0,0 -140.48,104.13 -140.48,106.59 0,2.4646 -83.795,79.482 -86.259,86.875 -2.4645,7.3936 -6.1614,19.1 -5.5452,17.868 z" /><path
           id="path3877"
           style="fill:#803300;stroke:#000000;stroke-width:3"
           transform="translate(51.402,93.984)"
           d="m 246.1,347.21 c 0,0 -7.9817,-53.212 -11.973,-81.148 -3.9909,-27.936 -15.963,-18.624 -3.9909,-51.881 11.973,-33.257 5.3212,-73.166 9.312,-87.799 3.9909,-14.633 25.275,-115.74 25.275,-115.74" /><path
           id="path3879"
           style="fill:#803300;stroke:#000000;stroke-width:1px"
           transform="translate(51.402,93.984)"
           d="m 400.42,214.18 c 0,0 34.588,9.312 61.193,-1.3303 26.606,-10.642 45.23,-3.9909 54.542,-7.9817 9.312,-3.9909 15.963,-7.9817 15.963,-7.9817" /><path
           id="path3881"
           sodipodi:nodetypes="cssc"
           transform="translate(51.402,93.984)"
           style="fill:#803300;stroke:#000000;stroke-width:1px"
           d="m 358.54,236.9 c 0,0 -21.979,-20.062 -8.6766,-50.659 13.303,-30.597 21.285,-27.936 30.597,-50.551 9.312,-22.615 30.597,-59.863 30.597,-59.863" /><path
           id="path3883"
           style="fill:#803300;stroke:#000000;stroke-width:1px"
           d="m 333.79,419.74 c 0,0 -14.633,-17.294 -2.6606,-42.569 11.973,-25.275 15.963,-25.275 11.973,-38.578 -3.9909,-13.303 -6.6514,-63.854 -6.6514,-63.854" /><path
           id="path3885"
           style="fill:#803300;stroke:#000000;stroke-width:1px"
           transform="translate(51.402,93.984)"
           d="m 305.97,295.32 c 0,0 55.872,15.963 71.836,9.312 15.963,-6.6514 23.945,-18.624 45.23,-25.275 21.285,-6.6514 18.624,0 29.266,1.3303 10.642,1.3303 15.963,2.6606 15.963,2.6606" /><path
           id="path3887"
           d="m 235.95,445.12 c 0,0 -39.538,7.6525 -58.669,3.1886 -19.131,-4.464 -61.858,-8.928 -66.96,-9.5657 -5.1017,-0.63771 -14.667,-3.1886 -14.667,-3.1886"
           style="fill:#803300;stroke:#000000;stroke-width:1px"
           transform="matrix(2.6688,0,0,2.6688,51.402,-722)" /><path
           id="path3889"
           d="m 90.555,437.47 c 0,0 15.943,-6.3771 22.32,-17.218 6.3771,-10.841 0.63771,-12.754 14.03,-21.044 13.392,-8.2902 19.769,-8.928 23.595,-14.03 3.8263,-5.1017 35.074,-36.987 40.814,-43.364 5.7394,-6.3771 11.479,-5.1017 14.03,-10.203 2.5508,-5.1017 11.479,-19.769 11.479,-19.769"
           style="fill:#803300;stroke:#000000;stroke-width:1px"
           transform="matrix(2.6688,0,0,2.6688,51.402,-722)" /></g><g
         id="g3855"
         style="fill:#aa4400"
         transform="matrix(0.13247,-0.35051,0.35051,0.13247,35.405,487.57)"><path
           id="path3857"
           sodipodi:nodetypes="ccsssssscsssssssssssscscscccssscccsccccscsssssscsscssssssscsscssssccssscsccsssssscssccsssccssc"
           style="fill:#aa4400;stroke:#000000;stroke-width:5.5"
           d="m 54.22,658.03 18.484,1.2323 c 0,0 -1.2323,-8.6259 7.3936,-19.716 8.6259,-11.0901 103.51,-101.05 123.23,-117.07 19.716,-16.02 82.562,-69.007 88.724,-69.007 6.1614,0 29.575,13.555 34.504,25.878 4.9291,12.323 20.949,39.433 28.342,43.13 7.3936,3.6968 50.523,24.645 61.614,24.645 11.09,0 4.9291,-20.949 4.9291,-20.949 0,0 34.504,14.787 40.665,13.555 6.1614,-1.2323 1.2323,-8.6259 7.3936,-7.3936 6.1614,1.2323 17.252,11.09 30.807,4.9291 13.555,-6.1614 -2.4646,-14.787 14.787,-19.716 17.252,-4.9291 14.787,2.4646 23.413,-3.6968 8.6259,-6.1614 -8.6259,-4.9291 9.8582,-6.1614 18.4841,-1.2323 18.484,-1.2323 19.716,-7.3936 1.2323,-6.1614 -12.323,-4.9291 8.6259,-6.1614 20.9489,-1.2323 22.181,2.4646 32.039,-1.2323 9.8582,-3.6968 -7.3936,-8.6259 9.8582,-6.1614 17.2518,2.4645 8.6259,11.09 25.878,3.6968 17.252,-7.3936 34.504,-17.252 38.2,-20.949 3.6968,-3.6968 4.9291,-7.3936 4.9291,-7.3936 0,0 -27.11,3.6968 -36.968,-2.4646 -9.8582,-6.1614 -18.484,-12.323 -18.484,-12.323 0,0 -7.3936,2.4646 -12.323,-2.4646 -4.9291,-4.9291 -9.8582,-12.323 -9.8582,-12.323 l -14.787,-2.4646 -11.09,-11.09 c 0,0 -13.555,-7.3936 -19.716,-9.8582 -6.1614,-2.4646 6.1614,-8.6259 0,-12.323 -6.1614,-3.6968 -18.484,-7.3936 -23.413,-11.09 -4.9291,-3.6968 -4.9291,-4.9291 -4.9291,-4.9291 l 19.755,-24.996 -4.9676,-11.973 c 0,0 18.484,-2.4646 27.11,-20.949 8.6259,-18.484 8.6259,-32.039 8.6259,-32.039 l -13.555,-6.1614 12.323,-29.575 -6.7775,-2.4646 c 0,0 9.242,-12.323 8.0098,-17.252 -1.2323,-4.9291 -3.6968,-8.6259 -3.6968,-8.6259 0,0 17.252,-27.11 17.252,-29.575 0,-2.4645 -4.9291,-6.1614 -1.8484,-11.09 3.0807,-4.9291 0.61614,-0.61614 9.2421,-6.7775 8.6259,-6.1614 2.4646,-13.555 7.3936,-21.565 4.9291,-8.0098 3.6968,-8.0098 7.3936,-16.636 3.6968,-8.6259 8.6259,-15.403 8.6259,-24.029 v -14.787 c 0,0 -50.523,57.917 -54.22,57.917 -3.6968,0 -4.313,2.4646 -7.3936,-1.2323 -3.0807,-3.6968 -3.6968,-3.6968 -3.6968,-3.6968 0,0 -22.181,20.949 -27.726,20.949 -5.5452,0 -4.313,-6.7775 -9.2421,-8.6259 -4.9291,-1.8484 -3.0807,-1.8484 -15.403,4.9291 -12.323,6.7775 3.0807,11.707 -6.1614,9.8582 -9.2421,-1.8484 -4.313,-7.3936 -11.09,-4.313 -6.7775,3.0807 -9.242,1.8484 -16.636,8.0098 -7.3936,6.1614 -7.3936,9.242 -7.3936,6.1614 0,-3.0807 -7.3936,-26.494 -7.3936,-26.494 0,0 -30.191,8.6259 -37.584,16.02 -7.3936,7.3936 -12.323,12.939 -12.323,14.787 0,1.8484 -2.4645,4.9291 -2.4645,4.9291 0,0 -4.313,-4.9291 -7.3936,-4.9291 -3.0807,0 0,-6.7775 -13.555,3.0807 -13.555,9.8582 -30.191,17.252 -30.191,20.333 0,3.0807 2.4645,5.5452 0,3.0807 -2.4646,-2.4646 -20.949,-38.817 -20.949,-38.817 l -3.6968,1.8484 c 0,0 -4.9291,-28.958 -8.6259,-35.736 -3.6968,-6.7775 -6.7775,-1.8484 -6.7775,-12.323 v -18.484 c 0,-10.474 -3.6968,-22.797 -3.6968,-22.797 0,0 -28.958,43.746 -35.736,54.836 -6.7775,11.09 -5.5452,17.252 -5.5452,17.252 l -5.5452,-1.2323 c 0,0 -6.7775,-1.8484 -11.09,10.474 -4.313,12.323 -10.474,35.12 -11.707,38.817 -1.2323,3.6968 -1.2323,5.5452 -3.6968,5.5452 -2.4646,0 -2.4646,-4.313 -4.9291,-3.0807 -2.4646,1.2323 -8.0098,-0.61614 -8.6259,8.0098 -0.61614,8.6259 6.7775,67.159 4.313,72.704 -2.4646,5.5452 -3.6968,5.5452 -3.6968,5.5452 0,0 -11.707,-3.6968 -12.323,-0.61614 -0.61613,3.0807 -8.0098,9.242 -3.0807,15.403 4.9291,6.1614 11.09,14.787 11.09,14.787 h -8.6259 c 0,0 26.494,31.423 21.565,34.504 -4.9291,3.0807 -5.5452,-0.61613 -7.3936,5.5452 -1.8484,6.1614 3.6968,14.171 9.8582,19.716 6.1614,5.5452 44.978,44.978 44.978,44.978 l -0.61613,6.7775 c 0,0 -140.48,104.13 -140.48,106.59 0,2.4646 -83.795,79.482 -86.259,86.875 -2.4645,7.3936 -6.1614,19.1 -5.5452,17.868 z" /><path
           id="path3859"
           d="m 246.1,347.21 c 0,0 -7.9817,-53.212 -11.973,-81.148 -3.9909,-27.936 -15.963,-18.624 -3.9909,-51.881 11.973,-33.257 5.3212,-73.166 9.312,-87.799 3.9909,-14.633 25.275,-115.74 25.275,-115.74"
           style="fill:#aa4400;stroke:#000000;stroke-width:3"
           transform="translate(51.402,93.984)" /><path
           id="path3861"
           d="m 400.42,214.18 c 0,0 34.588,9.312 61.193,-1.3303 26.606,-10.642 45.23,-3.9909 54.542,-7.9817 9.312,-3.9909 15.963,-7.9817 15.963,-7.9817"
           style="fill:#aa4400;stroke:#000000;stroke-width:1px"
           transform="translate(51.402,93.984)" /><path
           id="path3863"
           sodipodi:nodetypes="cssc"
           d="m 358.54,236.9 c 0,0 -21.979,-20.062 -8.6766,-50.659 13.303,-30.597 21.285,-27.936 30.597,-50.551 9.312,-22.615 30.597,-59.863 30.597,-59.863"
           style="fill:#aa4400;stroke:#000000;stroke-width:1px"
           transform="translate(51.402,93.984)" /><path
           id="path3865"
           style="fill:#aa4400;stroke:#000000;stroke-width:1px"
           d="m 333.79,419.74 c 0,0 -14.633,-17.294 -2.6606,-42.569 11.973,-25.275 15.963,-25.275 11.973,-38.578 -3.9909,-13.303 -6.6514,-63.854 -6.6514,-63.854" /><path
           id="path3867"
           d="m 305.97,295.32 c 0,0 55.872,15.963 71.836,9.312 15.963,-6.6514 23.945,-18.624 45.23,-25.275 21.285,-6.6514 18.624,0 29.266,1.3303 10.642,1.3303 15.963,2.6606 15.963,2.6606"
           style="fill:#aa4400;stroke:#000000;stroke-width:1px"
           transform="translate(51.402,93.984)" /><path
           id="path3869"
           style="fill:#aa4400;stroke:#000000;stroke-width:1px"
           transform="matrix(2.6688,0,0,2.6688,51.402,-722)"
           d="m 235.95,445.12 c 0,0 -39.538,7.6525 -58.669,3.1886 -19.131,-4.464 -61.858,-8.928 -66.96,-9.5657 -5.1017,-0.63771 -14.667,-3.1886 -14.667,-3.1886" /><path
           id="path3871"
           style="fill:#aa4400;stroke:#000000;stroke-width:1px"
           transform="matrix(2.6688,0,0,2.6688,51.402,-722)"
           d="m 90.555,437.47 c 0,0 15.943,-6.3771 22.32,-17.218 6.3771,-10.841 0.63771,-12.754 14.03,-21.044 13.392,-8.2902 19.769,-8.928 23.595,-14.03 3.8263,-5.1017 35.074,-36.987 40.814,-43.364 5.7394,-6.3771 11.479,-5.1017 14.03,-10.203 2.5508,-5.1017 11.479,-19.769 11.479,-19.769" /></g><g
         id="g3634"
         style="fill:#aa4400"
         transform="matrix(-0.077767,-0.36655,0.36655,-0.077767,144.89,708.82)"><path
           id="path2830"
           sodipodi:nodetypes="ccsssssscsssssssssssscscscccssscccsccccscsssssscsscssssssscsscssssccssscsccsssssscssccsssccssc"
           style="fill:#aa4400;stroke:#000000;stroke-width:5.5"
           d="m 54.22,658.03 18.484,1.2323 c 0,0 -1.2323,-8.6259 7.3936,-19.716 8.6259,-11.0901 103.51,-101.05 123.23,-117.07 19.716,-16.02 82.562,-69.007 88.724,-69.007 6.1614,0 29.575,13.555 34.504,25.878 4.9291,12.323 20.949,39.433 28.342,43.13 7.3936,3.6968 50.523,24.645 61.614,24.645 11.09,0 4.9291,-20.949 4.9291,-20.949 0,0 34.504,14.787 40.665,13.555 6.1614,-1.2323 1.2323,-8.6259 7.3936,-7.3936 6.1614,1.2323 17.252,11.09 30.807,4.9291 13.555,-6.1614 -2.4646,-14.787 14.787,-19.716 17.252,-4.9291 14.787,2.4646 23.413,-3.6968 8.6259,-6.1614 -8.6259,-4.9291 9.8582,-6.1614 18.4841,-1.2323 18.484,-1.2323 19.716,-7.3936 1.2323,-6.1614 -12.323,-4.9291 8.6259,-6.1614 20.9489,-1.2323 22.181,2.4646 32.039,-1.2323 9.8582,-3.6968 -7.3936,-8.6259 9.8582,-6.1614 17.2518,2.4645 8.6259,11.09 25.878,3.6968 17.252,-7.3936 34.504,-17.252 38.2,-20.949 3.6968,-3.6968 4.9291,-7.3936 4.9291,-7.3936 0,0 -27.11,3.6968 -36.968,-2.4646 -9.8582,-6.1614 -18.484,-12.323 -18.484,-12.323 0,0 -7.3936,2.4646 -12.323,-2.4646 -4.9291,-4.9291 -9.8582,-12.323 -9.8582,-12.323 l -14.787,-2.4646 -11.09,-11.09 c 0,0 -13.555,-7.3936 -19.716,-9.8582 -6.1614,-2.4646 6.1614,-8.6259 0,-12.323 -6.1614,-3.6968 -18.484,-7.3936 -23.413,-11.09 -4.9291,-3.6968 -4.9291,-4.9291 -4.9291,-4.9291 l 19.755,-24.996 -4.9676,-11.973 c 0,0 18.484,-2.4646 27.11,-20.949 8.6259,-18.484 8.6259,-32.039 8.6259,-32.039 l -13.555,-6.1614 12.323,-29.575 -6.7775,-2.4646 c 0,0 9.242,-12.323 8.0098,-17.252 -1.2323,-4.9291 -3.6968,-8.6259 -3.6968,-8.6259 0,0 17.252,-27.11 17.252,-29.575 0,-2.4645 -4.9291,-6.1614 -1.8484,-11.09 3.0807,-4.9291 0.61614,-0.61614 9.2421,-6.7775 8.6259,-6.1614 2.4646,-13.555 7.3936,-21.565 4.9291,-8.0098 3.6968,-8.0098 7.3936,-16.636 3.6968,-8.6259 8.6259,-15.403 8.6259,-24.029 v -14.787 c 0,0 -50.523,57.917 -54.22,57.917 -3.6968,0 -4.313,2.4646 -7.3936,-1.2323 -3.0807,-3.6968 -3.6968,-3.6968 -3.6968,-3.6968 0,0 -22.181,20.949 -27.726,20.949 -5.5452,0 -4.313,-6.7775 -9.2421,-8.6259 -4.9291,-1.8484 -3.0807,-1.8484 -15.403,4.9291 -12.323,6.7775 3.0807,11.707 -6.1614,9.8582 -9.2421,-1.8484 -4.313,-7.3936 -11.09,-4.313 -6.7775,3.0807 -9.242,1.8484 -16.636,8.0098 -7.3936,6.1614 -7.3936,9.242 -7.3936,6.1614 0,-3.0807 -7.3936,-26.494 -7.3936,-26.494 0,0 -30.191,8.6259 -37.584,16.02 -7.3936,7.3936 -12.323,12.939 -12.323,14.787 0,1.8484 -2.4645,4.9291 -2.4645,4.9291 0,0 -4.313,-4.9291 -7.3936,-4.9291 -3.0807,0 0,-6.7775 -13.555,3.0807 -13.555,9.8582 -30.191,17.252 -30.191,20.333 0,3.0807 2.4645,5.5452 0,3.0807 -2.4646,-2.4646 -20.949,-38.817 -20.949,-38.817 l -3.6968,1.8484 c 0,0 -4.9291,-28.958 -8.6259,-35.736 -3.6968,-6.7775 -6.7775,-1.8484 -6.7775,-12.323 v -18.484 c 0,-10.474 -3.6968,-22.797 -3.6968,-22.797 0,0 -28.958,43.746 -35.736,54.836 -6.7775,11.09 -5.5452,17.252 -5.5452,17.252 l -5.5452,-1.2323 c 0,0 -6.7775,-1.8484 -11.09,10.474 -4.313,12.323 -10.474,35.12 -11.707,38.817 -1.2323,3.6968 -1.2323,5.5452 -3.6968,5.5452 -2.4646,0 -2.4646,-4.313 -4.9291,-3.0807 -2.4646,1.2323 -8.0098,-0.61614 -8.6259,8.0098 -0.61614,8.6259 6.7775,67.159 4.313,72.704 -2.4646,5.5452 -3.6968,5.5452 -3.6968,5.5452 0,0 -11.707,-3.6968 -12.323,-0.61614 -0.61613,3.0807 -8.0098,9.242 -3.0807,15.403 4.9291,6.1614 11.09,14.787 11.09,14.787 h -8.6259 c 0,0 26.494,31.423 21.565,34.504 -4.9291,3.0807 -5.5452,-0.61613 -7.3936,5.5452 -1.8484,6.1614 3.6968,14.171 9.8582,19.716 6.1614,5.5452 44.978,44.978 44.978,44.978 l -0.61613,6.7775 c 0,0 -140.48,104.13 -140.48,106.59 0,2.4646 -83.795,79.482 -86.259,86.875 -2.4645,7.3936 -6.1614,19.1 -5.5452,17.868 z" /><path
           id="path3620"
           style="fill:#aa4400;stroke:#000000;stroke-width:3"
           transform="translate(51.402,93.984)"
           d="m 246.1,347.21 c 0,0 -7.9817,-53.212 -11.973,-81.148 -3.9909,-27.936 -15.963,-18.624 -3.9909,-51.881 11.973,-33.257 5.3212,-73.166 9.312,-87.799 3.9909,-14.633 25.275,-115.74 25.275,-115.74" /><path
           id="path3622"
           style="fill:#aa4400;stroke:#000000;stroke-width:1px"
           transform="translate(51.402,93.984)"
           d="m 400.42,214.18 c 0,0 34.588,9.312 61.193,-1.3303 26.606,-10.642 45.23,-3.9909 54.542,-7.9817 9.312,-3.9909 15.963,-7.9817 15.963,-7.9817" /><path
           id="path3624"
           sodipodi:nodetypes="cssc"
           transform="translate(51.402,93.984)"
           style="fill:#aa4400;stroke:#000000;stroke-width:1px"
           d="m 358.54,236.9 c 0,0 -21.979,-20.062 -8.6766,-50.659 13.303,-30.597 21.285,-27.936 30.597,-50.551 9.312,-22.615 30.597,-59.863 30.597,-59.863" /><path
           id="path3626"
           style="fill:#aa4400;stroke:#000000;stroke-width:1px"
           d="m 333.79,419.74 c 0,0 -14.633,-17.294 -2.6606,-42.569 11.973,-25.275 15.963,-25.275 11.973,-38.578 -3.9909,-13.303 -6.6514,-63.854 -6.6514,-63.854" /><path
           id="path3628"
           style="fill:#aa4400;stroke:#000000;stroke-width:1px"
           transform="translate(51.402,93.984)"
           d="m 305.97,295.32 c 0,0 55.872,15.963 71.836,9.312 15.963,-6.6514 23.945,-18.624 45.23,-25.275 21.285,-6.6514 18.624,0 29.266,1.3303 10.642,1.3303 15.963,2.6606 15.963,2.6606" /><path
           id="path3851"
           d="m 235.95,445.12 c 0,0 -39.538,7.6525 -58.669,3.1886 -19.131,-4.464 -61.858,-8.928 -66.96,-9.5657 -5.1017,-0.63771 -14.667,-3.1886 -14.667,-3.1886"
           style="fill:#aa4400;stroke:#000000;stroke-width:1px"
           transform="matrix(2.6688,0,0,2.6688,51.402,-722)" /><path
           id="path3853"
           d="m 90.555,437.47 c 0,0 15.943,-6.3771 22.32,-17.218 6.3771,-10.841 0.63771,-12.754 14.03,-21.044 13.392,-8.2902 19.769,-8.928 23.595,-14.03 3.8263,-5.1017 35.074,-36.987 40.814,-43.364 5.7394,-6.3771 11.479,-5.1017 14.03,-10.203 2.5508,-5.1017 11.479,-19.769 11.479,-19.769"
           style="fill:#aa4400;stroke:#000000;stroke-width:1px"
           transform="matrix(2.6688,0,0,2.6688,51.402,-722)" /></g><g
         id="g3891"
         style="fill:#552200"
         transform="matrix(-0.25174,0.27755,0.27755,0.25174,333.37,119.36)"><path
           id="path3893"
           sodipodi:nodetypes="ccsssssscsssssssssssscscscccssscccsccccscsssssscsscssssssscsscssssccssscsccsssssscssccsssccssc"
           style="fill:#552200;stroke:#000000;stroke-width:5.5"
           d="m 54.22,658.03 18.484,1.2323 c 0,0 -1.2323,-8.6259 7.3936,-19.716 8.6259,-11.0901 103.51,-101.05 123.23,-117.07 19.716,-16.02 82.562,-69.007 88.724,-69.007 6.1614,0 29.575,13.555 34.504,25.878 4.9291,12.323 20.949,39.433 28.342,43.13 7.3936,3.6968 50.523,24.645 61.614,24.645 11.09,0 4.9291,-20.949 4.9291,-20.949 0,0 34.504,14.787 40.665,13.555 6.1614,-1.2323 1.2323,-8.6259 7.3936,-7.3936 6.1614,1.2323 17.252,11.09 30.807,4.9291 13.555,-6.1614 -2.4646,-14.787 14.787,-19.716 17.252,-4.9291 14.787,2.4646 23.413,-3.6968 8.6259,-6.1614 -8.6259,-4.9291 9.8582,-6.1614 18.4841,-1.2323 18.484,-1.2323 19.716,-7.3936 1.2323,-6.1614 -12.323,-4.9291 8.6259,-6.1614 20.9489,-1.2323 22.181,2.4646 32.039,-1.2323 9.8582,-3.6968 -7.3936,-8.6259 9.8582,-6.1614 17.2518,2.4645 8.6259,11.09 25.878,3.6968 17.252,-7.3936 34.504,-17.252 38.2,-20.949 3.6968,-3.6968 4.9291,-7.3936 4.9291,-7.3936 0,0 -27.11,3.6968 -36.968,-2.4646 -9.8582,-6.1614 -18.484,-12.323 -18.484,-12.323 0,0 -7.3936,2.4646 -12.323,-2.4646 -4.9291,-4.9291 -9.8582,-12.323 -9.8582,-12.323 l -14.787,-2.4646 -11.09,-11.09 c 0,0 -13.555,-7.3936 -19.716,-9.8582 -6.1614,-2.4646 6.1614,-8.6259 0,-12.323 -6.1614,-3.6968 -18.484,-7.3936 -23.413,-11.09 -4.9291,-3.6968 -4.9291,-4.9291 -4.9291,-4.9291 l 19.755,-24.996 -4.9676,-11.973 c 0,0 18.484,-2.4646 27.11,-20.949 8.6259,-18.484 8.6259,-32.039 8.6259,-32.039 l -13.555,-6.1614 12.323,-29.575 -6.7775,-2.4646 c 0,0 9.242,-12.323 8.0098,-17.252 -1.2323,-4.9291 -3.6968,-8.6259 -3.6968,-8.6259 0,0 17.252,-27.11 17.252,-29.575 0,-2.4645 -4.9291,-6.1614 -1.8484,-11.09 3.0807,-4.9291 0.61614,-0.61614 9.2421,-6.7775 8.6259,-6.1614 2.4646,-13.555 7.3936,-21.565 4.9291,-8.0098 3.6968,-8.0098 7.3936,-16.636 3.6968,-8.6259 8.6259,-15.403 8.6259,-24.029 v -14.787 c 0,0 -50.523,57.917 -54.22,57.917 -3.6968,0 -4.313,2.4646 -7.3936,-1.2323 -3.0807,-3.6968 -3.6968,-3.6968 -3.6968,-3.6968 0,0 -22.181,20.949 -27.726,20.949 -5.5452,0 -4.313,-6.7775 -9.2421,-8.6259 -4.9291,-1.8484 -3.0807,-1.8484 -15.403,4.9291 -12.323,6.7775 3.0807,11.707 -6.1614,9.8582 -9.2421,-1.8484 -4.313,-7.3936 -11.09,-4.313 -6.7775,3.0807 -9.242,1.8484 -16.636,8.0098 -7.3936,6.1614 -7.3936,9.242 -7.3936,6.1614 0,-3.0807 -7.3936,-26.494 -7.3936,-26.494 0,0 -30.191,8.6259 -37.584,16.02 -7.3936,7.3936 -12.323,12.939 -12.323,14.787 0,1.8484 -2.4645,4.9291 -2.4645,4.9291 0,0 -4.313,-4.9291 -7.3936,-4.9291 -3.0807,0 0,-6.7775 -13.555,3.0807 -13.555,9.8582 -30.191,17.252 -30.191,20.333 0,3.0807 2.4645,5.5452 0,3.0807 -2.4646,-2.4646 -20.949,-38.817 -20.949,-38.817 l -3.6968,1.8484 c 0,0 -4.9291,-28.958 -8.6259,-35.736 -3.6968,-6.7775 -6.7775,-1.8484 -6.7775,-12.323 v -18.484 c 0,-10.474 -3.6968,-22.797 -3.6968,-22.797 0,0 -28.958,43.746 -35.736,54.836 -6.7775,11.09 -5.5452,17.252 -5.5452,17.252 l -5.5452,-1.2323 c 0,0 -6.7775,-1.8484 -11.09,10.474 -4.313,12.323 -10.474,35.12 -11.707,38.817 -1.2323,3.6968 -1.2323,5.5452 -3.6968,5.5452 -2.4646,0 -2.4646,-4.313 -4.9291,-3.0807 -2.4646,1.2323 -8.0098,-0.61614 -8.6259,8.0098 -0.61614,8.6259 6.7775,67.159 4.313,72.704 -2.4646,5.5452 -3.6968,5.5452 -3.6968,5.5452 0,0 -11.707,-3.6968 -12.323,-0.61614 -0.61613,3.0807 -8.0098,9.242 -3.0807,15.403 4.9291,6.1614 11.09,14.787 11.09,14.787 h -8.6259 c 0,0 26.494,31.423 21.565,34.504 -4.9291,3.0807 -5.5452,-0.61613 -7.3936,5.5452 -1.8484,6.1614 3.6968,14.171 9.8582,19.716 6.1614,5.5452 44.978,44.978 44.978,44.978 l -0.61613,6.7775 c 0,0 -140.48,104.13 -140.48,106.59 0,2.4646 -83.795,79.482 -86.259,86.875 -2.4645,7.3936 -6.1614,19.1 -5.5452,17.868 z" /><path
           id="path3895"
           d="m 246.1,347.21 c 0,0 -7.9817,-53.212 -11.973,-81.148 -3.9909,-27.936 -15.963,-18.624 -3.9909,-51.881 11.973,-33.257 5.3212,-73.166 9.312,-87.799 3.9909,-14.633 25.275,-115.74 25.275,-115.74"
           style="fill:#552200;stroke:#000000;stroke-width:3"
           transform="translate(51.402,93.984)" /><path
           id="path3897"
           d="m 400.42,214.18 c 0,0 34.588,9.312 61.193,-1.3303 26.606,-10.642 45.23,-3.9909 54.542,-7.9817 9.312,-3.9909 15.963,-7.9817 15.963,-7.9817"
           style="fill:#552200;stroke:#000000;stroke-width:1px"
           transform="translate(51.402,93.984)" /><path
           id="path3899"
           sodipodi:nodetypes="cssc"
           d="m 358.54,236.9 c 0,0 -21.979,-20.062 -8.6766,-50.659 13.303,-30.597 21.285,-27.936 30.597,-50.551 9.312,-22.615 30.597,-59.863 30.597,-59.863"
           style="fill:#552200;stroke:#000000;stroke-width:1px"
           transform="translate(51.402,93.984)" /><path
           id="path3901"
           style="fill:#552200;stroke:#000000;stroke-width:1px"
           d="m 333.79,419.74 c 0,0 -14.633,-17.294 -2.6606,-42.569 11.973,-25.275 15.963,-25.275 11.973,-38.578 -3.9909,-13.303 -6.6514,-63.854 -6.6514,-63.854" /><path
           id="path3903"
           d="m 305.97,295.32 c 0,0 55.872,15.963 71.836,9.312 15.963,-6.6514 23.945,-18.624 45.23,-25.275 21.285,-6.6514 18.624,0 29.266,1.3303 10.642,1.3303 15.963,2.6606 15.963,2.6606"
           style="fill:#552200;stroke:#000000;stroke-width:1px"
           transform="translate(51.402,93.984)" /><path
           id="path3905"
           style="fill:#552200;stroke:#000000;stroke-width:1px"
           transform="matrix(2.6688,0,0,2.6688,51.402,-722)"
           d="m 235.95,445.12 c 0,0 -39.538,7.6525 -58.669,3.1886 -19.131,-4.464 -61.858,-8.928 -66.96,-9.5657 -5.1017,-0.63771 -14.667,-3.1886 -14.667,-3.1886" /><path
           id="path3907"
           style="fill:#552200;stroke:#000000;stroke-width:1px"
           transform="matrix(2.6688,0,0,2.6688,51.402,-722)"
           d="m 90.555,437.47 c 0,0 15.943,-6.3771 22.32,-17.218 6.3771,-10.841 0.63771,-12.754 14.03,-21.044 13.392,-8.2902 19.769,-8.928 23.595,-14.03 3.8263,-5.1017 35.074,-36.987 40.814,-43.364 5.7394,-6.3771 11.479,-5.1017 14.03,-10.203 2.5508,-5.1017 11.479,-19.769 11.479,-19.769" /></g><g
         id="g3909"
         style="fill:#ff9955"
         transform="matrix(-0.13247,-0.35051,-0.35051,0.13247,627.43,326.86)"><path
           id="path3911"
           sodipodi:nodetypes="ccsssssscsssssssssssscscscccssscccsccccscsssssscsscssssssscsscssssccssscsccsssssscssccsssccssc"
           style="fill:#ff9955;stroke:#000000;stroke-width:5.5"
           d="m 54.22,658.03 18.484,1.2323 c 0,0 -1.2323,-8.6259 7.3936,-19.716 8.6259,-11.0901 103.51,-101.05 123.23,-117.07 19.716,-16.02 82.562,-69.007 88.724,-69.007 6.1614,0 29.575,13.555 34.504,25.878 4.9291,12.323 20.949,39.433 28.342,43.13 7.3936,3.6968 50.523,24.645 61.614,24.645 11.09,0 4.9291,-20.949 4.9291,-20.949 0,0 34.504,14.787 40.665,13.555 6.1614,-1.2323 1.2323,-8.6259 7.3936,-7.3936 6.1614,1.2323 17.252,11.09 30.807,4.9291 13.555,-6.1614 -2.4646,-14.787 14.787,-19.716 17.252,-4.9291 14.787,2.4646 23.413,-3.6968 8.6259,-6.1614 -8.6259,-4.9291 9.8582,-6.1614 18.4841,-1.2323 18.484,-1.2323 19.716,-7.3936 1.2323,-6.1614 -12.323,-4.9291 8.6259,-6.1614 20.9489,-1.2323 22.181,2.4646 32.039,-1.2323 9.8582,-3.6968 -7.3936,-8.6259 9.8582,-6.1614 17.2518,2.4645 8.6259,11.09 25.878,3.6968 17.252,-7.3936 34.504,-17.252 38.2,-20.949 3.6968,-3.6968 4.9291,-7.3936 4.9291,-7.3936 0,0 -27.11,3.6968 -36.968,-2.4646 -9.8582,-6.1614 -18.484,-12.323 -18.484,-12.323 0,0 -7.3936,2.4646 -12.323,-2.4646 -4.9291,-4.9291 -9.8582,-12.323 -9.8582,-12.323 l -14.787,-2.4646 -11.09,-11.09 c 0,0 -13.555,-7.3936 -19.716,-9.8582 -6.1614,-2.4646 6.1614,-8.6259 0,-12.323 -6.1614,-3.6968 -18.484,-7.3936 -23.413,-11.09 -4.9291,-3.6968 -4.9291,-4.9291 -4.9291,-4.9291 l 19.755,-24.996 -4.9676,-11.973 c 0,0 18.484,-2.4646 27.11,-20.949 8.6259,-18.484 8.6259,-32.039 8.6259,-32.039 l -13.555,-6.1614 12.323,-29.575 -6.7775,-2.4646 c 0,0 9.242,-12.323 8.0098,-17.252 -1.2323,-4.9291 -3.6968,-8.6259 -3.6968,-8.6259 0,0 17.252,-27.11 17.252,-29.575 0,-2.4645 -4.9291,-6.1614 -1.8484,-11.09 3.0807,-4.9291 0.61614,-0.61614 9.2421,-6.7775 8.6259,-6.1614 2.4646,-13.555 7.3936,-21.565 4.9291,-8.0098 3.6968,-8.0098 7.3936,-16.636 3.6968,-8.6259 8.6259,-15.403 8.6259,-24.029 v -14.787 c 0,0 -50.523,57.917 -54.22,57.917 -3.6968,0 -4.313,2.4646 -7.3936,-1.2323 -3.0807,-3.6968 -3.6968,-3.6968 -3.6968,-3.6968 0,0 -22.181,20.949 -27.726,20.949 -5.5452,0 -4.313,-6.7775 -9.2421,-8.6259 -4.9291,-1.8484 -3.0807,-1.8484 -15.403,4.9291 -12.323,6.7775 3.0807,11.707 -6.1614,9.8582 -9.2421,-1.8484 -4.313,-7.3936 -11.09,-4.313 -6.7775,3.0807 -9.242,1.8484 -16.636,8.0098 -7.3936,6.1614 -7.3936,9.242 -7.3936,6.1614 0,-3.0807 -7.3936,-26.494 -7.3936,-26.494 0,0 -30.191,8.6259 -37.584,16.02 -7.3936,7.3936 -12.323,12.939 -12.323,14.787 0,1.8484 -2.4645,4.9291 -2.4645,4.9291 0,0 -4.313,-4.9291 -7.3936,-4.9291 -3.0807,0 0,-6.7775 -13.555,3.0807 -13.555,9.8582 -30.191,17.252 -30.191,20.333 0,3.0807 2.4645,5.5452 0,3.0807 -2.4646,-2.4646 -20.949,-38.817 -20.949,-38.817 l -3.6968,1.8484 c 0,0 -4.9291,-28.958 -8.6259,-35.736 -3.6968,-6.7775 -6.7775,-1.8484 -6.7775,-12.323 v -18.484 c 0,-10.474 -3.6968,-22.797 -3.6968,-22.797 0,0 -28.958,43.746 -35.736,54.836 -6.7775,11.09 -5.5452,17.252 -5.5452,17.252 l -5.5452,-1.2323 c 0,0 -6.7775,-1.8484 -11.09,10.474 -4.313,12.323 -10.474,35.12 -11.707,38.817 -1.2323,3.6968 -1.2323,5.5452 -3.6968,5.5452 -2.4646,0 -2.4646,-4.313 -4.9291,-3.0807 -2.4646,1.2323 -8.0098,-0.61614 -8.6259,8.0098 -0.61614,8.6259 6.7775,67.159 4.313,72.704 -2.4646,5.5452 -3.6968,5.5452 -3.6968,5.5452 0,0 -11.707,-3.6968 -12.323,-0.61614 -0.61613,3.0807 -8.0098,9.242 -3.0807,15.403 4.9291,6.1614 11.09,14.787 11.09,14.787 h -8.6259 c 0,0 26.494,31.423 21.565,34.504 -4.9291,3.0807 -5.5452,-0.61613 -7.3936,5.5452 -1.8484,6.1614 3.6968,14.171 9.8582,19.716 6.1614,5.5452 44.978,44.978 44.978,44.978 l -0.61613,6.7775 c 0,0 -140.48,104.13 -140.48,106.59 0,2.4646 -83.795,79.482 -86.259,86.875 -2.4645,7.3936 -6.1614,19.1 -5.5452,17.868 z" /><path
           id="path3913"
           style="fill:#ff9955;stroke:#000000;stroke-width:3"
           transform="translate(51.402,93.984)"
           d="m 246.1,347.21 c 0,0 -7.9817,-53.212 -11.973,-81.148 -3.9909,-27.936 -15.963,-18.624 -3.9909,-51.881 11.973,-33.257 5.3212,-73.166 9.312,-87.799 3.9909,-14.633 25.275,-115.74 25.275,-115.74" /><path
           id="path3915"
           style="fill:#ff9955;stroke:#000000;stroke-width:1px"
           transform="translate(51.402,93.984)"
           d="m 400.42,214.18 c 0,0 34.588,9.312 61.193,-1.3303 26.606,-10.642 45.23,-3.9909 54.542,-7.9817 9.312,-3.9909 15.963,-7.9817 15.963,-7.9817" /><path
           id="path3917"
           sodipodi:nodetypes="cssc"
           transform="translate(51.402,93.984)"
           style="fill:#ff9955;stroke:#000000;stroke-width:1px"
           d="m 358.54,236.9 c 0,0 -21.979,-20.062 -8.6766,-50.659 13.303,-30.597 21.285,-27.936 30.597,-50.551 9.312,-22.615 30.597,-59.863 30.597,-59.863" /><path
           id="path3919"
           style="fill:#ff9955;stroke:#000000;stroke-width:1px"
           d="m 333.79,419.74 c 0,0 -14.633,-17.294 -2.6606,-42.569 11.973,-25.275 15.963,-25.275 11.973,-38.578 -3.9909,-13.303 -6.6514,-63.854 -6.6514,-63.854" /><path
           id="path3921"
           style="fill:#ff9955;stroke:#000000;stroke-width:1px"
           transform="translate(51.402,93.984)"
           d="m 305.97,295.32 c 0,0 55.872,15.963 71.836,9.312 15.963,-6.6514 23.945,-18.624 45.23,-25.275 21.285,-6.6514 18.624,0 29.266,1.3303 10.642,1.3303 15.963,2.6606 15.963,2.6606" /><path
           id="path3923"
           d="m 235.95,445.12 c 0,0 -39.538,7.6525 -58.669,3.1886 -19.131,-4.464 -61.858,-8.928 -66.96,-9.5657 -5.1017,-0.63771 -14.667,-3.1886 -14.667,-3.1886"
           style="fill:#ff9955;stroke:#000000;stroke-width:1px"
           transform="matrix(2.6688,0,0,2.6688,51.402,-722)" /><path
           id="path3925"
           d="m 90.555,437.47 c 0,0 15.943,-6.3771 22.32,-17.218 6.3771,-10.841 0.63771,-12.754 14.03,-21.044 13.392,-8.2902 19.769,-8.928 23.595,-14.03 3.8263,-5.1017 35.074,-36.987 40.814,-43.364 5.7394,-6.3771 11.479,-5.1017 14.03,-10.203 2.5508,-5.1017 11.479,-19.769 11.479,-19.769"
           style="fill:#ff9955;stroke:#000000;stroke-width:1px"
           transform="matrix(2.6688,0,0,2.6688,51.402,-722)" /></g><g
         id="g3927"
         style="fill:#d45500"
         transform="matrix(-0.37471,0,0,0.37471,630.7,253.25)"><path
           id="path3929"
           sodipodi:nodetypes="ccsssssscsssssssssssscscscccssscccsccccscsssssscsscssssssscsscssssccssscsccsssssscssccsssccssc"
           style="fill:#d45500;stroke:#000000;stroke-width:5.5"
           d="m 54.22,658.03 18.484,1.2323 c 0,0 -1.2323,-8.6259 7.3936,-19.716 8.6259,-11.0901 103.51,-101.05 123.23,-117.07 19.716,-16.02 82.562,-69.007 88.724,-69.007 6.1614,0 29.575,13.555 34.504,25.878 4.9291,12.323 20.949,39.433 28.342,43.13 7.3936,3.6968 50.523,24.645 61.614,24.645 11.09,0 4.9291,-20.949 4.9291,-20.949 0,0 34.504,14.787 40.665,13.555 6.1614,-1.2323 1.2323,-8.6259 7.3936,-7.3936 6.1614,1.2323 17.252,11.09 30.807,4.9291 13.555,-6.1614 -2.4646,-14.787 14.787,-19.716 17.252,-4.9291 14.787,2.4646 23.413,-3.6968 8.6259,-6.1614 -8.6259,-4.9291 9.8582,-6.1614 18.4841,-1.2323 18.484,-1.2323 19.716,-7.3936 1.2323,-6.1614 -12.323,-4.9291 8.6259,-6.1614 20.9489,-1.2323 22.181,2.4646 32.039,-1.2323 9.8582,-3.6968 -7.3936,-8.6259 9.8582,-6.1614 17.2518,2.4645 8.6259,11.09 25.878,3.6968 17.252,-7.3936 34.504,-17.252 38.2,-20.949 3.6968,-3.6968 4.9291,-7.3936 4.9291,-7.3936 0,0 -27.11,3.6968 -36.968,-2.4646 -9.8582,-6.1614 -18.484,-12.323 -18.484,-12.323 0,0 -7.3936,2.4646 -12.323,-2.4646 -4.9291,-4.9291 -9.8582,-12.323 -9.8582,-12.323 l -14.787,-2.4646 -11.09,-11.09 c 0,0 -13.555,-7.3936 -19.716,-9.8582 -6.1614,-2.4646 6.1614,-8.6259 0,-12.323 -6.1614,-3.6968 -18.484,-7.3936 -23.413,-11.09 -4.9291,-3.6968 -4.9291,-4.9291 -4.9291,-4.9291 l 19.755,-24.996 -4.9676,-11.973 c 0,0 18.484,-2.4646 27.11,-20.949 8.6259,-18.484 8.6259,-32.039 8.6259,-32.039 l -13.555,-6.1614 12.323,-29.575 -6.7775,-2.4646 c 0,0 9.242,-12.323 8.0098,-17.252 -1.2323,-4.9291 -3.6968,-8.6259 -3.6968,-8.6259 0,0 17.252,-27.11 17.252,-29.575 0,-2.4645 -4.9291,-6.1614 -1.8484,-11.09 3.0807,-4.9291 0.61614,-0.61614 9.2421,-6.7775 8.6259,-6.1614 2.4646,-13.555 7.3936,-21.565 4.9291,-8.0098 3.6968,-8.0098 7.3936,-16.636 3.6968,-8.6259 8.6259,-15.403 8.6259,-24.029 v -14.787 c 0,0 -50.523,57.917 -54.22,57.917 -3.6968,0 -4.313,2.4646 -7.3936,-1.2323 -3.0807,-3.6968 -3.6968,-3.6968 -3.6968,-3.6968 0,0 -22.181,20.949 -27.726,20.949 -5.5452,0 -4.313,-6.7775 -9.2421,-8.6259 -4.9291,-1.8484 -3.0807,-1.8484 -15.403,4.9291 -12.323,6.7775 3.0807,11.707 -6.1614,9.8582 -9.2421,-1.8484 -4.313,-7.3936 -11.09,-4.313 -6.7775,3.0807 -9.242,1.8484 -16.636,8.0098 -7.3936,6.1614 -7.3936,9.242 -7.3936,6.1614 0,-3.0807 -7.3936,-26.494 -7.3936,-26.494 0,0 -30.191,8.6259 -37.584,16.02 -7.3936,7.3936 -12.323,12.939 -12.323,14.787 0,1.8484 -2.4645,4.9291 -2.4645,4.9291 0,0 -4.313,-4.9291 -7.3936,-4.9291 -3.0807,0 0,-6.7775 -13.555,3.0807 -13.555,9.8582 -30.191,17.252 -30.191,20.333 0,3.0807 2.4645,5.5452 0,3.0807 -2.4646,-2.4646 -20.949,-38.817 -20.949,-38.817 l -3.6968,1.8484 c 0,0 -4.9291,-28.958 -8.6259,-35.736 -3.6968,-6.7775 -6.7775,-1.8484 -6.7775,-12.323 v -18.484 c 0,-10.474 -3.6968,-22.797 -3.6968,-22.797 0,0 -28.958,43.746 -35.736,54.836 -6.7775,11.09 -5.5452,17.252 -5.5452,17.252 l -5.5452,-1.2323 c 0,0 -6.7775,-1.8484 -11.09,10.474 -4.313,12.323 -10.474,35.12 -11.707,38.817 -1.2323,3.6968 -1.2323,5.5452 -3.6968,5.5452 -2.4646,0 -2.4646,-4.313 -4.9291,-3.0807 -2.4646,1.2323 -8.0098,-0.61614 -8.6259,8.0098 -0.61614,8.6259 6.7775,67.159 4.313,72.704 -2.4646,5.5452 -3.6968,5.5452 -3.6968,5.5452 0,0 -11.707,-3.6968 -12.323,-0.61614 -0.61613,3.0807 -8.0098,9.242 -3.0807,15.403 4.9291,6.1614 11.09,14.787 11.09,14.787 h -8.6259 c 0,0 26.494,31.423 21.565,34.504 -4.9291,3.0807 -5.5452,-0.61613 -7.3936,5.5452 -1.8484,6.1614 3.6968,14.171 9.8582,19.716 6.1614,5.5452 44.978,44.978 44.978,44.978 l -0.61613,6.7775 c 0,0 -140.48,104.13 -140.48,106.59 0,2.4646 -83.795,79.482 -86.259,86.875 -2.4645,7.3936 -6.1614,19.1 -5.5452,17.868 z" /><path
           id="path3931"
           d="m 246.1,347.21 c 0,0 -7.9817,-53.212 -11.973,-81.148 -3.9909,-27.936 -15.963,-18.624 -3.9909,-51.881 11.973,-33.257 5.3212,-73.166 9.312,-87.799 3.9909,-14.633 25.275,-115.74 25.275,-115.74"
           style="fill:#d45500;stroke:#000000;stroke-width:3"
           transform="translate(51.402,93.984)" /><path
           id="path3933"
           d="m 400.42,214.18 c 0,0 34.588,9.312 61.193,-1.3303 26.606,-10.642 45.23,-3.9909 54.542,-7.9817 9.312,-3.9909 15.963,-7.9817 15.963,-7.9817"
           style="fill:#d45500;stroke:#000000;stroke-width:1px"
           transform="translate(51.402,93.984)" /><path
           id="path3935"
           sodipodi:nodetypes="cssc"
           d="m 358.54,236.9 c 0,0 -21.979,-20.062 -8.6766,-50.659 13.303,-30.597 21.285,-27.936 30.597,-50.551 9.312,-22.615 30.597,-59.863 30.597,-59.863"
           style="fill:#d45500;stroke:#000000;stroke-width:1px"
           transform="translate(51.402,93.984)" /><path
           id="path3937"
           style="fill:#d45500;stroke:#000000;stroke-width:1px"
           d="m 333.79,419.74 c 0,0 -14.633,-17.294 -2.6606,-42.569 11.973,-25.275 15.963,-25.275 11.973,-38.578 -3.9909,-13.303 -6.6514,-63.854 -6.6514,-63.854" /><path
           id="path3939"
           d="m 305.97,295.32 c 0,0 55.872,15.963 71.836,9.312 15.963,-6.6514 23.945,-18.624 45.23,-25.275 21.285,-6.6514 18.624,0 29.266,1.3303 10.642,1.3303 15.963,2.6606 15.963,2.6606"
           style="fill:#d45500;stroke:#000000;stroke-width:1px"
           transform="translate(51.402,93.984)" /><path
           id="path3941"
           style="fill:#d45500;stroke:#000000;stroke-width:1px"
           transform="matrix(2.6688,0,0,2.6688,51.402,-722)"
           d="m 235.95,445.12 c 0,0 -39.538,7.6525 -58.669,3.1886 -19.131,-4.464 -61.858,-8.928 -66.96,-9.5657 -5.1017,-0.63771 -14.667,-3.1886 -14.667,-3.1886" /><path
           id="path3943"
           style="fill:#d45500;stroke:#000000;stroke-width:1px"
           transform="matrix(2.6688,0,0,2.6688,51.402,-722)"
           d="m 90.555,437.47 c 0,0 15.943,-6.3771 22.32,-17.218 6.3771,-10.841 0.63771,-12.754 14.03,-21.044 13.392,-8.2902 19.769,-8.928 23.595,-14.03 3.8263,-5.1017 35.074,-36.987 40.814,-43.364 5.7394,-6.3771 11.479,-5.1017 14.03,-10.203 2.5508,-5.1017 11.479,-19.769 11.479,-19.769" /></g><g
         id="g3945"
         style="fill:#803300"
         transform="matrix(-0.25174,0.27755,0.27755,0.25174,528.51,294.09)"><path
           id="path3947"
           sodipodi:nodetypes="ccsssssscsssssssssssscscscccssscccsccccscsssssscsscssssssscsscssssccssscsccsssssscssccsssccssc"
           style="fill:#803300;stroke:#000000;stroke-width:5.5"
           d="m 54.22,658.03 18.484,1.2323 c 0,0 -1.2323,-8.6259 7.3936,-19.716 8.6259,-11.0901 103.51,-101.05 123.23,-117.07 19.716,-16.02 82.562,-69.007 88.724,-69.007 6.1614,0 29.575,13.555 34.504,25.878 4.9291,12.323 20.949,39.433 28.342,43.13 7.3936,3.6968 50.523,24.645 61.614,24.645 11.09,0 4.9291,-20.949 4.9291,-20.949 0,0 34.504,14.787 40.665,13.555 6.1614,-1.2323 1.2323,-8.6259 7.3936,-7.3936 6.1614,1.2323 17.252,11.09 30.807,4.9291 13.555,-6.1614 -2.4646,-14.787 14.787,-19.716 17.252,-4.9291 14.787,2.4646 23.413,-3.6968 8.6259,-6.1614 -8.6259,-4.9291 9.8582,-6.1614 18.4841,-1.2323 18.484,-1.2323 19.716,-7.3936 1.2323,-6.1614 -12.323,-4.9291 8.6259,-6.1614 20.9489,-1.2323 22.181,2.4646 32.039,-1.2323 9.8582,-3.6968 -7.3936,-8.6259 9.8582,-6.1614 17.2518,2.4645 8.6259,11.09 25.878,3.6968 17.252,-7.3936 34.504,-17.252 38.2,-20.949 3.6968,-3.6968 4.9291,-7.3936 4.9291,-7.3936 0,0 -27.11,3.6968 -36.968,-2.4646 -9.8582,-6.1614 -18.484,-12.323 -18.484,-12.323 0,0 -7.3936,2.4646 -12.323,-2.4646 -4.9291,-4.9291 -9.8582,-12.323 -9.8582,-12.323 l -14.787,-2.4646 -11.09,-11.09 c 0,0 -13.555,-7.3936 -19.716,-9.8582 -6.1614,-2.4646 6.1614,-8.6259 0,-12.323 -6.1614,-3.6968 -18.484,-7.3936 -23.413,-11.09 -4.9291,-3.6968 -4.9291,-4.9291 -4.9291,-4.9291 l 19.755,-24.996 -4.9676,-11.973 c 0,0 18.484,-2.4646 27.11,-20.949 8.6259,-18.484 8.6259,-32.039 8.6259,-32.039 l -13.555,-6.1614 12.323,-29.575 -6.7775,-2.4646 c 0,0 9.242,-12.323 8.0098,-17.252 -1.2323,-4.9291 -3.6968,-8.6259 -3.6968,-8.6259 0,0 17.252,-27.11 17.252,-29.575 0,-2.4645 -4.9291,-6.1614 -1.8484,-11.09 3.0807,-4.9291 0.61614,-0.61614 9.2421,-6.7775 8.6259,-6.1614 2.4646,-13.555 7.3936,-21.565 4.9291,-8.0098 3.6968,-8.0098 7.3936,-16.636 3.6968,-8.6259 8.6259,-15.403 8.6259,-24.029 v -14.787 c 0,0 -50.523,57.917 -54.22,57.917 -3.6968,0 -4.313,2.4646 -7.3936,-1.2323 -3.0807,-3.6968 -3.6968,-3.6968 -3.6968,-3.6968 0,0 -22.181,20.949 -27.726,20.949 -5.5452,0 -4.313,-6.7775 -9.2421,-8.6259 -4.9291,-1.8484 -3.0807,-1.8484 -15.403,4.9291 -12.323,6.7775 3.0807,11.707 -6.1614,9.8582 -9.2421,-1.8484 -4.313,-7.3936 -11.09,-4.313 -6.7775,3.0807 -9.242,1.8484 -16.636,8.0098 -7.3936,6.1614 -7.3936,9.242 -7.3936,6.1614 0,-3.0807 -7.3936,-26.494 -7.3936,-26.494 0,0 -30.191,8.6259 -37.584,16.02 -7.3936,7.3936 -12.323,12.939 -12.323,14.787 0,1.8484 -2.4645,4.9291 -2.4645,4.9291 0,0 -4.313,-4.9291 -7.3936,-4.9291 -3.0807,0 0,-6.7775 -13.555,3.0807 -13.555,9.8582 -30.191,17.252 -30.191,20.333 0,3.0807 2.4645,5.5452 0,3.0807 -2.4646,-2.4646 -20.949,-38.817 -20.949,-38.817 l -3.6968,1.8484 c 0,0 -4.9291,-28.958 -8.6259,-35.736 -3.6968,-6.7775 -6.7775,-1.8484 -6.7775,-12.323 v -18.484 c 0,-10.474 -3.6968,-22.797 -3.6968,-22.797 0,0 -28.958,43.746 -35.736,54.836 -6.7775,11.09 -5.5452,17.252 -5.5452,17.252 l -5.5452,-1.2323 c 0,0 -6.7775,-1.8484 -11.09,10.474 -4.313,12.323 -10.474,35.12 -11.707,38.817 -1.2323,3.6968 -1.2323,5.5452 -3.6968,5.5452 -2.4646,0 -2.4646,-4.313 -4.9291,-3.0807 -2.4646,1.2323 -8.0098,-0.61614 -8.6259,8.0098 -0.61614,8.6259 6.7775,67.159 4.313,72.704 -2.4646,5.5452 -3.6968,5.5452 -3.6968,5.5452 0,0 -11.707,-3.6968 -12.323,-0.61614 -0.61613,3.0807 -8.0098,9.242 -3.0807,15.403 4.9291,6.1614 11.09,14.787 11.09,14.787 h -8.6259 c 0,0 26.494,31.423 21.565,34.504 -4.9291,3.0807 -5.5452,-0.61613 -7.3936,5.5452 -1.8484,6.1614 3.6968,14.171 9.8582,19.716 6.1614,5.5452 44.978,44.978 44.978,44.978 l -0.61613,6.7775 c 0,0 -140.48,104.13 -140.48,106.59 0,2.4646 -83.795,79.482 -86.259,86.875 -2.4645,7.3936 -6.1614,19.1 -5.5452,17.868 z" /><path
           id="path3949"
           style="fill:#803300;stroke:#000000;stroke-width:3"
           transform="translate(51.402,93.984)"
           d="m 246.1,347.21 c 0,0 -7.9817,-53.212 -11.973,-81.148 -3.9909,-27.936 -15.963,-18.624 -3.9909,-51.881 11.973,-33.257 5.3212,-73.166 9.312,-87.799 3.9909,-14.633 25.275,-115.74 25.275,-115.74" /><path
           id="path3951"
           style="fill:#803300;stroke:#000000;stroke-width:1px"
           transform="translate(51.402,93.984)"
           d="m 400.42,214.18 c 0,0 34.588,9.312 61.193,-1.3303 26.606,-10.642 45.23,-3.9909 54.542,-7.9817 9.312,-3.9909 15.963,-7.9817 15.963,-7.9817" /><path
           id="path3953"
           sodipodi:nodetypes="cssc"
           transform="translate(51.402,93.984)"
           style="fill:#803300;stroke:#000000;stroke-width:1px"
           d="m 358.54,236.9 c 0,0 -21.979,-20.062 -8.6766,-50.659 13.303,-30.597 21.285,-27.936 30.597,-50.551 9.312,-22.615 30.597,-59.863 30.597,-59.863" /><path
           id="path3955"
           style="fill:#803300;stroke:#000000;stroke-width:1px"
           d="m 333.79,419.74 c 0,0 -14.633,-17.294 -2.6606,-42.569 11.973,-25.275 15.963,-25.275 11.973,-38.578 -3.9909,-13.303 -6.6514,-63.854 -6.6514,-63.854" /><path
           id="path3957"
           style="fill:#803300;stroke:#000000;stroke-width:1px"
           transform="translate(51.402,93.984)"
           d="m 305.97,295.32 c 0,0 55.872,15.963 71.836,9.312 15.963,-6.6514 23.945,-18.624 45.23,-25.275 21.285,-6.6514 18.624,0 29.266,1.3303 10.642,1.3303 15.963,2.6606 15.963,2.6606" /><path
           id="path3959"
           d="m 235.95,445.12 c 0,0 -39.538,7.6525 -58.669,3.1886 -19.131,-4.464 -61.858,-8.928 -66.96,-9.5657 -5.1017,-0.63771 -14.667,-3.1886 -14.667,-3.1886"
           style="fill:#803300;stroke:#000000;stroke-width:1px"
           transform="matrix(2.6688,0,0,2.6688,51.402,-722)" /><path
           id="path3961"
           d="m 90.555,437.47 c 0,0 15.943,-6.3771 22.32,-17.218 6.3771,-10.841 0.63771,-12.754 14.03,-21.044 13.392,-8.2902 19.769,-8.928 23.595,-14.03 3.8263,-5.1017 35.074,-36.987 40.814,-43.364 5.7394,-6.3771 11.479,-5.1017 14.03,-10.203 2.5508,-5.1017 11.479,-19.769 11.479,-19.769"
           style="fill:#803300;stroke:#000000;stroke-width:1px"
           transform="matrix(2.6688,0,0,2.6688,51.402,-722)" /></g><g
         id="g3963"
         style="fill:#aa4400"
         transform="matrix(-0.28877,-0.23879,-0.23879,0.28877,826.29,380.52)"><path
           id="path3965"
           sodipodi:nodetypes="ccsssssscsssssssssssscscscccssscccsccccscsssssscsscssssssscsscssssccssscsccsssssscssccsssccssc"
           style="fill:#aa4400;stroke:#000000;stroke-width:5.5"
           d="m 54.22,658.03 18.484,1.2323 c 0,0 -1.2323,-8.6259 7.3936,-19.716 8.6259,-11.0901 103.51,-101.05 123.23,-117.07 19.716,-16.02 82.562,-69.007 88.724,-69.007 6.1614,0 29.575,13.555 34.504,25.878 4.9291,12.323 20.949,39.433 28.342,43.13 7.3936,3.6968 50.523,24.645 61.614,24.645 11.09,0 4.9291,-20.949 4.9291,-20.949 0,0 34.504,14.787 40.665,13.555 6.1614,-1.2323 1.2323,-8.6259 7.3936,-7.3936 6.1614,1.2323 17.252,11.09 30.807,4.9291 13.555,-6.1614 -2.4646,-14.787 14.787,-19.716 17.252,-4.9291 14.787,2.4646 23.413,-3.6968 8.6259,-6.1614 -8.6259,-4.9291 9.8582,-6.1614 18.4841,-1.2323 18.484,-1.2323 19.716,-7.3936 1.2323,-6.1614 -12.323,-4.9291 8.6259,-6.1614 20.9489,-1.2323 22.181,2.4646 32.039,-1.2323 9.8582,-3.6968 -7.3936,-8.6259 9.8582,-6.1614 17.2518,2.4645 8.6259,11.09 25.878,3.6968 17.252,-7.3936 34.504,-17.252 38.2,-20.949 3.6968,-3.6968 4.9291,-7.3936 4.9291,-7.3936 0,0 -27.11,3.6968 -36.968,-2.4646 -9.8582,-6.1614 -18.484,-12.323 -18.484,-12.323 0,0 -7.3936,2.4646 -12.323,-2.4646 -4.9291,-4.9291 -9.8582,-12.323 -9.8582,-12.323 l -14.787,-2.4646 -11.09,-11.09 c 0,0 -13.555,-7.3936 -19.716,-9.8582 -6.1614,-2.4646 6.1614,-8.6259 0,-12.323 -6.1614,-3.6968 -18.484,-7.3936 -23.413,-11.09 -4.9291,-3.6968 -4.9291,-4.9291 -4.9291,-4.9291 l 19.755,-24.996 -4.9676,-11.973 c 0,0 18.484,-2.4646 27.11,-20.949 8.6259,-18.484 8.6259,-32.039 8.6259,-32.039 l -13.555,-6.1614 12.323,-29.575 -6.7775,-2.4646 c 0,0 9.242,-12.323 8.0098,-17.252 -1.2323,-4.9291 -3.6968,-8.6259 -3.6968,-8.6259 0,0 17.252,-27.11 17.252,-29.575 0,-2.4645 -4.9291,-6.1614 -1.8484,-11.09 3.0807,-4.9291 0.61614,-0.61614 9.2421,-6.7775 8.6259,-6.1614 2.4646,-13.555 7.3936,-21.565 4.9291,-8.0098 3.6968,-8.0098 7.3936,-16.636 3.6968,-8.6259 8.6259,-15.403 8.6259,-24.029 v -14.787 c 0,0 -50.523,57.917 -54.22,57.917 -3.6968,0 -4.313,2.4646 -7.3936,-1.2323 -3.0807,-3.6968 -3.6968,-3.6968 -3.6968,-3.6968 0,0 -22.181,20.949 -27.726,20.949 -5.5452,0 -4.313,-6.7775 -9.2421,-8.6259 -4.9291,-1.8484 -3.0807,-1.8484 -15.403,4.9291 -12.323,6.7775 3.0807,11.707 -6.1614,9.8582 -9.2421,-1.8484 -4.313,-7.3936 -11.09,-4.313 -6.7775,3.0807 -9.242,1.8484 -16.636,8.0098 -7.3936,6.1614 -7.3936,9.242 -7.3936,6.1614 0,-3.0807 -7.3936,-26.494 -7.3936,-26.494 0,0 -30.191,8.6259 -37.584,16.02 -7.3936,7.3936 -12.323,12.939 -12.323,14.787 0,1.8484 -2.4645,4.9291 -2.4645,4.9291 0,0 -4.313,-4.9291 -7.3936,-4.9291 -3.0807,0 0,-6.7775 -13.555,3.0807 -13.555,9.8582 -30.191,17.252 -30.191,20.333 0,3.0807 2.4645,5.5452 0,3.0807 -2.4646,-2.4646 -20.949,-38.817 -20.949,-38.817 l -3.6968,1.8484 c 0,0 -4.9291,-28.958 -8.6259,-35.736 -3.6968,-6.7775 -6.7775,-1.8484 -6.7775,-12.323 v -18.484 c 0,-10.474 -3.6968,-22.797 -3.6968,-22.797 0,0 -28.958,43.746 -35.736,54.836 -6.7775,11.09 -5.5452,17.252 -5.5452,17.252 l -5.5452,-1.2323 c 0,0 -6.7775,-1.8484 -11.09,10.474 -4.313,12.323 -10.474,35.12 -11.707,38.817 -1.2323,3.6968 -1.2323,5.5452 -3.6968,5.5452 -2.4646,0 -2.4646,-4.313 -4.9291,-3.0807 -2.4646,1.2323 -8.0098,-0.61614 -8.6259,8.0098 -0.61614,8.6259 6.7775,67.159 4.313,72.704 -2.4646,5.5452 -3.6968,5.5452 -3.6968,5.5452 0,0 -11.707,-3.6968 -12.323,-0.61614 -0.61613,3.0807 -8.0098,9.242 -3.0807,15.403 4.9291,6.1614 11.09,14.787 11.09,14.787 h -8.6259 c 0,0 26.494,31.423 21.565,34.504 -4.9291,3.0807 -5.5452,-0.61613 -7.3936,5.5452 -1.8484,6.1614 3.6968,14.171 9.8582,19.716 6.1614,5.5452 44.978,44.978 44.978,44.978 l -0.61613,6.7775 c 0,0 -140.48,104.13 -140.48,106.59 0,2.4646 -83.795,79.482 -86.259,86.875 -2.4645,7.3936 -6.1614,19.1 -5.5452,17.868 z" /><path
           id="path3967"
           d="m 246.1,347.21 c 0,0 -7.9817,-53.212 -11.973,-81.148 -3.9909,-27.936 -15.963,-18.624 -3.9909,-51.881 11.973,-33.257 5.3212,-73.166 9.312,-87.799 3.9909,-14.633 25.275,-115.74 25.275,-115.74"
           style="fill:#aa4400;stroke:#000000;stroke-width:3"
           transform="translate(51.402,93.984)" /><path
           id="path3969"
           d="m 400.42,214.18 c 0,0 34.588,9.312 61.193,-1.3303 26.606,-10.642 45.23,-3.9909 54.542,-7.9817 9.312,-3.9909 15.963,-7.9817 15.963,-7.9817"
           style="fill:#aa4400;stroke:#000000;stroke-width:1px"
           transform="translate(51.402,93.984)" /><path
           id="path3971"
           sodipodi:nodetypes="cssc"
           d="m 358.54,236.9 c 0,0 -21.979,-20.062 -8.6766,-50.659 13.303,-30.597 21.285,-27.936 30.597,-50.551 9.312,-22.615 30.597,-59.863 30.597,-59.863"
           style="fill:#aa4400;stroke:#000000;stroke-width:1px"
           transform="translate(51.402,93.984)" /><path
           id="path3973"
           style="fill:#aa4400;stroke:#000000;stroke-width:1px"
           d="m 333.79,419.74 c 0,0 -14.633,-17.294 -2.6606,-42.569 11.973,-25.275 15.963,-25.275 11.973,-38.578 -3.9909,-13.303 -6.6514,-63.854 -6.6514,-63.854" /><path
           id="path3975"
           d="m 305.97,295.32 c 0,0 55.872,15.963 71.836,9.312 15.963,-6.6514 23.945,-18.624 45.23,-25.275 21.285,-6.6514 18.624,0 29.266,1.3303 10.642,1.3303 15.963,2.6606 15.963,2.6606"
           style="fill:#aa4400;stroke:#000000;stroke-width:1px"
           transform="translate(51.402,93.984)" /><path
           id="path3977"
           style="fill:#aa4400;stroke:#000000;stroke-width:1px"
           transform="matrix(2.6688,0,0,2.6688,51.402,-722)"
           d="m 235.95,445.12 c 0,0 -39.538,7.6525 -58.669,3.1886 -19.131,-4.464 -61.858,-8.928 -66.96,-9.5657 -5.1017,-0.63771 -14.667,-3.1886 -14.667,-3.1886" /><path
           id="path3979"
           style="fill:#aa4400;stroke:#000000;stroke-width:1px"
           transform="matrix(2.6688,0,0,2.6688,51.402,-722)"
           d="m 90.555,437.47 c 0,0 15.943,-6.3771 22.32,-17.218 6.3771,-10.841 0.63771,-12.754 14.03,-21.044 13.392,-8.2902 19.769,-8.928 23.595,-14.03 3.8263,-5.1017 35.074,-36.987 40.814,-43.364 5.7394,-6.3771 11.479,-5.1017 14.03,-10.203 2.5508,-5.1017 11.479,-19.769 11.479,-19.769" /></g><g
         id="g3981"
         style="fill:#aa4400"
         transform="matrix(0.022395,-0.37404,-0.37404,-0.022395,729.72,688.53)"><path
           id="path3983"
           sodipodi:nodetypes="ccsssssscsssssssssssscscscccssscccsccccscsssssscsscssssssscsscssssccssscsccsssssscssccsssccssc"
           style="fill:#aa4400;stroke:#000000;stroke-width:5.5"
           d="m 54.22,658.03 18.484,1.2323 c 0,0 -1.2323,-8.6259 7.3936,-19.716 8.6259,-11.0901 103.51,-101.05 123.23,-117.07 19.716,-16.02 82.562,-69.007 88.724,-69.007 6.1614,0 29.575,13.555 34.504,25.878 4.9291,12.323 20.949,39.433 28.342,43.13 7.3936,3.6968 50.523,24.645 61.614,24.645 11.09,0 4.9291,-20.949 4.9291,-20.949 0,0 34.504,14.787 40.665,13.555 6.1614,-1.2323 1.2323,-8.6259 7.3936,-7.3936 6.1614,1.2323 17.252,11.09 30.807,4.9291 13.555,-6.1614 -2.4646,-14.787 14.787,-19.716 17.252,-4.9291 14.787,2.4646 23.413,-3.6968 8.6259,-6.1614 -8.6259,-4.9291 9.8582,-6.1614 18.4841,-1.2323 18.484,-1.2323 19.716,-7.3936 1.2323,-6.1614 -12.323,-4.9291 8.6259,-6.1614 20.9489,-1.2323 22.181,2.4646 32.039,-1.2323 9.8582,-3.6968 -7.3936,-8.6259 9.8582,-6.1614 17.2518,2.4645 8.6259,11.09 25.878,3.6968 17.252,-7.3936 34.504,-17.252 38.2,-20.949 3.6968,-3.6968 4.9291,-7.3936 4.9291,-7.3936 0,0 -27.11,3.6968 -36.968,-2.4646 -9.8582,-6.1614 -18.484,-12.323 -18.484,-12.323 0,0 -7.3936,2.4646 -12.323,-2.4646 -4.9291,-4.9291 -9.8582,-12.323 -9.8582,-12.323 l -14.787,-2.4646 -11.09,-11.09 c 0,0 -13.555,-7.3936 -19.716,-9.8582 -6.1614,-2.4646 6.1614,-8.6259 0,-12.323 -6.1614,-3.6968 -18.484,-7.3936 -23.413,-11.09 -4.9291,-3.6968 -4.9291,-4.9291 -4.9291,-4.9291 l 19.755,-24.996 -4.9676,-11.973 c 0,0 18.484,-2.4646 27.11,-20.949 8.6259,-18.484 8.6259,-32.039 8.6259,-32.039 l -13.555,-6.1614 12.323,-29.575 -6.7775,-2.4646 c 0,0 9.242,-12.323 8.0098,-17.252 -1.2323,-4.9291 -3.6968,-8.6259 -3.6968,-8.6259 0,0 17.252,-27.11 17.252,-29.575 0,-2.4645 -4.9291,-6.1614 -1.8484,-11.09 3.0807,-4.9291 0.61614,-0.61614 9.2421,-6.7775 8.6259,-6.1614 2.4646,-13.555 7.3936,-21.565 4.9291,-8.0098 3.6968,-8.0098 7.3936,-16.636 3.6968,-8.6259 8.6259,-15.403 8.6259,-24.029 v -14.787 c 0,0 -50.523,57.917 -54.22,57.917 -3.6968,0 -4.313,2.4646 -7.3936,-1.2323 -3.0807,-3.6968 -3.6968,-3.6968 -3.6968,-3.6968 0,0 -22.181,20.949 -27.726,20.949 -5.5452,0 -4.313,-6.7775 -9.2421,-8.6259 -4.9291,-1.8484 -3.0807,-1.8484 -15.403,4.9291 -12.323,6.7775 3.0807,11.707 -6.1614,9.8582 -9.2421,-1.8484 -4.313,-7.3936 -11.09,-4.313 -6.7775,3.0807 -9.242,1.8484 -16.636,8.0098 -7.3936,6.1614 -7.3936,9.242 -7.3936,6.1614 0,-3.0807 -7.3936,-26.494 -7.3936,-26.494 0,0 -30.191,8.6259 -37.584,16.02 -7.3936,7.3936 -12.323,12.939 -12.323,14.787 0,1.8484 -2.4645,4.9291 -2.4645,4.9291 0,0 -4.313,-4.9291 -7.3936,-4.9291 -3.0807,0 0,-6.7775 -13.555,3.0807 -13.555,9.8582 -30.191,17.252 -30.191,20.333 0,3.0807 2.4645,5.5452 0,3.0807 -2.4646,-2.4646 -20.949,-38.817 -20.949,-38.817 l -3.6968,1.8484 c 0,0 -4.9291,-28.958 -8.6259,-35.736 -3.6968,-6.7775 -6.7775,-1.8484 -6.7775,-12.323 v -18.484 c 0,-10.474 -3.6968,-22.797 -3.6968,-22.797 0,0 -28.958,43.746 -35.736,54.836 -6.7775,11.09 -5.5452,17.252 -5.5452,17.252 l -5.5452,-1.2323 c 0,0 -6.7775,-1.8484 -11.09,10.474 -4.313,12.323 -10.474,35.12 -11.707,38.817 -1.2323,3.6968 -1.2323,5.5452 -3.6968,5.5452 -2.4646,0 -2.4646,-4.313 -4.9291,-3.0807 -2.4646,1.2323 -8.0098,-0.61614 -8.6259,8.0098 -0.61614,8.6259 6.7775,67.159 4.313,72.704 -2.4646,5.5452 -3.6968,5.5452 -3.6968,5.5452 0,0 -11.707,-3.6968 -12.323,-0.61614 -0.61613,3.0807 -8.0098,9.242 -3.0807,15.403 4.9291,6.1614 11.09,14.787 11.09,14.787 h -8.6259 c 0,0 26.494,31.423 21.565,34.504 -4.9291,3.0807 -5.5452,-0.61613 -7.3936,5.5452 -1.8484,6.1614 3.6968,14.171 9.8582,19.716 6.1614,5.5452 44.978,44.978 44.978,44.978 l -0.61613,6.7775 c 0,0 -140.48,104.13 -140.48,106.59 0,2.4646 -83.795,79.482 -86.259,86.875 -2.4645,7.3936 -6.1614,19.1 -5.5452,17.868 z" /><path
           id="path3985"
           style="fill:#aa4400;stroke:#000000;stroke-width:3"
           transform="translate(51.402,93.984)"
           d="m 246.1,347.21 c 0,0 -7.9817,-53.212 -11.973,-81.148 -3.9909,-27.936 -15.963,-18.624 -3.9909,-51.881 11.973,-33.257 5.3212,-73.166 9.312,-87.799 3.9909,-14.633 25.275,-115.74 25.275,-115.74" /><path
           id="path3987"
           style="fill:#aa4400;stroke:#000000;stroke-width:1px"
           transform="translate(51.402,93.984)"
           d="m 400.42,214.18 c 0,0 34.588,9.312 61.193,-1.3303 26.606,-10.642 45.23,-3.9909 54.542,-7.9817 9.312,-3.9909 15.963,-7.9817 15.963,-7.9817" /><path
           id="path3989"
           sodipodi:nodetypes="cssc"
           transform="translate(51.402,93.984)"
           style="fill:#aa4400;stroke:#000000;stroke-width:1px"
           d="m 358.54,236.9 c 0,0 -21.979,-20.062 -8.6766,-50.659 13.303,-30.597 21.285,-27.936 30.597,-50.551 9.312,-22.615 30.597,-59.863 30.597,-59.863" /><path
           id="path3991"
           style="fill:#aa4400;stroke:#000000;stroke-width:1px"
           d="m 333.79,419.74 c 0,0 -14.633,-17.294 -2.6606,-42.569 11.973,-25.275 15.963,-25.275 11.973,-38.578 -3.9909,-13.303 -6.6514,-63.854 -6.6514,-63.854" /><path
           id="path3993"
           style="fill:#aa4400;stroke:#000000;stroke-width:1px"
           transform="translate(51.402,93.984)"
           d="m 305.97,295.32 c 0,0 55.872,15.963 71.836,9.312 15.963,-6.6514 23.945,-18.624 45.23,-25.275 21.285,-6.6514 18.624,0 29.266,1.3303 10.642,1.3303 15.963,2.6606 15.963,2.6606" /><path
           id="path3995"
           d="m 235.95,445.12 c 0,0 -39.538,7.6525 -58.669,3.1886 -19.131,-4.464 -61.858,-8.928 -66.96,-9.5657 -5.1017,-0.63771 -14.667,-3.1886 -14.667,-3.1886"
           style="fill:#aa4400;stroke:#000000;stroke-width:1px"
           transform="matrix(2.6688,0,0,2.6688,51.402,-722)" /><path
           id="path3997"
           d="m 90.555,437.47 c 0,0 15.943,-6.3771 22.32,-17.218 6.3771,-10.841 0.63771,-12.754 14.03,-21.044 13.392,-8.2902 19.769,-8.928 23.595,-14.03 3.8263,-5.1017 35.074,-36.987 40.814,-43.364 5.7394,-6.3771 11.479,-5.1017 14.03,-10.203 2.5508,-5.1017 11.479,-19.769 11.479,-19.769"
           style="fill:#aa4400;stroke:#000000;stroke-width:1px"
           transform="matrix(2.6688,0,0,2.6688,51.402,-722)" /></g><g
         id="g4017"
         style="fill:#ff7f2a"
         transform="matrix(-0.045322,-0.37196,-0.37196,0.045322,368.54,389.44)"><path
           id="path4019"
           sodipodi:nodetypes="ccsssssscsssssssssssscscscccssscccsccccscsssssscsscssssssscsscssssccssscsccsssssscssccsssccssc"
           style="fill:#ff7f2a;stroke:#000000;stroke-width:5.5"
           d="m 54.22,658.03 18.484,1.2323 c 0,0 -1.2323,-8.6259 7.3936,-19.716 8.6259,-11.0901 103.51,-101.05 123.23,-117.07 19.716,-16.02 82.562,-69.007 88.724,-69.007 6.1614,0 29.575,13.555 34.504,25.878 4.9291,12.323 20.949,39.433 28.342,43.13 7.3936,3.6968 50.523,24.645 61.614,24.645 11.09,0 4.9291,-20.949 4.9291,-20.949 0,0 34.504,14.787 40.665,13.555 6.1614,-1.2323 1.2323,-8.6259 7.3936,-7.3936 6.1614,1.2323 17.252,11.09 30.807,4.9291 13.555,-6.1614 -2.4646,-14.787 14.787,-19.716 17.252,-4.9291 14.787,2.4646 23.413,-3.6968 8.6259,-6.1614 -8.6259,-4.9291 9.8582,-6.1614 18.4841,-1.2323 18.484,-1.2323 19.716,-7.3936 1.2323,-6.1614 -12.323,-4.9291 8.6259,-6.1614 20.9489,-1.2323 22.181,2.4646 32.039,-1.2323 9.8582,-3.6968 -7.3936,-8.6259 9.8582,-6.1614 17.2518,2.4645 8.6259,11.09 25.878,3.6968 17.252,-7.3936 34.504,-17.252 38.2,-20.949 3.6968,-3.6968 4.9291,-7.3936 4.9291,-7.3936 0,0 -27.11,3.6968 -36.968,-2.4646 -9.8582,-6.1614 -18.484,-12.323 -18.484,-12.323 0,0 -7.3936,2.4646 -12.323,-2.4646 -4.9291,-4.9291 -9.8582,-12.323 -9.8582,-12.323 l -14.787,-2.4646 -11.09,-11.09 c 0,0 -13.555,-7.3936 -19.716,-9.8582 -6.1614,-2.4646 6.1614,-8.6259 0,-12.323 -6.1614,-3.6968 -18.484,-7.3936 -23.413,-11.09 -4.9291,-3.6968 -4.9291,-4.9291 -4.9291,-4.9291 l 19.755,-24.996 -4.9676,-11.973 c 0,0 18.484,-2.4646 27.11,-20.949 8.6259,-18.484 8.6259,-32.039 8.6259,-32.039 l -13.555,-6.1614 12.323,-29.575 -6.7775,-2.4646 c 0,0 9.242,-12.323 8.0098,-17.252 -1.2323,-4.9291 -3.6968,-8.6259 -3.6968,-8.6259 0,0 17.252,-27.11 17.252,-29.575 0,-2.4645 -4.9291,-6.1614 -1.8484,-11.09 3.0807,-4.9291 0.61614,-0.61614 9.2421,-6.7775 8.6259,-6.1614 2.4646,-13.555 7.3936,-21.565 4.9291,-8.0098 3.6968,-8.0098 7.3936,-16.636 3.6968,-8.6259 8.6259,-15.403 8.6259,-24.029 v -14.787 c 0,0 -50.523,57.917 -54.22,57.917 -3.6968,0 -4.313,2.4646 -7.3936,-1.2323 -3.0807,-3.6968 -3.6968,-3.6968 -3.6968,-3.6968 0,0 -22.181,20.949 -27.726,20.949 -5.5452,0 -4.313,-6.7775 -9.2421,-8.6259 -4.9291,-1.8484 -3.0807,-1.8484 -15.403,4.9291 -12.323,6.7775 3.0807,11.707 -6.1614,9.8582 -9.2421,-1.8484 -4.313,-7.3936 -11.09,-4.313 -6.7775,3.0807 -9.242,1.8484 -16.636,8.0098 -7.3936,6.1614 -7.3936,9.242 -7.3936,6.1614 0,-3.0807 -7.3936,-26.494 -7.3936,-26.494 0,0 -30.191,8.6259 -37.584,16.02 -7.3936,7.3936 -12.323,12.939 -12.323,14.787 0,1.8484 -2.4645,4.9291 -2.4645,4.9291 0,0 -4.313,-4.9291 -7.3936,-4.9291 -3.0807,0 0,-6.7775 -13.555,3.0807 -13.555,9.8582 -30.191,17.252 -30.191,20.333 0,3.0807 2.4645,5.5452 0,3.0807 -2.4646,-2.4646 -20.949,-38.817 -20.949,-38.817 l -3.6968,1.8484 c 0,0 -4.9291,-28.958 -8.6259,-35.736 -3.6968,-6.7775 -6.7775,-1.8484 -6.7775,-12.323 v -18.484 c 0,-10.474 -3.6968,-22.797 -3.6968,-22.797 0,0 -28.958,43.746 -35.736,54.836 -6.7775,11.09 -5.5452,17.252 -5.5452,17.252 l -5.5452,-1.2323 c 0,0 -6.7775,-1.8484 -11.09,10.474 -4.313,12.323 -10.474,35.12 -11.707,38.817 -1.2323,3.6968 -1.2323,5.5452 -3.6968,5.5452 -2.4646,0 -2.4646,-4.313 -4.9291,-3.0807 -2.4646,1.2323 -8.0098,-0.61614 -8.6259,8.0098 -0.61614,8.6259 6.7775,67.159 4.313,72.704 -2.4646,5.5452 -3.6968,5.5452 -3.6968,5.5452 0,0 -11.707,-3.6968 -12.323,-0.61614 -0.61613,3.0807 -8.0098,9.242 -3.0807,15.403 4.9291,6.1614 11.09,14.787 11.09,14.787 h -8.6259 c 0,0 26.494,31.423 21.565,34.504 -4.9291,3.0807 -5.5452,-0.61613 -7.3936,5.5452 -1.8484,6.1614 3.6968,14.171 9.8582,19.716 6.1614,5.5452 44.978,44.978 44.978,44.978 l -0.61613,6.7775 c 0,0 -140.48,104.13 -140.48,106.59 0,2.4646 -83.795,79.482 -86.259,86.875 -2.4645,7.3936 -6.1614,19.1 -5.5452,17.868 z" /><path
           id="path4021"
           d="m 246.1,347.21 c 0,0 -7.9817,-53.212 -11.973,-81.148 -3.9909,-27.936 -15.963,-18.624 -3.9909,-51.881 11.973,-33.257 5.3212,-73.166 9.312,-87.799 3.9909,-14.633 25.275,-115.74 25.275,-115.74"
           style="fill:#ff7f2a;stroke:#000000;stroke-width:3"
           transform="translate(51.402,93.984)" /><path
           id="path4023"
           d="m 400.42,214.18 c 0,0 34.588,9.312 61.193,-1.3303 26.606,-10.642 45.23,-3.9909 54.542,-7.9817 9.312,-3.9909 15.963,-7.9817 15.963,-7.9817"
           style="fill:#ff7f2a;stroke:#000000;stroke-width:1px"
           transform="translate(51.402,93.984)" /><path
           id="path4025"
           sodipodi:nodetypes="cssc"
           d="m 358.54,236.9 c 0,0 -21.979,-20.062 -8.6766,-50.659 13.303,-30.597 21.285,-27.936 30.597,-50.551 9.312,-22.615 30.597,-59.863 30.597,-59.863"
           style="fill:#ff7f2a;stroke:#000000;stroke-width:1px"
           transform="translate(51.402,93.984)" /><path
           id="path4027"
           style="fill:#ff7f2a;stroke:#000000;stroke-width:1px"
           d="m 333.79,419.74 c 0,0 -14.633,-17.294 -2.6606,-42.569 11.973,-25.275 15.963,-25.275 11.973,-38.578 -3.9909,-13.303 -6.6514,-63.854 -6.6514,-63.854" /><path
           id="path4029"
           d="m 305.97,295.32 c 0,0 55.872,15.963 71.836,9.312 15.963,-6.6514 23.945,-18.624 45.23,-25.275 21.285,-6.6514 18.624,0 29.266,1.3303 10.642,1.3303 15.963,2.6606 15.963,2.6606"
           style="fill:#ff7f2a;stroke:#000000;stroke-width:1px"
           transform="translate(51.402,93.984)" /><path
           id="path4031"
           style="fill:#ff7f2a;stroke:#000000;stroke-width:1px"
           transform="matrix(2.6688,0,0,2.6688,51.402,-722)"
           d="m 235.95,445.12 c 0,0 -39.538,7.6525 -58.669,3.1886 -19.131,-4.464 -61.858,-8.928 -66.96,-9.5657 -5.1017,-0.63771 -14.667,-3.1886 -14.667,-3.1886" /><path
           id="path4033"
           style="fill:#ff7f2a;stroke:#000000;stroke-width:1px"
           transform="matrix(2.6688,0,0,2.6688,51.402,-722)"
           d="m 90.555,437.47 c 0,0 15.943,-6.3771 22.32,-17.218 6.3771,-10.841 0.63771,-12.754 14.03,-21.044 13.392,-8.2902 19.769,-8.928 23.595,-14.03 3.8263,-5.1017 35.074,-36.987 40.814,-43.364 5.7394,-6.3771 11.479,-5.1017 14.03,-10.203 2.5508,-5.1017 11.479,-19.769 11.479,-19.769" /></g><g
         id="g4035"
         style="fill:#aa4400"
         transform="matrix(-0.13247,0.35051,-0.35051,-0.13247,608.3,484.64)"><path
           id="path4037"
           sodipodi:nodetypes="ccsssssscsssssssssssscscscccssscccsccccscsssssscsscssssssscsscssssccssscsccsssssscssccsssccssc"
           style="fill:#aa4400;stroke:#000000;stroke-width:5.5"
           d="m 54.22,658.03 18.484,1.2323 c 0,0 -1.2323,-8.6259 7.3936,-19.716 8.6259,-11.0901 103.51,-101.05 123.23,-117.07 19.716,-16.02 82.562,-69.007 88.724,-69.007 6.1614,0 29.575,13.555 34.504,25.878 4.9291,12.323 20.949,39.433 28.342,43.13 7.3936,3.6968 50.523,24.645 61.614,24.645 11.09,0 4.9291,-20.949 4.9291,-20.949 0,0 34.504,14.787 40.665,13.555 6.1614,-1.2323 1.2323,-8.6259 7.3936,-7.3936 6.1614,1.2323 17.252,11.09 30.807,4.9291 13.555,-6.1614 -2.4646,-14.787 14.787,-19.716 17.252,-4.9291 14.787,2.4646 23.413,-3.6968 8.6259,-6.1614 -8.6259,-4.9291 9.8582,-6.1614 18.4841,-1.2323 18.484,-1.2323 19.716,-7.3936 1.2323,-6.1614 -12.323,-4.9291 8.6259,-6.1614 20.9489,-1.2323 22.181,2.4646 32.039,-1.2323 9.8582,-3.6968 -7.3936,-8.6259 9.8582,-6.1614 17.2518,2.4645 8.6259,11.09 25.878,3.6968 17.252,-7.3936 34.504,-17.252 38.2,-20.949 3.6968,-3.6968 4.9291,-7.3936 4.9291,-7.3936 0,0 -27.11,3.6968 -36.968,-2.4646 -9.8582,-6.1614 -18.484,-12.323 -18.484,-12.323 0,0 -7.3936,2.4646 -12.323,-2.4646 -4.9291,-4.9291 -9.8582,-12.323 -9.8582,-12.323 l -14.787,-2.4646 -11.09,-11.09 c 0,0 -13.555,-7.3936 -19.716,-9.8582 -6.1614,-2.4646 6.1614,-8.6259 0,-12.323 -6.1614,-3.6968 -18.484,-7.3936 -23.413,-11.09 -4.9291,-3.6968 -4.9291,-4.9291 -4.9291,-4.9291 l 19.755,-24.996 -4.9676,-11.973 c 0,0 18.484,-2.4646 27.11,-20.949 8.6259,-18.484 8.6259,-32.039 8.6259,-32.039 l -13.555,-6.1614 12.323,-29.575 -6.7775,-2.4646 c 0,0 9.242,-12.323 8.0098,-17.252 -1.2323,-4.9291 -3.6968,-8.6259 -3.6968,-8.6259 0,0 17.252,-27.11 17.252,-29.575 0,-2.4645 -4.9291,-6.1614 -1.8484,-11.09 3.0807,-4.9291 0.61614,-0.61614 9.2421,-6.7775 8.6259,-6.1614 2.4646,-13.555 7.3936,-21.565 4.9291,-8.0098 3.6968,-8.0098 7.3936,-16.636 3.6968,-8.6259 8.6259,-15.403 8.6259,-24.029 v -14.787 c 0,0 -50.523,57.917 -54.22,57.917 -3.6968,0 -4.313,2.4646 -7.3936,-1.2323 -3.0807,-3.6968 -3.6968,-3.6968 -3.6968,-3.6968 0,0 -22.181,20.949 -27.726,20.949 -5.5452,0 -4.313,-6.7775 -9.2421,-8.6259 -4.9291,-1.8484 -3.0807,-1.8484 -15.403,4.9291 -12.323,6.7775 3.0807,11.707 -6.1614,9.8582 -9.2421,-1.8484 -4.313,-7.3936 -11.09,-4.313 -6.7775,3.0807 -9.242,1.8484 -16.636,8.0098 -7.3936,6.1614 -7.3936,9.242 -7.3936,6.1614 0,-3.0807 -7.3936,-26.494 -7.3936,-26.494 0,0 -30.191,8.6259 -37.584,16.02 -7.3936,7.3936 -12.323,12.939 -12.323,14.787 0,1.8484 -2.4645,4.9291 -2.4645,4.9291 0,0 -4.313,-4.9291 -7.3936,-4.9291 -3.0807,0 0,-6.7775 -13.555,3.0807 -13.555,9.8582 -30.191,17.252 -30.191,20.333 0,3.0807 2.4645,5.5452 0,3.0807 -2.4646,-2.4646 -20.949,-38.817 -20.949,-38.817 l -3.6968,1.8484 c 0,0 -4.9291,-28.958 -8.6259,-35.736 -3.6968,-6.7775 -6.7775,-1.8484 -6.7775,-12.323 v -18.484 c 0,-10.474 -3.6968,-22.797 -3.6968,-22.797 0,0 -28.958,43.746 -35.736,54.836 -6.7775,11.09 -5.5452,17.252 -5.5452,17.252 l -5.5452,-1.2323 c 0,0 -6.7775,-1.8484 -11.09,10.474 -4.313,12.323 -10.474,35.12 -11.707,38.817 -1.2323,3.6968 -1.2323,5.5452 -3.6968,5.5452 -2.4646,0 -2.4646,-4.313 -4.9291,-3.0807 -2.4646,1.2323 -8.0098,-0.61614 -8.6259,8.0098 -0.61614,8.6259 6.7775,67.159 4.313,72.704 -2.4646,5.5452 -3.6968,5.5452 -3.6968,5.5452 0,0 -11.707,-3.6968 -12.323,-0.61614 -0.61613,3.0807 -8.0098,9.242 -3.0807,15.403 4.9291,6.1614 11.09,14.787 11.09,14.787 h -8.6259 c 0,0 26.494,31.423 21.565,34.504 -4.9291,3.0807 -5.5452,-0.61613 -7.3936,5.5452 -1.8484,6.1614 3.6968,14.171 9.8582,19.716 6.1614,5.5452 44.978,44.978 44.978,44.978 l -0.61613,6.7775 c 0,0 -140.48,104.13 -140.48,106.59 0,2.4646 -83.795,79.482 -86.259,86.875 -2.4645,7.3936 -6.1614,19.1 -5.5452,17.868 z" /><path
           id="path4039"
           d="m 246.1,347.21 c 0,0 -7.9817,-53.212 -11.973,-81.148 -3.9909,-27.936 -15.963,-18.624 -3.9909,-51.881 11.973,-33.257 5.3212,-73.166 9.312,-87.799 3.9909,-14.633 25.275,-115.74 25.275,-115.74"
           style="fill:#aa4400;stroke:#000000;stroke-width:3"
           transform="translate(51.402,93.984)" /><path
           id="path4041"
           d="m 400.42,214.18 c 0,0 34.588,9.312 61.193,-1.3303 26.606,-10.642 45.23,-3.9909 54.542,-7.9817 9.312,-3.9909 15.963,-7.9817 15.963,-7.9817"
           style="fill:#aa4400;stroke:#000000;stroke-width:1px"
           transform="translate(51.402,93.984)" /><path
           id="path4043"
           sodipodi:nodetypes="cssc"
           d="m 358.54,236.9 c 0,0 -21.979,-20.062 -8.6766,-50.659 13.303,-30.597 21.285,-27.936 30.597,-50.551 9.312,-22.615 30.597,-59.863 30.597,-59.863"
           style="fill:#aa4400;stroke:#000000;stroke-width:1px"
           transform="translate(51.402,93.984)" /><path
           id="path4045"
           style="fill:#aa4400;stroke:#000000;stroke-width:1px"
           d="m 333.79,419.74 c 0,0 -14.633,-17.294 -2.6606,-42.569 11.973,-25.275 15.963,-25.275 11.973,-38.578 -3.9909,-13.303 -6.6514,-63.854 -6.6514,-63.854" /><path
           id="path4047"
           d="m 305.97,295.32 c 0,0 55.872,15.963 71.836,9.312 15.963,-6.6514 23.945,-18.624 45.23,-25.275 21.285,-6.6514 18.624,0 29.266,1.3303 10.642,1.3303 15.963,2.6606 15.963,2.6606"
           style="fill:#aa4400;stroke:#000000;stroke-width:1px"
           transform="translate(51.402,93.984)" /><path
           id="path4049"
           style="fill:#aa4400;stroke:#000000;stroke-width:1px"
           transform="matrix(2.6688,0,0,2.6688,51.402,-722)"
           d="m 235.95,445.12 c 0,0 -39.538,7.6525 -58.669,3.1886 -19.131,-4.464 -61.858,-8.928 -66.96,-9.5657 -5.1017,-0.63771 -14.667,-3.1886 -14.667,-3.1886" /><path
           id="path4051"
           style="fill:#aa4400;stroke:#000000;stroke-width:1px"
           transform="matrix(2.6688,0,0,2.6688,51.402,-722)"
           d="m 90.555,437.47 c 0,0 15.943,-6.3771 22.32,-17.218 6.3771,-10.841 0.63771,-12.754 14.03,-21.044 13.392,-8.2902 19.769,-8.928 23.595,-14.03 3.8263,-5.1017 35.074,-36.987 40.814,-43.364 5.7394,-6.3771 11.479,-5.1017 14.03,-10.203 2.5508,-5.1017 11.479,-19.769 11.479,-19.769" /></g></g></g></svg>
