<?xml version="1.0" encoding="UTF-8" standalone="no"?>
<!-- Created with Inkscape (http://www.inkscape.org/) -->

<svg
   width="500"
   height="800"
   viewBox="0 0 132.29167 211.66667"
   version="1.1"
   id="svg1"
   inkscape:version="1.3.2 (091e20e, 2023-11-25, custom)"
   sodipodi:docname="academy_award_best_picture.svg"
   xml:space="preserve"
   xmlns:inkscape="http://www.inkscape.org/namespaces/inkscape"
   xmlns:sodipodi="http://sodipodi.sourceforge.net/DTD/sodipodi-0.dtd"
   xmlns="http://www.w3.org/2000/svg"
   xmlns:svg="http://www.w3.org/2000/svg"><sodipodi:namedview
     id="namedview1"
     pagecolor="#ffffff"
     bordercolor="#000000"
     borderopacity="0.25"
     inkscape:showpageshadow="2"
     inkscape:pageopacity="0.0"
     inkscape:pagecheckerboard="0"
     inkscape:deskcolor="#d1d1d1"
     inkscape:document-units="mm"
     inkscape:zoom="0.72426347"
     inkscape:cx="115.28954"
     inkscape:cy="423.18854"
     inkscape:window-width="1920"
     inkscape:window-height="1009"
     inkscape:window-x="1912"
     inkscape:window-y="-8"
     inkscape:window-maximized="1"
     inkscape:current-layer="layer1" /><defs
     id="defs1"><rect
       x="26.233547"
       y="139.45201"
       width="512.24453"
       height="262.33547"
       id="rect8" /><rect
       x="22.091408"
       y="197.44196"
       width="479.10742"
       height="171.20841"
       id="rect2" /><rect
       x="62.132088"
       y="675.16864"
       width="668.26508"
       height="201.58411"
       id="rect1" /><rect
       x="26.233547"
       y="139.45201"
       width="471.6465"
       height="49.73008"
       id="rect8-3" /></defs><g
     inkscape:label="Layer 1"
     inkscape:groupmode="layer"
     id="layer1"
     transform="translate(-74.273847,-182.25543)"><rect
       style="fill:#e6e6e6;fill-opacity:1;fill-rule:evenodd;stroke:#cae7fd;stroke-width:0"
       id="rect3"
       width="132.29167"
       height="211.66667"
       x="74.273849"
       y="182.25543" /><text
       xml:space="preserve"
       transform="matrix(0.26458333,0,0,0.26458333,74.273847,182.25543)"
       id="text2"
       style="fill:#000000;stroke-width:0;font-size:42px;-inkscape-font-specification:'Public Sans, Bold';font-family:'Public Sans';stroke:#cae7fd;fill-rule:evenodd;line-height:1.5;letter-spacing:0px;word-spacing:0px;font-weight:bold;white-space:pre;shape-inside:url(#rect2)" /><text
       xml:space="preserve"
       transform="matrix(0.34199817,0,0,0.34199817,43.854297,290.64872)"
       id="text8"
       style="font-weight:bold;font-size:42px;line-height:0;font-family:'Public Sans';-inkscape-font-specification:'Public Sans, Bold';letter-spacing:0px;word-spacing:0px;white-space:pre;shape-inside:url(#rect8);fill:#000000;fill-rule:evenodd;stroke:#cae7fd;stroke-width:0"
       x="117.36908"
       y="0"><tspan
         x="127.04045"
         y="177.60862"
         id="tspan2"><tspan
           style="line-height:1.2;text-align:center;text-anchor:middle"
           id="tspan1">AcademyAward
</tspan></tspan><tspan
         x="158.87638"
         y="228.00861"
         id="tspan5"><tspan
           style="line-height:1.2;text-align:center;text-anchor:middle"
           id="tspan4">Best Picture</tspan></tspan></text><text
       xml:space="preserve"
       transform="matrix(0.35520725,0,0,0.35520725,77.774109,145.81796)"
       id="text8-5"
       style="font-weight:bold;font-size:42px;line-height:0;font-family:'Public Sans';-inkscape-font-specification:'Public Sans, Bold';letter-spacing:0px;word-spacing:0px;white-space:pre;shape-inside:url(#rect8-3);fill:#000000;fill-rule:evenodd;stroke:#cae7fd;stroke-width:0"
       x="117.36908"
       y="0"><tspan
         x="26.234375"
         y="152.40862"
         id="tspan6">Award Winners</tspan></text><g
       id="layer1-6"
       transform="matrix(2.3516951,0,0,2.3516951,82.423352,206.88918)"><path
         id="path3201"
         d="m 128.52,250.93 a 21.3765,19.746462 0 1 1 -42.753,0 21.3765,19.746462 0 1 1 42.753,0 z"
         transform="translate(-82.482,-226.47)"
         stroke="#000000"
         stroke-width="2.25"
         fill="none" /><path
         id="rect3223"
         d="m 15.974,12.273 c -3.0333,0 -5.5,2.2388 -5.5,4.9688 0,2.7299 2.4667,4.9375 5.5,4.9375 3.0333,0 5.5,-2.2076 5.5,-4.9375 0,-2.7299 -2.4667,-4.9688 -5.5,-4.9688 z m 12.812,0 c -3.0333,0 -5.5,2.2388 -5.5,4.9688 0,2.7299 2.4667,4.9375 5.5,4.9375 3.0333,0 5.5,-2.2076 5.5,-4.9375 0,-2.7299 -2.4667,-4.9688 -5.5,-4.9688 z m -14.5,10.438 c -0.49304,0 -0.875,0.41321 -0.875,0.90625 v 12.125 c 0,0.49304 0.38196,0.90625 0.875,0.90625 h 17.281 c 0.49304,0 0.875,-0.41321 0.875,-0.90625 v -12.125 c 0,-0.49304 -0.38196,-0.90625 -0.875,-0.90625 z m 19.406,4.0312 c -0.49304,0 -0.875,0.41321 -0.875,0.90625 v 4.625 c 0,0.49304 0.38196,0.875 0.875,0.875 h 4.2812 c 0.49304,0 0.875,-0.38196 0.875,-0.875 v -4.625 c 0,-0.49304 -0.38196,-0.90625 -0.875,-0.90625 z" /></g></g></svg>
