<?xml version="1.0" encoding="UTF-8" standalone="no"?>
<!-- Created with Inkscape (http://www.inkscape.org/) -->

<svg
   width="500"
   height="800"
   viewBox="0 0 132.29167 211.66667"
   version="1.1"
   id="svg1"
   inkscape:version="1.3.2 (091e20e, 2023-11-25, custom)"
   sodipodi:docname="award_winners.svg"
   xml:space="preserve"
   inkscape:export-filename="award_winners.png"
   inkscape:export-xdpi="96"
   inkscape:export-ydpi="96"
   xmlns:inkscape="http://www.inkscape.org/namespaces/inkscape"
   xmlns:sodipodi="http://sodipodi.sourceforge.net/DTD/sodipodi-0.dtd"
   xmlns="http://www.w3.org/2000/svg"
   xmlns:svg="http://www.w3.org/2000/svg"><sodipodi:namedview
     id="namedview1"
     pagecolor="#ffffff"
     bordercolor="#000000"
     borderopacity="0.25"
     inkscape:showpageshadow="2"
     inkscape:pageopacity="0.0"
     inkscape:pagecheckerboard="0"
     inkscape:deskcolor="#d1d1d1"
     inkscape:document-units="mm"
     inkscape:zoom="0.72426347"
     inkscape:cx="115.28954"
     inkscape:cy="423.18854"
     inkscape:window-width="1920"
     inkscape:window-height="1009"
     inkscape:window-x="1912"
     inkscape:window-y="-8"
     inkscape:window-maximized="1"
     inkscape:current-layer="layer1" /><defs
     id="defs1"><rect
       x="26.233547"
       y="139.45201"
       width="512.24453"
       height="262.33547"
       id="rect8" /><rect
       x="22.091408"
       y="197.44196"
       width="479.10742"
       height="171.20841"
       id="rect2" /><rect
       x="62.132088"
       y="675.16864"
       width="668.26508"
       height="201.58411"
       id="rect1" /><rect
       x="26.233547"
       y="139.45201"
       width="471.6465"
       height="49.73008"
       id="rect8-3" /><filter
       id="filter4172"
       inkscape:collect="always"
       x="-0.074150175"
       y="-0.050386214"
       width="1.1483004"
       height="1.1007724"><feGaussianBlur
         id="feGaussianBlur4174"
         stdDeviation="17.834675"
         inkscape:collect="always" /></filter><filter
       id="filter4485"
       height="2.18"
       width="2.2206896"
       y="-0.58999998"
       x="-0.61034481"
       inkscape:collect="always"><feGaussianBlur
         id="feGaussianBlur4487"
         stdDeviation="14.89975"
         inkscape:collect="always" /></filter><linearGradient
       id="linearGradient3102"
       y2="576.65"
       gradientUnits="userSpaceOnUse"
       x2="-230"
       y1="555.22"
       x1="-320"
       inkscape:collect="always"><stop
         id="stop3054"
         style="stop-color:#000000"
         offset="0" /><stop
         id="stop3056"
         style="stop-color:#000000;stop-opacity:0"
         offset="1" /></linearGradient><linearGradient
       id="linearGradient3104"
       y2="553.79"
       gradientUnits="userSpaceOnUse"
       x2="-195.71"
       y1="580.93"
       x1="-108.57"
       inkscape:collect="always"><stop
         id="stop3065"
         style="stop-color:#000000"
         offset="0" /><stop
         id="stop3067"
         style="stop-color:#000000;stop-opacity:0"
         offset="1" /></linearGradient><linearGradient
       id="linearGradient3106"
       y2="518.08"
       gradientUnits="userSpaceOnUse"
       x2="1010"
       y1="550.93"
       x1="905.71"
       inkscape:collect="always"><stop
         id="stop3076"
         style="stop-color:#000000"
         offset="0" /><stop
         id="stop3078"
         style="stop-color:#000000;stop-opacity:0"
         offset="1" /></linearGradient><linearGradient
       id="linearGradient3108"
       y2="459.51"
       gradientUnits="userSpaceOnUse"
       x2="1004.3"
       y1="425.22"
       x1="1110"
       inkscape:collect="always"><stop
         id="stop3086"
         style="stop-color:#000000"
         offset="0" /><stop
         id="stop3088"
         style="stop-color:#000000;stop-opacity:0"
         offset="1" /></linearGradient><radialGradient
       id="radialGradient3123"
       spreadMethod="repeat"
       gradientUnits="userSpaceOnUse"
       cy="396.3"
       cx="65.644"
       r="87.943"
       inkscape:collect="always"><stop
         id="stop3873"
         style="stop-color:#ffffff"
         offset="0" /><stop
         id="stop3875"
         style="stop-color:#ffffff;stop-opacity:0"
         offset="1" /></radialGradient><linearGradient
       id="linearGradient3125"
       y2="417.99"
       gradientUnits="userSpaceOnUse"
       x2="1093"
       y1="-105.27"
       x1="1117.2"
       inkscape:collect="always"><stop
         id="stop4118"
         style="stop-color:#ffffff"
         offset="0" /><stop
         id="stop4120"
         style="stop-color:#ffffff;stop-opacity:0"
         offset="1" /></linearGradient></defs><g
     inkscape:label="Layer 1"
     inkscape:groupmode="layer"
     id="layer1"
     transform="translate(-74.273847,-182.25543)"><rect
       style="fill:#ffaaaa;fill-opacity:1;fill-rule:evenodd;stroke:#cae7fd;stroke-width:0"
       id="rect3"
       width="132.29167"
       height="211.66667"
       x="74.273849"
       y="182.25543" /><text
       xml:space="preserve"
       transform="matrix(0.26458333,0,0,0.26458333,74.273847,182.25543)"
       id="text2"
       style="font-weight:bold;font-size:42px;line-height:1.5;font-family:'Public Sans';-inkscape-font-specification:'Public Sans, Bold';letter-spacing:0px;word-spacing:0px;white-space:pre;shape-inside:url(#rect2);display:inline;fill:#000000;fill-rule:evenodd;stroke:#cae7fd;stroke-width:0" /><text
       xml:space="preserve"
       transform="matrix(0.34199817,0,0,0.34199817,43.854297,290.64872)"
       id="text8"
       style="font-weight:bold;font-size:42px;line-height:0;font-family:'Public Sans';-inkscape-font-specification:'Public Sans, Bold';letter-spacing:0px;word-spacing:0px;white-space:pre;shape-inside:url(#rect8);display:inline;fill:#000000;fill-rule:evenodd;stroke:#cae7fd;stroke-width:0"
       x="117.36908"
       y="0"><tspan
         x="143.21042"
         y="177.60862"
         id="tspan3"><tspan
           style="line-height:1.2;text-align:center;text-anchor:middle"
           id="tspan1">List of various
</tspan></tspan><tspan
         x="137.77136"
         y="228.00861"
         id="tspan6"><tspan
           style="line-height:1.2;text-align:center;text-anchor:middle"
           id="tspan4">award winners</tspan><tspan
           style="line-height:1.2;text-align:center;text-anchor:middle"
           id="tspan5">
</tspan></tspan><tspan
         x="170.5209"
         y="278.40861"
         id="tspan8"><tspan
           style="line-height:1.2;text-align:center;text-anchor:middle"
           id="tspan7">for all ages</tspan></tspan></text><text
       xml:space="preserve"
       transform="matrix(0.35520725,0,0,0.35520725,77.774109,145.81796)"
       id="text8-5"
       style="font-weight:bold;font-size:42px;line-height:0;font-family:'Public Sans';-inkscape-font-specification:'Public Sans, Bold';letter-spacing:0px;word-spacing:0px;white-space:pre;shape-inside:url(#rect8-3);display:inline;fill:#000000;fill-rule:evenodd;stroke:#cae7fd;stroke-width:0"
       x="117.36908"
       y="0"><tspan
         x="26.234375"
         y="152.40862"
         id="tspan9">Award Winners</tspan></text><g
       id="g3127"
       transform="matrix(0.13970462,0,0,0.13970462,90.881847,199.16437)"><g
         id="g4134"
         style="fill:#000000;filter:url(#filter4172)"><path
           id="path4136"
           style="fill:#000000"
           inkscape:connector-curvature="0"
           d="m 441.6,960.66 49,-89.746 101.06,58.85 -133.22,-439.9 -148.53,39.724 z" /><path
           id="path4138"
           d="m 243.61,548.53 -105.66,358.99 94.937,-51.494 53.594,91.218 125.56,-404.59 z"
           style="fill:#000000"
           inkscape:connector-curvature="0" /><path
           id="path4140"
           style="opacity:0.9959;fill:#000000"
           sodipodi:type="star"
           d="m -113.20753,464.47302 c -0.48243,0.48244 0.63908,13.21944 0.10567,13.64483 -0.53341,0.42538 -12.70152,-3.50227 -13.2792,-3.13929 -0.57769,0.36299 -2.31854,13.03022 -2.93324,13.32624 -0.6147,0.29602 -11.60374,-6.24081 -12.24771,-6.01548 -0.64398,0.22534 -5.1599,12.1876 -5.82506,12.33941 -0.66516,0.15182 -9.92409,-8.66641 -10.60207,-8.59002 -0.67797,0.0764 -7.74252,10.73383 -8.42479,10.73383 -0.68226,0 -7.74681,-10.65744 -8.42478,-10.73383 -0.67798,-0.0764 -9.93691,8.74184 -10.60207,8.59002 -0.66516,-0.15181 -5.18108,-12.11407 -5.82506,-12.33941 -0.64397,-0.22533 -11.63301,6.3115 -12.24771,6.01548 -0.6147,-0.29602 -2.35555,-12.96325 -2.93324,-13.32624 -0.57768,-0.36298 -12.74579,3.56467 -13.2792,3.13929 -0.53341,-0.42539 0.5881,-13.16239 0.10567,-13.64483 -0.48243,-0.48243 -13.21944,0.63909 -13.64482,0.10568 -0.42538,-0.53342 3.50227,-12.70152 3.13928,-13.27921 -0.36298,-0.57768 -13.03021,-2.31854 -13.32623,-2.93323 -0.29602,-0.6147 6.24081,-11.60374 6.01547,-12.24771 -0.22533,-0.64398 -12.18759,-5.15991 -12.33941,-5.82506 -0.15181,-0.66516 8.66642,-9.9241 8.59003,-10.60207 -0.0764,-0.67797 -10.73384,-7.74253 -10.73384,-8.42479 0,-0.68226 10.65745,-7.74682 10.73384,-8.42479 0.0764,-0.67797 -8.74184,-9.93691 -8.59003,-10.60206 0.15182,-0.66516 12.11408,-5.18109 12.33941,-5.82506 0.22534,-0.64398 -6.31149,-11.63302 -6.01547,-12.24771 0.29602,-0.6147 12.96325,-2.35555 13.32623,-2.93324 0.36299,-0.57769 -3.56466,-12.74579 -3.13928,-13.2792 0.42538,-0.53342 13.16239,0.5881 13.64482,0.10567 0.48243,-0.48243 -0.63908,-13.21944 -0.10567,-13.64482 0.53341,-0.42539 12.70152,3.50226 13.2792,3.13928 0.57769,-0.36299 2.31854,-13.03021 2.93324,-13.32623 0.6147,-0.29603 11.60373,6.24081 12.24771,6.01547 0.64398,-0.22534 5.1599,-12.18759 5.82506,-12.33941 0.66516,-0.15182 9.92409,8.66642 10.60207,8.59003 0.67797,-0.0764 7.74252,-10.73384 8.42478,-10.73384 0.68227,0 7.74682,10.65745 8.42479,10.73384 0.67798,0.0764 9.93691,-8.74185 10.60207,-8.59003 0.66516,0.15182 5.18108,12.11407 5.82506,12.33941 0.64397,0.22534 11.63301,-6.3115 12.24771,-6.01547 0.6147,0.29602 2.35555,12.96324 2.93324,13.32623 0.57768,0.36298 12.74579,-3.56467 13.2792,-3.13928 0.53341,0.42538 -0.58811,13.16239 -0.10567,13.64482 0.48243,0.48243 13.219436,-0.63909 13.644819,-0.10567 0.425383,0.53341 -3.502269,12.70151 -3.139279,13.2792 0.36298,0.57769 13.030208,2.31854 13.32623,2.93324 0.296022,0.61469 -6.240811,11.60373 -6.015474,12.24771 0.225336,0.64397 12.187592,5.1599 12.33941,5.82506 0.151817,0.66515 -8.666415,9.92409 -8.590026,10.60206 0.07639,0.67797 10.733838,7.74253 10.733838,8.42479 0,0.68226 -10.657449,7.74682 -10.733838,8.42479 -0.07639,0.67797 8.741843,9.93691 8.590026,10.60207 -0.151818,0.66515 -12.114073,5.18108 -12.33941,5.82506 -0.225337,0.64397 6.311497,11.63301 6.015474,12.24771 -0.296022,0.61469 -12.96325,2.35555 -13.32623,2.93323 -0.36299,0.57769 3.564663,12.74579 3.139279,13.27921 -0.425383,0.53341 -13.162389,-0.58811 -13.644819,-0.10568 z"
           sodipodi:r1="75.245201"
           inkscape:flatsided="false"
           transform="matrix(3.3755,0,0,3.1745,916.32,-922.97)"
           sodipodi:arg2="0.8975979"
           sodipodi:arg1="0.78539816"
           inkscape:randomized="0"
           sodipodi:cy="411.26663"
           sodipodi:cx="-166.41393"
           inkscape:rounded="0.05"
           sodipodi:r2="85.505913"
           sodipodi:sides="28" /><path
           id="path4142"
           style="opacity:0.9959;fill:#000000"
           sodipodi:type="star"
           d="m 124.37858,461.93936 c -0.37564,0.3361 -8.83868,3.71724 -9.24959,4.00916 -0.41091,0.29193 -6.38921,7.17053 -6.83022,7.41462 -0.44102,0.24408 -9.444243,1.65724 -9.909813,1.85042 -0.465569,0.19317 -7.824608,5.56901 -8.308879,5.70884 -0.48427,0.13983 -9.576225,-0.48584 -10.073107,-0.40111 -0.496882,0.0847 -8.867651,3.68825 -9.370895,3.71681 -0.503244,0.0286 -9.228019,-2.60457 -9.731298,-2.63253 -0.503278,-0.028 -9.466032,1.62254 -9.963015,1.5384 -0.496984,-0.0841 -8.417082,-4.59269 -8.901521,-4.73194 -0.484438,-0.13925 -9.589747,-0.52454 -10.055549,-0.71715 -0.465801,-0.19261 -7.184077,-6.35052 -7.625384,-6.59408 -0.441306,-0.24356 -9.232592,-2.6453 -9.643855,-2.93674 C 14.304192,467.87263 9.1246222,460.37415 8.748576,460.0385 8.3725298,459.70285 0.33609917,455.40508 -1.7639399e-6,455.02943 -0.33610271,454.65379 -3.7172418,446.19075 -4.0091708,445.77984 c -0.291929,-0.41091 -7.1705242,-6.3892 -7.4146102,-6.83022 -0.244086,-0.44101 -1.65725,-9.44424 -1.850423,-9.90981 -0.193174,-0.46557 -5.569012,-7.8246 -5.708844,-8.30888 -0.139831,-0.48427 0.485842,-9.57622 0.401111,-10.0731 -0.08473,-0.49688 -3.688246,-8.86765 -3.716811,-9.3709 -0.02857,-0.50324 2.604571,-9.22802 2.632531,-9.7313 0.02796,-0.50327 -1.622536,-9.46603 -1.538403,-9.96301 0.08413,-0.49698 4.592697,-8.41708 4.731946,-8.90152 0.139249,-0.48444 0.524534,-9.58975 0.717148,-10.05555 0.192613,-0.4658 6.3505248,-7.18408 6.5940802,-7.62538 0.2435553,-0.44131 2.645303,-9.2326 2.9367376,-9.64386 0.2914346,-0.41126 7.7899117,-5.59083 8.1255606,-5.96688 0.3356489,-0.37604 4.6334249,-8.41247 5.0090671,-8.74858 0.3756423,-0.3361 8.8386795,-3.71724 9.2495915,-4.00916 0.410911,-0.29193 6.389207,-7.17053 6.830221,-7.41462 0.441013,-0.24408 9.444239,-1.65724 9.909808,-1.85042 0.46557,-0.19317 7.824609,-5.56901 8.30888,-5.70884 0.48427,-0.13983 9.576225,0.48584 10.073107,0.40111 0.496881,-0.0847 8.867651,-3.68825 9.370895,-3.71681 0.503244,-0.0286 9.228019,2.60457 9.731298,2.63253 0.503278,0.028 9.466032,-1.62254 9.963015,-1.5384 0.496984,0.0841 8.417082,4.59269 8.901521,4.73194 0.484438,0.13925 9.589747,0.52454 10.055549,0.71715 0.465801,0.19261 7.184075,6.35052 7.625385,6.59408 0.44131,0.24356 9.23259,2.6453 9.64385,2.93674 0.41127,0.29143 5.59084,7.78991 5.96688,8.12556 0.37605,0.33565 8.41248,4.63342 8.74858,5.00907 0.3361,0.37564 3.71724,8.83868 4.00917,9.24959 0.29193,0.41091 7.17052,6.3892 7.41461,6.83022 0.24409,0.44101 1.65725,9.44424 1.85042,9.90981 0.19318,0.46557 5.56901,7.8246 5.70885,8.30888 0.13983,0.48427 -0.48585,9.57622 -0.40112,10.0731 0.0847,0.49688 3.68825,8.86765 3.71682,9.3709 0.0286,0.50324 -2.60458,9.22802 -2.63253,9.7313 -0.028,0.50327 1.62253,9.46603 1.5384,9.96301 -0.0841,0.49698 -4.5927,8.41708 -4.73195,8.90152 -0.13925,0.48444 -0.52453,9.58975 -0.71715,10.05555 -0.19261,0.4658 -6.35052,7.18408 -6.59408,7.62538 -0.24355,0.44131 -2.6453,9.2326 -2.93673,9.64386 -0.29144,0.41126 -7.78992,5.59083 -8.12556,5.96688 -0.33565,0.37604 -4.63343,8.41247 -5.00907,8.74858 z"
           sodipodi:r1="88.084557"
           inkscape:flatsided="false"
           transform="matrix(2.6592,0,0,2.555,180.02,-629.97)"
           sodipodi:arg2="0.95309641"
           sodipodi:arg1="0.84089667"
           inkscape:randomized="0"
           sodipodi:cy="396.2951"
           sodipodi:cx="65.644249"
           inkscape:rounded="0.05"
           sodipodi:r2="85.442017"
           sodipodi:sides="28" /><path
           id="path4144"
           style="opacity:0.9959;fill:#000000"
           sodipodi:type="star"
           sodipodi:sides="28"
           sodipodi:r1="88.084557"
           sodipodi:r2="85.442017"
           sodipodi:arg1="0.84089667"
           sodipodi:arg2="0.95309641"
           transform="matrix(2.5983,0,0,2.4965,184.02,-606.76)"
           inkscape:randomized="0"
           sodipodi:cy="396.2951"
           sodipodi:cx="65.644249"
           inkscape:rounded="0.05"
           inkscape:flatsided="false"
           d="m 124.37858,461.93936 c -0.37564,0.3361 -8.83868,3.71724 -9.24959,4.00916 -0.41091,0.29193 -6.38921,7.17053 -6.83022,7.41462 -0.44102,0.24408 -9.444243,1.65724 -9.909813,1.85042 -0.465569,0.19317 -7.824608,5.56901 -8.308879,5.70884 -0.48427,0.13983 -9.576225,-0.48584 -10.073107,-0.40111 -0.496882,0.0847 -8.867651,3.68825 -9.370895,3.71681 -0.503244,0.0286 -9.228019,-2.60457 -9.731298,-2.63253 -0.503278,-0.028 -9.466032,1.62254 -9.963015,1.5384 -0.496984,-0.0841 -8.417082,-4.59269 -8.901521,-4.73194 -0.484438,-0.13925 -9.589747,-0.52454 -10.055549,-0.71715 -0.465801,-0.19261 -7.184077,-6.35052 -7.625384,-6.59408 -0.441306,-0.24356 -9.232592,-2.6453 -9.643855,-2.93674 C 14.304192,467.87263 9.1246222,460.37415 8.748576,460.0385 8.3725298,459.70285 0.33609917,455.40508 -1.7639399e-6,455.02943 -0.33610271,454.65379 -3.7172418,446.19075 -4.0091708,445.77984 c -0.291929,-0.41091 -7.1705242,-6.3892 -7.4146102,-6.83022 -0.244086,-0.44101 -1.65725,-9.44424 -1.850423,-9.90981 -0.193174,-0.46557 -5.569012,-7.8246 -5.708844,-8.30888 -0.139831,-0.48427 0.485842,-9.57622 0.401111,-10.0731 -0.08473,-0.49688 -3.688246,-8.86765 -3.716811,-9.3709 -0.02857,-0.50324 2.604571,-9.22802 2.632531,-9.7313 0.02796,-0.50327 -1.622536,-9.46603 -1.538403,-9.96301 0.08413,-0.49698 4.592697,-8.41708 4.731946,-8.90152 0.139249,-0.48444 0.524534,-9.58975 0.717148,-10.05555 0.192613,-0.4658 6.3505248,-7.18408 6.5940802,-7.62538 0.2435553,-0.44131 2.645303,-9.2326 2.9367376,-9.64386 0.2914346,-0.41126 7.7899117,-5.59083 8.1255606,-5.96688 0.3356489,-0.37604 4.6334249,-8.41247 5.0090671,-8.74858 0.3756423,-0.3361 8.8386795,-3.71724 9.2495915,-4.00916 0.410911,-0.29193 6.389207,-7.17053 6.830221,-7.41462 0.441013,-0.24408 9.444239,-1.65724 9.909808,-1.85042 0.46557,-0.19317 7.824609,-5.56901 8.30888,-5.70884 0.48427,-0.13983 9.576225,0.48584 10.073107,0.40111 0.496881,-0.0847 8.867651,-3.68825 9.370895,-3.71681 0.503244,-0.0286 9.228019,2.60457 9.731298,2.63253 0.503278,0.028 9.466032,-1.62254 9.963015,-1.5384 0.496984,0.0841 8.417082,4.59269 8.901521,4.73194 0.484438,0.13925 9.589747,0.52454 10.055549,0.71715 0.465801,0.19261 7.184075,6.35052 7.625385,6.59408 0.44131,0.24356 9.23259,2.6453 9.64385,2.93674 0.41127,0.29143 5.59084,7.78991 5.96688,8.12556 0.37605,0.33565 8.41248,4.63342 8.74858,5.00907 0.3361,0.37564 3.71724,8.83868 4.00917,9.24959 0.29193,0.41091 7.17052,6.3892 7.41461,6.83022 0.24409,0.44101 1.65725,9.44424 1.85042,9.90981 0.19318,0.46557 5.56901,7.8246 5.70885,8.30888 0.13983,0.48427 -0.48585,9.57622 -0.40112,10.0731 0.0847,0.49688 3.68825,8.86765 3.71682,9.3709 0.0286,0.50324 -2.60458,9.22802 -2.63253,9.7313 -0.028,0.50327 1.62253,9.46603 1.5384,9.96301 -0.0841,0.49698 -4.5927,8.41708 -4.73195,8.90152 -0.13925,0.48444 -0.52453,9.58975 -0.71715,10.05555 -0.19261,0.4658 -6.35052,7.18408 -6.59408,7.62538 -0.24355,0.44131 -2.6453,9.2326 -2.93673,9.64386 -0.29144,0.41126 -7.78992,5.59083 -8.12556,5.96688 -0.33565,0.37604 -4.63343,8.41247 -5.00907,8.74858 z" /><path
           id="path4146"
           style="opacity:0.9959;fill:#000000"
           sodipodi:type="star"
           d="m 124.37858,461.93936 c -0.37564,0.3361 -8.83868,3.71724 -9.24959,4.00916 -0.41091,0.29193 -6.38921,7.17053 -6.83022,7.41462 -0.44102,0.24408 -9.444243,1.65724 -9.909813,1.85042 -0.465569,0.19317 -7.824608,5.56901 -8.308879,5.70884 -0.48427,0.13983 -9.576225,-0.48584 -10.073107,-0.40111 -0.496882,0.0847 -8.867651,3.68825 -9.370895,3.71681 -0.503244,0.0286 -9.228019,-2.60457 -9.731298,-2.63253 -0.503278,-0.028 -9.466032,1.62254 -9.963015,1.5384 -0.496984,-0.0841 -8.417082,-4.59269 -8.901521,-4.73194 -0.484438,-0.13925 -9.589747,-0.52454 -10.055549,-0.71715 -0.465801,-0.19261 -7.184077,-6.35052 -7.625384,-6.59408 -0.441306,-0.24356 -9.232592,-2.6453 -9.643855,-2.93674 C 14.304192,467.87263 9.1246222,460.37415 8.748576,460.0385 8.3725298,459.70285 0.33609917,455.40508 -1.7639399e-6,455.02943 -0.33610271,454.65379 -3.7172418,446.19075 -4.0091708,445.77984 c -0.291929,-0.41091 -7.1705242,-6.3892 -7.4146102,-6.83022 -0.244086,-0.44101 -1.65725,-9.44424 -1.850423,-9.90981 -0.193174,-0.46557 -5.569012,-7.8246 -5.708844,-8.30888 -0.139831,-0.48427 0.485842,-9.57622 0.401111,-10.0731 -0.08473,-0.49688 -3.688246,-8.86765 -3.716811,-9.3709 -0.02857,-0.50324 2.604571,-9.22802 2.632531,-9.7313 0.02796,-0.50327 -1.622536,-9.46603 -1.538403,-9.96301 0.08413,-0.49698 4.592697,-8.41708 4.731946,-8.90152 0.139249,-0.48444 0.524534,-9.58975 0.717148,-10.05555 0.192613,-0.4658 6.3505248,-7.18408 6.5940802,-7.62538 0.2435553,-0.44131 2.645303,-9.2326 2.9367376,-9.64386 0.2914346,-0.41126 7.7899117,-5.59083 8.1255606,-5.96688 0.3356489,-0.37604 4.6334249,-8.41247 5.0090671,-8.74858 0.3756423,-0.3361 8.8386795,-3.71724 9.2495915,-4.00916 0.410911,-0.29193 6.389207,-7.17053 6.830221,-7.41462 0.441013,-0.24408 9.444239,-1.65724 9.909808,-1.85042 0.46557,-0.19317 7.824609,-5.56901 8.30888,-5.70884 0.48427,-0.13983 9.576225,0.48584 10.073107,0.40111 0.496881,-0.0847 8.867651,-3.68825 9.370895,-3.71681 0.503244,-0.0286 9.228019,2.60457 9.731298,2.63253 0.503278,0.028 9.466032,-1.62254 9.963015,-1.5384 0.496984,0.0841 8.417082,4.59269 8.901521,4.73194 0.484438,0.13925 9.589747,0.52454 10.055549,0.71715 0.465801,0.19261 7.184075,6.35052 7.625385,6.59408 0.44131,0.24356 9.23259,2.6453 9.64385,2.93674 0.41127,0.29143 5.59084,7.78991 5.96688,8.12556 0.37605,0.33565 8.41248,4.63342 8.74858,5.00907 0.3361,0.37564 3.71724,8.83868 4.00917,9.24959 0.29193,0.41091 7.17052,6.3892 7.41461,6.83022 0.24409,0.44101 1.65725,9.44424 1.85042,9.90981 0.19318,0.46557 5.56901,7.8246 5.70885,8.30888 0.13983,0.48427 -0.48585,9.57622 -0.40112,10.0731 0.0847,0.49688 3.68825,8.86765 3.71682,9.3709 0.0286,0.50324 -2.60458,9.22802 -2.63253,9.7313 -0.028,0.50327 1.62253,9.46603 1.5384,9.96301 -0.0841,0.49698 -4.5927,8.41708 -4.73195,8.90152 -0.13925,0.48444 -0.52453,9.58975 -0.71715,10.05555 -0.19261,0.4658 -6.35052,7.18408 -6.59408,7.62538 -0.24355,0.44131 -2.6453,9.2326 -2.93673,9.64386 -0.29144,0.41126 -7.78992,5.59083 -8.12556,5.96688 -0.33565,0.37604 -4.63343,8.41247 -5.00907,8.74858 z"
           sodipodi:r1="88.084557"
           inkscape:flatsided="false"
           transform="matrix(2.4719,0,0,2.3471,192.32,-547.58)"
           sodipodi:arg2="0.95309641"
           sodipodi:arg1="0.84089667"
           inkscape:randomized="0"
           sodipodi:cy="396.2951"
           sodipodi:cx="65.644249"
           inkscape:rounded="0.05"
           sodipodi:r2="85.442017"
           sodipodi:sides="28" /><path
           id="path4148"
           sodipodi:rx="152.53304"
           sodipodi:ry="153.54318"
           style="opacity:0.9959;fill:#000000"
           sodipodi:type="arc"
           d="m 1232.3861,379.60059 a 152.53304,153.54318 0 0 1 -152.28,153.54297 152.53304,153.54318 0 0 1 -152.78527,-153.0334 152.53304,153.54318 0 0 1 151.77287,-154.05085 152.53304,153.54318 0 0 1 153.289,152.52214"
           sodipodi:open="true"
           transform="translate(-725.27,2.9789)"
           sodipodi:cy="379.60059"
           sodipodi:cx="1079.853"
           sodipodi:end="6.2765478"
           sodipodi:start="0"
           sodipodi:arc-type="arc" /><path
           id="path4150"
           sodipodi:rx="152.53304"
           sodipodi:ry="153.54318"
           style="opacity:0.9959;fill:#000000"
           sodipodi:type="arc"
           d="m 1232.3861,379.60059 a 152.53304,153.54318 0 0 1 -152.28,153.54297 152.53304,153.54318 0 0 1 -152.78527,-153.0334 152.53304,153.54318 0 0 1 151.77287,-154.05085 152.53304,153.54318 0 0 1 153.289,152.52214"
           sodipodi:open="true"
           transform="matrix(0.88079,0,0,0.86842,-596.54,52.926)"
           sodipodi:cy="379.60059"
           sodipodi:cx="1079.853"
           sodipodi:end="6.2765478"
           sodipodi:start="0"
           sodipodi:arc-type="arc" /></g><g
         id="g3092"
         transform="translate(490,150)"><path
           id="path3056"
           style="fill:#0000ff"
           inkscape:connector-curvature="0"
           d="m -236.04,373.35 -105.66,358.99 94.937,-51.494 53.594,91.218 125.56,-404.59 z" /><path
           id="path3049"
           d="m -236.04,373.35 -105.66,358.99 94.937,-51.494 53.594,91.218 125.56,-404.59 z"
           style="fill:url(#linearGradient3102)"
           inkscape:connector-curvature="0" /><path
           id="path3061"
           style="fill:url(#linearGradient3104)"
           inkscape:connector-curvature="0"
           d="m -236.04,373.35 -105.66,358.99 94.937,-51.494 53.594,91.218 125.56,-404.59 z" /></g><g
         id="g3097"
         transform="translate(-552.86,241.43)"><path
           id="path4072"
           d="m 991.95,698.34 49,-89.746 101.06,58.85 -133.22,-439.9 -148.53,39.724 z"
           style="fill:#ffcc00"
           inkscape:connector-curvature="0" /><path
           id="path3071"
           style="fill:url(#linearGradient3106)"
           inkscape:connector-curvature="0"
           d="m 991.95,698.34 49,-89.746 101.06,58.85 -133.22,-439.9 -148.53,39.724 z" /><path
           id="path3082"
           d="m 991.95,698.34 49,-89.746 101.06,58.85 -133.22,-439.9 -148.53,39.724 z"
           style="fill:url(#linearGradient3108)"
           inkscape:connector-curvature="0" /></g><g
         id="g3114"
         transform="translate(-795.71,35.714)"><path
           id="path3054"
           style="opacity:0.9959;fill:#0000ff"
           sodipodi:type="star"
           sodipodi:sides="28"
           sodipodi:r1="75.245201"
           sodipodi:r2="85.505913"
           sodipodi:arg1="0.78539816"
           sodipodi:arg2="0.8975979"
           transform="matrix(3.3755,0,0,3.1745,1721,-982.44)"
           inkscape:randomized="0"
           sodipodi:cy="411.26663"
           sodipodi:cx="-166.41393"
           inkscape:rounded="0.05"
           inkscape:flatsided="false"
           d="m -113.20753,464.47302 c -0.48243,0.48244 0.63908,13.21944 0.10567,13.64483 -0.53341,0.42538 -12.70152,-3.50227 -13.2792,-3.13929 -0.57769,0.36299 -2.31854,13.03022 -2.93324,13.32624 -0.6147,0.29602 -11.60374,-6.24081 -12.24771,-6.01548 -0.64398,0.22534 -5.1599,12.1876 -5.82506,12.33941 -0.66516,0.15182 -9.92409,-8.66641 -10.60207,-8.59002 -0.67797,0.0764 -7.74252,10.73383 -8.42479,10.73383 -0.68226,0 -7.74681,-10.65744 -8.42478,-10.73383 -0.67798,-0.0764 -9.93691,8.74184 -10.60207,8.59002 -0.66516,-0.15181 -5.18108,-12.11407 -5.82506,-12.33941 -0.64397,-0.22533 -11.63301,6.3115 -12.24771,6.01548 -0.6147,-0.29602 -2.35555,-12.96325 -2.93324,-13.32624 -0.57768,-0.36298 -12.74579,3.56467 -13.2792,3.13929 -0.53341,-0.42539 0.5881,-13.16239 0.10567,-13.64483 -0.48243,-0.48243 -13.21944,0.63909 -13.64482,0.10568 -0.42538,-0.53342 3.50227,-12.70152 3.13928,-13.27921 -0.36298,-0.57768 -13.03021,-2.31854 -13.32623,-2.93323 -0.29602,-0.6147 6.24081,-11.60374 6.01547,-12.24771 -0.22533,-0.64398 -12.18759,-5.15991 -12.33941,-5.82506 -0.15181,-0.66516 8.66642,-9.9241 8.59003,-10.60207 -0.0764,-0.67797 -10.73384,-7.74253 -10.73384,-8.42479 0,-0.68226 10.65745,-7.74682 10.73384,-8.42479 0.0764,-0.67797 -8.74184,-9.93691 -8.59003,-10.60206 0.15182,-0.66516 12.11408,-5.18109 12.33941,-5.82506 0.22534,-0.64398 -6.31149,-11.63302 -6.01547,-12.24771 0.29602,-0.6147 12.96325,-2.35555 13.32623,-2.93324 0.36299,-0.57769 -3.56466,-12.74579 -3.13928,-13.2792 0.42538,-0.53342 13.16239,0.5881 13.64482,0.10567 0.48243,-0.48243 -0.63908,-13.21944 -0.10567,-13.64482 0.53341,-0.42539 12.70152,3.50226 13.2792,3.13928 0.57769,-0.36299 2.31854,-13.03021 2.93324,-13.32623 0.6147,-0.29603 11.60373,6.24081 12.24771,6.01547 0.64398,-0.22534 5.1599,-12.18759 5.82506,-12.33941 0.66516,-0.15182 9.92409,8.66642 10.60207,8.59003 0.67797,-0.0764 7.74252,-10.73384 8.42478,-10.73384 0.68227,0 7.74682,10.65745 8.42479,10.73384 0.67798,0.0764 9.93691,-8.74185 10.60207,-8.59003 0.66516,0.15182 5.18108,12.11407 5.82506,12.33941 0.64397,0.22534 11.63301,-6.3115 12.24771,-6.01547 0.6147,0.29602 2.35555,12.96324 2.93324,13.32623 0.57768,0.36298 12.74579,-3.56467 13.2792,-3.13928 0.53341,0.42538 -0.58811,13.16239 -0.10567,13.64482 0.48243,0.48243 13.219436,-0.63909 13.644819,-0.10567 0.425383,0.53341 -3.502269,12.70151 -3.139279,13.2792 0.36298,0.57769 13.030208,2.31854 13.32623,2.93324 0.296022,0.61469 -6.240811,11.60373 -6.015474,12.24771 0.225336,0.64397 12.187592,5.1599 12.33941,5.82506 0.151817,0.66515 -8.666415,9.92409 -8.590026,10.60206 0.07639,0.67797 10.733838,7.74253 10.733838,8.42479 0,0.68226 -10.657449,7.74682 -10.733838,8.42479 -0.07639,0.67797 8.741843,9.93691 8.590026,10.60207 -0.151818,0.66515 -12.114073,5.18108 -12.33941,5.82506 -0.225337,0.64397 6.311497,11.63301 6.015474,12.24771 -0.296022,0.61469 -12.96325,2.35555 -13.32623,2.93323 -0.36299,0.57769 3.564663,12.74579 3.139279,13.27921 -0.425383,0.53341 -13.162389,-0.58811 -13.644819,-0.10568 z" /><path
           id="path3060"
           style="opacity:0.9959;fill:#ffffff"
           sodipodi:type="star"
           sodipodi:sides="28"
           sodipodi:r1="88.084557"
           sodipodi:r2="85.442017"
           sodipodi:arg1="0.84089667"
           sodipodi:arg2="0.95309641"
           transform="matrix(2.6592,0,0,2.555,984.66,-689.43)"
           inkscape:randomized="0"
           sodipodi:cy="396.2951"
           sodipodi:cx="65.644249"
           inkscape:rounded="0.05"
           inkscape:flatsided="false"
           d="m 124.37858,461.93936 c -0.37564,0.3361 -8.83868,3.71724 -9.24959,4.00916 -0.41091,0.29193 -6.38921,7.17053 -6.83022,7.41462 -0.44102,0.24408 -9.444243,1.65724 -9.909813,1.85042 -0.465569,0.19317 -7.824608,5.56901 -8.308879,5.70884 -0.48427,0.13983 -9.576225,-0.48584 -10.073107,-0.40111 -0.496882,0.0847 -8.867651,3.68825 -9.370895,3.71681 -0.503244,0.0286 -9.228019,-2.60457 -9.731298,-2.63253 -0.503278,-0.028 -9.466032,1.62254 -9.963015,1.5384 -0.496984,-0.0841 -8.417082,-4.59269 -8.901521,-4.73194 -0.484438,-0.13925 -9.589747,-0.52454 -10.055549,-0.71715 -0.465801,-0.19261 -7.184077,-6.35052 -7.625384,-6.59408 -0.441306,-0.24356 -9.232592,-2.6453 -9.643855,-2.93674 C 14.304192,467.87263 9.1246222,460.37415 8.748576,460.0385 8.3725298,459.70285 0.33609917,455.40508 -1.7639399e-6,455.02943 -0.33610271,454.65379 -3.7172418,446.19075 -4.0091708,445.77984 c -0.291929,-0.41091 -7.1705242,-6.3892 -7.4146102,-6.83022 -0.244086,-0.44101 -1.65725,-9.44424 -1.850423,-9.90981 -0.193174,-0.46557 -5.569012,-7.8246 -5.708844,-8.30888 -0.139831,-0.48427 0.485842,-9.57622 0.401111,-10.0731 -0.08473,-0.49688 -3.688246,-8.86765 -3.716811,-9.3709 -0.02857,-0.50324 2.604571,-9.22802 2.632531,-9.7313 0.02796,-0.50327 -1.622536,-9.46603 -1.538403,-9.96301 0.08413,-0.49698 4.592697,-8.41708 4.731946,-8.90152 0.139249,-0.48444 0.524534,-9.58975 0.717148,-10.05555 0.192613,-0.4658 6.3505248,-7.18408 6.5940802,-7.62538 0.2435553,-0.44131 2.645303,-9.2326 2.9367376,-9.64386 0.2914346,-0.41126 7.7899117,-5.59083 8.1255606,-5.96688 0.3356489,-0.37604 4.6334249,-8.41247 5.0090671,-8.74858 0.3756423,-0.3361 8.8386795,-3.71724 9.2495915,-4.00916 0.410911,-0.29193 6.389207,-7.17053 6.830221,-7.41462 0.441013,-0.24408 9.444239,-1.65724 9.909808,-1.85042 0.46557,-0.19317 7.824609,-5.56901 8.30888,-5.70884 0.48427,-0.13983 9.576225,0.48584 10.073107,0.40111 0.496881,-0.0847 8.867651,-3.68825 9.370895,-3.71681 0.503244,-0.0286 9.228019,2.60457 9.731298,2.63253 0.503278,0.028 9.466032,-1.62254 9.963015,-1.5384 0.496984,0.0841 8.417082,4.59269 8.901521,4.73194 0.484438,0.13925 9.589747,0.52454 10.055549,0.71715 0.465801,0.19261 7.184075,6.35052 7.625385,6.59408 0.44131,0.24356 9.23259,2.6453 9.64385,2.93674 0.41127,0.29143 5.59084,7.78991 5.96688,8.12556 0.37605,0.33565 8.41248,4.63342 8.74858,5.00907 0.3361,0.37564 3.71724,8.83868 4.00917,9.24959 0.29193,0.41091 7.17052,6.3892 7.41461,6.83022 0.24409,0.44101 1.65725,9.44424 1.85042,9.90981 0.19318,0.46557 5.56901,7.8246 5.70885,8.30888 0.13983,0.48427 -0.48585,9.57622 -0.40112,10.0731 0.0847,0.49688 3.68825,8.86765 3.71682,9.3709 0.0286,0.50324 -2.60458,9.22802 -2.63253,9.7313 -0.028,0.50327 1.62253,9.46603 1.5384,9.96301 -0.0841,0.49698 -4.5927,8.41708 -4.73195,8.90152 -0.13925,0.48444 -0.52453,9.58975 -0.71715,10.05555 -0.19261,0.4658 -6.35052,7.18408 -6.59408,7.62538 -0.24355,0.44131 -2.6453,9.2326 -2.93673,9.64386 -0.29144,0.41126 -7.78992,5.59083 -8.12556,5.96688 -0.33565,0.37604 -4.63343,8.41247 -5.00907,8.74858 z" /><path
           id="path3064"
           style="opacity:0.9959;fill:#d4aa00"
           sodipodi:type="star"
           d="m 124.37858,461.93936 c -0.37564,0.3361 -8.83868,3.71724 -9.24959,4.00916 -0.41091,0.29193 -6.38921,7.17053 -6.83022,7.41462 -0.44102,0.24408 -9.444243,1.65724 -9.909813,1.85042 -0.465569,0.19317 -7.824608,5.56901 -8.308879,5.70884 -0.48427,0.13983 -9.576225,-0.48584 -10.073107,-0.40111 -0.496882,0.0847 -8.867651,3.68825 -9.370895,3.71681 -0.503244,0.0286 -9.228019,-2.60457 -9.731298,-2.63253 -0.503278,-0.028 -9.466032,1.62254 -9.963015,1.5384 -0.496984,-0.0841 -8.417082,-4.59269 -8.901521,-4.73194 -0.484438,-0.13925 -9.589747,-0.52454 -10.055549,-0.71715 -0.465801,-0.19261 -7.184077,-6.35052 -7.625384,-6.59408 -0.441306,-0.24356 -9.232592,-2.6453 -9.643855,-2.93674 C 14.304192,467.87263 9.1246222,460.37415 8.748576,460.0385 8.3725298,459.70285 0.33609917,455.40508 -1.7639399e-6,455.02943 -0.33610271,454.65379 -3.7172418,446.19075 -4.0091708,445.77984 c -0.291929,-0.41091 -7.1705242,-6.3892 -7.4146102,-6.83022 -0.244086,-0.44101 -1.65725,-9.44424 -1.850423,-9.90981 -0.193174,-0.46557 -5.569012,-7.8246 -5.708844,-8.30888 -0.139831,-0.48427 0.485842,-9.57622 0.401111,-10.0731 -0.08473,-0.49688 -3.688246,-8.86765 -3.716811,-9.3709 -0.02857,-0.50324 2.604571,-9.22802 2.632531,-9.7313 0.02796,-0.50327 -1.622536,-9.46603 -1.538403,-9.96301 0.08413,-0.49698 4.592697,-8.41708 4.731946,-8.90152 0.139249,-0.48444 0.524534,-9.58975 0.717148,-10.05555 0.192613,-0.4658 6.3505248,-7.18408 6.5940802,-7.62538 0.2435553,-0.44131 2.645303,-9.2326 2.9367376,-9.64386 0.2914346,-0.41126 7.7899117,-5.59083 8.1255606,-5.96688 0.3356489,-0.37604 4.6334249,-8.41247 5.0090671,-8.74858 0.3756423,-0.3361 8.8386795,-3.71724 9.2495915,-4.00916 0.410911,-0.29193 6.389207,-7.17053 6.830221,-7.41462 0.441013,-0.24408 9.444239,-1.65724 9.909808,-1.85042 0.46557,-0.19317 7.824609,-5.56901 8.30888,-5.70884 0.48427,-0.13983 9.576225,0.48584 10.073107,0.40111 0.496881,-0.0847 8.867651,-3.68825 9.370895,-3.71681 0.503244,-0.0286 9.228019,2.60457 9.731298,2.63253 0.503278,0.028 9.466032,-1.62254 9.963015,-1.5384 0.496984,0.0841 8.417082,4.59269 8.901521,4.73194 0.484438,0.13925 9.589747,0.52454 10.055549,0.71715 0.465801,0.19261 7.184075,6.35052 7.625385,6.59408 0.44131,0.24356 9.23259,2.6453 9.64385,2.93674 0.41127,0.29143 5.59084,7.78991 5.96688,8.12556 0.37605,0.33565 8.41248,4.63342 8.74858,5.00907 0.3361,0.37564 3.71724,8.83868 4.00917,9.24959 0.29193,0.41091 7.17052,6.3892 7.41461,6.83022 0.24409,0.44101 1.65725,9.44424 1.85042,9.90981 0.19318,0.46557 5.56901,7.8246 5.70885,8.30888 0.13983,0.48427 -0.48585,9.57622 -0.40112,10.0731 0.0847,0.49688 3.68825,8.86765 3.71682,9.3709 0.0286,0.50324 -2.60458,9.22802 -2.63253,9.7313 -0.028,0.50327 1.62253,9.46603 1.5384,9.96301 -0.0841,0.49698 -4.5927,8.41708 -4.73195,8.90152 -0.13925,0.48444 -0.52453,9.58975 -0.71715,10.05555 -0.19261,0.4658 -6.35052,7.18408 -6.59408,7.62538 -0.24355,0.44131 -2.6453,9.2326 -2.93673,9.64386 -0.29144,0.41126 -7.78992,5.59083 -8.12556,5.96688 -0.33565,0.37604 -4.63343,8.41247 -5.00907,8.74858 z"
           sodipodi:r1="88.084557"
           inkscape:flatsided="false"
           transform="matrix(2.5983,0,0,2.4965,988.66,-666.23)"
           sodipodi:arg2="0.95309641"
           sodipodi:arg1="0.84089667"
           inkscape:randomized="0"
           sodipodi:cy="396.2951"
           sodipodi:cx="65.644249"
           inkscape:rounded="0.05"
           sodipodi:r2="85.442017"
           sodipodi:sides="28" /><path
           id="path4062"
           style="opacity:0.9959;fill:url(#radialGradient3123)"
           sodipodi:type="star"
           sodipodi:sides="28"
           sodipodi:r1="88.084557"
           sodipodi:r2="85.442017"
           sodipodi:arg1="0.84089667"
           sodipodi:arg2="0.95309641"
           transform="matrix(2.4719,0,0,2.3471,996.95,-607.05)"
           inkscape:randomized="0"
           sodipodi:cy="396.2951"
           sodipodi:cx="65.644249"
           inkscape:rounded="0.05"
           inkscape:flatsided="false"
           d="m 124.37858,461.93936 c -0.37564,0.3361 -8.83868,3.71724 -9.24959,4.00916 -0.41091,0.29193 -6.38921,7.17053 -6.83022,7.41462 -0.44102,0.24408 -9.444243,1.65724 -9.909813,1.85042 -0.465569,0.19317 -7.824608,5.56901 -8.308879,5.70884 -0.48427,0.13983 -9.576225,-0.48584 -10.073107,-0.40111 -0.496882,0.0847 -8.867651,3.68825 -9.370895,3.71681 -0.503244,0.0286 -9.228019,-2.60457 -9.731298,-2.63253 -0.503278,-0.028 -9.466032,1.62254 -9.963015,1.5384 -0.496984,-0.0841 -8.417082,-4.59269 -8.901521,-4.73194 -0.484438,-0.13925 -9.589747,-0.52454 -10.055549,-0.71715 -0.465801,-0.19261 -7.184077,-6.35052 -7.625384,-6.59408 -0.441306,-0.24356 -9.232592,-2.6453 -9.643855,-2.93674 C 14.304192,467.87263 9.1246222,460.37415 8.748576,460.0385 8.3725298,459.70285 0.33609917,455.40508 -1.7639399e-6,455.02943 -0.33610271,454.65379 -3.7172418,446.19075 -4.0091708,445.77984 c -0.291929,-0.41091 -7.1705242,-6.3892 -7.4146102,-6.83022 -0.244086,-0.44101 -1.65725,-9.44424 -1.850423,-9.90981 -0.193174,-0.46557 -5.569012,-7.8246 -5.708844,-8.30888 -0.139831,-0.48427 0.485842,-9.57622 0.401111,-10.0731 -0.08473,-0.49688 -3.688246,-8.86765 -3.716811,-9.3709 -0.02857,-0.50324 2.604571,-9.22802 2.632531,-9.7313 0.02796,-0.50327 -1.622536,-9.46603 -1.538403,-9.96301 0.08413,-0.49698 4.592697,-8.41708 4.731946,-8.90152 0.139249,-0.48444 0.524534,-9.58975 0.717148,-10.05555 0.192613,-0.4658 6.3505248,-7.18408 6.5940802,-7.62538 0.2435553,-0.44131 2.645303,-9.2326 2.9367376,-9.64386 0.2914346,-0.41126 7.7899117,-5.59083 8.1255606,-5.96688 0.3356489,-0.37604 4.6334249,-8.41247 5.0090671,-8.74858 0.3756423,-0.3361 8.8386795,-3.71724 9.2495915,-4.00916 0.410911,-0.29193 6.389207,-7.17053 6.830221,-7.41462 0.441013,-0.24408 9.444239,-1.65724 9.909808,-1.85042 0.46557,-0.19317 7.824609,-5.56901 8.30888,-5.70884 0.48427,-0.13983 9.576225,0.48584 10.073107,0.40111 0.496881,-0.0847 8.867651,-3.68825 9.370895,-3.71681 0.503244,-0.0286 9.228019,2.60457 9.731298,2.63253 0.503278,0.028 9.466032,-1.62254 9.963015,-1.5384 0.496984,0.0841 8.417082,4.59269 8.901521,4.73194 0.484438,0.13925 9.589747,0.52454 10.055549,0.71715 0.465801,0.19261 7.184075,6.35052 7.625385,6.59408 0.44131,0.24356 9.23259,2.6453 9.64385,2.93674 0.41127,0.29143 5.59084,7.78991 5.96688,8.12556 0.37605,0.33565 8.41248,4.63342 8.74858,5.00907 0.3361,0.37564 3.71724,8.83868 4.00917,9.24959 0.29193,0.41091 7.17052,6.3892 7.41461,6.83022 0.24409,0.44101 1.65725,9.44424 1.85042,9.90981 0.19318,0.46557 5.56901,7.8246 5.70885,8.30888 0.13983,0.48427 -0.48585,9.57622 -0.40112,10.0731 0.0847,0.49688 3.68825,8.86765 3.71682,9.3709 0.0286,0.50324 -2.60458,9.22802 -2.63253,9.7313 -0.028,0.50327 1.62253,9.46603 1.5384,9.96301 -0.0841,0.49698 -4.5927,8.41708 -4.73195,8.90152 -0.13925,0.48444 -0.52453,9.58975 -0.71715,10.05555 -0.19261,0.4658 -6.35052,7.18408 -6.59408,7.62538 -0.24355,0.44131 -2.6453,9.2326 -2.93673,9.64386 -0.29144,0.41126 -7.78992,5.59083 -8.12556,5.96688 -0.33565,0.37604 -4.63343,8.41247 -5.00907,8.74858 z" /><path
           id="path4112"
           sodipodi:rx="152.53304"
           sodipodi:ry="153.54318"
           style="opacity:0.9959;fill:#0000ff"
           sodipodi:type="arc"
           d="m 1232.3861,379.60059 a 152.53304,153.54318 0 0 1 -152.28,153.54297 152.53304,153.54318 0 0 1 -152.78527,-153.0334 152.53304,153.54318 0 0 1 151.77287,-154.05085 152.53304,153.54318 0 0 1 153.289,152.52214"
           sodipodi:open="true"
           transform="translate(79.365,-56.489)"
           sodipodi:cy="379.60059"
           sodipodi:cx="1079.853"
           sodipodi:end="6.2765478"
           sodipodi:start="0"
           sodipodi:arc-type="arc" /><path
           id="path4114"
           sodipodi:rx="152.53304"
           sodipodi:ry="153.54318"
           style="opacity:0.9959;fill:url(#linearGradient3125)"
           sodipodi:type="arc"
           d="m 1232.3861,379.60059 a 152.53304,153.54318 0 0 1 -152.28,153.54297 152.53304,153.54318 0 0 1 -152.78527,-153.0334 152.53304,153.54318 0 0 1 151.77287,-154.05085 152.53304,153.54318 0 0 1 153.289,152.52214"
           sodipodi:open="true"
           transform="matrix(0.88079,0,0,0.86842,208.09,-6.5414)"
           sodipodi:cy="379.60059"
           sodipodi:cx="1079.853"
           sodipodi:end="6.2765478"
           sodipodi:start="0"
           sodipodi:arc-type="arc" /><path
           id="path4219"
           sodipodi:rx="29.294424"
           sodipodi:ry="30.304577"
           style="opacity:0.31557;fill:#ececec;filter:url(#filter4485)"
           sodipodi:type="arc"
           d="m 462.64986,292.72748 a 29.294424,30.304577 0 0 1 -29.24581,30.30453 29.294424,30.304577 0 0 1 -29.34287,-30.20396 29.294424,30.304577 0 0 1 29.14843,-30.40477 29.294424,30.304577 0 0 1 29.43961,30.10305"
           sodipodi:open="true"
           transform="translate(725.86,30.384)"
           sodipodi:cy="292.72748"
           sodipodi:cx="433.35544"
           sodipodi:end="6.2765478"
           sodipodi:start="0"
           sodipodi:arc-type="arc" /></g></g></g></svg>
