<?xml version="1.0" encoding="UTF-8" standalone="no"?>
<!-- Created with Inkscape (http://www.inkscape.org/) -->

<svg
   width="500"
   height="800"
   viewBox="0 0 132.29167 211.66667"
   version="1.1"
   id="svg1"
   inkscape:version="1.3.2 (091e20e, 2023-11-25, custom)"
   sodipodi:docname="caldecott_winners.svg"
   xml:space="preserve"
   inkscape:export-filename="academy_award_best_picture.png"
   inkscape:export-xdpi="96"
   inkscape:export-ydpi="96"
   xmlns:inkscape="http://www.inkscape.org/namespaces/inkscape"
   xmlns:sodipodi="http://sodipodi.sourceforge.net/DTD/sodipodi-0.dtd"
   xmlns="http://www.w3.org/2000/svg"
   xmlns:svg="http://www.w3.org/2000/svg"><sodipodi:namedview
     id="namedview1"
     pagecolor="#ffffff"
     bordercolor="#000000"
     borderopacity="0.25"
     inkscape:showpageshadow="2"
     inkscape:pageopacity="0.0"
     inkscape:pagecheckerboard="0"
     inkscape:deskcolor="#d1d1d1"
     inkscape:document-units="mm"
     inkscape:zoom="1.0242632"
     inkscape:cx="174.75977"
     inkscape:cy="239.68448"
     inkscape:window-width="1920"
     inkscape:window-height="1009"
     inkscape:window-x="1912"
     inkscape:window-y="-8"
     inkscape:window-maximized="1"
     inkscape:current-layer="layer1" /><defs
     id="defs1"><rect
       x="-1060.3876"
       y="229.19836"
       width="764.91501"
       height="207.10695"
       id="rect6" /><linearGradient
       id="swatch6"
       inkscape:swatch="solid"><stop
         style="stop-color:#000000;stop-opacity:0;"
         offset="0"
         id="stop6" /></linearGradient><rect
       x="578.51875"
       y="-15.187843"
       width="416.97534"
       height="45.563528"
       id="rect5" /><rect
       x="-552.28521"
       y="331.37112"
       width="653.07726"
       height="247.14763"
       id="rect4" /><rect
       x="26.233547"
       y="139.45201"
       width="512.24453"
       height="262.33547"
       id="rect8" /><rect
       x="22.091408"
       y="197.44196"
       width="479.10742"
       height="171.20841"
       id="rect2" /><rect
       x="62.132088"
       y="675.16864"
       width="668.26508"
       height="201.58411"
       id="rect1" /><rect
       x="26.233547"
       y="139.45201"
       width="471.6465"
       height="49.73008"
       id="rect8-3" /><rect
       x="26.233547"
       y="139.45201"
       width="471.6465"
       height="49.73008"
       id="rect7" /><rect
       x="26.233547"
       y="139.45201"
       width="512.24453"
       height="262.33547"
       id="rect9" /></defs><g
     inkscape:label="Layer 1"
     inkscape:groupmode="layer"
     id="layer1"
     transform="translate(-74.273847,-182.25543)"><rect
       style="fill:#b4d6f5;fill-opacity:1;fill-rule:evenodd;stroke:#cae7fd;stroke-width:0"
       id="rect3"
       width="132.29167"
       height="211.66667"
       x="74.273849"
       y="182.25543" /><text
       xml:space="preserve"
       transform="matrix(0.34199817,0,0,0.34199817,43.854297,290.64872)"
       id="text8"
       style="font-weight:bold;font-size:42px;line-height:0;font-family:'Public Sans';-inkscape-font-specification:'Public Sans, Bold';letter-spacing:0px;word-spacing:0px;white-space:pre;shape-inside:url(#rect8);display:inline;fill:#1a1a1a;fill-rule:evenodd;stroke:#cae7fd;stroke-width:0"
       x="117.36908"
       y="0"><tspan
         x="117.11795"
         y="177.60862"
         id="tspan2"><tspan
           style="line-height:1.2;text-align:center;text-anchor:middle"
           id="tspan1">Caldecott Medal
</tspan></tspan><tspan
         x="199.64788"
         y="228.00861"
         id="tspan6"><tspan
           style="line-height:1.2;text-align:center;text-anchor:middle"
           id="tspan5">Winners</tspan></tspan></text><text
       xml:space="preserve"
       transform="matrix(0.35520725,0,0,0.35520725,77.774109,145.81796)"
       id="text8-5"
       style="font-weight:bold;font-size:42px;line-height:0;font-family:'Public Sans';-inkscape-font-specification:'Public Sans, Bold';letter-spacing:0px;word-spacing:0px;white-space:pre;shape-inside:url(#rect8-3);display:inline;fill:#000000;fill-rule:evenodd;stroke:#cae7fd;stroke-width:0"
       x="117.36908"
       y="0"><tspan
         x="26.234375"
         y="152.40862"
         id="tspan7">Award Winners</tspan></text><g
       id="layer1-8"
       transform="matrix(0.20670608,0,0,0.20670608,62.589559,360.89545)"><path
         id="path4672"
         d="m 349.67,-704.22 -2.0229,3.4642 -23.365,39.902 -39.143,-24.68 -3.3884,-2.1494 -1.0115,3.8941 -11.758,44.732 -44.327,-13.2 -3.8435,-1.1379 0.0506,3.9953 0.75859,46.249 -46.249,-0.75859 -4.0205,-0.0506 1.1632,3.8436 13.2,44.327 -44.757,11.758 -3.8688,1.0115 2.1494,3.3884 24.68,39.118 -39.927,23.39 -3.4642,2.0482 2.9838,2.6804 34.314,31.026 -32.114,33.277 -2.7815,2.8826 3.5907,1.7953 41.419,20.608 -21.949,40.711 -1.9218,3.5401 3.9447,0.7586 45.44,8.648 -10.14,45.136 -0.88503,3.9194 3.9953,-0.32873 46.072,-3.9194 2.4275,46.198 0.20229,3.9953 3.7677,-1.3908 43.316,-16.209 14.767,43.847 1.2896,3.793 3.2367,-2.3769 37.348,-27.284 26.07,38.233 2.2505,3.3125 2.4781,-3.1608 28.599,-36.337 35.401,29.762 3.085,2.5792 1.5425,-3.7171 17.726,-42.709 42.127,19.117 3.6412,1.6436 0.48045,-3.97 5.563,-45.92 45.718,7.0549 3.9447,0.60687 -0.60687,-3.97 -7.0549,-45.718 45.945,-5.563 3.97,-0.48045 -1.6436,-3.6412 -19.117,-42.127 42.709,-17.726 3.7171,-1.5425 -2.6045,-3.0597 -29.762,-35.401 36.362,-28.624 3.1355,-2.4781 -3.3125,-2.2505 -38.208,-26.045 27.284,-37.373 2.3769,-3.2367 -3.8183,-1.2643 -43.821,-14.793 16.183,-43.316 1.416,-3.7677 -3.9953,-0.20229 -46.224,-2.4022 3.9194,-46.097 0.35401,-3.9953 -3.9194,0.88504 -45.111,10.165 -8.6985,-45.465 -0.7586,-3.9194 -3.5148,1.8965 -40.711,21.949 -20.608,-41.419 -1.7953,-3.5907 -2.8826,2.7815 -33.302,32.139 -31.001,-34.339 -2.7057,-2.9585 z m 1.0367,9.887 30.344,33.606 2.0482,2.2505 2.1746,-2.1241 32.594,-31.431 20.179,40.534 1.3402,2.7309 2.6804,-1.4413 39.877,-21.493 8.471,44.479 0.58159,2.9838 2.9585,-0.65744 44.201,-9.9376 -3.8435,45.111 -0.25287,3.0344 3.0344,0.15173 45.212,2.3516 -15.855,42.405 -1.062,2.8574 2.8827,0.96089 42.886,14.464 -26.702,36.564 -1.7953,2.4528 2.5286,1.7195 37.399,25.514 -35.578,27.992 -2.4022,1.8712 1.9724,2.3264 29.155,34.668 -41.849,17.346 -2.7815,1.1885 1.239,2.7562 18.737,41.242 -44.985,5.4113 -3.0091,0.37929 0.45515,3.0091 6.9032,44.757 -44.757,-6.9032 -2.9838,-0.48044 -0.37929,3.0344 -5.4366,44.934 -41.217,-18.712 -2.7815,-1.239 -1.1632,2.8068 -17.346,41.824 -34.668,-29.155 -2.3264,-1.9471 -1.8712,2.3769 -28.017,35.578 -25.489,-37.399 -1.7195,-2.5034 -2.4528,1.77 -36.564,26.728 -14.464,-42.911 -0.96089,-2.8827 -2.8574,1.062 -42.405,15.855 -2.3516,-45.212 -0.17701,-3.0344 -3.0091,0.25287 -45.136,3.8435 9.9376,-44.201 0.68273,-2.9585 -2.9838,-0.5563 -44.479,-8.4962 21.468,-39.877 1.4413,-2.6551 -2.7056,-1.3655 -40.559,-20.153 31.456,-32.594 2.0988,-2.1999 -2.2505,-2.0229 -33.606,-30.369 39.093,-22.91 2.6045,-1.5172 -1.6183,-2.5792 -24.149,-38.284 43.796,-11.531 2.9332,-0.75859 -0.85975,-2.908 -12.947,-43.392 45.288,0.73331 3.0344,0.0506 -0.0506,-3.0344 -0.70802,-45.288 43.392,12.921 2.908,0.88503 0.75859,-2.9585 11.505,-43.796 38.309,24.174 2.5539,1.6183 1.5425,-2.6298 22.91,-39.068 z"
         style="color:#000000;text-indent:0;text-transform:none"
         fill="#870303" /><path
         id="path4662"
         fill="#e60000"
         transform="matrix(0.80917,0,0,0.80917,-5.5271,-8.0033)"
         d="m 691.45,-324.76 -60.21,-9.2793 -7.3092,60.481 -55.474,-25.18 -23.356,56.266 -46.623,-39.213 -37.67,47.878 -34.315,-50.337 -49.19,35.939 -19.462,-57.729 -57.063,21.335 -3.1648,-60.839 -60.703,5.1488 13.367,-59.436 -59.841,-11.42 28.907,-53.626 -54.541,-27.141 42.303,-43.839 -45.196,-40.849 52.562,-30.8 -32.499,-51.528 58.922,-15.477 -17.392,-58.386 60.913,0.99432 -0.99433,-60.913 58.386,17.392 15.477,-58.922 51.528,32.499 30.8,-52.562 40.849,45.196 43.839,-42.303 27.141,54.541 53.626,-28.907 11.42,59.841 59.436,-13.367 -5.1488,60.703 60.839,3.1648 -21.335,57.063 57.729,19.462 -35.939,49.19 50.337,34.315 -47.878,37.67 39.213,46.623 -56.266,23.356 25.18,55.474 -60.481,7.3092 z" /><g
         id="g4668"
         stroke="#4f3a02"
         stroke-width="8"
         transform="matrix(0.73489,0,0,0.73489,29.487,-48.466)"><path
           id="path4664"
           fill="#e69b00"
           d="m 691.45,-324.76 -60.21,-9.2793 -7.3092,60.481 -55.474,-25.18 -23.356,56.266 -46.623,-39.213 -37.67,47.878 -34.315,-50.337 -49.19,35.939 -19.462,-57.729 -57.063,21.335 -3.1648,-60.839 -60.703,5.1488 13.367,-59.436 -59.841,-11.42 28.907,-53.626 -54.541,-27.141 42.303,-43.839 -45.196,-40.849 52.562,-30.8 -32.499,-51.528 58.922,-15.477 -17.392,-58.386 60.913,0.99432 -0.99433,-60.913 58.386,17.392 15.477,-58.922 51.528,32.499 30.8,-52.562 40.849,45.196 43.839,-42.303 27.141,54.541 53.626,-28.907 11.42,59.841 59.436,-13.367 -5.1488,60.703 60.839,3.1648 -21.335,57.063 57.729,19.462 -35.939,49.19 50.337,34.315 -47.878,37.67 39.213,46.623 -56.266,23.356 25.18,55.474 -60.481,7.3092 z" /><path
           id="path4666"
           fill="#ffdd55"
           transform="matrix(0.99144,-0.13053,0.13053,0.99144,75.141,56.873)"
           d="m 691.45,-324.76 -60.21,-9.2793 -7.3092,60.481 -55.474,-25.18 -23.356,56.266 -46.623,-39.213 -37.67,47.878 -34.315,-50.337 -49.19,35.939 -19.462,-57.729 -57.063,21.335 -3.1648,-60.839 -60.703,5.1488 13.367,-59.436 -59.841,-11.42 28.907,-53.626 -54.541,-27.141 42.303,-43.839 -45.196,-40.849 52.562,-30.8 -32.499,-51.528 58.922,-15.477 -17.392,-58.386 60.913,0.99432 -0.99433,-60.913 58.386,17.392 15.477,-58.922 51.528,32.499 30.8,-52.562 40.849,45.196 43.839,-42.303 27.141,54.541 53.626,-28.907 11.42,59.841 59.436,-13.367 -5.1488,60.703 60.839,3.1648 -21.335,57.063 57.729,19.462 -35.939,49.19 50.337,34.315 -47.878,37.67 39.213,46.623 -56.266,23.356 25.18,55.474 -60.481,7.3092 z" /></g><path
         id="path4658"
         fill="#e69b00"
         transform="matrix(0.73489,0,0,0.73489,29.487,-48.466)"
         d="m 691.45,-324.76 -60.21,-9.2793 -7.3092,60.481 -55.474,-25.18 -23.356,56.266 -46.623,-39.213 -37.67,47.878 -34.315,-50.337 -49.19,35.939 -19.462,-57.729 -57.063,21.335 -3.1648,-60.839 -60.703,5.1488 13.367,-59.436 -59.841,-11.42 28.907,-53.626 -54.541,-27.141 42.303,-43.839 -45.196,-40.849 52.562,-30.8 -32.499,-51.528 58.922,-15.477 -17.392,-58.386 60.913,0.99432 -0.99433,-60.913 58.386,17.392 15.477,-58.922 51.528,32.499 30.8,-52.562 40.849,45.196 43.839,-42.303 27.141,54.541 53.626,-28.907 11.42,59.841 59.436,-13.367 -5.1488,60.703 60.839,3.1648 -21.335,57.063 57.729,19.462 -35.939,49.19 50.337,34.315 -47.878,37.67 39.213,46.623 -56.266,23.356 25.18,55.474 -60.481,7.3092 z" /><path
         id="path4660"
         fill="#ffdd55"
         transform="matrix(0.72861,-0.095923,0.095923,0.72861,84.708,-6.6698)"
         d="m 691.45,-324.76 -60.21,-9.2793 -7.3092,60.481 -55.474,-25.18 -23.356,56.266 -46.623,-39.213 -37.67,47.878 -34.315,-50.337 -49.19,35.939 -19.462,-57.729 -57.063,21.335 -3.1648,-60.839 -60.703,5.1488 13.367,-59.436 -59.841,-11.42 28.907,-53.626 -54.541,-27.141 42.303,-43.839 -45.196,-40.849 52.562,-30.8 -32.499,-51.528 58.922,-15.477 -17.392,-58.386 60.913,0.99432 -0.99433,-60.913 58.386,17.392 15.477,-58.922 51.528,32.499 30.8,-52.562 40.849,45.196 43.839,-42.303 27.141,54.541 53.626,-28.907 11.42,59.841 59.436,-13.367 -5.1488,60.703 60.839,3.1648 -21.335,57.063 57.729,19.462 -35.939,49.19 50.337,34.315 -47.878,37.67 39.213,46.623 -56.266,23.356 25.18,55.474 -60.481,7.3092 z" /><path
         id="path4676"
         d="m 219.43,383.67 c -67.862,-19.802 -106.82,-90.868 -87.022,-158.73 19.802,-67.862 90.868,-106.82 158.73,-87.022 67.862,19.802 106.82,90.868 87.022,158.73 -19.799,67.853 -90.85,106.81 -158.71,87.028"
         fill="none"
         transform="matrix(0.31234,1.1657,-1.1657,0.31234,598.06,-824.52)" /><path
         id="path4695"
         d="m 219.43,383.67 c -67.862,-19.802 -106.82,-90.868 -87.022,-158.73 19.802,-67.862 90.868,-106.82 158.73,-87.022 67.862,19.802 106.82,90.868 87.022,158.73 -19.799,67.853 -90.85,106.81 -158.71,87.028"
         transform="matrix(1.3718,0,0,1.3718,23.594,-803.24)"
         stroke="#e6b52d"
         stroke-width="5.7857"
         fill="#e6b52d" /><path
         id="path4693"
         d="m 219.43,383.67 c -67.862,-19.802 -106.82,-90.868 -87.022,-158.73 19.802,-67.862 90.868,-106.82 158.73,-87.022 67.862,19.802 106.82,90.868 87.022,158.73 -19.799,67.853 -90.85,106.81 -158.71,87.028"
         fill="#ece15f"
         transform="matrix(1.3718,0,0,1.3718,23.594,-803.24)" /></g><text
       xml:space="preserve"
       transform="matrix(0.26458333,0,0,0.26458333,74.273847,182.25543)"
       id="text1"
       style="fill:#b4d6f5;stroke-width:0;font-size:40px;-inkscape-font-specification:'Public Sans, Bold';font-family:'Public Sans';stroke:#cae7fd;fill-rule:evenodd;line-height:0.9;letter-spacing:0px;word-spacing:0px;font-weight:bold;text-align:center;opacity:0.17994859;fill-opacity:1;white-space:pre;shape-inside:url(#rect4)" /><text
       xml:space="preserve"
       transform="matrix(0.34461718,0,0,0.38707242,43.060519,194.37868)"
       id="text9"
       style="font-weight:bold;font-size:42px;line-height:0;font-family:'Public Sans';-inkscape-font-specification:'Public Sans, Bold';letter-spacing:0px;word-spacing:0px;white-space:pre;shape-inside:url(#rect9);display:inline;fill:#1a1a1a;fill-rule:evenodd;stroke:#cae7fd;stroke-width:0"
       x="117.36908"
       y="0"><tspan
         x="184.52793"
         y="177.60862"
         id="tspan10"><tspan
           style="line-height:1.2;text-align:center;text-anchor:middle"
           id="tspan8">Caldecott
</tspan></tspan><tspan
         x="219.68197"
         y="228.00861"
         id="tspan12"><tspan
           style="line-height:1.2;text-align:center;text-anchor:middle"
           id="tspan11">Medal</tspan></tspan></text></g></svg>
