<?xml version="1.0" encoding="UTF-8" standalone="no"?>
<!-- Created with Inkscape (http://www.inkscape.org/) -->

<svg
   id="svg2"
   sodipodi:docname="bob.svg"
   viewBox="0 0 149.99999 150"
   version="1.1"
   inkscape:version="1.2.2 (732a01da63, 2022-12-09)"
   width="150"
   height="150"
   xmlns:inkscape="http://www.inkscape.org/namespaces/inkscape"
   xmlns:sodipodi="http://sodipodi.sourceforge.net/DTD/sodipodi-0.dtd"
   xmlns="http://www.w3.org/2000/svg"
   xmlns:svg="http://www.w3.org/2000/svg"
   xmlns:rdf="http://www.w3.org/1999/02/22-rdf-syntax-ns#"
   xmlns:cc="http://creativecommons.org/ns#"
   xmlns:dc="http://purl.org/dc/elements/1.1/">
  <defs
     id="defs41" />
  <sodipodi:namedview
     id="base"
     bordercolor="#666666"
     inkscape:pageshadow="2"
     inkscape:window-y="-8"
     pagecolor="#ffffff"
     inkscape:window-height="1009"
     inkscape:window-maximized="1"
     inkscape:zoom="1"
     inkscape:window-x="1912"
     showgrid="false"
     borderopacity="1.0"
     inkscape:current-layer="layer1"
     inkscape:cx="173"
     inkscape:cy="79"
     inkscape:window-width="1920"
     inkscape:pageopacity="0.0"
     inkscape:document-units="px"
     inkscape:showpageshadow="2"
     inkscape:pagecheckerboard="0"
     inkscape:deskcolor="#d1d1d1" />
  <g
     id="layer1"
     inkscape:label="Capa 1"
     inkscape:groupmode="layer"
     transform="translate(-104.18901,-215.98)">
    <path
       id="path3686"
       sodipodi:nodetypes="csacccccccccccccsc"
       style="fill:#2e3436;stroke-width:1"
       d="m 160.00399,215.98 c -5.09284,0 -6.21615,0.24646 -9.03285,1.99745 -4.39504,2.73213 -8.45103,5.86318 -11.32493,11.65705 -5.71357,11.51711 -9.98363,42.33449 -9.98363,42.33449 l 4.43157,0.26832 c 2.4362,0.14205 16.08913,0.32693 30.34188,0.41737 l 25.91054,0.17888 -0.27167,-7.27428 c -0.13708,-3.66438 -0.42295,-6.98138 -0.88293,-10.16627 l 51.97392,2.62232 3.79242,6.39241 9.23069,-5.73534 v -23.96935 l -8.66998,-6.24292 -4.90156,6.9241 -55.92612,2.80688 c -3.59579,-9.04099 -9.0455,-16.1047 -15.655,-20.21319 -2.8167,-1.75098 -3.94019,-1.99744 -9.03285,-1.99744 z" />
    <path
       id="path2827"
       sodipodi:nodetypes="ccccccc"
       style="fill:#2e3436;stroke-width:1"
       d="m 124.3733,274.41754 c -3.00268,4.39339 -5.06096,6.32531 -10.3915,28.02433 h 106.62952 c -7.78436,-8.92491 -10.06989,-17.50821 -23.43139,-26.56319 l -30.35876,-0.53663 c -16.69251,-0.29665 -33.05824,-0.64346 -36.38643,-0.74531 l -6.06144,-0.17888 z" />
    <ellipse
       id="path2832"
       style="fill:#2e3436;stroke-width:1.00036"
       cx="142.76935"
       cy="334.63263"
       rx="12.965184"
       ry="22.764746" />
    <path
       id="rect3619"
       sodipodi:nodetypes="ccsccccc"
       style="fill:none;stroke:#2e3436;stroke-width:7.99999"
       d="M 118.96775,307.84687 H 220.8809 c 0,0 12.30665,-0.29484 13.21336,9.33075 3.70146,39.29367 -24.46516,44.80239 -24.46516,44.80239 h -83.16015 c -7.5298,0 -18.27995,-10.64372 -18.27995,-23.86481 v -11.34177 c 0,-13.2211 3.24905,-18.92573 10.77875,-18.92573 z" />
    <g
       id="g3721"
       transform="matrix(0.27422034,0,0,0.48148614,19.031172,90.566077)"
       style="stroke-width:1.60971">
      <circle
         id="path3723"
         style="fill:#2e3436;stroke-width:2.35094"
         transform="matrix(1.5358,0,0,1.5358,108.61,-213.86)"
         cx="168.92857"
         cy="462.00504"
         r="18.928572" />
      <g
         id="g3725"
         transform="translate(121.62,-3.0129)"
         style="stroke-width:1.60971">
        <rect
           id="rect3727"
           style="fill:#2e3436;stroke-width:1.60971"
           ry="7.3014417"
           height="24.042"
           width="12.021"
           y="461.22"
           x="240.42"
           rx="12.820139" />
        <rect
           id="rect3729"
           style="fill:#2e3436;stroke-width:1.60971"
           ry="7.3014417"
           height="24.042"
           width="12.021"
           y="512.13"
           x="240.42"
           rx="12.820139" />
      </g>
      <g
         id="g3731"
         transform="matrix(0.70711,-0.70711,0.70711,0.70711,-158.83,317.3)"
         style="stroke-width:1.60971">
        <rect
           id="rect3733"
           style="fill:#2e3436;stroke-width:1.60971"
           ry="7.3014417"
           height="24.042"
           width="12.021"
           y="461.22"
           x="240.42"
           rx="12.820139" />
        <rect
           id="rect3735"
           style="fill:#2e3436;stroke-width:1.60971"
           ry="7.3014417"
           height="24.042"
           width="12.021"
           y="512.13"
           x="240.42"
           rx="12.820139" />
      </g>
      <g
         id="g3737"
         transform="rotate(-90,305.73,436.38)"
         style="stroke-width:1.60971">
        <rect
           id="rect3739"
           style="fill:#2e3436;stroke-width:1.60971"
           ry="7.3014417"
           height="24.042"
           width="12.021"
           y="461.22"
           x="240.42"
           rx="12.820139" />
        <rect
           id="rect3741"
           style="fill:#2e3436;stroke-width:1.60971"
           ry="7.3014417"
           height="24.042"
           width="12.021"
           y="512.13"
           x="240.42"
           rx="12.820139" />
      </g>
      <g
         id="g3743"
         transform="matrix(-0.70711,-0.70711,0.70711,-0.70711,189.67,1022.6)"
         style="stroke-width:1.60971">
        <rect
           id="rect3745"
           style="fill:#2e3436;stroke-width:1.60971"
           ry="7.3014417"
           height="24.042"
           width="12.021"
           y="461.22"
           x="240.42"
           rx="12.820139" />
        <rect
           id="rect3747"
           style="fill:#2e3436;stroke-width:1.60971"
           ry="7.3014417"
           height="24.042"
           width="12.021"
           y="512.13"
           x="240.42"
           rx="12.820139" />
      </g>
    </g>
    <ellipse
       id="path3777"
       style="fill:#2e3436;stroke-width:1.00036"
       cx="170.06302"
       cy="335.18414"
       rx="12.965184"
       ry="22.764746" />
    <ellipse
       id="path3779"
       style="fill:#2e3436;stroke-width:1.00036"
       cx="197.35698"
       cy="335.18414"
       rx="12.965184"
       ry="22.764746" />
    <g
       id="g4287"
       transform="matrix(0.21166973,0,0,0.37165748,145.89705,142.1243)"
       style="stroke-width:1.60971">
      <circle
         id="path4289"
         style="fill:#2e3436;stroke-width:2.35094"
         transform="matrix(1.5358,0,0,1.5358,108.61,-213.86)"
         cx="168.92857"
         cy="462.00504"
         r="18.928572" />
      <g
         id="g4291"
         transform="translate(121.62,-3.0129)"
         style="stroke-width:1.60971">
        <rect
           id="rect4293"
           style="fill:#2e3436;stroke-width:1.60971"
           ry="7.3014417"
           height="24.042"
           width="12.021"
           y="461.22"
           x="240.42"
           rx="12.820139" />
        <rect
           id="rect4295"
           style="fill:#2e3436;stroke-width:1.60971"
           ry="7.3014417"
           height="24.042"
           width="12.021"
           y="512.13"
           x="240.42"
           rx="12.820139" />
      </g>
      <g
         id="g4297"
         transform="matrix(0.70711,-0.70711,0.70711,0.70711,-158.83,317.3)"
         style="stroke-width:1.60971">
        <rect
           id="rect4299"
           style="fill:#2e3436;stroke-width:1.60971"
           ry="7.3014417"
           height="24.042"
           width="12.021"
           y="461.22"
           x="240.42"
           rx="12.820139" />
        <rect
           id="rect4301"
           style="fill:#2e3436;stroke-width:1.60971"
           ry="7.3014417"
           height="24.042"
           width="12.021"
           y="512.13"
           x="240.42"
           rx="12.820139" />
      </g>
      <g
         id="g4303"
         transform="rotate(-90,305.73,436.38)"
         style="stroke-width:1.60971">
        <rect
           id="rect4305"
           style="fill:#2e3436;stroke-width:1.60971"
           ry="7.3014417"
           height="24.042"
           width="12.021"
           y="461.22"
           x="240.42"
           rx="12.820139" />
        <rect
           id="rect4307"
           style="fill:#2e3436;stroke-width:1.60971"
           ry="7.3014417"
           height="24.042"
           width="12.021"
           y="512.13"
           x="240.42"
           rx="12.820139" />
      </g>
      <g
         id="g4309"
         transform="matrix(-0.70711,-0.70711,0.70711,-0.70711,189.67,1022.6)"
         style="stroke-width:1.60971">
        <rect
           id="rect4311"
           style="fill:#2e3436;stroke-width:1.60971"
           ry="7.3014417"
           height="24.042"
           width="12.021"
           y="461.22"
           x="240.42"
           rx="12.820139" />
        <rect
           id="rect4313"
           style="fill:#2e3436;stroke-width:1.60971"
           ry="7.3014417"
           height="24.042"
           width="12.021"
           y="512.13"
           x="240.42"
           rx="12.820139" />
      </g>
    </g>
  </g>
  <metadata
     id="metadata38">
    <rdf:RDF>
      <cc:Work>
        <dc:format>image/svg+xml</dc:format>
        <dc:type
           rdf:resource="http://purl.org/dc/dcmitype/StillImage" />
        <cc:license
           rdf:resource="http://creativecommons.org/licenses/publicdomain/" />
        <dc:publisher>
          <cc:Agent
             rdf:about="http://openclipart.org/">
            <dc:title>Openclipart</dc:title>
          </cc:Agent>
        </dc:publisher>
        <dc:title>comic black tank </dc:title>
        <dc:date>2010-11-20T11:34:50</dc:date>
        <dc:description>A flat black tank (not realistic)</dc:description>
        <dc:source>https://openclipart.org/detail/97015/comic-black-tank--by-rg1024</dc:source>
        <dc:creator>
          <cc:Agent>
            <dc:title>rg1024</dc:title>
          </cc:Agent>
        </dc:creator>
        <dc:subject>
          <rdf:Bag>
            <rdf:li>comic style</rdf:li>
            <rdf:li>peace</rdf:li>
            <rdf:li>tank</rdf:li>
            <rdf:li>war</rdf:li>
          </rdf:Bag>
        </dc:subject>
      </cc:Work>
      <cc:License
         rdf:about="http://creativecommons.org/licenses/publicdomain/">
        <cc:permits
           rdf:resource="http://creativecommons.org/ns#Reproduction" />
        <cc:permits
           rdf:resource="http://creativecommons.org/ns#Distribution" />
        <cc:permits
           rdf:resource="http://creativecommons.org/ns#DerivativeWorks" />
      </cc:License>
    </rdf:RDF>
  </metadata>
</svg>
