<?xml version="1.0" encoding="UTF-8" standalone="no"?>
<!DOCTYPE svg PUBLIC "-//W3C//DTD SVG 1.0//EN" "http://www.w3.org/TR/2001/REC-SVG-20010904/DTD/svg10.dtd">
<svg xmlns="http://www.w3.org/2000/svg" xmlns:xlink="http://www.w3.org/1999/xlink" id="body_1" width="99" height="100">

<g transform="matrix(0.71616095 0 0 0.71616095 0.259534 -0)">
	<g transform="matrix(1 0 0 1 415.789 -394.204)">
        <path d="M-347.03275 394.67935C -352.0785 398.74866 -354.56744 406.1606 -355.65616 415.11813C -359.74237 407.073 -364.61566 400.9592 -370.749 398.86087C -374.09863 404.41052 -373.90256 412.22675 -371.86194 421.01636C -378.45325 414.85413 -385.12354 410.77585 -391.60455 410.9018C -392.8541 417.2624 -389.99643 424.54025 -385.07257 432.10193C -393.37408 428.5656 -401.03708 427.0146 -407.08423 429.34958C -406.08295 435.7541 -400.90836 441.61557 -393.69516 447.03717C -402.7055 446.55347 -410.4369 447.71683 -415.32074 451.97928C -412.1894 457.65512 -405.32208 461.39322 -396.6896 464.02084C -405.32208 466.64795 -412.18933 470.38544 -415.32086 476.06116C -410.43713 480.3237 -402.7056 481.48785 -393.69513 481.0046C -400.9084 486.42575 -406.08316 492.2864 -407.0846 498.69092C -401.0375 501.02606 -393.37396 499.47552 -385.07214 495.93964C -389.99628 503.50095 -392.85446 510.7781 -391.60504 517.1389C -385.12393 517.26495 -378.45294 513.1867 -371.86108 507.02454C -373.90213 515.8141 -374.09903 523.63 -370.74945 529.1799C -364.61646 527.08185 -359.74268 520.96844 -355.6561 512.92426C -354.56726 521.88074 -352.07812 529.29254 -347.03268 533.36206C -341.98706 529.29193 -339.49875 521.88 -338.4105 512.92303C -334.32388 520.9676 -329.44986 527.08154 -323.3166 529.18005C -319.9673 523.6297 -320.1641 515.8137 -322.20496 507.02457C -315.61337 513.1864 -308.94205 517.2646 -302.46088 517.1389C -301.21188 510.77786 -304.07016 503.5006 -308.9939 495.93967C -300.69244 499.47537 -293.0286 501.02576 -286.9813 498.69095C -287.98325 492.2864 -293.1579 486.4256 -300.37064 481.00464C -291.36063 481.4878 -283.62878 480.3236 -278.74478 476.0612C -281.8768 470.3856 -288.74393 466.6481 -297.3758 464.021C -288.74396 461.39346 -281.8767 457.655 -278.74506 451.9793C -283.6294 447.71713 -291.36072 446.55365 -300.37064 447.03735C -293.15793 441.61594 -287.9833 435.75412 -286.98172 429.3496C -293.02927 427.01498 -300.69235 428.56628 -308.9935 432.10236C -304.0699 424.54086 -301.2121 417.2627 -302.4614 410.9018C -308.94266 410.77634 -315.61304 414.8549 -322.20416 421.01675C -320.16367 412.22736 -319.9676 404.41077 -323.3171 398.86072C -329.45074 400.95978 -334.3239 407.0743 -338.4102 415.1195C -339.49832 406.16138 -341.98666 398.74905 -347.03265 394.67932L-347.03265 394.67932L-347.03275 394.67935z" stroke="#C4A000" stroke-width="0.7399945" fill="#EDD400" fill-rule="nonzero"/>
        <path d="M-309.45938 464.0207C -309.45938 474.39636 -313.12772 483.2525 -320.4644 490.58917C -327.8011 497.92584 -336.65723 501.59418 -347.03287 501.59418C -357.4085 501.59418 -366.26465 497.92584 -373.60135 490.58917C -380.93802 483.2525 -384.60635 474.39636 -384.60635 464.0207C -384.60635 453.64508 -380.93802 444.7889 -373.60135 437.4522C -366.26465 430.11557 -357.4085 426.44724 -347.03287 426.4472C -336.65723 426.44724 -327.8011 430.11557 -320.4644 437.4522C -313.12772 444.7889 -309.45938 453.64508 -309.45938 464.0207C -309.45938 464.45795 -309.467 464.89502 -309.48227 465.332" stroke="none" fill="#8F5902" fill-rule="nonzero"/>
	</g>
</g>
</svg>