<?xml version="1.0" encoding="UTF-8" standalone="no"?>
<svg
   id="body_1"
   width="60"
   height="60"
   version="1.1"
   sodipodi:docname="notable.svg"
   inkscape:version="1.2.2 (732a01da63, 2022-12-09)"
   xmlns:inkscape="http://www.inkscape.org/namespaces/inkscape"
   xmlns:sodipodi="http://sodipodi.sourceforge.net/DTD/sodipodi-0.dtd"
   xmlns="http://www.w3.org/2000/svg"
   xmlns:svg="http://www.w3.org/2000/svg">
  <defs
     id="defs430" />
  <sodipodi:namedview
     id="namedview428"
     pagecolor="#ffffff"
     bordercolor="#666666"
     borderopacity="1.0"
     inkscape:showpageshadow="2"
     inkscape:pageopacity="0.0"
     inkscape:pagecheckerboard="0"
     inkscape:deskcolor="#d1d1d1"
     showgrid="false"
     inkscape:zoom="8.55"
     inkscape:cx="49.239766"
     inkscape:cy="31.345029"
     inkscape:window-width="1920"
     inkscape:window-height="1009"
     inkscape:window-x="-8"
     inkscape:window-y="-8"
     inkscape:window-maximized="1"
     inkscape:current-layer="body_1" />
  <g
     transform="matrix(0.36115097,0,0,0.35599385,5.1685991,5.1226208)"
     id="g425"
     style="stroke-width:1.99731">
    <g
       transform="translate(415.789,-394.204)"
       id="g423"
       style="stroke-width:1.99731">
      <path
         d="m -347.03275,394.67935 c -5.04575,4.06931 -7.53469,11.48125 -8.62341,20.43878 -4.08621,-8.04513 -8.9595,-14.15893 -15.09284,-16.25726 -3.34963,5.54965 -3.15356,13.36588 -1.11294,22.15549 -6.59131,-6.16223 -13.2616,-10.24051 -19.74261,-10.11456 -1.24955,6.3606 1.60812,13.63845 6.53198,21.20013 -8.30151,-3.53633 -15.96451,-5.08733 -22.01166,-2.75235 1.00128,6.40452 6.17587,12.26599 13.38907,17.68759 -9.01034,-0.4837 -16.74174,0.67966 -21.62558,4.94211 3.13134,5.67584 9.99866,9.41394 18.63114,12.04156 -8.63248,2.62711 -15.49973,6.3646 -18.63126,12.04032 4.88373,4.26254 12.61526,5.42669 21.62573,4.94344 -7.21327,5.42115 -12.38803,11.2818 -13.38947,17.68632 6.0471,2.33514 13.71064,0.7846 22.01246,-2.75128 -4.92414,7.56131 -7.78232,14.83846 -6.5329,21.19926 6.48111,0.12605 13.1521,-3.9522 19.74396,-10.11436 -2.04105,8.78956 -2.23795,16.60546 1.11163,22.15536 6.13299,-2.09805 11.00677,-8.21146 15.09335,-16.25564 1.08884,8.95648 3.57798,16.36828 8.62342,20.4378 5.04562,-4.07013 7.53393,-11.48206 8.62218,-20.43903 4.08662,8.04457 8.96064,14.15851 15.0939,16.25702 3.3493,-5.55035 3.1525,-13.36635 1.11164,-22.15548 6.59159,6.16183 13.26291,10.24003 19.74408,10.11433 1.249,-6.36104 -1.60928,-13.6383 -6.53302,-21.19923 8.30146,3.5357 15.9653,5.08609 22.0126,2.75128 -1.00195,-6.40455 -6.1766,-12.26535 -13.38934,-17.68631 9.01001,0.48316 16.74186,-0.68104 21.62586,-4.94344 -3.13202,-5.6756 -9.99915,-9.4131 -18.63102,-12.0402 8.63184,-2.62754 15.4991,-6.366 18.63074,-12.0417 -4.88434,-4.26217 -12.61566,-5.42565 -21.62558,-4.94195 7.21271,-5.42141 12.38734,-11.28323 13.38892,-17.68775 -6.04755,-2.33462 -13.71063,-0.78332 -22.01178,2.75276 4.9236,-7.5615 7.7814,-14.83966 6.5321,-21.20056 -6.48126,-0.12546 -13.15164,3.9531 -19.74276,10.11495 2.04049,-8.78939 2.23656,-16.60598 -1.11294,-22.15603 -6.13364,2.09906 -11.0068,8.21358 -15.0931,16.25878 -1.08812,-8.95812 -3.57646,-16.37045 -8.62245,-20.44018 v 0 z"
         stroke="#c4a000"
         stroke-width="1.47801"
         fill="#edd400"
         fill-rule="nonzero"
         id="path419" />
      <path
         d="m -309.45938,464.0207 c 0,10.37566 -3.66834,19.2318 -11.00502,26.56847 -7.3367,7.33667 -16.19283,11.00501 -26.56847,11.00501 -10.37563,0 -19.23178,-3.66834 -26.56848,-11.00501 -7.33667,-7.33667 -11.005,-16.19281 -11.005,-26.56847 0,-10.37562 3.66833,-19.2318 11.005,-26.5685 7.3367,-7.33663 16.19285,-11.00496 26.56848,-11.005 10.37564,4e-5 19.23177,3.66837 26.56847,11.005 7.33668,7.3367 11.00502,16.19288 11.00502,26.5685 0,0.43725 -0.008,0.87432 -0.0229,1.3113"
         stroke="none"
         fill="#8f5902"
         fill-rule="nonzero"
         id="path421"
         style="stroke-width:3.95936" />
    </g>
  </g>
</svg>
