<?xml version="1.0" encoding="UTF-8" standalone="no"?>
<!-- Uploaded to: SVG Repo, www.svgrepo.com, Generator: SVG Repo Mixer Tools -->

<svg
   height="30"
   width="60"
   version="1.1"
   id="Capa_1"
   viewBox="0 0 1.950075 0.97503752"
   xml:space="preserve"
   sodipodi:docname="r_blu.svg"
   inkscape:version="1.2.2 (732a01da63, 2022-12-09)"
   xmlns:inkscape="http://www.inkscape.org/namespaces/inkscape"
   xmlns:sodipodi="http://sodipodi.sourceforge.net/DTD/sodipodi-0.dtd"
   xmlns="http://www.w3.org/2000/svg"
   xmlns:svg="http://www.w3.org/2000/svg"><defs
   id="defs201" /><sodipodi:namedview
   id="namedview199"
   pagecolor="#ffffff"
   bordercolor="#666666"
   borderopacity="1.0"
   inkscape:showpageshadow="2"
   inkscape:pageopacity="0.0"
   inkscape:pagecheckerboard="0"
   inkscape:deskcolor="#d1d1d1"
   showgrid="false"
   inkscape:zoom="6.045763"
   inkscape:cx="84.191193"
   inkscape:cy="-11.909167"
   inkscape:window-width="1920"
   inkscape:window-height="1009"
   inkscape:window-x="-8"
   inkscape:window-y="-8"
   inkscape:window-maximized="1"
   inkscape:current-layer="Capa_1" />
<g
   id="g196"
   transform="matrix(0.33333334,0,0,0.33333334,0.10849742,-2.3507874)"
   style="stroke-width:3">
	<g
   id="g194"
   transform="matrix(0.18750279,0,0,0.18750279,0.16211644,6.1566024)"
   style="stroke-width:15.9998">
		<path
   style="fill:#030104;stroke-width:15.9998"
   d="M 2.737,8.325 C 2.72,8.325 2.706,8.334 2.695,8.347 1.544,9.968 0.85,11.065 0.13,12.397 l -0.072,0.147 -0.021,0.047 c -0.062,0.129 -0.046,0.272 0.04,0.408 0.426,0.666 2.813,1.444 8.144,1.444 3.975,0 8.197,-0.642 8.197,-1.831 0,-1.148 -4.17,-1.834 -8.197,-1.834 -1.338,0 -2.662,0.188 -3.044,0.248 C 5.541,10.465 7.054,8.428 7.07,8.407 7.077,8.398 7.082,8.388 7.082,8.377 7.082,8.369 7.079,8.361 7.076,8.353 7.064,8.337 7.047,8.325 7.029,8.325 H 2.737 m 1.553,4.288 c 0,-0.248 1.495,-0.595 3.931,-0.595 2.435,0 3.928,0.347 3.928,0.595 0,0.248 -1.493,0.594 -3.928,0.594 -2.436,0 -3.931,-0.346 -3.931,-0.594"
   id="path190" />
		<path
   style="fill:#030104;stroke-width:15.9998"
   d="m 5.753,18.595 c 0,0 19.818,0.806 20.241,-6.12 0.342,-5.618 -13.733,-5.084 -13.746,-5.084 -0.013,0 -0.109,0.009 -0.109,0.089 0,0.067 0.05,0.09 0.101,0.09 3.903,0 10.254,1.55 10.047,4.909 -0.167,2.736 -5.122,5.938 -16.527,5.938 -0.068,0 -0.113,0.047 -0.113,0.089 0,0.042 0.025,0.081 0.106,0.089"
   id="path192" />
	</g>
</g>
</svg>
