<?xml version="1.0" encoding="UTF-8" standalone="no"?>
<svg
   version="1.1"
   x="0px"
   y="0px"
   viewBox="0 0 60 60.000001"
   enable-background="new 0 0 96 96"
   xml:space="preserve"
   id="svg43"
   sodipodi:docname="itype_things_musical_insturments.svg"
   width="60"
   height="60"
   inkscape:version="1.2.2 (732a01da63, 2022-12-09)"
   xmlns:inkscape="http://www.inkscape.org/namespaces/inkscape"
   xmlns:sodipodi="http://sodipodi.sourceforge.net/DTD/sodipodi-0.dtd"
   xmlns="http://www.w3.org/2000/svg"
   xmlns:svg="http://www.w3.org/2000/svg"><defs
     id="defs47" /><sodipodi:namedview
     id="namedview45"
     pagecolor="#ffffff"
     bordercolor="#666666"
     borderopacity="1.0"
     inkscape:showpageshadow="2"
     inkscape:pageopacity="0.0"
     inkscape:pagecheckerboard="0"
     inkscape:deskcolor="#d1d1d1"
     showgrid="false"
     showguides="false"
     inkscape:zoom="4"
     inkscape:cx="94.5"
     inkscape:cy="79.75"
     inkscape:window-width="1920"
     inkscape:window-height="1009"
     inkscape:window-x="-8"
     inkscape:window-y="-8"
     inkscape:window-maximized="1"
     inkscape:current-layer="svg43"><inkscape:grid
       type="xygrid"
       id="grid550"
       originx="5"
       originy="5.0000002" /><sodipodi:guide
       position="5.0000004,49.960816"
       orientation="0,51.891384"
       id="guide805"
       inkscape:locked="false" /><sodipodi:guide
       position="56.891385,49.960816"
       orientation="51.890823,0"
       id="guide807"
       inkscape:locked="false" /><sodipodi:guide
       position="56.891385,-1.9300081"
       orientation="0,-51.891384"
       id="guide809"
       inkscape:locked="false" /><sodipodi:guide
       position="5.0000004,-1.9300081"
       orientation="-51.890823,0"
       id="guide811"
       inkscape:locked="false" /></sodipodi:namedview><g
     id="g41"
     transform="matrix(0.96209871,0,0,0.96133238,-16.179298,-16.163776)"
     style="stroke-width:1.03981"><path
       fill="none"
       stroke="#000000"
       stroke-width="2.07961"
       stroke-linecap="round"
       stroke-linejoin="round"
       stroke-miterlimit="10"
       d="m 55.941,44.393 c 2.178,3.841 1.852,8.552 -1.115,11.519 -1.495,1.494 -3.43,2.316 -5.478,2.488 0.672,3.968 -0.437,8.066 -3.365,10.994 -4.99,4.99 -13.372,4.693 -18.724,-0.658 -5.347,-5.348 -5.644,-13.729 -0.653,-18.719 2.928,-2.928 7.035,-4.038 10.994,-3.365 0.172,-2.047 0.994,-3.982 2.488,-5.478 3.007,-3.007 7.805,-3.301 11.671,-1.028"
       id="path29" /><circle
       fill="none"
       stroke="#000000"
       stroke-width="2.07961"
       stroke-linecap="round"
       stroke-linejoin="round"
       stroke-miterlimit="10"
       cx="43.594002"
       cy="52.405998"
       r="4.1440001"
       id="circle31" /><line
       fill="none"
       stroke="#000000"
       stroke-width="2.07961"
       stroke-linecap="round"
       stroke-linejoin="round"
       stroke-miterlimit="10"
       x1="31.702999"
       y1="57.521999"
       x2="38.478001"
       y2="64.297997"
       id="line33" /><line
       fill="none"
       stroke="#000000"
       stroke-width="2.07961"
       stroke-linecap="round"
       stroke-linejoin="round"
       stroke-miterlimit="10"
       x1="33.284"
       y1="60.589001"
       x2="35.412998"
       y2="62.717999"
       id="line35" /><path
       fill="none"
       stroke="#000000"
       stroke-width="2.07961"
       stroke-linecap="round"
       stroke-linejoin="round"
       stroke-miterlimit="10"
       d="M 47.817,52.575 65.9,33.563 c 0.399,-0.399 0.399,-1.045 10e-4,-1.443 L 63.88,30.099 c -0.398,-0.397 -1.044,-0.396 -1.444,0.002 L 43.542,48.067"
       id="path37" /><path
       fill="none"
       stroke="#000000"
       stroke-width="2.07961"
       stroke-linecap="round"
       stroke-linejoin="round"
       stroke-miterlimit="10"
       d="m 64.648,28.081 c 0.262,0.262 0.262,0.688 0,0.95 l -0.926,0.91 2.329,2.329 0.919,-0.918 c 0.262,-0.263 0.687,-0.263 0.949,0 l 0.426,0.426 4.409,-4.35 c 0.262,-0.263 0.262,-0.688 0,-0.95 l -3.232,-3.232 c -0.262,-0.263 -0.688,-0.263 -0.95,0 l -4.379,4.38 z"
       id="path39" /></g></svg>
